<?xml version="1.0" encoding="utf-8" standalone="no"?>
<!DOCTYPE svg PUBLIC "-//W3C//DTD SVG 1.1//EN"
  "http://www.w3.org/Graphics/SVG/1.1/DTD/svg11.dtd">
<!-- Created with matplotlib (https://matplotlib.org/) -->
<svg height="288pt" version="1.1" viewBox="0 0 432 288" width="432pt" xmlns="http://www.w3.org/2000/svg" xmlns:xlink="http://www.w3.org/1999/xlink">
 <defs>
  <style type="text/css">
*{stroke-linecap:butt;stroke-linejoin:round;}
  </style>
 </defs>
 <g id="figure_1">
  <g id="patch_1">
   <path d="M 0 288 
L 432 288 
L 432 0 
L 0 0 
z
" style="fill:#ffffff;"/>
  </g>
  <g id="axes_1">
   <g id="patch_2">
    <path d="M 54 252 
L 388.8 252 
L 388.8 34.56 
L 54 34.56 
z
" style="fill:#ffffff;"/>
   </g>
   <g id="matplotlib.axis_1">
    <g id="xtick_1">
     <g id="line2d_1">
      <defs>
       <path d="M 0 0 
L 0 3.5 
" id="m0e818f135c" style="stroke:#000000;stroke-width:0.8;"/>
      </defs>
      <g>
       <use style="stroke:#000000;stroke-width:0.8;" x="54" xlink:href="#m0e818f135c" y="252"/>
      </g>
     </g>
     <g id="text_1">
      <!-- 0 -->
      <defs>
       <path d="M 31.78125 66.40625 
Q 24.171875 66.40625 20.328125 58.90625 
Q 16.5 51.421875 16.5 36.375 
Q 16.5 21.390625 20.328125 13.890625 
Q 24.171875 6.390625 31.78125 6.390625 
Q 39.453125 6.390625 43.28125 13.890625 
Q 47.125 21.390625 47.125 36.375 
Q 47.125 51.421875 43.28125 58.90625 
Q 39.453125 66.40625 31.78125 66.40625 
z
M 31.78125 74.21875 
Q 44.046875 74.21875 50.515625 64.515625 
Q 56.984375 54.828125 56.984375 36.375 
Q 56.984375 17.96875 50.515625 8.265625 
Q 44.046875 -1.421875 31.78125 -1.421875 
Q 19.53125 -1.421875 13.0625 8.265625 
Q 6.59375 17.96875 6.59375 36.375 
Q 6.59375 54.828125 13.0625 64.515625 
Q 19.53125 74.21875 31.78125 74.21875 
z
" id="DejaVuSans-48"/>
      </defs>
      <g transform="translate(50.81875 266.598437)scale(0.1 -0.1)">
       <use xlink:href="#DejaVuSans-48"/>
      </g>
     </g>
    </g>
    <g id="xtick_2">
     <g id="line2d_2">
      <g>
       <use style="stroke:#000000;stroke-width:0.8;" x="96.704082" xlink:href="#m0e818f135c" y="252"/>
      </g>
     </g>
     <g id="text_2">
      <!-- 250 -->
      <defs>
       <path d="M 19.1875 8.296875 
L 53.609375 8.296875 
L 53.609375 0 
L 7.328125 0 
L 7.328125 8.296875 
Q 12.9375 14.109375 22.625 23.890625 
Q 32.328125 33.6875 34.8125 36.53125 
Q 39.546875 41.84375 41.421875 45.53125 
Q 43.3125 49.21875 43.3125 52.78125 
Q 43.3125 58.59375 39.234375 62.25 
Q 35.15625 65.921875 28.609375 65.921875 
Q 23.96875 65.921875 18.8125 64.3125 
Q 13.671875 62.703125 7.8125 59.421875 
L 7.8125 69.390625 
Q 13.765625 71.78125 18.9375 73 
Q 24.125 74.21875 28.421875 74.21875 
Q 39.75 74.21875 46.484375 68.546875 
Q 53.21875 62.890625 53.21875 53.421875 
Q 53.21875 48.921875 51.53125 44.890625 
Q 49.859375 40.875 45.40625 35.40625 
Q 44.1875 33.984375 37.640625 27.21875 
Q 31.109375 20.453125 19.1875 8.296875 
z
" id="DejaVuSans-50"/>
       <path d="M 10.796875 72.90625 
L 49.515625 72.90625 
L 49.515625 64.59375 
L 19.828125 64.59375 
L 19.828125 46.734375 
Q 21.96875 47.46875 24.109375 47.828125 
Q 26.265625 48.1875 28.421875 48.1875 
Q 40.625 48.1875 47.75 41.5 
Q 54.890625 34.8125 54.890625 23.390625 
Q 54.890625 11.625 47.5625 5.09375 
Q 40.234375 -1.421875 26.90625 -1.421875 
Q 22.3125 -1.421875 17.546875 -0.640625 
Q 12.796875 0.140625 7.71875 1.703125 
L 7.71875 11.625 
Q 12.109375 9.234375 16.796875 8.0625 
Q 21.484375 6.890625 26.703125 6.890625 
Q 35.15625 6.890625 40.078125 11.328125 
Q 45.015625 15.765625 45.015625 23.390625 
Q 45.015625 31 40.078125 35.4375 
Q 35.15625 39.890625 26.703125 39.890625 
Q 22.75 39.890625 18.8125 39.015625 
Q 14.890625 38.140625 10.796875 36.28125 
z
" id="DejaVuSans-53"/>
      </defs>
      <g transform="translate(87.160332 266.598437)scale(0.1 -0.1)">
       <use xlink:href="#DejaVuSans-50"/>
       <use x="63.623047" xlink:href="#DejaVuSans-53"/>
       <use x="127.246094" xlink:href="#DejaVuSans-48"/>
      </g>
     </g>
    </g>
    <g id="xtick_3">
     <g id="line2d_3">
      <g>
       <use style="stroke:#000000;stroke-width:0.8;" x="139.408163" xlink:href="#m0e818f135c" y="252"/>
      </g>
     </g>
     <g id="text_3">
      <!-- 500 -->
      <g transform="translate(129.864413 266.598437)scale(0.1 -0.1)">
       <use xlink:href="#DejaVuSans-53"/>
       <use x="63.623047" xlink:href="#DejaVuSans-48"/>
       <use x="127.246094" xlink:href="#DejaVuSans-48"/>
      </g>
     </g>
    </g>
    <g id="xtick_4">
     <g id="line2d_4">
      <g>
       <use style="stroke:#000000;stroke-width:0.8;" x="182.112245" xlink:href="#m0e818f135c" y="252"/>
      </g>
     </g>
     <g id="text_4">
      <!-- 750 -->
      <defs>
       <path d="M 8.203125 72.90625 
L 55.078125 72.90625 
L 55.078125 68.703125 
L 28.609375 0 
L 18.3125 0 
L 43.21875 64.59375 
L 8.203125 64.59375 
z
" id="DejaVuSans-55"/>
      </defs>
      <g transform="translate(172.568495 266.598437)scale(0.1 -0.1)">
       <use xlink:href="#DejaVuSans-55"/>
       <use x="63.623047" xlink:href="#DejaVuSans-53"/>
       <use x="127.246094" xlink:href="#DejaVuSans-48"/>
      </g>
     </g>
    </g>
    <g id="xtick_5">
     <g id="line2d_5">
      <g>
       <use style="stroke:#000000;stroke-width:0.8;" x="224.816327" xlink:href="#m0e818f135c" y="252"/>
      </g>
     </g>
     <g id="text_5">
      <!-- 1000 -->
      <defs>
       <path d="M 12.40625 8.296875 
L 28.515625 8.296875 
L 28.515625 63.921875 
L 10.984375 60.40625 
L 10.984375 69.390625 
L 28.421875 72.90625 
L 38.28125 72.90625 
L 38.28125 8.296875 
L 54.390625 8.296875 
L 54.390625 0 
L 12.40625 0 
z
" id="DejaVuSans-49"/>
      </defs>
      <g transform="translate(212.091327 266.598437)scale(0.1 -0.1)">
       <use xlink:href="#DejaVuSans-49"/>
       <use x="63.623047" xlink:href="#DejaVuSans-48"/>
       <use x="127.246094" xlink:href="#DejaVuSans-48"/>
       <use x="190.869141" xlink:href="#DejaVuSans-48"/>
      </g>
     </g>
    </g>
    <g id="xtick_6">
     <g id="line2d_6">
      <g>
       <use style="stroke:#000000;stroke-width:0.8;" x="267.520408" xlink:href="#m0e818f135c" y="252"/>
      </g>
     </g>
     <g id="text_6">
      <!-- 1250 -->
      <g transform="translate(254.795408 266.598437)scale(0.1 -0.1)">
       <use xlink:href="#DejaVuSans-49"/>
       <use x="63.623047" xlink:href="#DejaVuSans-50"/>
       <use x="127.246094" xlink:href="#DejaVuSans-53"/>
       <use x="190.869141" xlink:href="#DejaVuSans-48"/>
      </g>
     </g>
    </g>
    <g id="xtick_7">
     <g id="line2d_7">
      <g>
       <use style="stroke:#000000;stroke-width:0.8;" x="310.22449" xlink:href="#m0e818f135c" y="252"/>
      </g>
     </g>
     <g id="text_7">
      <!-- 1500 -->
      <g transform="translate(297.49949 266.598437)scale(0.1 -0.1)">
       <use xlink:href="#DejaVuSans-49"/>
       <use x="63.623047" xlink:href="#DejaVuSans-53"/>
       <use x="127.246094" xlink:href="#DejaVuSans-48"/>
       <use x="190.869141" xlink:href="#DejaVuSans-48"/>
      </g>
     </g>
    </g>
    <g id="xtick_8">
     <g id="line2d_8">
      <g>
       <use style="stroke:#000000;stroke-width:0.8;" x="352.928571" xlink:href="#m0e818f135c" y="252"/>
      </g>
     </g>
     <g id="text_8">
      <!-- 1750 -->
      <g transform="translate(340.203571 266.598437)scale(0.1 -0.1)">
       <use xlink:href="#DejaVuSans-49"/>
       <use x="63.623047" xlink:href="#DejaVuSans-55"/>
       <use x="127.246094" xlink:href="#DejaVuSans-53"/>
       <use x="190.869141" xlink:href="#DejaVuSans-48"/>
      </g>
     </g>
    </g>
    <g id="text_9">
     <!-- time [arbitrary units] -->
     <defs>
      <path d="M 18.3125 70.21875 
L 18.3125 54.6875 
L 36.8125 54.6875 
L 36.8125 47.703125 
L 18.3125 47.703125 
L 18.3125 18.015625 
Q 18.3125 11.328125 20.140625 9.421875 
Q 21.96875 7.515625 27.59375 7.515625 
L 36.8125 7.515625 
L 36.8125 0 
L 27.59375 0 
Q 17.1875 0 13.234375 3.875 
Q 9.28125 7.765625 9.28125 18.015625 
L 9.28125 47.703125 
L 2.6875 47.703125 
L 2.6875 54.6875 
L 9.28125 54.6875 
L 9.28125 70.21875 
z
" id="DejaVuSans-116"/>
      <path d="M 9.421875 54.6875 
L 18.40625 54.6875 
L 18.40625 0 
L 9.421875 0 
z
M 9.421875 75.984375 
L 18.40625 75.984375 
L 18.40625 64.59375 
L 9.421875 64.59375 
z
" id="DejaVuSans-105"/>
      <path d="M 52 44.1875 
Q 55.375 50.25 60.0625 53.125 
Q 64.75 56 71.09375 56 
Q 79.640625 56 84.28125 50.015625 
Q 88.921875 44.046875 88.921875 33.015625 
L 88.921875 0 
L 79.890625 0 
L 79.890625 32.71875 
Q 79.890625 40.578125 77.09375 44.375 
Q 74.3125 48.1875 68.609375 48.1875 
Q 61.625 48.1875 57.5625 43.546875 
Q 53.515625 38.921875 53.515625 30.90625 
L 53.515625 0 
L 44.484375 0 
L 44.484375 32.71875 
Q 44.484375 40.625 41.703125 44.40625 
Q 38.921875 48.1875 33.109375 48.1875 
Q 26.21875 48.1875 22.15625 43.53125 
Q 18.109375 38.875 18.109375 30.90625 
L 18.109375 0 
L 9.078125 0 
L 9.078125 54.6875 
L 18.109375 54.6875 
L 18.109375 46.1875 
Q 21.1875 51.21875 25.484375 53.609375 
Q 29.78125 56 35.6875 56 
Q 41.65625 56 45.828125 52.96875 
Q 50 49.953125 52 44.1875 
z
" id="DejaVuSans-109"/>
      <path d="M 56.203125 29.59375 
L 56.203125 25.203125 
L 14.890625 25.203125 
Q 15.484375 15.921875 20.484375 11.0625 
Q 25.484375 6.203125 34.421875 6.203125 
Q 39.59375 6.203125 44.453125 7.46875 
Q 49.3125 8.734375 54.109375 11.28125 
L 54.109375 2.78125 
Q 49.265625 0.734375 44.1875 -0.34375 
Q 39.109375 -1.421875 33.890625 -1.421875 
Q 20.796875 -1.421875 13.15625 6.1875 
Q 5.515625 13.8125 5.515625 26.8125 
Q 5.515625 40.234375 12.765625 48.109375 
Q 20.015625 56 32.328125 56 
Q 43.359375 56 49.78125 48.890625 
Q 56.203125 41.796875 56.203125 29.59375 
z
M 47.21875 32.234375 
Q 47.125 39.59375 43.09375 43.984375 
Q 39.0625 48.390625 32.421875 48.390625 
Q 24.90625 48.390625 20.390625 44.140625 
Q 15.875 39.890625 15.1875 32.171875 
z
" id="DejaVuSans-101"/>
      <path id="DejaVuSans-32"/>
      <path d="M 8.59375 75.984375 
L 29.296875 75.984375 
L 29.296875 69 
L 17.578125 69 
L 17.578125 -6.203125 
L 29.296875 -6.203125 
L 29.296875 -13.1875 
L 8.59375 -13.1875 
z
" id="DejaVuSans-91"/>
      <path d="M 34.28125 27.484375 
Q 23.390625 27.484375 19.1875 25 
Q 14.984375 22.515625 14.984375 16.5 
Q 14.984375 11.71875 18.140625 8.90625 
Q 21.296875 6.109375 26.703125 6.109375 
Q 34.1875 6.109375 38.703125 11.40625 
Q 43.21875 16.703125 43.21875 25.484375 
L 43.21875 27.484375 
z
M 52.203125 31.203125 
L 52.203125 0 
L 43.21875 0 
L 43.21875 8.296875 
Q 40.140625 3.328125 35.546875 0.953125 
Q 30.953125 -1.421875 24.3125 -1.421875 
Q 15.921875 -1.421875 10.953125 3.296875 
Q 6 8.015625 6 15.921875 
Q 6 25.140625 12.171875 29.828125 
Q 18.359375 34.515625 30.609375 34.515625 
L 43.21875 34.515625 
L 43.21875 35.40625 
Q 43.21875 41.609375 39.140625 45 
Q 35.0625 48.390625 27.6875 48.390625 
Q 23 48.390625 18.546875 47.265625 
Q 14.109375 46.140625 10.015625 43.890625 
L 10.015625 52.203125 
Q 14.9375 54.109375 19.578125 55.046875 
Q 24.21875 56 28.609375 56 
Q 40.484375 56 46.34375 49.84375 
Q 52.203125 43.703125 52.203125 31.203125 
z
" id="DejaVuSans-97"/>
      <path d="M 41.109375 46.296875 
Q 39.59375 47.171875 37.8125 47.578125 
Q 36.03125 48 33.890625 48 
Q 26.265625 48 22.1875 43.046875 
Q 18.109375 38.09375 18.109375 28.8125 
L 18.109375 0 
L 9.078125 0 
L 9.078125 54.6875 
L 18.109375 54.6875 
L 18.109375 46.1875 
Q 20.953125 51.171875 25.484375 53.578125 
Q 30.03125 56 36.53125 56 
Q 37.453125 56 38.578125 55.875 
Q 39.703125 55.765625 41.0625 55.515625 
z
" id="DejaVuSans-114"/>
      <path d="M 48.6875 27.296875 
Q 48.6875 37.203125 44.609375 42.84375 
Q 40.53125 48.484375 33.40625 48.484375 
Q 26.265625 48.484375 22.1875 42.84375 
Q 18.109375 37.203125 18.109375 27.296875 
Q 18.109375 17.390625 22.1875 11.75 
Q 26.265625 6.109375 33.40625 6.109375 
Q 40.53125 6.109375 44.609375 11.75 
Q 48.6875 17.390625 48.6875 27.296875 
z
M 18.109375 46.390625 
Q 20.953125 51.265625 25.265625 53.625 
Q 29.59375 56 35.59375 56 
Q 45.5625 56 51.78125 48.09375 
Q 58.015625 40.1875 58.015625 27.296875 
Q 58.015625 14.40625 51.78125 6.484375 
Q 45.5625 -1.421875 35.59375 -1.421875 
Q 29.59375 -1.421875 25.265625 0.953125 
Q 20.953125 3.328125 18.109375 8.203125 
L 18.109375 0 
L 9.078125 0 
L 9.078125 75.984375 
L 18.109375 75.984375 
z
" id="DejaVuSans-98"/>
      <path d="M 32.171875 -5.078125 
Q 28.375 -14.84375 24.75 -17.8125 
Q 21.140625 -20.796875 15.09375 -20.796875 
L 7.90625 -20.796875 
L 7.90625 -13.28125 
L 13.1875 -13.28125 
Q 16.890625 -13.28125 18.9375 -11.515625 
Q 21 -9.765625 23.484375 -3.21875 
L 25.09375 0.875 
L 2.984375 54.6875 
L 12.5 54.6875 
L 29.59375 11.921875 
L 46.6875 54.6875 
L 56.203125 54.6875 
z
" id="DejaVuSans-121"/>
      <path d="M 8.5 21.578125 
L 8.5 54.6875 
L 17.484375 54.6875 
L 17.484375 21.921875 
Q 17.484375 14.15625 20.5 10.265625 
Q 23.53125 6.390625 29.59375 6.390625 
Q 36.859375 6.390625 41.078125 11.03125 
Q 45.3125 15.671875 45.3125 23.6875 
L 45.3125 54.6875 
L 54.296875 54.6875 
L 54.296875 0 
L 45.3125 0 
L 45.3125 8.40625 
Q 42.046875 3.421875 37.71875 1 
Q 33.40625 -1.421875 27.6875 -1.421875 
Q 18.265625 -1.421875 13.375 4.4375 
Q 8.5 10.296875 8.5 21.578125 
z
M 31.109375 56 
z
" id="DejaVuSans-117"/>
      <path d="M 54.890625 33.015625 
L 54.890625 0 
L 45.90625 0 
L 45.90625 32.71875 
Q 45.90625 40.484375 42.875 44.328125 
Q 39.84375 48.1875 33.796875 48.1875 
Q 26.515625 48.1875 22.3125 43.546875 
Q 18.109375 38.921875 18.109375 30.90625 
L 18.109375 0 
L 9.078125 0 
L 9.078125 54.6875 
L 18.109375 54.6875 
L 18.109375 46.1875 
Q 21.34375 51.125 25.703125 53.5625 
Q 30.078125 56 35.796875 56 
Q 45.21875 56 50.046875 50.171875 
Q 54.890625 44.34375 54.890625 33.015625 
z
" id="DejaVuSans-110"/>
      <path d="M 44.28125 53.078125 
L 44.28125 44.578125 
Q 40.484375 46.53125 36.375 47.5 
Q 32.28125 48.484375 27.875 48.484375 
Q 21.1875 48.484375 17.84375 46.4375 
Q 14.5 44.390625 14.5 40.28125 
Q 14.5 37.15625 16.890625 35.375 
Q 19.28125 33.59375 26.515625 31.984375 
L 29.59375 31.296875 
Q 39.15625 29.25 43.1875 25.515625 
Q 47.21875 21.78125 47.21875 15.09375 
Q 47.21875 7.46875 41.1875 3.015625 
Q 35.15625 -1.421875 24.609375 -1.421875 
Q 20.21875 -1.421875 15.453125 -0.5625 
Q 10.6875 0.296875 5.421875 2 
L 5.421875 11.28125 
Q 10.40625 8.6875 15.234375 7.390625 
Q 20.0625 6.109375 24.8125 6.109375 
Q 31.15625 6.109375 34.5625 8.28125 
Q 37.984375 10.453125 37.984375 14.40625 
Q 37.984375 18.0625 35.515625 20.015625 
Q 33.0625 21.96875 24.703125 23.78125 
L 21.578125 24.515625 
Q 13.234375 26.265625 9.515625 29.90625 
Q 5.8125 33.546875 5.8125 39.890625 
Q 5.8125 47.609375 11.28125 51.796875 
Q 16.75 56 26.8125 56 
Q 31.78125 56 36.171875 55.265625 
Q 40.578125 54.546875 44.28125 53.078125 
z
" id="DejaVuSans-115"/>
      <path d="M 30.421875 75.984375 
L 30.421875 -13.1875 
L 9.71875 -13.1875 
L 9.71875 -6.203125 
L 21.390625 -6.203125 
L 21.390625 69 
L 9.71875 69 
L 9.71875 75.984375 
z
" id="DejaVuSans-93"/>
     </defs>
     <g transform="translate(168.955469 280.276563)scale(0.1 -0.1)">
      <use xlink:href="#DejaVuSans-116"/>
      <use x="39.208984" xlink:href="#DejaVuSans-105"/>
      <use x="66.992188" xlink:href="#DejaVuSans-109"/>
      <use x="164.404297" xlink:href="#DejaVuSans-101"/>
      <use x="225.927734" xlink:href="#DejaVuSans-32"/>
      <use x="257.714844" xlink:href="#DejaVuSans-91"/>
      <use x="296.728516" xlink:href="#DejaVuSans-97"/>
      <use x="358.007812" xlink:href="#DejaVuSans-114"/>
      <use x="399.121094" xlink:href="#DejaVuSans-98"/>
      <use x="462.597656" xlink:href="#DejaVuSans-105"/>
      <use x="490.380859" xlink:href="#DejaVuSans-116"/>
      <use x="529.589844" xlink:href="#DejaVuSans-114"/>
      <use x="570.703125" xlink:href="#DejaVuSans-97"/>
      <use x="631.982422" xlink:href="#DejaVuSans-114"/>
      <use x="673.095703" xlink:href="#DejaVuSans-121"/>
      <use x="732.275391" xlink:href="#DejaVuSans-32"/>
      <use x="764.0625" xlink:href="#DejaVuSans-117"/>
      <use x="827.441406" xlink:href="#DejaVuSans-110"/>
      <use x="890.820312" xlink:href="#DejaVuSans-105"/>
      <use x="918.603516" xlink:href="#DejaVuSans-116"/>
      <use x="957.8125" xlink:href="#DejaVuSans-115"/>
      <use x="1009.912109" xlink:href="#DejaVuSans-93"/>
     </g>
    </g>
   </g>
   <g id="matplotlib.axis_2">
    <g id="ytick_1">
     <g id="line2d_9">
      <defs>
       <path d="M 0 0 
L -3.5 0 
" id="m6770625bed" style="stroke:#000000;stroke-width:0.8;"/>
      </defs>
      <g>
       <use style="stroke:#000000;stroke-width:0.8;" x="54" xlink:href="#m6770625bed" y="236.079824"/>
      </g>
     </g>
     <g id="text_10">
      <!-- 600 -->
      <defs>
       <path d="M 33.015625 40.375 
Q 26.375 40.375 22.484375 35.828125 
Q 18.609375 31.296875 18.609375 23.390625 
Q 18.609375 15.53125 22.484375 10.953125 
Q 26.375 6.390625 33.015625 6.390625 
Q 39.65625 6.390625 43.53125 10.953125 
Q 47.40625 15.53125 47.40625 23.390625 
Q 47.40625 31.296875 43.53125 35.828125 
Q 39.65625 40.375 33.015625 40.375 
z
M 52.59375 71.296875 
L 52.59375 62.3125 
Q 48.875 64.0625 45.09375 64.984375 
Q 41.3125 65.921875 37.59375 65.921875 
Q 27.828125 65.921875 22.671875 59.328125 
Q 17.53125 52.734375 16.796875 39.40625 
Q 19.671875 43.65625 24.015625 45.921875 
Q 28.375 48.1875 33.59375 48.1875 
Q 44.578125 48.1875 50.953125 41.515625 
Q 57.328125 34.859375 57.328125 23.390625 
Q 57.328125 12.15625 50.6875 5.359375 
Q 44.046875 -1.421875 33.015625 -1.421875 
Q 20.359375 -1.421875 13.671875 8.265625 
Q 6.984375 17.96875 6.984375 36.375 
Q 6.984375 53.65625 15.1875 63.9375 
Q 23.390625 74.21875 37.203125 74.21875 
Q 40.921875 74.21875 44.703125 73.484375 
Q 48.484375 72.75 52.59375 71.296875 
z
" id="DejaVuSans-54"/>
      </defs>
      <g transform="translate(27.9125 239.879042)scale(0.1 -0.1)">
       <use xlink:href="#DejaVuSans-54"/>
       <use x="63.623047" xlink:href="#DejaVuSans-48"/>
       <use x="127.246094" xlink:href="#DejaVuSans-48"/>
      </g>
     </g>
    </g>
    <g id="ytick_2">
     <g id="line2d_10">
      <g>
       <use style="stroke:#000000;stroke-width:0.8;" x="54" xlink:href="#m6770625bed" y="204.140459"/>
      </g>
     </g>
     <g id="text_11">
      <!-- 700 -->
      <g transform="translate(27.9125 207.939678)scale(0.1 -0.1)">
       <use xlink:href="#DejaVuSans-55"/>
       <use x="63.623047" xlink:href="#DejaVuSans-48"/>
       <use x="127.246094" xlink:href="#DejaVuSans-48"/>
      </g>
     </g>
    </g>
    <g id="ytick_3">
     <g id="line2d_11">
      <g>
       <use style="stroke:#000000;stroke-width:0.8;" x="54" xlink:href="#m6770625bed" y="172.201095"/>
      </g>
     </g>
     <g id="text_12">
      <!-- 800 -->
      <defs>
       <path d="M 31.78125 34.625 
Q 24.75 34.625 20.71875 30.859375 
Q 16.703125 27.09375 16.703125 20.515625 
Q 16.703125 13.921875 20.71875 10.15625 
Q 24.75 6.390625 31.78125 6.390625 
Q 38.8125 6.390625 42.859375 10.171875 
Q 46.921875 13.96875 46.921875 20.515625 
Q 46.921875 27.09375 42.890625 30.859375 
Q 38.875 34.625 31.78125 34.625 
z
M 21.921875 38.8125 
Q 15.578125 40.375 12.03125 44.71875 
Q 8.5 49.078125 8.5 55.328125 
Q 8.5 64.0625 14.71875 69.140625 
Q 20.953125 74.21875 31.78125 74.21875 
Q 42.671875 74.21875 48.875 69.140625 
Q 55.078125 64.0625 55.078125 55.328125 
Q 55.078125 49.078125 51.53125 44.71875 
Q 48 40.375 41.703125 38.8125 
Q 48.828125 37.15625 52.796875 32.3125 
Q 56.78125 27.484375 56.78125 20.515625 
Q 56.78125 9.90625 50.3125 4.234375 
Q 43.84375 -1.421875 31.78125 -1.421875 
Q 19.734375 -1.421875 13.25 4.234375 
Q 6.78125 9.90625 6.78125 20.515625 
Q 6.78125 27.484375 10.78125 32.3125 
Q 14.796875 37.15625 21.921875 38.8125 
z
M 18.3125 54.390625 
Q 18.3125 48.734375 21.84375 45.5625 
Q 25.390625 42.390625 31.78125 42.390625 
Q 38.140625 42.390625 41.71875 45.5625 
Q 45.3125 48.734375 45.3125 54.390625 
Q 45.3125 60.0625 41.71875 63.234375 
Q 38.140625 66.40625 31.78125 66.40625 
Q 25.390625 66.40625 21.84375 63.234375 
Q 18.3125 60.0625 18.3125 54.390625 
z
" id="DejaVuSans-56"/>
      </defs>
      <g transform="translate(27.9125 176.000313)scale(0.1 -0.1)">
       <use xlink:href="#DejaVuSans-56"/>
       <use x="63.623047" xlink:href="#DejaVuSans-48"/>
       <use x="127.246094" xlink:href="#DejaVuSans-48"/>
      </g>
     </g>
    </g>
    <g id="ytick_4">
     <g id="line2d_12">
      <g>
       <use style="stroke:#000000;stroke-width:0.8;" x="54" xlink:href="#m6770625bed" y="140.26173"/>
      </g>
     </g>
     <g id="text_13">
      <!-- 900 -->
      <defs>
       <path d="M 10.984375 1.515625 
L 10.984375 10.5 
Q 14.703125 8.734375 18.5 7.8125 
Q 22.3125 6.890625 25.984375 6.890625 
Q 35.75 6.890625 40.890625 13.453125 
Q 46.046875 20.015625 46.78125 33.40625 
Q 43.953125 29.203125 39.59375 26.953125 
Q 35.25 24.703125 29.984375 24.703125 
Q 19.046875 24.703125 12.671875 31.3125 
Q 6.296875 37.9375 6.296875 49.421875 
Q 6.296875 60.640625 12.9375 67.421875 
Q 19.578125 74.21875 30.609375 74.21875 
Q 43.265625 74.21875 49.921875 64.515625 
Q 56.59375 54.828125 56.59375 36.375 
Q 56.59375 19.140625 48.40625 8.859375 
Q 40.234375 -1.421875 26.421875 -1.421875 
Q 22.703125 -1.421875 18.890625 -0.6875 
Q 15.09375 0.046875 10.984375 1.515625 
z
M 30.609375 32.421875 
Q 37.25 32.421875 41.125 36.953125 
Q 45.015625 41.5 45.015625 49.421875 
Q 45.015625 57.28125 41.125 61.84375 
Q 37.25 66.40625 30.609375 66.40625 
Q 23.96875 66.40625 20.09375 61.84375 
Q 16.21875 57.28125 16.21875 49.421875 
Q 16.21875 41.5 20.09375 36.953125 
Q 23.96875 32.421875 30.609375 32.421875 
z
" id="DejaVuSans-57"/>
      </defs>
      <g transform="translate(27.9125 144.060949)scale(0.1 -0.1)">
       <use xlink:href="#DejaVuSans-57"/>
       <use x="63.623047" xlink:href="#DejaVuSans-48"/>
       <use x="127.246094" xlink:href="#DejaVuSans-48"/>
      </g>
     </g>
    </g>
    <g id="ytick_5">
     <g id="line2d_13">
      <g>
       <use style="stroke:#000000;stroke-width:0.8;" x="54" xlink:href="#m6770625bed" y="108.322365"/>
      </g>
     </g>
     <g id="text_14">
      <!-- 1000 -->
      <g transform="translate(21.55 112.121584)scale(0.1 -0.1)">
       <use xlink:href="#DejaVuSans-49"/>
       <use x="63.623047" xlink:href="#DejaVuSans-48"/>
       <use x="127.246094" xlink:href="#DejaVuSans-48"/>
       <use x="190.869141" xlink:href="#DejaVuSans-48"/>
      </g>
     </g>
    </g>
    <g id="ytick_6">
     <g id="line2d_14">
      <g>
       <use style="stroke:#000000;stroke-width:0.8;" x="54" xlink:href="#m6770625bed" y="76.383001"/>
      </g>
     </g>
     <g id="text_15">
      <!-- 1100 -->
      <g transform="translate(21.55 80.18222)scale(0.1 -0.1)">
       <use xlink:href="#DejaVuSans-49"/>
       <use x="63.623047" xlink:href="#DejaVuSans-49"/>
       <use x="127.246094" xlink:href="#DejaVuSans-48"/>
       <use x="190.869141" xlink:href="#DejaVuSans-48"/>
      </g>
     </g>
    </g>
    <g id="ytick_7">
     <g id="line2d_15">
      <g>
       <use style="stroke:#000000;stroke-width:0.8;" x="54" xlink:href="#m6770625bed" y="44.443636"/>
      </g>
     </g>
     <g id="text_16">
      <!-- 1200 -->
      <g transform="translate(21.55 48.242855)scale(0.1 -0.1)">
       <use xlink:href="#DejaVuSans-49"/>
       <use x="63.623047" xlink:href="#DejaVuSans-50"/>
       <use x="127.246094" xlink:href="#DejaVuSans-48"/>
       <use x="190.869141" xlink:href="#DejaVuSans-48"/>
      </g>
     </g>
    </g>
    <g id="text_17">
     <!-- %CPU [1] -->
     <defs>
      <path d="M 72.703125 32.078125 
Q 68.453125 32.078125 66.03125 28.46875 
Q 63.625 24.859375 63.625 18.40625 
Q 63.625 12.0625 66.03125 8.421875 
Q 68.453125 4.78125 72.703125 4.78125 
Q 76.859375 4.78125 79.265625 8.421875 
Q 81.6875 12.0625 81.6875 18.40625 
Q 81.6875 24.8125 79.265625 28.4375 
Q 76.859375 32.078125 72.703125 32.078125 
z
M 72.703125 38.28125 
Q 80.421875 38.28125 84.953125 32.90625 
Q 89.5 27.546875 89.5 18.40625 
Q 89.5 9.28125 84.9375 3.921875 
Q 80.375 -1.421875 72.703125 -1.421875 
Q 64.890625 -1.421875 60.34375 3.921875 
Q 55.8125 9.28125 55.8125 18.40625 
Q 55.8125 27.59375 60.375 32.9375 
Q 64.9375 38.28125 72.703125 38.28125 
z
M 22.3125 68.015625 
Q 18.109375 68.015625 15.6875 64.375 
Q 13.28125 60.75 13.28125 54.390625 
Q 13.28125 47.953125 15.671875 44.328125 
Q 18.0625 40.71875 22.3125 40.71875 
Q 26.5625 40.71875 28.96875 44.328125 
Q 31.390625 47.953125 31.390625 54.390625 
Q 31.390625 60.6875 28.953125 64.34375 
Q 26.515625 68.015625 22.3125 68.015625 
z
M 66.40625 74.21875 
L 74.21875 74.21875 
L 28.609375 -1.421875 
L 20.796875 -1.421875 
z
M 22.3125 74.21875 
Q 30.03125 74.21875 34.609375 68.875 
Q 39.203125 63.53125 39.203125 54.390625 
Q 39.203125 45.171875 34.640625 39.84375 
Q 30.078125 34.515625 22.3125 34.515625 
Q 14.546875 34.515625 10.03125 39.859375 
Q 5.515625 45.21875 5.515625 54.390625 
Q 5.515625 63.484375 10.046875 68.84375 
Q 14.59375 74.21875 22.3125 74.21875 
z
" id="DejaVuSans-37"/>
      <path d="M 64.40625 67.28125 
L 64.40625 56.890625 
Q 59.421875 61.53125 53.78125 63.8125 
Q 48.140625 66.109375 41.796875 66.109375 
Q 29.296875 66.109375 22.65625 58.46875 
Q 16.015625 50.828125 16.015625 36.375 
Q 16.015625 21.96875 22.65625 14.328125 
Q 29.296875 6.6875 41.796875 6.6875 
Q 48.140625 6.6875 53.78125 8.984375 
Q 59.421875 11.28125 64.40625 15.921875 
L 64.40625 5.609375 
Q 59.234375 2.09375 53.4375 0.328125 
Q 47.65625 -1.421875 41.21875 -1.421875 
Q 24.65625 -1.421875 15.125 8.703125 
Q 5.609375 18.84375 5.609375 36.375 
Q 5.609375 53.953125 15.125 64.078125 
Q 24.65625 74.21875 41.21875 74.21875 
Q 47.75 74.21875 53.53125 72.484375 
Q 59.328125 70.75 64.40625 67.28125 
z
" id="DejaVuSans-67"/>
      <path d="M 19.671875 64.796875 
L 19.671875 37.40625 
L 32.078125 37.40625 
Q 38.96875 37.40625 42.71875 40.96875 
Q 46.484375 44.53125 46.484375 51.125 
Q 46.484375 57.671875 42.71875 61.234375 
Q 38.96875 64.796875 32.078125 64.796875 
z
M 9.8125 72.90625 
L 32.078125 72.90625 
Q 44.34375 72.90625 50.609375 67.359375 
Q 56.890625 61.8125 56.890625 51.125 
Q 56.890625 40.328125 50.609375 34.8125 
Q 44.34375 29.296875 32.078125 29.296875 
L 19.671875 29.296875 
L 19.671875 0 
L 9.8125 0 
z
" id="DejaVuSans-80"/>
      <path d="M 8.6875 72.90625 
L 18.609375 72.90625 
L 18.609375 28.609375 
Q 18.609375 16.890625 22.84375 11.734375 
Q 27.09375 6.59375 36.625 6.59375 
Q 46.09375 6.59375 50.34375 11.734375 
Q 54.59375 16.890625 54.59375 28.609375 
L 54.59375 72.90625 
L 64.5 72.90625 
L 64.5 27.390625 
Q 64.5 13.140625 57.4375 5.859375 
Q 50.390625 -1.421875 36.625 -1.421875 
Q 22.796875 -1.421875 15.734375 5.859375 
Q 8.6875 13.140625 8.6875 27.390625 
z
" id="DejaVuSans-85"/>
     </defs>
     <g transform="translate(15.470312 166.868281)rotate(-90)scale(0.1 -0.1)">
      <use xlink:href="#DejaVuSans-37"/>
      <use x="95.019531" xlink:href="#DejaVuSans-67"/>
      <use x="164.84375" xlink:href="#DejaVuSans-80"/>
      <use x="225.146484" xlink:href="#DejaVuSans-85"/>
      <use x="298.339844" xlink:href="#DejaVuSans-32"/>
      <use x="330.126953" xlink:href="#DejaVuSans-91"/>
      <use x="369.140625" xlink:href="#DejaVuSans-49"/>
      <use x="432.763672" xlink:href="#DejaVuSans-93"/>
     </g>
    </g>
   </g>
   <g id="line2d_16">
    <path clip-path="url(#p85c94c415e)" d="M 54 89.254565 
L 54.341633 74.690215 
L 54.512449 80.407361 
L 54.683265 99.155768 
L 54.854082 89.318444 
L 55.195714 92.863713 
L 55.366531 95.51468 
L 55.537347 70.761673 
L 55.708163 91.52226 
L 55.87898 92.320744 
L 56.049796 108.290426 
L 56.220612 109.056971 
L 56.391429 132.085253 
L 56.733061 99.826495 
L 56.903878 58.049806 
L 57.074694 100.433342 
L 57.24551 114.965753 
L 57.416327 84.46366 
L 57.587143 110.622 
L 57.928776 82.515359 
L 58.099592 81.014209 
L 58.270408 68.941129 
L 58.782857 96.377043 
L 58.953673 128.891316 
L 59.12449 117.520902 
L 59.295306 129.274589 
L 59.807755 90.723776 
L 59.978571 91.937471 
L 60.149388 85.741235 
L 60.320204 104.777096 
L 60.49102 62.617135 
L 60.661837 91.777775 
L 60.832653 92.00135 
L 61.174286 149.013116 
L 61.345102 137.834338 
L 61.515918 139.27161 
L 61.686735 99.443222 
L 62.028367 86.731355 
L 62.199184 91.745835 
L 62.37 102.509401 
L 62.540816 90.340503 
L 62.711633 89.573958 
L 63.053265 95.482741 
L 63.224082 82.994449 
L 63.394898 95.738256 
L 63.565714 85.868992 
L 63.736531 92.99147 
L 63.907347 91.841653 
L 64.078163 81.525239 
L 64.419796 111.899574 
L 64.590612 143.136273 
L 64.761429 110.462303 
L 64.932245 120.395445 
L 65.444694 92.544319 
L 65.61551 96.920012 
L 65.786327 93.119228 
L 66.127959 133.043434 
L 66.298776 158.33941 
L 66.469592 155.049656 
L 66.640408 140.165912 
L 66.811224 105.990792 
L 67.152857 84.272024 
L 67.323673 83.122207 
L 67.665306 102.381644 
L 68.006939 88.647717 
L 68.177755 85.166326 
L 68.348571 86.571658 
L 68.519388 101.487341 
L 68.690204 66.609555 
L 68.86102 132.308828 
L 69.031837 85.070508 
L 69.202653 102.221947 
L 69.373469 94.332924 
L 69.544286 93.598318 
L 69.885918 89.669777 
L 70.056735 91.841653 
L 70.398367 82.068208 
L 70.569184 78.906211 
L 70.74 98.165648 
L 70.910816 87.785354 
L 71.081633 133.778039 
L 71.252449 124.611441 
L 71.423265 126.943015 
L 71.594082 126.17647 
L 71.764898 113.815936 
L 71.935714 77.500879 
L 72.106531 87.721475 
L 72.277347 81.621057 
L 72.448163 70.41034 
L 72.61898 92.448501 
L 72.789796 69.995128 
L 73.131429 86.348083 
L 73.302245 55.622414 
L 73.814694 204.10852 
L 73.98551 187.787505 
L 74.327143 79.800513 
L 74.497959 80.822573 
L 74.668776 78.490999 
L 74.839592 84.527539 
L 75.010408 73.668155 
L 75.181224 73.029368 
L 75.352041 86.795234 
L 75.522857 75.712274 
L 75.693673 102.956552 
L 75.86449 105.160368 
L 76.035306 126.911076 
L 76.206122 95.323044 
L 76.376939 110.079031 
L 76.547755 150.418448 
L 76.718571 148.054935 
L 77.060204 85.837053 
L 77.401837 135.023674 
L 77.572653 108.769517 
L 77.743469 104.202187 
L 78.085102 242.116364 
L 78.255918 219.567172 
L 78.426735 237.676792 
L 78.597551 194.782225 
L 78.768367 90.436321 
L 78.939184 79.92827 
L 79.11 80.279603 
L 79.280816 77.692515 
L 79.451633 108.066851 
L 79.622449 98.069829 
L 79.793265 95.993771 
L 79.964082 88.583838 
L 80.305714 91.713896 
L 80.476531 90.915412 
L 80.647347 99.251586 
L 80.818163 89.637837 
L 80.98898 97.303285 
L 81.159796 81.078088 
L 81.501429 100.241706 
L 81.672245 95.099469 
L 81.843061 113.400724 
L 82.013878 111.452423 
L 82.184694 115.923934 
L 82.526327 93.087289 
L 82.867959 113.177149 
L 83.209592 66.89701 
L 83.380408 93.821894 
L 83.551224 96.02571 
L 83.722041 75.105426 
L 83.892857 104.968732 
L 84.063673 98.740556 
L 84.23449 101.295705 
L 84.405306 85.773174 
L 84.576122 95.706316 
L 84.746939 94.460681 
L 84.917755 99.507101 
L 85.088571 93.087289 
L 85.430204 93.949651 
L 85.60102 88.871292 
L 85.771837 92.735956 
L 85.942653 99.67638 
L 86.113469 93.678167 
L 86.284286 92.416562 
L 86.455102 104.397018 
L 86.796735 163.737163 
L 86.967551 159.712803 
L 87.138367 99.155768 
L 87.309184 132.085253 
L 87.650816 101.008251 
L 87.821633 101.008251 
L 87.992449 105.320065 
L 88.334082 85.709295 
L 88.504898 98.03789 
L 88.675714 56.197323 
L 88.846531 92.384623 
L 89.017347 99.507101 
L 89.188163 100.145888 
L 89.35898 86.060628 
L 89.529796 93.789955 
L 89.700612 91.777775 
L 89.871429 91.650017 
L 90.042245 101.55122 
L 90.383878 80.024088 
L 90.554694 74.658275 
L 90.72551 78.874271 
L 90.896327 78.746514 
L 91.067143 76.862091 
L 91.237959 78.203545 
L 91.408776 112.506422 
L 91.579592 95.482741 
L 92.092041 104.968732 
L 92.262857 77.724454 
L 92.433673 78.970089 
L 92.60449 67.471918 
L 92.775306 82.419541 
L 92.946122 87.338203 
L 93.458571 71.081066 
L 93.800204 82.515359 
L 94.141837 55.686293 
L 94.312653 75.840032 
L 94.483469 76.510758 
L 94.654286 74.562457 
L 94.825102 78.746514 
L 94.995918 78.363242 
L 95.166735 76.510758 
L 95.337551 76.44688 
L 95.679184 79.033968 
L 95.85 75.329002 
L 96.020816 76.830152 
L 96.191633 76.957909 
L 96.362449 77.979969 
L 96.704082 93.630258 
L 96.874898 89.254565 
L 97.387347 138.089853 
L 97.558163 124.451745 
L 97.72898 121.449444 
L 97.899796 95.961831 
L 98.070612 93.789955 
L 98.241429 77.660576 
L 98.412245 98.357284 
L 98.583061 85.900932 
L 98.753878 84.335903 
L 98.924694 77.181485 
L 99.266327 81.557178 
L 99.437143 73.508458 
L 99.607959 77.884151 
L 99.778776 77.277303 
L 99.949592 77.692515 
L 100.120408 51.725811 
L 100.291224 77.692515 
L 100.462041 72.678035 
L 100.803673 81.493299 
L 100.97449 77.085667 
L 101.145306 77.021788 
L 101.316122 78.171605 
L 101.486939 78.075787 
L 101.657755 80.854512 
L 101.828571 91.618078 
L 101.999388 92.480441 
L 102.170204 85.900932 
L 102.34102 86.827173 
L 102.682653 82.898631 
L 102.853469 106.5657 
L 103.024286 93.917712 
L 103.195102 103.212067 
L 103.536735 72.773853 
L 104.049184 90.340503 
L 104.22 69.963189 
L 104.390816 79.44918 
L 104.561633 72.486398 
L 104.903265 83.856812 
L 105.074082 70.953309 
L 105.244898 88.296384 
L 105.415714 90.053049 
L 105.586531 76.957909 
L 105.757347 77.021788 
L 106.09898 50.703752 
L 106.269796 78.267423 
L 106.440612 78.139666 
L 106.611429 77.724454 
L 106.782245 81.94045 
L 106.953061 111.164969 
L 107.123878 87.370142 
L 107.636327 136.301249 
L 107.807143 78.45906 
L 107.977959 79.321422 
L 108.490408 75.456759 
L 108.661224 78.618756 
L 109.002857 70.090946 
L 109.173673 76.92597 
L 109.34449 76.351062 
L 109.515306 77.500879 
L 109.686122 70.122885 
L 109.856939 82.100147 
L 110.027755 81.94045 
L 110.198571 75.712274 
L 110.369388 75.265123 
L 110.540204 71.081066 
L 110.71102 77.788333 
L 110.881837 78.203545 
L 111.052653 77.692515 
L 111.223469 70.825551 
L 111.394286 72.869671 
L 111.565102 87.4979 
L 111.735918 68.014887 
L 112.248367 99.411283 
L 112.59 67.951009 
L 112.931633 73.89173 
L 113.102449 73.987549 
L 113.273265 81.078088 
L 113.444082 83.122207 
L 113.785714 68.110706 
L 113.956531 77.94803 
L 114.127347 73.763973 
L 114.298163 77.053728 
L 114.46898 68.174584 
L 114.639796 79.321422 
L 115.152245 72.582217 
L 115.323061 77.117606 
L 115.493878 72.90161 
L 115.83551 78.395181 
L 116.177143 77.149546 
L 116.347959 67.056706 
L 116.518776 78.139666 
L 116.689592 78.650696 
L 116.860408 76.095547 
L 117.031224 75.297063 
L 117.202041 93.678167 
L 117.372857 99.753034 
L 117.543673 82.547298 
L 117.71449 84.677654 
L 117.885306 75.265123 
L 118.056122 78.423926 
L 118.226939 78.970089 
L 118.397755 67.280282 
L 118.568571 80.4393 
L 118.739388 79.097847 
L 118.910204 72.93355 
L 119.08102 54.217082 
L 119.251837 71.528218 
L 119.422653 68.685614 
L 119.593469 75.871971 
L 119.764286 77.884151 
L 119.935102 77.117606 
L 120.105918 67.024767 
L 120.276735 77.692515 
L 120.447551 77.628636 
L 120.618367 78.043848 
L 120.789184 82.515359 
L 120.96 100.305585 
L 121.130816 81.748814 
L 121.301633 83.058328 
L 121.472449 72.93355 
L 121.643265 79.417241 
L 121.814082 75.041548 
L 121.984898 80.886451 
L 122.155714 75.360941 
L 122.326531 96.121528 
L 122.497347 85.326023 
L 122.668163 98.612799 
L 122.83898 92.608198 
L 123.009796 80.662876 
L 123.180612 77.341182 
L 123.351429 70.953309 
L 123.522245 72.007308 
L 123.693061 92.831774 
L 123.863878 69.995128 
L 124.20551 79.608877 
L 124.376327 77.628636 
L 124.547143 73.636216 
L 124.717959 80.535118 
L 124.888776 67.280282 
L 125.059592 78.171605 
L 125.230408 72.837731 
L 125.401224 82.419541 
L 125.572041 66.322101 
L 125.742857 77.884151 
L 126.08449 61.595075 
L 126.255306 78.267423 
L 126.426122 73.572337 
L 126.596939 72.039247 
L 126.767755 80.979075 
L 126.938571 73.348761 
L 127.621837 94.396803 
L 127.792653 88.903232 
L 127.963469 67.88713 
L 128.134286 76.989849 
L 128.305102 72.997428 
L 128.475918 78.874271 
L 128.646735 69.420219 
L 128.817551 86.539719 
L 129.159184 73.604276 
L 129.33 69.89931 
L 129.500816 77.245364 
L 129.842449 70.793612 
L 130.013265 70.601976 
L 130.184082 85.102447 
L 130.354898 68.334281 
L 130.696531 78.970089 
L 130.867347 77.405061 
L 131.038163 68.334281 
L 131.20898 67.056706 
L 131.379796 77.021788 
L 131.550612 78.075787 
L 131.721429 74.91379 
L 131.892245 69.164705 
L 132.233878 83.026389 
L 132.57551 91.873593 
L 132.746327 89.98917 
L 132.917143 91.713896 
L 133.087959 54.696172 
L 133.258776 77.405061 
L 133.429592 81.908511 
L 133.771224 71.336581 
L 134.112857 84.112327 
L 134.283673 69.420219 
L 134.45449 65.747193 
L 134.625306 78.267423 
L 134.796122 76.766273 
L 134.966939 77.500879 
L 135.137755 67.088646 
L 135.308571 78.490999 
L 135.479388 74.466639 
L 135.650204 74.466639 
L 135.82102 72.007308 
L 136.162653 77.884151 
L 136.333469 69.452159 
L 136.675102 78.235484 
L 136.845918 78.618756 
L 137.016735 68.87725 
L 137.358367 83.920691 
L 137.529184 85.230205 
L 138.041633 98.516981 
L 138.212449 82.898631 
L 138.554082 71.144945 
L 138.724898 72.997428 
L 139.066531 125.250229 
L 139.237347 74.243063 
L 139.408163 81.429421 
L 139.57898 66.322101 
L 139.749796 77.91609 
L 139.920612 78.395181 
L 140.091429 78.395181 
L 140.262245 69.739613 
L 140.433061 75.392881 
L 140.603878 52.204902 
L 140.94551 88.583838 
L 141.116327 67.567736 
L 141.287143 75.552577 
L 141.457959 77.979969 
L 141.628776 77.021788 
L 141.799592 77.979969 
L 141.970408 78.043848 
L 142.141224 80.024088 
L 142.312041 73.827852 
L 142.482857 80.087967 
L 142.82449 111.580181 
L 142.995306 110.206788 
L 143.336939 74.594397 
L 143.507755 75.456759 
L 143.678571 75.009608 
L 144.020204 82.068208 
L 144.19102 84.431721 
L 144.361837 90.915412 
L 144.532653 77.564757 
L 144.703469 79.44918 
L 144.874286 78.075787 
L 145.045102 88.072808 
L 145.215918 79.161726 
L 145.386735 78.363242 
L 145.557551 76.063607 
L 145.899184 77.341182 
L 146.07 86.411961 
L 146.240816 73.41264 
L 146.411633 81.876572 
L 146.582449 78.363242 
L 146.753265 80.279603 
L 146.924082 74.243063 
L 147.265714 78.363242 
L 147.436531 77.213424 
L 147.778163 92.544319 
L 147.94898 95.195287 
L 148.119796 101.806735 
L 148.290612 60.157804 
L 148.461429 84.97469 
L 148.632245 74.306942 
L 149.144694 82.770874 
L 149.31551 72.326702 
L 149.486327 73.700094 
L 149.827959 79.800513 
L 149.998776 73.700094 
L 150.340408 75.616456 
L 150.511224 80.694815 
L 150.682041 67.535797 
L 150.852857 75.871971 
L 151.19449 77.117606 
L 151.365306 84.910811 
L 151.536122 69.675734 
L 151.706939 80.279603 
L 151.877755 73.061307 
L 152.048571 76.989849 
L 152.219388 87.402082 
L 152.390204 71.751793 
L 152.56102 79.225604 
L 152.731837 71.879551 
L 152.902653 98.069829 
L 153.073469 93.53444 
L 153.244286 101.487341 
L 153.415102 84.783054 
L 153.585918 84.4956 
L 153.756735 75.999729 
L 153.927551 78.970089 
L 154.098367 78.586817 
L 154.269184 96.217346 
L 154.44 90.819594 
L 154.610816 76.191365 
L 154.781633 85.070508 
L 154.952449 77.500879 
L 155.123265 78.842332 
L 155.294082 77.437 
L 155.464898 89.446201 
L 155.635714 78.363242 
L 155.806531 78.139666 
L 156.148163 75.999729 
L 156.31898 54.536476 
L 156.489796 80.982269 
L 156.660612 69.132765 
L 156.831429 83.665176 
L 157.002245 66.960888 
L 157.343878 87.625657 
L 157.514694 75.520638 
L 157.68551 75.584517 
L 158.027143 85.709295 
L 158.197959 100.5611 
L 158.368776 103.244007 
L 158.710408 79.129786 
L 158.881224 77.405061 
L 159.052041 78.650696 
L 159.222857 83.760994 
L 159.393673 75.999729 
L 159.56449 74.275003 
L 159.735306 78.42712 
L 159.906122 76.894031 
L 160.076939 70.985248 
L 160.247755 71.113006 
L 160.418571 74.881851 
L 160.589388 85.262144 
L 160.760204 68.973068 
L 160.93102 82.291783 
L 161.101837 69.005008 
L 161.443469 87.114627 
L 161.614286 76.127486 
L 161.785102 78.810393 
L 161.955918 66.513737 
L 162.126735 77.405061 
L 162.297551 78.746514 
L 162.468367 75.999729 
L 162.639184 75.42482 
L 162.81 77.983163 
L 162.980816 87.232803 
L 163.151633 106.980912 
L 163.322449 93.853833 
L 163.493265 94.396803 
L 163.664082 92.03329 
L 163.834898 75.456759 
L 164.005714 79.513059 
L 164.176531 79.704695 
L 164.347347 76.957909 
L 164.518163 82.866692 
L 164.68898 51.78969 
L 164.859796 75.967789 
L 165.030612 67.855191 
L 165.372245 84.46366 
L 165.543061 71.687914 
L 165.884694 79.033968 
L 166.05551 77.564757 
L 166.226327 71.687914 
L 166.397143 76.92597 
L 166.567959 71.496278 
L 166.738776 73.700094 
L 166.909592 69.739613 
L 167.080408 77.373121 
L 167.422041 77.724454 
L 167.763673 69.292462 
L 167.93449 77.117606 
L 168.105306 94.588439 
L 168.276122 98.197587 
L 168.446939 89.733655 
L 168.617755 101.487341 
L 168.788571 76.478819 
L 168.959388 75.137366 
L 169.130204 84.208145 
L 169.30102 67.823251 
L 169.642653 82.579238 
L 169.813469 79.768574 
L 169.984286 80.215725 
L 170.155102 73.061307 
L 170.496735 77.500879 
L 170.667551 77.373121 
L 170.838367 84.399781 
L 171.009184 83.95263 
L 171.18 86.891052 
L 171.350816 87.146567 
L 171.521633 79.704695 
L 171.692449 81.579536 
L 171.863265 66.737313 
L 172.204898 85.166326 
L 172.375714 71.496278 
L 172.546531 68.845311 
L 172.717347 103.026819 
L 173.05898 96.613394 
L 173.400612 76.989849 
L 173.571429 77.596697 
L 173.742245 79.097847 
L 174.083878 94.428742 
L 174.254694 68.493978 
L 174.42551 89.733655 
L 174.596327 78.586817 
L 174.767143 80.024088 
L 174.937959 83.729055 
L 175.108776 83.537419 
L 175.450408 80.918391 
L 175.621224 87.338203 
L 175.792041 77.181485 
L 175.962857 81.557178 
L 176.133673 79.896331 
L 176.30449 86.252265 
L 176.475306 78.586817 
L 176.646122 78.586817 
L 176.816939 77.117606 
L 176.987755 85.645417 
L 177.158571 85.166326 
L 177.329388 79.896331 
L 177.67102 87.370142 
L 177.841837 90.053049 
L 178.012653 95.131408 
L 178.183469 90.372443 
L 178.354286 82.387601 
L 178.525102 67.471918 
L 178.866735 83.888752 
L 179.037551 72.167005 
L 179.208367 82.770874 
L 179.379184 76.319122 
L 179.55 77.532818 
L 179.720816 77.788333 
L 179.891633 77.277303 
L 180.062449 66.545677 
L 180.233265 78.395181 
L 180.404082 81.652996 
L 180.574898 72.071187 
L 180.745714 79.44918 
L 180.916531 74.594397 
L 181.087347 77.532818 
L 181.258163 77.309242 
L 181.42898 50.192722 
L 181.770612 96.377043 
L 181.941429 117.840296 
L 182.112245 74.466639 
L 182.283061 77.852212 
L 182.624694 76.383001 
L 182.79551 92.672077 
L 182.966327 90.915412 
L 183.137143 101.774796 
L 183.307959 95.834074 
L 183.478776 77.94803 
L 183.649592 77.756394 
L 183.820408 70.346461 
L 183.991224 81.078088 
L 184.162041 82.675056 
L 184.332857 82.45148 
L 184.503673 78.139666 
L 184.67449 65.938829 
L 184.845306 83.281904 
L 185.186939 77.596697 
L 185.357755 78.075787 
L 185.528571 71.304642 
L 185.699388 80.47124 
L 185.870204 80.247664 
L 186.04102 77.181485 
L 186.211837 77.91609 
L 186.382653 76.542698 
L 186.553469 77.564757 
L 186.724286 77.820272 
L 186.895102 74.466639 
L 187.065918 79.129786 
L 187.236735 77.245364 
L 187.407551 77.500879 
L 187.578367 77.405061 
L 187.749184 65.683314 
L 187.92 93.758015 
L 188.090816 99.347404 
L 188.261633 87.46596 
L 188.603265 130.041133 
L 188.944898 105.000672 
L 189.115714 100.05007 
L 189.286531 110.717818 
L 189.457347 111.292726 
L 189.79898 93.278925 
L 189.969796 95.482741 
L 190.311429 105.128429 
L 190.482245 103.499521 
L 190.653061 71.560157 
L 190.823878 112.729998 
L 190.994694 126.879136 
L 191.16551 94.620378 
L 191.336327 97.335224 
L 191.677959 114.901875 
L 191.848776 66.098526 
L 192.019592 82.930571 
L 192.190408 82.164026 
L 192.361224 83.090267 
L 192.532041 72.262823 
L 192.702857 81.97239 
L 192.873673 70.250643 
L 193.04449 151.184993 
L 193.556939 86.357664 
L 193.727755 75.871971 
L 194.069388 81.812693 
L 194.240204 74.562457 
L 194.41102 72.773853 
L 194.581837 84.783054 
L 194.752653 80.183785 
L 194.923469 69.931249 
L 195.094286 80.982269 
L 195.265102 70.92137 
L 195.606735 84.144267 
L 196.119184 69.516038 
L 196.29 80.247664 
L 196.460816 82.093759 
L 196.631633 76.702395 
L 196.802449 75.488699 
L 196.973265 69.931249 
L 197.314898 86.348083 
L 197.485714 68.302342 
L 197.656531 84.655296 
L 197.827347 77.500879 
L 197.998163 78.842332 
L 198.16898 91.52226 
L 198.339796 88.48802 
L 198.510612 114.806056 
L 198.681429 88.200566 
L 198.852245 89.286504 
L 199.023061 79.193665 
L 199.193878 88.136687 
L 199.364694 74.275003 
L 199.53551 95.578559 
L 199.706327 73.221004 
L 199.877143 83.058328 
L 200.047959 58.912169 
L 200.389592 83.058328 
L 200.560408 77.788333 
L 200.731224 88.967111 
L 200.902041 76.287183 
L 201.072857 82.227905 
L 201.41449 71.687914 
L 201.585306 84.655296 
L 201.756122 68.238463 
L 201.926939 82.675056 
L 202.097755 70.090946 
L 202.268571 77.660576 
L 202.610204 77.277303 
L 202.78102 67.248343 
L 202.951837 82.004329 
L 203.122653 83.729055 
L 203.293469 88.679656 
L 203.635102 125.218289 
L 203.805918 130.168891 
L 203.976735 79.96021 
L 204.147551 116.14751 
L 204.318367 78.203545 
L 204.489184 75.93585 
L 204.66 83.313843 
L 204.830816 76.606576 
L 205.001633 87.434021 
L 205.172449 77.756394 
L 205.343265 78.075787 
L 205.514082 87.082688 
L 205.684898 72.997428 
L 205.855714 79.92827 
L 206.026531 81.397481 
L 206.197347 85.549599 
L 206.368163 77.788333 
L 206.53898 77.884151 
L 206.709796 75.808092 
L 206.880612 77.149546 
L 207.051429 79.481119 
L 207.222245 85.645417 
L 207.393061 77.596697 
L 207.563878 78.682635 
L 207.734694 83.47354 
L 207.90551 77.468939 
L 208.076327 86.954931 
L 208.247143 82.994449 
L 208.417959 93.310864 
L 208.588776 95.259165 
L 208.759592 93.949651 
L 209.101224 78.171605 
L 209.272041 86.699416 
L 209.442857 76.606576 
L 209.78449 79.321422 
L 209.955306 69.292462 
L 210.126122 72.550277 
L 210.296939 81.589117 
L 210.467755 71.624036 
L 210.638571 86.635537 
L 210.809388 77.245364 
L 210.980204 80.886451 
L 211.15102 81.110027 
L 211.321837 81.141966 
L 211.492653 80.343482 
L 211.663469 73.125186 
L 211.834286 81.716875 
L 212.005102 83.888752 
L 212.175918 88.551899 
L 212.346735 84.208145 
L 212.517551 75.456759 
L 212.688367 83.792934 
L 212.859184 71.017188 
L 213.03 82.227905 
L 213.200816 77.245364 
L 213.542449 98.389223 
L 213.713265 87.593718 
L 213.884082 99.858434 
L 214.054898 82.387601 
L 214.225714 76.989849 
L 214.396531 77.91609 
L 214.567347 87.274324 
L 214.738163 77.979969 
L 214.90898 86.507779 
L 215.079796 76.095547 
L 215.250612 77.245364 
L 215.421429 77.085667 
L 215.592245 87.210446 
L 215.763061 67.184464 
L 215.933878 84.591418 
L 216.104694 68.206524 
L 216.27551 83.058328 
L 216.446327 83.090267 
L 216.617143 80.630936 
L 216.787959 74.275003 
L 216.958776 80.598997 
L 217.129592 72.965489 
L 217.300408 77.309242 
L 217.471224 92.384623 
L 217.812857 74.179185 
L 217.983673 83.792934 
L 218.15449 76.957909 
L 218.325306 84.272024 
L 218.496122 83.090267 
L 218.666939 95.897953 
L 218.837755 85.48572 
L 219.008571 95.674377 
L 219.350204 83.058328 
L 219.52102 77.085667 
L 219.691837 78.810393 
L 219.862653 62.138044 
L 220.033469 81.078088 
L 220.204286 77.341182 
L 220.375102 81.269724 
L 220.545918 71.528218 
L 220.716735 84.335903 
L 220.887551 80.056028 
L 221.058367 87.4979 
L 221.229184 76.319122 
L 221.741633 82.802813 
L 221.912449 81.110027 
L 222.083265 90.468261 
L 222.254082 78.842332 
L 222.424898 86.571658 
L 222.595714 77.660576 
L 222.766531 77.117606 
L 222.937347 79.608877 
L 223.108163 75.871971 
L 223.27898 77.245364 
L 223.962245 99.602919 
L 224.133061 101.519281 
L 224.303878 78.267423 
L 224.474694 79.193665 
L 224.64551 77.021788 
L 224.816327 87.050749 
L 224.987143 78.490999 
L 225.157959 83.856812 
L 225.328776 81.589117 
L 225.499592 69.260523 
L 225.670408 84.367842 
L 225.841224 79.321422 
L 226.012041 83.760994 
L 226.182857 72.805792 
L 226.353673 87.274324 
L 226.52449 74.91379 
L 226.695306 76.766273 
L 226.866122 82.100147 
L 227.207755 79.417241 
L 227.378571 81.780754 
L 227.549388 78.618756 
L 227.720204 73.157125 
L 227.89102 78.682635 
L 228.061837 78.363242 
L 228.232653 76.127486 
L 228.403469 69.036947 
L 228.574286 77.245364 
L 228.745102 105.160368 
L 228.915918 93.151167 
L 229.086735 95.770195 
L 229.257551 91.586138 
L 229.428367 78.714575 
L 229.77 79.768574 
L 229.940816 84.112327 
L 230.111633 59.199623 
L 230.282449 99.602919 
L 230.453265 78.331302 
L 230.624082 84.942751 
L 230.794898 71.017188 
L 230.965714 85.326023 
L 231.136531 75.808092 
L 231.478163 84.367842 
L 231.819796 75.297063 
L 231.990612 78.714575 
L 232.161429 72.198944 
L 232.332245 80.886451 
L 232.503061 76.957909 
L 232.673878 86.763294 
L 232.844694 76.702395 
L 233.01551 77.692515 
L 233.186327 75.584517 
L 233.357143 77.341182 
L 233.527959 76.989849 
L 233.869592 135.534704 
L 234.040408 105.352005 
L 234.211224 97.686557 
L 234.382041 97.846254 
L 234.552857 80.087967 
L 234.723673 77.309242 
L 234.89449 77.756394 
L 235.065306 84.367842 
L 235.236122 77.053728 
L 235.406939 90.372443 
L 235.577755 118.479083 
L 235.748571 114.933814 
L 235.919388 88.296384 
L 236.090204 82.387601 
L 236.26102 82.675056 
L 236.431837 85.645417 
L 236.602653 78.650696 
L 236.773469 77.852212 
L 236.944286 75.169305 
L 237.115102 76.92597 
L 237.285918 132.883737 
L 237.456735 121.545262 
L 237.627551 86.635537 
L 237.798367 77.852212 
L 237.969184 84.719175 
L 238.14 78.490999 
L 238.310816 79.193665 
L 238.481633 72.997428 
L 238.652449 84.814993 
L 238.823265 87.050749 
L 239.164898 98.133708 
L 239.335714 85.421841 
L 239.506531 87.753415 
L 239.677347 79.481119 
L 239.848163 84.814993 
L 240.01898 78.650696 
L 240.189796 82.96251 
L 240.360612 76.830152 
L 240.531429 86.859113 
L 240.702245 77.468939 
L 240.873061 51.214782 
L 241.043878 86.571658 
L 241.214694 69.771552 
L 241.38551 83.665176 
L 241.556327 77.405061 
L 241.727143 83.95263 
L 241.897959 71.655975 
L 242.068776 78.650696 
L 242.239592 72.646095 
L 242.581224 84.399781 
L 242.752041 74.083367 
L 242.922857 80.343482 
L 243.093673 72.550277 
L 243.606122 106.693458 
L 243.776939 75.105426 
L 243.947755 80.247664 
L 244.118571 94.141288 
L 244.289388 87.178506 
L 244.460204 100.465282 
L 244.63102 87.242385 
L 244.801837 90.915412 
L 244.972653 74.626336 
L 245.143469 78.874271 
L 245.314286 74.530518 
L 245.485102 84.751114 
L 245.655918 79.002029 
L 245.826735 86.667476 
L 245.997551 70.857491 
L 246.168367 84.112327 
L 246.339184 65.39586 
L 246.51 85.134387 
L 246.680816 78.395181 
L 246.851633 86.98687 
L 247.022449 67.919069 
L 247.193265 77.277303 
L 247.364082 74.019488 
L 247.705714 86.699416 
L 247.876531 77.532818 
L 248.38898 75.297063 
L 248.559796 81.525239 
L 248.730612 69.771552 
L 248.901429 86.539719 
L 249.072245 72.93355 
L 249.243061 95.51468 
L 249.413878 96.345104 
L 249.584694 98.197587 
L 249.75551 92.863713 
L 249.926327 78.874271 
L 250.097143 76.798213 
L 250.267959 79.992149 
L 250.438776 73.189064 
L 250.609592 96.504801 
L 250.780408 82.706995 
L 251.122041 79.736634 
L 251.292857 74.498578 
L 251.463673 81.110027 
L 251.63449 56.165383 
L 251.976122 86.443901 
L 252.146939 75.712274 
L 252.488571 77.181485 
L 252.659388 86.47584 
L 253.00102 76.606576 
L 253.171837 75.360941 
L 253.342653 77.341182 
L 253.513469 77.085667 
L 253.684286 86.922991 
L 253.855102 77.181485 
L 254.025918 77.309242 
L 254.538367 95.738256 
L 254.709184 91.969411 
L 254.88 94.141288 
L 255.050816 81.173906 
L 255.392449 74.817972 
L 255.563265 77.373121 
L 255.734082 87.242385 
L 256.075714 74.94573 
L 256.246531 78.235484 
L 256.417347 73.093246 
L 256.75898 84.910811 
L 256.929796 77.628636 
L 257.100612 78.363242 
L 257.271429 75.712274 
L 257.442245 77.884151 
L 257.613061 77.468939 
L 257.783878 77.532818 
L 257.954694 77.979969 
L 258.12551 79.002029 
L 258.296327 74.083367 
L 258.467143 85.006629 
L 258.637959 78.107727 
L 258.808776 86.635537 
L 258.979592 85.613477 
L 259.150408 70.92137 
L 259.321224 89.286504 
L 259.662857 98.612799 
L 259.833673 101.678978 
L 260.00449 91.618078 
L 260.175306 72.230884 
L 260.346122 81.46136 
L 260.516939 68.90919 
L 260.858571 92.767895 
L 261.029388 79.513059 
L 261.200204 78.842332 
L 261.37102 81.748814 
L 261.541837 71.783732 
L 261.712653 84.559478 
L 261.883469 79.992149 
L 262.054286 88.456081 
L 262.225102 77.532818 
L 262.566735 75.456759 
L 262.737551 62.297741 
L 262.908367 78.043848 
L 263.079184 77.660576 
L 263.25 75.488699 
L 263.420816 77.564757 
L 263.591633 87.849233 
L 263.762449 72.39058 
L 263.933265 82.068208 
L 264.104082 68.557857 
L 264.274898 84.623357 
L 264.445714 82.898631 
L 264.616531 101.136008 
L 264.787347 89.222625 
L 264.958163 93.438622 
L 265.299796 76.383001 
L 265.470612 76.702395 
L 265.641429 87.721475 
L 265.812245 69.739613 
L 265.983061 88.807414 
L 266.153878 66.641495 
L 266.324694 89.414262 
L 266.49551 77.788333 
L 266.666327 77.053728 
L 266.837143 77.085667 
L 267.007959 78.075787 
L 267.178776 75.073487 
L 267.349592 89.030989 
L 267.520408 77.756394 
L 267.691224 86.284204 
L 267.862041 74.91379 
L 268.032857 79.832452 
L 268.203673 71.464339 
L 268.37449 81.365542 
L 268.545306 77.149546 
L 268.716122 80.630936 
L 268.886939 71.655975 
L 269.057755 87.114627 
L 269.228571 77.596697 
L 269.399388 87.46596 
L 269.570204 89.158747 
L 270.082653 99.187707 
L 270.253469 77.852212 
L 270.424286 80.630936 
L 270.595102 77.94803 
L 270.765918 87.274324 
L 270.936735 76.223304 
L 271.107551 80.694815 
L 271.278367 74.754093 
L 271.449184 77.437 
L 271.62 76.830152 
L 271.790816 87.050749 
L 271.961633 76.92597 
L 272.132449 77.724454 
L 272.303265 67.535797 
L 272.474082 81.589117 
L 272.644898 83.4416 
L 272.815714 75.360941 
L 272.986531 73.732034 
L 273.157347 73.89173 
L 273.49898 84.303963 
L 273.669796 77.660576 
L 273.840612 77.117606 
L 274.011429 68.781432 
L 274.182245 67.919069 
L 274.353061 77.053728 
L 274.523878 75.073487 
L 275.036327 101.487341 
L 275.207143 95.961831 
L 275.548776 75.041548 
L 275.719592 77.532818 
L 275.890408 76.159425 
L 276.232041 90.947351 
L 276.402857 74.786033 
L 276.573673 83.154146 
L 276.74449 73.252943 
L 276.915306 83.792934 
L 277.086122 77.628636 
L 277.256939 86.603598 
L 277.427755 76.351062 
L 277.598571 79.353362 
L 277.769388 70.218704 
L 277.940204 83.281904 
L 278.11102 76.989849 
L 278.281837 83.345782 
L 278.452653 73.508458 
L 278.623469 83.98457 
L 278.794286 70.027067 
L 278.965102 82.738934 
L 279.135918 77.468939 
L 279.306735 84.431721 
L 279.477551 74.977669 
L 279.648367 77.692515 
L 279.819184 98.485041 
L 279.99 92.288804 
L 280.160816 103.818915 
L 280.331633 102.892674 
L 280.673265 81.525239 
L 281.014898 84.303963 
L 281.185714 77.053728 
L 281.356531 84.527539 
L 281.527347 82.994449 
L 281.698163 83.601297 
L 281.86898 88.99905 
L 282.039796 71.304642 
L 282.381429 77.085667 
L 282.552245 78.618756 
L 282.723061 83.601297 
L 282.893878 78.746514 
L 283.064694 78.586817 
L 283.23551 79.640816 
L 283.406327 75.616456 
L 283.747959 79.161726 
L 283.918776 85.102447 
L 284.089592 77.724454 
L 284.260408 77.277303 
L 284.431224 75.648396 
L 284.602041 77.596697 
L 284.772857 82.259844 
L 284.943673 94.04547 
L 285.11449 96.121528 
L 285.285306 87.785354 
L 285.456122 91.650017 
L 285.797755 62.169984 
L 285.968571 79.576937 
L 286.139388 74.179185 
L 286.48102 88.392202 
L 286.651837 78.490999 
L 286.822653 76.095547 
L 286.993469 84.910811 
L 287.164286 66.86507 
L 287.505918 87.210446 
L 287.847551 76.734334 
L 288.018367 71.40046 
L 288.189184 78.171605 
L 288.36 79.92827 
L 288.530816 75.840032 
L 288.701633 77.788333 
L 288.872449 69.707674 
L 289.043265 74.849911 
L 289.214082 85.389902 
L 289.384898 76.44688 
L 289.555714 78.043848 
L 289.897347 83.47354 
L 290.23898 106.59764 
L 290.409796 86.060628 
L 290.580612 108.897274 
L 290.922245 74.530518 
L 291.093061 77.245364 
L 291.263878 86.316143 
L 291.434694 87.46596 
L 291.60551 80.343482 
L 291.776327 81.333602 
L 291.947143 71.40046 
L 292.117959 89.062929 
L 292.288776 77.085667 
L 292.459592 87.018809 
L 292.630408 77.500879 
L 292.801224 77.756394 
L 292.972041 73.859791 
L 293.142857 78.42712 
L 293.313673 77.309242 
L 293.48449 84.751114 
L 293.655306 72.646095 
L 293.826122 82.164026 
L 293.996939 66.769252 
L 294.167755 85.613477 
L 294.338571 78.650696 
L 294.509388 77.532818 
L 294.680204 77.181485 
L 294.85102 73.604276 
L 295.021837 78.363242 
L 295.363469 99.922313 
L 295.534286 88.583838 
L 295.705102 92.161047 
L 295.875918 80.758694 
L 296.046735 77.756394 
L 296.217551 77.532818 
L 296.388367 84.240085 
L 296.559184 79.672755 
L 296.73 81.908511 
L 296.900816 75.488699 
L 297.242449 78.139666 
L 297.413265 86.47584 
L 297.584082 77.373121 
L 297.754898 52.971447 
L 297.925714 84.878872 
L 298.096531 77.788333 
L 298.267347 77.979969 
L 298.60898 75.201244 
L 298.779796 83.409661 
L 299.292245 77.021788 
L 299.463061 75.808092 
L 299.633878 75.584517 
L 299.804694 82.48342 
L 299.97551 75.488699 
L 300.146327 84.623357 
L 300.317143 110.047091 
L 300.487959 91.713896 
L 300.658776 91.107048 
L 300.829592 92.895652 
L 301.171224 75.776153 
L 301.342041 77.756394 
L 301.512857 74.338882 
L 301.683673 90.468261 
L 301.85449 77.596697 
L 302.025306 81.876572 
L 302.196122 73.061307 
L 302.366939 77.341182 
L 302.537755 76.255243 
L 302.708571 77.085667 
L 302.879388 86.763294 
L 303.050204 69.675734 
L 303.22102 83.729055 
L 303.391837 67.759372 
L 303.562653 85.230205 
L 303.733469 78.874271 
L 304.075102 76.957909 
L 304.245918 79.097847 
L 304.416735 74.722154 
L 304.587551 77.628636 
L 304.929184 87.817293 
L 305.1 91.777775 
L 305.270816 101.647038 
L 305.441633 97.750436 
L 305.612449 88.328323 
L 305.783265 140.453366 
L 305.954082 93.5025 
L 306.295714 74.211124 
L 306.466531 78.395181 
L 306.637347 77.564757 
L 306.808163 91.809714 
L 306.97898 77.788333 
L 307.149796 77.628636 
L 307.320612 69.611856 
L 307.491429 82.291783 
L 307.662245 77.341182 
L 307.833061 78.235484 
L 308.003878 76.159425 
L 308.174694 79.832452 
L 308.34551 72.709974 
L 308.516327 77.468939 
L 308.687143 88.136687 
L 308.857959 77.021788 
L 309.028776 76.734334 
L 309.199592 79.385301 
L 309.370408 73.284883 
L 309.541224 84.048448 
L 309.712041 80.47124 
L 309.882857 50.096904 
L 310.053673 86.124507 
L 310.22449 69.547977 
L 310.395306 91.793744 
L 310.566122 80.091161 
L 310.736939 98.782077 
L 310.907755 92.640137 
L 311.078571 93.53444 
L 311.420204 74.370821 
L 311.59102 86.220325 
L 311.761837 68.206524 
L 311.932653 93.470561 
L 312.103469 77.94803 
L 312.274286 79.768574 
L 312.445102 75.009608 
L 312.615918 79.033968 
L 312.786735 73.380701 
L 312.957551 82.834753 
L 313.128367 81.780754 
L 313.299184 73.732034 
L 313.47 83.377722 
L 313.640816 75.297063 
L 313.982449 77.500879 
L 314.153265 86.795234 
L 314.324082 67.408039 
L 314.494898 84.016509 
L 314.665714 68.014887 
L 315.007347 85.070508 
L 315.178163 73.252943 
L 315.34898 76.031668 
L 316.032245 102.445522 
L 316.373878 77.884151 
L 316.544694 83.154146 
L 316.71551 70.729733 
L 317.057143 87.46596 
L 317.227959 81.908511 
L 317.398776 83.4416 
L 317.569592 71.528218 
L 317.740408 84.527539 
L 317.911224 72.198944 
L 318.082041 84.335903 
L 318.252857 77.373121 
L 318.423673 84.208145 
L 318.59449 77.660576 
L 318.765306 82.036268 
L 318.936122 74.658275 
L 319.106939 77.181485 
L 319.277755 76.798213 
L 319.448571 83.122207 
L 319.619388 75.584517 
L 319.790204 84.272024 
L 319.96102 75.233184 
L 320.131837 78.618756 
L 320.302653 77.277303 
L 320.473469 77.405061 
L 320.815102 91.426442 
L 320.985918 91.586138 
L 321.156735 98.644738 
L 321.327551 74.881851 
L 321.498367 81.205845 
L 321.669184 71.272703 
L 322.010816 86.603598 
L 322.181633 83.313843 
L 322.352449 53.929628 
L 322.523265 87.370142 
L 322.694082 77.884151 
L 322.864898 78.043848 
L 323.035714 71.847611 
L 323.377347 81.141966 
L 323.548163 79.672755 
L 323.71898 77.117606 
L 323.889796 82.100147 
L 324.060612 71.655975 
L 324.231429 85.773174 
L 324.402245 78.043848 
L 324.573061 87.97699 
L 324.743878 77.94803 
L 324.914694 77.500879 
L 325.08551 79.129786 
L 325.256327 74.211124 
L 325.597959 85.294084 
L 325.768776 85.389902 
L 325.939592 91.298684 
L 326.110408 92.065229 
L 326.281224 87.370142 
L 326.452041 95.866013 
L 326.622857 76.255243 
L 326.793673 86.380022 
L 326.96449 77.500879 
L 327.135306 77.213424 
L 327.306122 82.930571 
L 327.476939 72.646095 
L 327.647755 87.178506 
L 327.818571 78.874271 
L 327.989388 83.792934 
L 328.160204 78.810393 
L 328.33102 78.618756 
L 328.501837 69.707674 
L 328.672653 82.45148 
L 328.843469 78.363242 
L 329.014286 78.235484 
L 329.355918 81.621057 
L 329.526735 72.773853 
L 329.868367 81.621057 
L 330.039184 76.957909 
L 330.21 76.798213 
L 330.380816 73.636216 
L 330.551633 76.862091 
L 330.722449 74.754093 
L 330.893265 91.138987 
L 331.064082 93.342804 
L 331.405714 91.426442 
L 331.576531 79.704695 
L 331.747347 87.593718 
L 331.918163 77.341182 
L 332.08898 76.830152 
L 332.259796 84.208145 
L 332.430612 83.281904 
L 332.601429 79.097847 
L 332.772245 77.91609 
L 332.943061 83.888752 
L 333.113878 74.817972 
L 333.284694 82.48342 
L 333.45551 72.39058 
L 333.626327 81.333602 
L 333.797143 77.405061 
L 333.967959 86.220325 
L 334.138776 73.763973 
L 334.309592 80.95033 
L 334.480408 73.700094 
L 334.651224 78.42712 
L 334.822041 77.564757 
L 334.992857 92.320744 
L 335.163673 44.443636 
L 335.33449 77.724454 
L 335.505306 85.645417 
L 335.676122 76.862091 
L 335.846939 77.309242 
L 336.017755 89.414262 
L 336.188571 91.234805 
L 336.359388 102.445522 
L 336.530204 96.408983 
L 336.70102 83.058328 
L 336.871837 85.070508 
L 337.042653 71.464339 
L 337.213469 85.070508 
L 337.384286 83.313843 
L 337.555102 85.868992 
L 337.725918 82.898631 
L 337.896735 77.756394 
L 338.067551 80.822573 
L 338.409184 77.341182 
L 338.58 73.380701 
L 338.750816 81.525239 
L 338.921633 81.078088 
L 339.092449 77.724454 
L 339.263265 76.92597 
L 339.434082 65.427799 
L 339.604898 80.598997 
L 339.775714 84.399781 
L 339.946531 76.957909 
L 340.117347 76.92597 
L 340.288163 79.321422 
L 340.45898 75.137366 
L 340.629796 77.820272 
L 340.800612 83.154146 
L 340.971429 71.081066 
L 341.142245 95.674377 
L 341.313061 91.713896 
L 341.483878 100.209767 
L 341.654694 95.099469 
L 341.82551 79.576937 
L 341.996327 79.800513 
L 342.167143 71.176885 
L 342.337959 82.259844 
L 342.508776 82.195965 
L 342.679592 86.156446 
L 342.850408 71.081066 
L 343.021224 82.738934 
L 343.192041 75.265123 
L 343.362857 76.095547 
L 343.533673 81.652996 
L 343.70449 82.643116 
L 343.875306 77.021788 
L 344.046122 78.107727 
L 344.216939 71.304642 
L 344.387755 80.535118 
L 344.558571 76.574637 
L 344.900204 76.957909 
L 345.07102 75.808092 
L 345.241837 76.095547 
L 345.412653 78.490999 
L 345.583469 86.635537 
L 345.754286 67.599676 
L 345.925102 81.110027 
L 346.095918 72.007308 
L 346.437551 100.816615 
L 346.608367 88.296384 
L 346.779184 89.637837 
L 346.95 76.798213 
L 347.120816 79.96021 
L 347.291633 77.245364 
L 347.462449 76.606576 
L 347.633265 83.95263 
L 347.974898 72.326702 
L 348.145714 62.138044 
L 348.658163 85.166326 
L 348.82898 73.955609 
L 348.999796 80.567058 
L 349.170612 71.624036 
L 349.341429 80.95033 
L 349.512245 77.117606 
L 349.683061 85.230205 
L 349.853878 70.090946 
L 350.024694 83.95263 
L 350.19551 67.88713 
L 350.366327 83.281904 
L 350.537143 76.542698 
L 350.707959 80.119907 
L 350.878776 73.41264 
L 351.049592 79.481119 
L 351.220408 80.822573 
L 351.391224 96.888073 
L 351.562041 85.357962 
L 351.732857 89.446201 
L 352.07449 78.395181 
L 352.245306 88.104748 
L 352.416122 84.687236 
L 352.586939 75.871971 
L 352.757755 91.841653 
L 352.928571 74.94573 
L 353.099388 77.852212 
L 353.270204 76.798213 
L 353.44102 84.814993 
L 353.611837 73.700094 
L 353.782653 85.99675 
L 353.953469 73.540397 
L 354.295102 83.345782 
L 354.636735 80.215725 
L 354.807551 74.019488 
L 354.978367 86.220325 
L 355.149184 70.665855 
L 355.32 81.205845 
L 355.490816 76.957909 
L 355.661633 86.571658 
L 355.832449 76.989849 
L 356.003265 76.478819 
L 356.174082 71.719854 
L 356.515714 91.266745 
L 356.686531 100.720797 
L 356.857347 87.529839 
L 357.028163 87.593718 
L 357.19898 72.614156 
L 357.369796 81.748814 
L 357.540612 77.500879 
L 357.711429 83.824873 
L 357.882245 84.591418 
L 358.223878 71.815672 
L 358.394694 74.019488 
L 358.56551 84.814993 
L 358.736327 76.894031 
L 358.907143 77.341182 
L 359.077959 65.906889 
L 359.419592 87.402082 
L 359.590408 73.029368 
L 359.761224 79.896331 
L 359.932041 67.88713 
L 360.102857 85.837053 
L 360.273673 76.862091 
L 360.44449 86.891052 
L 360.615306 69.324401 
L 360.786122 84.942751 
L 360.956939 68.39816 
L 361.298571 88.871292 
L 361.469388 133.23507 
L 361.640204 129.402346 
L 361.981837 89.797534 
L 362.152653 93.470561 
L 362.494286 73.125186 
L 362.665102 84.687236 
L 362.835918 81.429421 
L 363.006735 102.669098 
L 363.177551 87.945051 
L 363.348367 84.623357 
L 363.519184 75.073487 
L 363.69 81.557178 
L 363.860816 70.793612 
L 364.031633 81.014209 
L 364.373265 74.658275 
L 364.544082 85.517659 
L 364.714898 72.805792 
L 364.885714 81.110027 
L 365.056531 77.564757 
L 365.227347 81.94045 
L 365.398163 71.815672 
L 365.56898 76.255243 
L 365.739796 75.93585 
L 365.910612 77.021788 
L 366.081429 87.306264 
L 366.252245 71.208824 
L 366.764694 112.187029 
L 367.106327 93.53444 
L 367.277143 96.504801 
L 367.618776 75.137366 
L 367.960408 76.638516 
L 368.131224 90.5002 
L 368.302041 81.365542 
L 368.472857 85.038569 
L 368.643673 70.186764 
L 368.81449 85.038569 
L 368.985306 71.017188 
L 369.156122 82.036268 
L 369.326939 76.894031 
L 369.497755 89.254565 
L 369.839388 78.45906 
L 370.010204 79.44918 
L 370.18102 70.88943 
L 370.351837 81.557178 
L 370.522653 78.331302 
L 370.693469 80.694815 
L 370.864286 73.221004 
L 371.205918 77.373121 
L 371.376735 77.277303 
L 371.718367 96.217346 
L 371.889184 86.827173 
L 372.06 89.797534 
L 372.230816 96.057649 
L 372.401633 93.630258 
L 372.572449 87.018809 
L 372.743265 73.955609 
L 372.914082 79.736634 
L 373.084898 72.167005 
L 373.255714 96.02571 
L 373.426531 80.535118 
L 373.597347 83.4416 
L 373.768163 78.235484 
L 373.93898 79.672755 
L 374.109796 75.42482 
L 374.280612 77.692515 
L 374.451429 83.95263 
L 374.622245 81.908511 
L 374.793061 85.645417 
L 374.963878 51.214782 
L 375.30551 86.98687 
L 375.647143 74.466639 
L 375.817959 84.527539 
L 375.988776 76.734334 
L 376.159592 78.171605 
L 376.330408 76.957909 
L 376.501224 86.763294 
L 376.672041 72.358641 
L 376.842857 91.969411 
L 377.18449 103.882794 
L 377.526122 137.546884 
L 377.867755 84.942751 
L 378.038571 70.442279 
L 378.209388 81.97239 
L 378.380204 84.112327 
L 378.55102 83.697115 
L 378.721837 78.267423 
L 378.892653 76.542698 
L 379.063469 86.060628 
L 379.234286 66.034647 
L 379.405102 86.060628 
L 379.575918 76.766273 
L 379.746735 87.306264 
L 379.917551 71.049127 
L 380.088367 83.665176 
L 380.259184 66.066586 
L 380.43 79.92827 
L 380.600816 83.697115 
L 380.771633 77.277303 
L 380.942449 76.542698 
L 381.113265 72.230884 
L 381.284082 78.778453 
L 381.454898 76.606576 
L 381.625714 83.154146 
L 381.796531 70.601976 
L 381.967347 99.091889 
L 382.138163 84.080388 
L 382.30898 93.726076 
L 382.479796 88.839353 
L 382.650612 93.183107 
L 382.821429 77.213424 
L 382.992245 79.225604 
L 383.163061 76.830152 
L 383.333878 91.681957 
L 383.504694 74.115306 
L 383.67551 79.640816 
L 383.846327 69.89931 
L 384.187959 82.323723 
L 384.358776 71.815672 
L 384.529592 86.028689 
L 384.700408 76.478819 
L 384.871224 76.766273 
L 385.042041 77.692515 
L 385.212857 86.763294 
L 385.383673 77.245364 
L 385.55449 77.373121 
L 385.725306 80.535118 
L 385.896122 70.314522 
L 386.066939 82.738934 
L 386.408571 77.341182 
L 386.579388 77.245364 
L 386.750204 75.42482 
L 386.92102 76.351062 
L 387.433469 133.618342 
L 387.775102 91.49032 
L 387.945918 119.469204 
L 388.287551 67.982948 
L 388.458367 84.591418 
L 388.8 77.245364 
L 388.8 77.245364 
" style="fill:none;stroke:#1f77b4;stroke-linecap:square;stroke-width:1.5;"/>
   </g>
   <g id="patch_3">
    <path d="M 54 252 
L 54 34.56 
" style="fill:none;stroke:#000000;stroke-linecap:square;stroke-linejoin:miter;stroke-width:0.8;"/>
   </g>
   <g id="patch_4">
    <path d="M 388.8 252 
L 388.8 34.56 
" style="fill:none;stroke:#000000;stroke-linecap:square;stroke-linejoin:miter;stroke-width:0.8;"/>
   </g>
   <g id="patch_5">
    <path d="M 54 252 
L 388.8 252 
" style="fill:none;stroke:#000000;stroke-linecap:square;stroke-linejoin:miter;stroke-width:0.8;"/>
   </g>
   <g id="patch_6">
    <path d="M 54 34.56 
L 388.8 34.56 
" style="fill:none;stroke:#000000;stroke-linecap:square;stroke-linejoin:miter;stroke-width:0.8;"/>
   </g>
   <g id="text_18">
    <!-- PID 186840, 1960 -->
    <defs>
     <path d="M 9.8125 72.90625 
L 19.671875 72.90625 
L 19.671875 0 
L 9.8125 0 
z
" id="DejaVuSans-73"/>
     <path d="M 19.671875 64.796875 
L 19.671875 8.109375 
L 31.59375 8.109375 
Q 46.6875 8.109375 53.6875 14.9375 
Q 60.6875 21.78125 60.6875 36.53125 
Q 60.6875 51.171875 53.6875 57.984375 
Q 46.6875 64.796875 31.59375 64.796875 
z
M 9.8125 72.90625 
L 30.078125 72.90625 
Q 51.265625 72.90625 61.171875 64.09375 
Q 71.09375 55.28125 71.09375 36.53125 
Q 71.09375 17.671875 61.125 8.828125 
Q 51.171875 0 30.078125 0 
L 9.8125 0 
z
" id="DejaVuSans-68"/>
     <path d="M 37.796875 64.3125 
L 12.890625 25.390625 
L 37.796875 25.390625 
z
M 35.203125 72.90625 
L 47.609375 72.90625 
L 47.609375 25.390625 
L 58.015625 25.390625 
L 58.015625 17.1875 
L 47.609375 17.1875 
L 47.609375 0 
L 37.796875 0 
L 37.796875 17.1875 
L 4.890625 17.1875 
L 4.890625 26.703125 
z
" id="DejaVuSans-52"/>
     <path d="M 11.71875 12.40625 
L 22.015625 12.40625 
L 22.015625 4 
L 14.015625 -11.625 
L 7.71875 -11.625 
L 11.71875 4 
z
" id="DejaVuSans-44"/>
    </defs>
    <g transform="translate(167.496563 28.56)scale(0.12 -0.12)">
     <use xlink:href="#DejaVuSans-80"/>
     <use x="60.302734" xlink:href="#DejaVuSans-73"/>
     <use x="89.794922" xlink:href="#DejaVuSans-68"/>
     <use x="166.796875" xlink:href="#DejaVuSans-32"/>
     <use x="198.583984" xlink:href="#DejaVuSans-49"/>
     <use x="262.207031" xlink:href="#DejaVuSans-56"/>
     <use x="325.830078" xlink:href="#DejaVuSans-54"/>
     <use x="389.453125" xlink:href="#DejaVuSans-56"/>
     <use x="453.076172" xlink:href="#DejaVuSans-52"/>
     <use x="516.699219" xlink:href="#DejaVuSans-48"/>
     <use x="580.322266" xlink:href="#DejaVuSans-44"/>
     <use x="612.109375" xlink:href="#DejaVuSans-32"/>
     <use x="643.896484" xlink:href="#DejaVuSans-49"/>
     <use x="707.519531" xlink:href="#DejaVuSans-57"/>
     <use x="771.142578" xlink:href="#DejaVuSans-54"/>
     <use x="834.765625" xlink:href="#DejaVuSans-48"/>
    </g>
   </g>
   <g id="legend_1">
    <g id="patch_7">
     <path d="M 319.967188 57.238125 
L 381.8 57.238125 
Q 383.8 57.238125 383.8 55.238125 
L 383.8 41.56 
Q 383.8 39.56 381.8 39.56 
L 319.967188 39.56 
Q 317.967188 39.56 317.967188 41.56 
L 317.967188 55.238125 
Q 317.967188 57.238125 319.967188 57.238125 
z
" style="fill:#ffffff;opacity:0.8;stroke:#cccccc;stroke-linejoin:miter;"/>
    </g>
    <g id="line2d_17">
     <path d="M 321.967188 47.658437 
L 341.967188 47.658437 
" style="fill:none;stroke:#1f77b4;stroke-linecap:square;stroke-width:1.5;"/>
    </g>
    <g id="line2d_18"/>
    <g id="text_19">
     <!-- %CPU -->
     <g transform="translate(349.967188 51.158437)scale(0.1 -0.1)">
      <use xlink:href="#DejaVuSans-37"/>
      <use x="95.019531" xlink:href="#DejaVuSans-67"/>
      <use x="164.84375" xlink:href="#DejaVuSans-80"/>
      <use x="225.146484" xlink:href="#DejaVuSans-85"/>
     </g>
    </g>
   </g>
  </g>
 </g>
 <defs>
  <clipPath id="p85c94c415e">
   <rect height="217.44" width="334.8" x="54" y="34.56"/>
  </clipPath>
 </defs>
</svg>
