<?xml version="1.0" encoding="utf-8" standalone="no"?>
<!DOCTYPE svg PUBLIC "-//W3C//DTD SVG 1.1//EN"
  "http://www.w3.org/Graphics/SVG/1.1/DTD/svg11.dtd">
<!-- Created with matplotlib (https://matplotlib.org/) -->
<svg height="288pt" version="1.1" viewBox="0 0 432 288" width="432pt" xmlns="http://www.w3.org/2000/svg" xmlns:xlink="http://www.w3.org/1999/xlink">
 <defs>
  <style type="text/css">
*{stroke-linecap:butt;stroke-linejoin:round;}
  </style>
 </defs>
 <g id="figure_1">
  <g id="patch_1">
   <path d="M 0 288 
L 432 288 
L 432 0 
L 0 0 
z
" style="fill:#ffffff;"/>
  </g>
  <g id="axes_1">
   <g id="patch_2">
    <path d="M 54 252 
L 388.8 252 
L 388.8 34.56 
L 54 34.56 
z
" style="fill:#ffffff;"/>
   </g>
   <g id="matplotlib.axis_1">
    <g id="xtick_1">
     <g id="line2d_1">
      <defs>
       <path d="M 0 0 
L 0 3.5 
" id="m0ec1f02872" style="stroke:#000000;stroke-width:0.8;"/>
      </defs>
      <g>
       <use style="stroke:#000000;stroke-width:0.8;" x="54" xlink:href="#m0ec1f02872" y="252"/>
      </g>
     </g>
     <g id="text_1">
      <!-- 0 -->
      <defs>
       <path d="M 31.78125 66.40625 
Q 24.171875 66.40625 20.328125 58.90625 
Q 16.5 51.421875 16.5 36.375 
Q 16.5 21.390625 20.328125 13.890625 
Q 24.171875 6.390625 31.78125 6.390625 
Q 39.453125 6.390625 43.28125 13.890625 
Q 47.125 21.390625 47.125 36.375 
Q 47.125 51.421875 43.28125 58.90625 
Q 39.453125 66.40625 31.78125 66.40625 
z
M 31.78125 74.21875 
Q 44.046875 74.21875 50.515625 64.515625 
Q 56.984375 54.828125 56.984375 36.375 
Q 56.984375 17.96875 50.515625 8.265625 
Q 44.046875 -1.421875 31.78125 -1.421875 
Q 19.53125 -1.421875 13.0625 8.265625 
Q 6.59375 17.96875 6.59375 36.375 
Q 6.59375 54.828125 13.0625 64.515625 
Q 19.53125 74.21875 31.78125 74.21875 
z
" id="DejaVuSans-48"/>
      </defs>
      <g transform="translate(50.81875 266.598437)scale(0.1 -0.1)">
       <use xlink:href="#DejaVuSans-48"/>
      </g>
     </g>
    </g>
    <g id="xtick_2">
     <g id="line2d_2">
      <g>
       <use style="stroke:#000000;stroke-width:0.8;" x="96.704082" xlink:href="#m0ec1f02872" y="252"/>
      </g>
     </g>
     <g id="text_2">
      <!-- 250 -->
      <defs>
       <path d="M 19.1875 8.296875 
L 53.609375 8.296875 
L 53.609375 0 
L 7.328125 0 
L 7.328125 8.296875 
Q 12.9375 14.109375 22.625 23.890625 
Q 32.328125 33.6875 34.8125 36.53125 
Q 39.546875 41.84375 41.421875 45.53125 
Q 43.3125 49.21875 43.3125 52.78125 
Q 43.3125 58.59375 39.234375 62.25 
Q 35.15625 65.921875 28.609375 65.921875 
Q 23.96875 65.921875 18.8125 64.3125 
Q 13.671875 62.703125 7.8125 59.421875 
L 7.8125 69.390625 
Q 13.765625 71.78125 18.9375 73 
Q 24.125 74.21875 28.421875 74.21875 
Q 39.75 74.21875 46.484375 68.546875 
Q 53.21875 62.890625 53.21875 53.421875 
Q 53.21875 48.921875 51.53125 44.890625 
Q 49.859375 40.875 45.40625 35.40625 
Q 44.1875 33.984375 37.640625 27.21875 
Q 31.109375 20.453125 19.1875 8.296875 
z
" id="DejaVuSans-50"/>
       <path d="M 10.796875 72.90625 
L 49.515625 72.90625 
L 49.515625 64.59375 
L 19.828125 64.59375 
L 19.828125 46.734375 
Q 21.96875 47.46875 24.109375 47.828125 
Q 26.265625 48.1875 28.421875 48.1875 
Q 40.625 48.1875 47.75 41.5 
Q 54.890625 34.8125 54.890625 23.390625 
Q 54.890625 11.625 47.5625 5.09375 
Q 40.234375 -1.421875 26.90625 -1.421875 
Q 22.3125 -1.421875 17.546875 -0.640625 
Q 12.796875 0.140625 7.71875 1.703125 
L 7.71875 11.625 
Q 12.109375 9.234375 16.796875 8.0625 
Q 21.484375 6.890625 26.703125 6.890625 
Q 35.15625 6.890625 40.078125 11.328125 
Q 45.015625 15.765625 45.015625 23.390625 
Q 45.015625 31 40.078125 35.4375 
Q 35.15625 39.890625 26.703125 39.890625 
Q 22.75 39.890625 18.8125 39.015625 
Q 14.890625 38.140625 10.796875 36.28125 
z
" id="DejaVuSans-53"/>
      </defs>
      <g transform="translate(87.160332 266.598437)scale(0.1 -0.1)">
       <use xlink:href="#DejaVuSans-50"/>
       <use x="63.623047" xlink:href="#DejaVuSans-53"/>
       <use x="127.246094" xlink:href="#DejaVuSans-48"/>
      </g>
     </g>
    </g>
    <g id="xtick_3">
     <g id="line2d_3">
      <g>
       <use style="stroke:#000000;stroke-width:0.8;" x="139.408163" xlink:href="#m0ec1f02872" y="252"/>
      </g>
     </g>
     <g id="text_3">
      <!-- 500 -->
      <g transform="translate(129.864413 266.598437)scale(0.1 -0.1)">
       <use xlink:href="#DejaVuSans-53"/>
       <use x="63.623047" xlink:href="#DejaVuSans-48"/>
       <use x="127.246094" xlink:href="#DejaVuSans-48"/>
      </g>
     </g>
    </g>
    <g id="xtick_4">
     <g id="line2d_4">
      <g>
       <use style="stroke:#000000;stroke-width:0.8;" x="182.112245" xlink:href="#m0ec1f02872" y="252"/>
      </g>
     </g>
     <g id="text_4">
      <!-- 750 -->
      <defs>
       <path d="M 8.203125 72.90625 
L 55.078125 72.90625 
L 55.078125 68.703125 
L 28.609375 0 
L 18.3125 0 
L 43.21875 64.59375 
L 8.203125 64.59375 
z
" id="DejaVuSans-55"/>
      </defs>
      <g transform="translate(172.568495 266.598437)scale(0.1 -0.1)">
       <use xlink:href="#DejaVuSans-55"/>
       <use x="63.623047" xlink:href="#DejaVuSans-53"/>
       <use x="127.246094" xlink:href="#DejaVuSans-48"/>
      </g>
     </g>
    </g>
    <g id="xtick_5">
     <g id="line2d_5">
      <g>
       <use style="stroke:#000000;stroke-width:0.8;" x="224.816327" xlink:href="#m0ec1f02872" y="252"/>
      </g>
     </g>
     <g id="text_5">
      <!-- 1000 -->
      <defs>
       <path d="M 12.40625 8.296875 
L 28.515625 8.296875 
L 28.515625 63.921875 
L 10.984375 60.40625 
L 10.984375 69.390625 
L 28.421875 72.90625 
L 38.28125 72.90625 
L 38.28125 8.296875 
L 54.390625 8.296875 
L 54.390625 0 
L 12.40625 0 
z
" id="DejaVuSans-49"/>
      </defs>
      <g transform="translate(212.091327 266.598437)scale(0.1 -0.1)">
       <use xlink:href="#DejaVuSans-49"/>
       <use x="63.623047" xlink:href="#DejaVuSans-48"/>
       <use x="127.246094" xlink:href="#DejaVuSans-48"/>
       <use x="190.869141" xlink:href="#DejaVuSans-48"/>
      </g>
     </g>
    </g>
    <g id="xtick_6">
     <g id="line2d_6">
      <g>
       <use style="stroke:#000000;stroke-width:0.8;" x="267.520408" xlink:href="#m0ec1f02872" y="252"/>
      </g>
     </g>
     <g id="text_6">
      <!-- 1250 -->
      <g transform="translate(254.795408 266.598437)scale(0.1 -0.1)">
       <use xlink:href="#DejaVuSans-49"/>
       <use x="63.623047" xlink:href="#DejaVuSans-50"/>
       <use x="127.246094" xlink:href="#DejaVuSans-53"/>
       <use x="190.869141" xlink:href="#DejaVuSans-48"/>
      </g>
     </g>
    </g>
    <g id="xtick_7">
     <g id="line2d_7">
      <g>
       <use style="stroke:#000000;stroke-width:0.8;" x="310.22449" xlink:href="#m0ec1f02872" y="252"/>
      </g>
     </g>
     <g id="text_7">
      <!-- 1500 -->
      <g transform="translate(297.49949 266.598437)scale(0.1 -0.1)">
       <use xlink:href="#DejaVuSans-49"/>
       <use x="63.623047" xlink:href="#DejaVuSans-53"/>
       <use x="127.246094" xlink:href="#DejaVuSans-48"/>
       <use x="190.869141" xlink:href="#DejaVuSans-48"/>
      </g>
     </g>
    </g>
    <g id="xtick_8">
     <g id="line2d_8">
      <g>
       <use style="stroke:#000000;stroke-width:0.8;" x="352.928571" xlink:href="#m0ec1f02872" y="252"/>
      </g>
     </g>
     <g id="text_8">
      <!-- 1750 -->
      <g transform="translate(340.203571 266.598437)scale(0.1 -0.1)">
       <use xlink:href="#DejaVuSans-49"/>
       <use x="63.623047" xlink:href="#DejaVuSans-55"/>
       <use x="127.246094" xlink:href="#DejaVuSans-53"/>
       <use x="190.869141" xlink:href="#DejaVuSans-48"/>
      </g>
     </g>
    </g>
    <g id="text_9">
     <!-- time [arbitrary units] -->
     <defs>
      <path d="M 18.3125 70.21875 
L 18.3125 54.6875 
L 36.8125 54.6875 
L 36.8125 47.703125 
L 18.3125 47.703125 
L 18.3125 18.015625 
Q 18.3125 11.328125 20.140625 9.421875 
Q 21.96875 7.515625 27.59375 7.515625 
L 36.8125 7.515625 
L 36.8125 0 
L 27.59375 0 
Q 17.1875 0 13.234375 3.875 
Q 9.28125 7.765625 9.28125 18.015625 
L 9.28125 47.703125 
L 2.6875 47.703125 
L 2.6875 54.6875 
L 9.28125 54.6875 
L 9.28125 70.21875 
z
" id="DejaVuSans-116"/>
      <path d="M 9.421875 54.6875 
L 18.40625 54.6875 
L 18.40625 0 
L 9.421875 0 
z
M 9.421875 75.984375 
L 18.40625 75.984375 
L 18.40625 64.59375 
L 9.421875 64.59375 
z
" id="DejaVuSans-105"/>
      <path d="M 52 44.1875 
Q 55.375 50.25 60.0625 53.125 
Q 64.75 56 71.09375 56 
Q 79.640625 56 84.28125 50.015625 
Q 88.921875 44.046875 88.921875 33.015625 
L 88.921875 0 
L 79.890625 0 
L 79.890625 32.71875 
Q 79.890625 40.578125 77.09375 44.375 
Q 74.3125 48.1875 68.609375 48.1875 
Q 61.625 48.1875 57.5625 43.546875 
Q 53.515625 38.921875 53.515625 30.90625 
L 53.515625 0 
L 44.484375 0 
L 44.484375 32.71875 
Q 44.484375 40.625 41.703125 44.40625 
Q 38.921875 48.1875 33.109375 48.1875 
Q 26.21875 48.1875 22.15625 43.53125 
Q 18.109375 38.875 18.109375 30.90625 
L 18.109375 0 
L 9.078125 0 
L 9.078125 54.6875 
L 18.109375 54.6875 
L 18.109375 46.1875 
Q 21.1875 51.21875 25.484375 53.609375 
Q 29.78125 56 35.6875 56 
Q 41.65625 56 45.828125 52.96875 
Q 50 49.953125 52 44.1875 
z
" id="DejaVuSans-109"/>
      <path d="M 56.203125 29.59375 
L 56.203125 25.203125 
L 14.890625 25.203125 
Q 15.484375 15.921875 20.484375 11.0625 
Q 25.484375 6.203125 34.421875 6.203125 
Q 39.59375 6.203125 44.453125 7.46875 
Q 49.3125 8.734375 54.109375 11.28125 
L 54.109375 2.78125 
Q 49.265625 0.734375 44.1875 -0.34375 
Q 39.109375 -1.421875 33.890625 -1.421875 
Q 20.796875 -1.421875 13.15625 6.1875 
Q 5.515625 13.8125 5.515625 26.8125 
Q 5.515625 40.234375 12.765625 48.109375 
Q 20.015625 56 32.328125 56 
Q 43.359375 56 49.78125 48.890625 
Q 56.203125 41.796875 56.203125 29.59375 
z
M 47.21875 32.234375 
Q 47.125 39.59375 43.09375 43.984375 
Q 39.0625 48.390625 32.421875 48.390625 
Q 24.90625 48.390625 20.390625 44.140625 
Q 15.875 39.890625 15.1875 32.171875 
z
" id="DejaVuSans-101"/>
      <path id="DejaVuSans-32"/>
      <path d="M 8.59375 75.984375 
L 29.296875 75.984375 
L 29.296875 69 
L 17.578125 69 
L 17.578125 -6.203125 
L 29.296875 -6.203125 
L 29.296875 -13.1875 
L 8.59375 -13.1875 
z
" id="DejaVuSans-91"/>
      <path d="M 34.28125 27.484375 
Q 23.390625 27.484375 19.1875 25 
Q 14.984375 22.515625 14.984375 16.5 
Q 14.984375 11.71875 18.140625 8.90625 
Q 21.296875 6.109375 26.703125 6.109375 
Q 34.1875 6.109375 38.703125 11.40625 
Q 43.21875 16.703125 43.21875 25.484375 
L 43.21875 27.484375 
z
M 52.203125 31.203125 
L 52.203125 0 
L 43.21875 0 
L 43.21875 8.296875 
Q 40.140625 3.328125 35.546875 0.953125 
Q 30.953125 -1.421875 24.3125 -1.421875 
Q 15.921875 -1.421875 10.953125 3.296875 
Q 6 8.015625 6 15.921875 
Q 6 25.140625 12.171875 29.828125 
Q 18.359375 34.515625 30.609375 34.515625 
L 43.21875 34.515625 
L 43.21875 35.40625 
Q 43.21875 41.609375 39.140625 45 
Q 35.0625 48.390625 27.6875 48.390625 
Q 23 48.390625 18.546875 47.265625 
Q 14.109375 46.140625 10.015625 43.890625 
L 10.015625 52.203125 
Q 14.9375 54.109375 19.578125 55.046875 
Q 24.21875 56 28.609375 56 
Q 40.484375 56 46.34375 49.84375 
Q 52.203125 43.703125 52.203125 31.203125 
z
" id="DejaVuSans-97"/>
      <path d="M 41.109375 46.296875 
Q 39.59375 47.171875 37.8125 47.578125 
Q 36.03125 48 33.890625 48 
Q 26.265625 48 22.1875 43.046875 
Q 18.109375 38.09375 18.109375 28.8125 
L 18.109375 0 
L 9.078125 0 
L 9.078125 54.6875 
L 18.109375 54.6875 
L 18.109375 46.1875 
Q 20.953125 51.171875 25.484375 53.578125 
Q 30.03125 56 36.53125 56 
Q 37.453125 56 38.578125 55.875 
Q 39.703125 55.765625 41.0625 55.515625 
z
" id="DejaVuSans-114"/>
      <path d="M 48.6875 27.296875 
Q 48.6875 37.203125 44.609375 42.84375 
Q 40.53125 48.484375 33.40625 48.484375 
Q 26.265625 48.484375 22.1875 42.84375 
Q 18.109375 37.203125 18.109375 27.296875 
Q 18.109375 17.390625 22.1875 11.75 
Q 26.265625 6.109375 33.40625 6.109375 
Q 40.53125 6.109375 44.609375 11.75 
Q 48.6875 17.390625 48.6875 27.296875 
z
M 18.109375 46.390625 
Q 20.953125 51.265625 25.265625 53.625 
Q 29.59375 56 35.59375 56 
Q 45.5625 56 51.78125 48.09375 
Q 58.015625 40.1875 58.015625 27.296875 
Q 58.015625 14.40625 51.78125 6.484375 
Q 45.5625 -1.421875 35.59375 -1.421875 
Q 29.59375 -1.421875 25.265625 0.953125 
Q 20.953125 3.328125 18.109375 8.203125 
L 18.109375 0 
L 9.078125 0 
L 9.078125 75.984375 
L 18.109375 75.984375 
z
" id="DejaVuSans-98"/>
      <path d="M 32.171875 -5.078125 
Q 28.375 -14.84375 24.75 -17.8125 
Q 21.140625 -20.796875 15.09375 -20.796875 
L 7.90625 -20.796875 
L 7.90625 -13.28125 
L 13.1875 -13.28125 
Q 16.890625 -13.28125 18.9375 -11.515625 
Q 21 -9.765625 23.484375 -3.21875 
L 25.09375 0.875 
L 2.984375 54.6875 
L 12.5 54.6875 
L 29.59375 11.921875 
L 46.6875 54.6875 
L 56.203125 54.6875 
z
" id="DejaVuSans-121"/>
      <path d="M 8.5 21.578125 
L 8.5 54.6875 
L 17.484375 54.6875 
L 17.484375 21.921875 
Q 17.484375 14.15625 20.5 10.265625 
Q 23.53125 6.390625 29.59375 6.390625 
Q 36.859375 6.390625 41.078125 11.03125 
Q 45.3125 15.671875 45.3125 23.6875 
L 45.3125 54.6875 
L 54.296875 54.6875 
L 54.296875 0 
L 45.3125 0 
L 45.3125 8.40625 
Q 42.046875 3.421875 37.71875 1 
Q 33.40625 -1.421875 27.6875 -1.421875 
Q 18.265625 -1.421875 13.375 4.4375 
Q 8.5 10.296875 8.5 21.578125 
z
M 31.109375 56 
z
" id="DejaVuSans-117"/>
      <path d="M 54.890625 33.015625 
L 54.890625 0 
L 45.90625 0 
L 45.90625 32.71875 
Q 45.90625 40.484375 42.875 44.328125 
Q 39.84375 48.1875 33.796875 48.1875 
Q 26.515625 48.1875 22.3125 43.546875 
Q 18.109375 38.921875 18.109375 30.90625 
L 18.109375 0 
L 9.078125 0 
L 9.078125 54.6875 
L 18.109375 54.6875 
L 18.109375 46.1875 
Q 21.34375 51.125 25.703125 53.5625 
Q 30.078125 56 35.796875 56 
Q 45.21875 56 50.046875 50.171875 
Q 54.890625 44.34375 54.890625 33.015625 
z
" id="DejaVuSans-110"/>
      <path d="M 44.28125 53.078125 
L 44.28125 44.578125 
Q 40.484375 46.53125 36.375 47.5 
Q 32.28125 48.484375 27.875 48.484375 
Q 21.1875 48.484375 17.84375 46.4375 
Q 14.5 44.390625 14.5 40.28125 
Q 14.5 37.15625 16.890625 35.375 
Q 19.28125 33.59375 26.515625 31.984375 
L 29.59375 31.296875 
Q 39.15625 29.25 43.1875 25.515625 
Q 47.21875 21.78125 47.21875 15.09375 
Q 47.21875 7.46875 41.1875 3.015625 
Q 35.15625 -1.421875 24.609375 -1.421875 
Q 20.21875 -1.421875 15.453125 -0.5625 
Q 10.6875 0.296875 5.421875 2 
L 5.421875 11.28125 
Q 10.40625 8.6875 15.234375 7.390625 
Q 20.0625 6.109375 24.8125 6.109375 
Q 31.15625 6.109375 34.5625 8.28125 
Q 37.984375 10.453125 37.984375 14.40625 
Q 37.984375 18.0625 35.515625 20.015625 
Q 33.0625 21.96875 24.703125 23.78125 
L 21.578125 24.515625 
Q 13.234375 26.265625 9.515625 29.90625 
Q 5.8125 33.546875 5.8125 39.890625 
Q 5.8125 47.609375 11.28125 51.796875 
Q 16.75 56 26.8125 56 
Q 31.78125 56 36.171875 55.265625 
Q 40.578125 54.546875 44.28125 53.078125 
z
" id="DejaVuSans-115"/>
      <path d="M 30.421875 75.984375 
L 30.421875 -13.1875 
L 9.71875 -13.1875 
L 9.71875 -6.203125 
L 21.390625 -6.203125 
L 21.390625 69 
L 9.71875 69 
L 9.71875 75.984375 
z
" id="DejaVuSans-93"/>
     </defs>
     <g transform="translate(168.955469 280.276563)scale(0.1 -0.1)">
      <use xlink:href="#DejaVuSans-116"/>
      <use x="39.208984" xlink:href="#DejaVuSans-105"/>
      <use x="66.992188" xlink:href="#DejaVuSans-109"/>
      <use x="164.404297" xlink:href="#DejaVuSans-101"/>
      <use x="225.927734" xlink:href="#DejaVuSans-32"/>
      <use x="257.714844" xlink:href="#DejaVuSans-91"/>
      <use x="296.728516" xlink:href="#DejaVuSans-97"/>
      <use x="358.007812" xlink:href="#DejaVuSans-114"/>
      <use x="399.121094" xlink:href="#DejaVuSans-98"/>
      <use x="462.597656" xlink:href="#DejaVuSans-105"/>
      <use x="490.380859" xlink:href="#DejaVuSans-116"/>
      <use x="529.589844" xlink:href="#DejaVuSans-114"/>
      <use x="570.703125" xlink:href="#DejaVuSans-97"/>
      <use x="631.982422" xlink:href="#DejaVuSans-114"/>
      <use x="673.095703" xlink:href="#DejaVuSans-121"/>
      <use x="732.275391" xlink:href="#DejaVuSans-32"/>
      <use x="764.0625" xlink:href="#DejaVuSans-117"/>
      <use x="827.441406" xlink:href="#DejaVuSans-110"/>
      <use x="890.820312" xlink:href="#DejaVuSans-105"/>
      <use x="918.603516" xlink:href="#DejaVuSans-116"/>
      <use x="957.8125" xlink:href="#DejaVuSans-115"/>
      <use x="1009.912109" xlink:href="#DejaVuSans-93"/>
     </g>
    </g>
   </g>
   <g id="matplotlib.axis_2">
    <g id="ytick_1">
     <g id="line2d_9">
      <defs>
       <path d="M 0 0 
L -3.5 0 
" id="m1bf06eb20b" style="stroke:#000000;stroke-width:0.8;"/>
      </defs>
      <g>
       <use style="stroke:#000000;stroke-width:0.8;" x="54" xlink:href="#m1bf06eb20b" y="251.348726"/>
      </g>
     </g>
     <g id="text_10">
      <!-- 0.30 -->
      <defs>
       <path d="M 10.6875 12.40625 
L 21 12.40625 
L 21 0 
L 10.6875 0 
z
" id="DejaVuSans-46"/>
       <path d="M 40.578125 39.3125 
Q 47.65625 37.796875 51.625 33 
Q 55.609375 28.21875 55.609375 21.1875 
Q 55.609375 10.40625 48.1875 4.484375 
Q 40.765625 -1.421875 27.09375 -1.421875 
Q 22.515625 -1.421875 17.65625 -0.515625 
Q 12.796875 0.390625 7.625 2.203125 
L 7.625 11.71875 
Q 11.71875 9.328125 16.59375 8.109375 
Q 21.484375 6.890625 26.8125 6.890625 
Q 36.078125 6.890625 40.9375 10.546875 
Q 45.796875 14.203125 45.796875 21.1875 
Q 45.796875 27.640625 41.28125 31.265625 
Q 36.765625 34.90625 28.71875 34.90625 
L 20.21875 34.90625 
L 20.21875 43.015625 
L 29.109375 43.015625 
Q 36.375 43.015625 40.234375 45.921875 
Q 44.09375 48.828125 44.09375 54.296875 
Q 44.09375 59.90625 40.109375 62.90625 
Q 36.140625 65.921875 28.71875 65.921875 
Q 24.65625 65.921875 20.015625 65.03125 
Q 15.375 64.15625 9.8125 62.3125 
L 9.8125 71.09375 
Q 15.4375 72.65625 20.34375 73.4375 
Q 25.25 74.21875 29.59375 74.21875 
Q 40.828125 74.21875 47.359375 69.109375 
Q 53.90625 64.015625 53.90625 55.328125 
Q 53.90625 49.265625 50.4375 45.09375 
Q 46.96875 40.921875 40.578125 39.3125 
z
" id="DejaVuSans-51"/>
      </defs>
      <g transform="translate(24.734375 255.147944)scale(0.1 -0.1)">
       <use xlink:href="#DejaVuSans-48"/>
       <use x="63.623047" xlink:href="#DejaVuSans-46"/>
       <use x="95.410156" xlink:href="#DejaVuSans-51"/>
       <use x="159.033203" xlink:href="#DejaVuSans-48"/>
      </g>
     </g>
    </g>
    <g id="ytick_2">
     <g id="line2d_10">
      <g>
       <use style="stroke:#000000;stroke-width:0.8;" x="54" xlink:href="#m1bf06eb20b" y="206.807201"/>
      </g>
     </g>
     <g id="text_11">
      <!-- 0.35 -->
      <g transform="translate(24.734375 210.606419)scale(0.1 -0.1)">
       <use xlink:href="#DejaVuSans-48"/>
       <use x="63.623047" xlink:href="#DejaVuSans-46"/>
       <use x="95.410156" xlink:href="#DejaVuSans-51"/>
       <use x="159.033203" xlink:href="#DejaVuSans-53"/>
      </g>
     </g>
    </g>
    <g id="ytick_3">
     <g id="line2d_11">
      <g>
       <use style="stroke:#000000;stroke-width:0.8;" x="54" xlink:href="#m1bf06eb20b" y="162.265676"/>
      </g>
     </g>
     <g id="text_12">
      <!-- 0.40 -->
      <defs>
       <path d="M 37.796875 64.3125 
L 12.890625 25.390625 
L 37.796875 25.390625 
z
M 35.203125 72.90625 
L 47.609375 72.90625 
L 47.609375 25.390625 
L 58.015625 25.390625 
L 58.015625 17.1875 
L 47.609375 17.1875 
L 47.609375 0 
L 37.796875 0 
L 37.796875 17.1875 
L 4.890625 17.1875 
L 4.890625 26.703125 
z
" id="DejaVuSans-52"/>
      </defs>
      <g transform="translate(24.734375 166.064894)scale(0.1 -0.1)">
       <use xlink:href="#DejaVuSans-48"/>
       <use x="63.623047" xlink:href="#DejaVuSans-46"/>
       <use x="95.410156" xlink:href="#DejaVuSans-52"/>
       <use x="159.033203" xlink:href="#DejaVuSans-48"/>
      </g>
     </g>
    </g>
    <g id="ytick_4">
     <g id="line2d_12">
      <g>
       <use style="stroke:#000000;stroke-width:0.8;" x="54" xlink:href="#m1bf06eb20b" y="117.72415"/>
      </g>
     </g>
     <g id="text_13">
      <!-- 0.45 -->
      <g transform="translate(24.734375 121.523369)scale(0.1 -0.1)">
       <use xlink:href="#DejaVuSans-48"/>
       <use x="63.623047" xlink:href="#DejaVuSans-46"/>
       <use x="95.410156" xlink:href="#DejaVuSans-52"/>
       <use x="159.033203" xlink:href="#DejaVuSans-53"/>
      </g>
     </g>
    </g>
    <g id="ytick_5">
     <g id="line2d_13">
      <g>
       <use style="stroke:#000000;stroke-width:0.8;" x="54" xlink:href="#m1bf06eb20b" y="73.182625"/>
      </g>
     </g>
     <g id="text_14">
      <!-- 0.50 -->
      <g transform="translate(24.734375 76.981844)scale(0.1 -0.1)">
       <use xlink:href="#DejaVuSans-48"/>
       <use x="63.623047" xlink:href="#DejaVuSans-46"/>
       <use x="95.410156" xlink:href="#DejaVuSans-53"/>
       <use x="159.033203" xlink:href="#DejaVuSans-48"/>
      </g>
     </g>
    </g>
    <g id="text_15">
     <!-- RSS [GB] -->
     <defs>
      <path d="M 44.390625 34.1875 
Q 47.5625 33.109375 50.5625 29.59375 
Q 53.5625 26.078125 56.59375 19.921875 
L 66.609375 0 
L 56 0 
L 46.6875 18.703125 
Q 43.0625 26.03125 39.671875 28.421875 
Q 36.28125 30.8125 30.421875 30.8125 
L 19.671875 30.8125 
L 19.671875 0 
L 9.8125 0 
L 9.8125 72.90625 
L 32.078125 72.90625 
Q 44.578125 72.90625 50.734375 67.671875 
Q 56.890625 62.453125 56.890625 51.90625 
Q 56.890625 45.015625 53.6875 40.46875 
Q 50.484375 35.9375 44.390625 34.1875 
z
M 19.671875 64.796875 
L 19.671875 38.921875 
L 32.078125 38.921875 
Q 39.203125 38.921875 42.84375 42.21875 
Q 46.484375 45.515625 46.484375 51.90625 
Q 46.484375 58.296875 42.84375 61.546875 
Q 39.203125 64.796875 32.078125 64.796875 
z
" id="DejaVuSans-82"/>
      <path d="M 53.515625 70.515625 
L 53.515625 60.890625 
Q 47.90625 63.578125 42.921875 64.890625 
Q 37.9375 66.21875 33.296875 66.21875 
Q 25.25 66.21875 20.875 63.09375 
Q 16.5 59.96875 16.5 54.203125 
Q 16.5 49.359375 19.40625 46.890625 
Q 22.3125 44.4375 30.421875 42.921875 
L 36.375 41.703125 
Q 47.40625 39.59375 52.65625 34.296875 
Q 57.90625 29 57.90625 20.125 
Q 57.90625 9.515625 50.796875 4.046875 
Q 43.703125 -1.421875 29.984375 -1.421875 
Q 24.8125 -1.421875 18.96875 -0.25 
Q 13.140625 0.921875 6.890625 3.21875 
L 6.890625 13.375 
Q 12.890625 10.015625 18.65625 8.296875 
Q 24.421875 6.59375 29.984375 6.59375 
Q 38.421875 6.59375 43.015625 9.90625 
Q 47.609375 13.234375 47.609375 19.390625 
Q 47.609375 24.75 44.3125 27.78125 
Q 41.015625 30.8125 33.5 32.328125 
L 27.484375 33.5 
Q 16.453125 35.6875 11.515625 40.375 
Q 6.59375 45.0625 6.59375 53.421875 
Q 6.59375 63.09375 13.40625 68.65625 
Q 20.21875 74.21875 32.171875 74.21875 
Q 37.3125 74.21875 42.625 73.28125 
Q 47.953125 72.359375 53.515625 70.515625 
z
" id="DejaVuSans-83"/>
      <path d="M 59.515625 10.40625 
L 59.515625 29.984375 
L 43.40625 29.984375 
L 43.40625 38.09375 
L 69.28125 38.09375 
L 69.28125 6.78125 
Q 63.578125 2.734375 56.6875 0.65625 
Q 49.8125 -1.421875 42 -1.421875 
Q 24.90625 -1.421875 15.25 8.5625 
Q 5.609375 18.5625 5.609375 36.375 
Q 5.609375 54.25 15.25 64.234375 
Q 24.90625 74.21875 42 74.21875 
Q 49.125 74.21875 55.546875 72.453125 
Q 61.96875 70.703125 67.390625 67.28125 
L 67.390625 56.78125 
Q 61.921875 61.421875 55.765625 63.765625 
Q 49.609375 66.109375 42.828125 66.109375 
Q 29.4375 66.109375 22.71875 58.640625 
Q 16.015625 51.171875 16.015625 36.375 
Q 16.015625 21.625 22.71875 14.15625 
Q 29.4375 6.6875 42.828125 6.6875 
Q 48.046875 6.6875 52.140625 7.59375 
Q 56.25 8.5 59.515625 10.40625 
z
" id="DejaVuSans-71"/>
      <path d="M 19.671875 34.8125 
L 19.671875 8.109375 
L 35.5 8.109375 
Q 43.453125 8.109375 47.28125 11.40625 
Q 51.125 14.703125 51.125 21.484375 
Q 51.125 28.328125 47.28125 31.5625 
Q 43.453125 34.8125 35.5 34.8125 
z
M 19.671875 64.796875 
L 19.671875 42.828125 
L 34.28125 42.828125 
Q 41.5 42.828125 45.03125 45.53125 
Q 48.578125 48.25 48.578125 53.8125 
Q 48.578125 59.328125 45.03125 62.0625 
Q 41.5 64.796875 34.28125 64.796875 
z
M 9.8125 72.90625 
L 35.015625 72.90625 
Q 46.296875 72.90625 52.390625 68.21875 
Q 58.5 63.53125 58.5 54.890625 
Q 58.5 48.1875 55.375 44.234375 
Q 52.25 40.28125 46.1875 39.3125 
Q 53.46875 37.75 57.5 32.78125 
Q 61.53125 27.828125 61.53125 20.40625 
Q 61.53125 10.640625 54.890625 5.3125 
Q 48.25 0 35.984375 0 
L 9.8125 0 
z
" id="DejaVuSans-66"/>
     </defs>
     <g transform="translate(18.654687 165.897969)rotate(-90)scale(0.1 -0.1)">
      <use xlink:href="#DejaVuSans-82"/>
      <use x="69.482422" xlink:href="#DejaVuSans-83"/>
      <use x="132.958984" xlink:href="#DejaVuSans-83"/>
      <use x="196.435547" xlink:href="#DejaVuSans-32"/>
      <use x="228.222656" xlink:href="#DejaVuSans-91"/>
      <use x="267.236328" xlink:href="#DejaVuSans-71"/>
      <use x="344.726562" xlink:href="#DejaVuSans-66"/>
      <use x="413.330078" xlink:href="#DejaVuSans-93"/>
     </g>
    </g>
   </g>
   <g id="line2d_14">
    <path clip-path="url(#p7ff8fd6fd6)" d="M 54 133.953507 
L 54.170816 168.93168 
L 54.341633 168.734582 
L 54.683265 134.103029 
L 54.854082 140.848553 
L 55.024898 182.602835 
L 55.366531 133.851559 
L 55.537347 161.69341 
L 55.708163 161.798756 
L 55.87898 136.366263 
L 56.049796 133.943312 
L 56.220612 133.827771 
L 56.391429 147.736803 
L 56.562245 133.916126 
L 56.733061 161.754579 
L 56.903878 147.835352 
L 57.074694 154.676027 
L 57.24551 154.676027 
L 57.416327 185.086954 
L 57.587143 135.26523 
L 57.757959 133.885542 
L 57.928776 168.676811 
L 58.099592 126.92253 
L 58.270408 168.564669 
L 58.441224 154.754187 
L 58.612041 168.646227 
L 58.782857 168.642829 
L 59.12449 154.730399 
L 59.295306 126.878353 
L 59.466122 175.616035 
L 59.636939 161.659428 
L 59.807755 164.248893 
L 59.978571 133.817577 
L 60.320204 168.632634 
L 60.49102 127.031274 
L 60.661837 168.588457 
L 60.832653 161.513303 
L 61.003469 140.743207 
L 61.174286 161.625445 
L 61.345102 196.307971 
L 61.515918 189.351756 
L 61.686735 168.449129 
L 61.857551 175.507291 
L 62.028367 161.588065 
L 62.199184 182.354762 
L 62.37 154.621655 
L 62.540816 161.574472 
L 62.711633 175.483504 
L 62.882449 154.591071 
L 63.053265 147.634856 
L 63.224082 182.324178 
L 63.394898 182.32078 
L 63.736531 106.036894 
L 63.907347 126.840972 
L 64.078163 161.407958 
L 64.24898 105.934946 
L 64.419796 175.507291 
L 64.590612 147.481934 
L 64.761429 168.462722 
L 65.103061 119.918739 
L 65.273878 133.685045 
L 65.61551 189.20903 
L 65.786327 161.465728 
L 65.957143 184.937431 
L 66.127959 182.334373 
L 66.298776 133.610283 
L 66.469592 168.299606 
L 66.640408 140.569897 
L 66.811224 161.44194 
L 66.982041 154.35999 
L 67.152857 161.312807 
L 67.323673 221.319082 
L 67.665306 133.657859 
L 68.006939 175.347574 
L 68.177755 147.356199 
L 68.348571 140.50533 
L 68.690204 196.076891 
L 69.202653 140.535914 
L 69.373469 148.253337 
L 69.544286 175.167466 
L 69.715102 133.698638 
L 69.885918 168.19426 
L 70.056735 168.184065 
L 70.227551 156.755755 
L 70.398367 126.412793 
L 70.569184 182.089699 
L 71.081633 140.423772 
L 71.252449 189.032321 
L 71.423265 154.329406 
L 71.594082 161.278824 
L 71.764898 140.406781 
L 71.935714 168.238437 
L 72.106531 126.480758 
L 72.277347 175.269414 
L 72.448163 161.251638 
L 72.61898 133.301043 
L 72.789796 161.142894 
L 72.960612 126.446775 
L 73.302245 161.394365 
L 73.643878 98.666092 
L 73.814694 202.866591 
L 73.98551 188.947365 
L 74.156327 140.328621 
L 74.327143 219.320912 
L 74.497959 126.579307 
L 74.668776 181.953769 
L 74.839592 174.994156 
L 75.010408 133.34522 
L 75.181224 133.222883 
L 75.352041 133.321432 
L 75.693673 154.084732 
L 75.86449 154.084732 
L 76.035306 119.585711 
L 76.206122 140.260656 
L 76.376939 140.42717 
L 76.718571 154.047351 
L 76.889388 133.277255 
L 77.060204 168.075321 
L 77.23102 167.966578 
L 77.401837 147.074145 
L 77.572653 175.014545 
L 77.743469 154.125511 
L 77.914286 168.129693 
L 78.085102 57.815745 
L 78.255918 202.931158 
L 78.426735 140.196089 
L 78.768367 174.983961 
L 78.939184 126.26327 
L 79.11 168.020949 
L 79.280816 133.222883 
L 79.451633 133.22968 
L 79.622449 140.243665 
L 79.793265 161.030752 
L 79.964082 119.286665 
L 80.134898 181.787255 
L 80.305714 167.976772 
L 80.476531 173.923707 
L 80.647347 153.935209 
L 80.818163 119.378418 
L 80.98898 188.712886 
L 81.159796 177.359337 
L 81.330612 133.056369 
L 81.501429 133.141325 
L 81.672245 181.739679 
L 81.843061 126.154526 
L 82.013878 133.114139 
L 82.184694 160.84045 
L 82.35551 140.128124 
L 82.526327 132.9952 
L 82.697143 140.070354 
L 82.867959 126.222491 
L 83.038776 167.766081 
L 83.209592 126.222491 
L 83.380408 153.958996 
L 83.551224 160.915212 
L 83.722041 174.902403 
L 83.892857 140.01938 
L 84.063673 160.837052 
L 84.23449 126.246279 
L 84.576122 174.63734 
L 84.746939 126.028791 
L 84.917755 132.968014 
L 85.088571 167.660735 
L 85.259388 160.684131 
L 85.430204 160.792875 
L 85.60102 167.647142 
L 85.771837 132.951023 
L 85.942653 133.01559 
L 86.113469 195.458409 
L 86.284286 174.75288 
L 86.455102 188.597345 
L 86.625918 132.923837 
L 86.967551 195.43802 
L 87.309184 146.700337 
L 87.48 153.765296 
L 87.650816 132.886456 
L 87.821633 126.015198 
L 87.992449 153.646358 
L 88.334082 167.657337 
L 88.504898 188.580354 
L 88.675714 139.812087 
L 88.846531 139.812087 
L 89.017347 133.039378 
L 89.188163 146.645965 
L 89.529796 197.935733 
L 89.871429 139.839273 
L 90.383878 188.366264 
L 90.72551 139.744122 
L 90.896327 195.312285 
L 91.067143 146.594992 
L 91.237959 195.49579 
L 91.750408 132.648579 
L 91.921224 146.669753 
L 92.092041 118.8313 
L 92.433673 188.301698 
L 92.775306 132.74373 
L 92.946122 174.579569 
L 93.116939 160.571988 
L 93.287755 132.719942 
L 93.458571 160.538006 
L 93.629388 125.920047 
L 93.800204 125.729745 
L 93.97102 153.5648 
L 94.141837 160.408872 
L 94.312653 125.736541 
L 94.483469 167.351495 
L 94.654286 160.500625 
L 94.825102 132.651977 
L 94.995918 181.58336 
L 95.166735 160.487032 
L 95.337551 160.483634 
L 95.508367 111.752748 
L 95.679184 195.152567 
L 95.85 139.581006 
L 96.191633 167.416061 
L 96.533265 125.77732 
L 96.704082 167.388875 
L 97.045714 153.46625 
L 97.216531 167.382079 
L 97.387347 139.540227 
L 97.558163 153.337117 
L 97.72898 125.597213 
L 97.899796 167.242751 
L 98.070612 125.60401 
L 98.241429 139.519838 
L 98.412245 125.780718 
L 98.583061 139.581006 
L 98.753878 132.614597 
L 98.924694 153.394887 
L 99.09551 160.3545 
L 99.266327 188.08421 
L 99.437143 167.314114 
L 99.607959 132.516047 
L 99.778776 188.06382 
L 100.120408 167.286928 
L 100.291224 125.644788 
L 100.462041 199.444555 
L 100.632857 132.556826 
L 101.145306 160.368093 
L 101.316122 146.465858 
L 101.486939 160.983176 
L 101.657755 139.485855 
L 101.999388 167.218963 
L 102.170204 160.147207 
L 102.34102 104.592638 
L 102.682653 167.20537 
L 102.853469 153.167205 
L 103.024286 181.243535 
L 103.195102 160.218571 
L 103.365918 160.120021 
L 103.536735 153.150213 
L 103.707551 160.208376 
L 103.878367 125.420504 
L 104.049184 153.235169 
L 104.22 146.272158 
L 104.390816 118.433705 
L 104.561633 153.228373 
L 104.732449 132.352931 
L 105.074082 180.230857 
L 105.415714 132.210205 
L 105.586531 180.9241 
L 105.757347 152.966708 
L 105.928163 174.059637 
L 106.09898 173.950893 
L 106.269796 132.189815 
L 106.440612 132.298559 
L 106.782245 157.469387 
L 106.953061 118.246801 
L 107.123878 146.177007 
L 107.294694 118.328359 
L 107.636327 146.166812 
L 107.807143 118.328359 
L 107.977959 146.047874 
L 108.148776 140.590286 
L 108.319592 146.024086 
L 108.490408 118.294377 
L 108.661224 118.403121 
L 108.832041 187.785164 
L 109.173673 118.273987 
L 109.515306 173.944097 
L 109.856939 118.348749 
L 110.198571 145.969714 
L 110.540204 146.068263 
L 110.71102 118.22981 
L 110.881837 159.875347 
L 111.052653 132.030098 
L 111.223469 146.044475 
L 111.394286 118.250199 
L 111.735918 146.034281 
L 112.077551 118.189031 
L 112.248367 118.372536 
L 112.59 159.814179 
L 112.760816 145.891554 
L 112.931633 146.000298 
L 113.102449 118.053101 
L 113.444082 159.780196 
L 113.614898 145.854173 
L 113.785714 145.854173 
L 113.956531 159.7734 
L 114.127347 145.847377 
L 114.298163 118.331757 
L 114.46898 166.264055 
L 114.639796 90.258825 
L 114.810612 145.935731 
L 115.152245 145.922138 
L 115.323061 118.070092 
L 115.493878 145.905147 
L 115.664694 145.789607 
L 115.83551 117.954552 
L 116.006327 145.894952 
L 116.177143 118.138057 
L 116.347959 118.042906 
L 116.518776 104.001343 
L 116.689592 145.867766 
L 117.031224 145.867766 
L 117.202041 131.829601 
L 117.372857 132.070877 
L 117.543673 145.72504 
L 117.71449 145.830386 
L 117.885306 159.644267 
L 118.056122 117.883189 
L 118.397755 145.813394 
L 118.568571 145.799801 
L 118.739388 117.961348 
L 119.08102 159.603488 
L 119.251837 145.789607 
L 119.422653 117.944357 
L 119.593469 124.795226 
L 119.764286 159.593293 
L 119.935102 145.78281 
L 120.105918 145.78281 
L 120.276735 118.141455 
L 120.447551 145.745429 
L 120.618367 131.924752 
L 120.789184 145.735235 
L 120.96 145.623092 
L 121.130816 131.81261 
L 121.472449 151.671975 
L 121.643265 145.70465 
L 121.984898 115.08643 
L 122.155714 145.582313 
L 122.497347 145.680863 
L 122.668163 117.944357 
L 123.009796 145.663871 
L 123.180612 117.720073 
L 123.351429 145.653677 
L 123.522245 117.811825 
L 123.693061 117.808427 
L 123.863878 145.72504 
L 124.034694 117.794834 
L 124.20551 131.601918 
L 124.376327 117.788038 
L 124.717959 173.444554 
L 124.888776 131.744645 
L 125.059592 131.826203 
L 125.230408 145.487163 
L 125.401224 117.845808 
L 125.572041 159.396194 
L 125.742857 173.29843 
L 125.913673 44.443636 
L 126.08449 145.565322 
L 126.255306 131.646096 
L 126.426122 131.646096 
L 126.596939 159.369008 
L 126.767755 145.538136 
L 127.109388 145.422596 
L 127.45102 145.524543 
L 127.621837 145.405605 
L 127.792653 145.51095 
L 127.963469 145.385215 
L 128.134286 124.717067 
L 128.305102 145.493959 
L 128.475918 145.381817 
L 128.646735 117.645311 
L 128.817551 117.526372 
L 129.159184 173.305226 
L 129.500816 117.618125 
L 129.671633 145.446384 
L 129.842449 145.439587 
L 130.013265 131.421811 
L 130.184082 159.239875 
L 130.354898 145.429392 
L 130.525714 145.313852 
L 130.696531 145.500756 
L 130.867347 145.398808 
L 131.038163 103.739678 
L 131.20898 145.286666 
L 131.379796 117.560355 
L 131.550612 131.465988 
L 131.721429 131.46259 
L 131.892245 145.266276 
L 132.063061 117.522974 
L 132.233878 145.361427 
L 132.57551 145.245887 
L 132.746327 145.347834 
L 132.917143 117.505983 
L 133.087959 145.242489 
L 133.429592 117.597736 
L 133.771224 145.313852 
L 133.942041 117.468602 
L 134.112857 159.107343 
L 134.45449 145.293462 
L 134.625306 131.262094 
L 134.796122 145.279869 
L 135.137755 145.154134 
L 135.308571 103.590155 
L 135.650204 145.256082 
L 135.82102 117.29869 
L 135.991837 145.126948 
L 136.333469 145.225497 
L 136.504286 117.285097 
L 136.675102 145.222099 
L 136.845918 117.482195 
L 137.016735 159.01559 
L 137.187551 117.41423 
L 137.358367 117.553558 
L 137.529184 117.444814 
L 137.7 145.075974 
L 137.870816 145.177922 
L 138.041633 145.062381 
L 138.212449 131.13296 
L 138.383265 145.052187 
L 138.724898 145.048788 
L 138.895714 172.985791 
L 139.066531 117.193344 
L 139.237347 145.021602 
L 139.408163 129.138188 
L 139.57898 145.130346 
L 139.749796 103.372667 
L 139.920612 158.940829 
L 140.091429 137.783333 
L 140.262245 158.903448 
L 140.433061 117.254513 
L 140.603878 159.086954 
L 140.94551 110.386652 
L 141.116327 145.072576 
L 141.457959 159.382601 
L 141.628776 96.372274 
L 141.799592 152.018596 
L 141.970408 158.971413 
L 142.141224 172.877047 
L 142.482857 158.832085 
L 142.653673 117.189946 
L 142.82449 124.03062 
L 142.995306 124.336463 
L 143.166122 165.883451 
L 143.336939 158.815094 
L 143.507755 172.829471 
L 143.678571 131.07519 
L 143.849388 131.07519 
L 144.020204 144.984222 
L 144.19102 110.349271 
L 144.361837 158.886457 
L 144.532653 165.740725 
L 144.703469 138.011015 
L 145.045102 151.909853 
L 145.215918 214.430832 
L 145.386735 172.809082 
L 145.557551 158.736934 
L 145.728367 165.995593 
L 145.899184 131.115969 
L 146.07 151.879268 
L 146.240816 137.844501 
L 146.411633 144.797318 
L 146.582449 131.048004 
L 146.753265 131.194129 
L 146.924082 165.767911 
L 147.094898 158.692757 
L 147.265714 165.94462 
L 147.607347 110.267713 
L 147.778163 165.744123 
L 148.290612 117.081202 
L 148.632245 186.487033 
L 148.803061 131.126164 
L 149.144694 144.71576 
L 149.31551 158.730138 
L 149.486327 137.841103 
L 149.657143 130.878091 
L 149.827959 186.442856 
L 149.998776 151.651586 
L 150.169592 179.673544 
L 150.340408 165.655768 
L 150.511224 124.068001 
L 150.682041 188.991542 
L 150.852857 186.517617 
L 151.023673 172.628975 
L 151.19449 186.402077 
L 151.365306 172.581399 
L 151.536122 172.469257 
L 151.706939 158.641783 
L 151.877755 165.601396 
L 152.219388 135.057937 
L 152.390204 179.398286 
L 152.56102 151.66178 
L 152.731837 172.533824 
L 152.902653 137.956643 
L 153.073469 158.502455 
L 153.415102 144.573034 
L 153.585918 172.397894 
L 153.756735 158.580615 
L 153.927551 165.53683 
L 154.098367 151.617603 
L 154.269184 172.384301 
L 154.44 130.74556 
L 154.610816 179.323525 
L 154.781633 158.767518 
L 155.123265 180.268238 
L 155.294082 116.972458 
L 155.464898 137.71197 
L 155.635714 137.817315 
L 155.806531 130.796533 
L 155.977347 158.509251 
L 156.148163 123.711185 
L 156.31898 242.116364 
L 156.489796 144.634202 
L 156.660612 151.417106 
L 156.831429 151.519054 
L 157.002245 165.326138 
L 157.173061 151.573426 
L 157.343878 123.728176 
L 157.514694 192.705828 
L 157.68551 172.26876 
L 157.856327 172.36731 
L 158.027143 130.799932 
L 158.197959 130.827118 
L 158.368776 151.481673 
L 158.539592 109.853127 
L 158.710408 130.582444 
L 159.052041 186.133615 
L 159.222857 137.41972 
L 159.393673 165.254775 
L 159.56449 165.363519 
L 159.735306 116.731182 
L 160.076939 165.356723 
L 160.247755 165.356723 
L 160.418571 130.72517 
L 160.589388 137.579438 
L 160.760204 130.68779 
L 160.93102 165.305749 
L 161.101837 165.370316 
L 161.272653 164.296469 
L 161.443469 165.298952 
L 161.614286 172.251769 
L 161.785102 192.794182 
L 161.955918 130.487293 
L 162.126735 151.437496 
L 162.297551 158.312153 
L 162.639184 193.096626 
L 162.980816 137.603226 
L 163.151633 130.436319 
L 163.322449 144.355546 
L 163.493265 179.04147 
L 163.664082 165.227589 
L 163.834898 179.133223 
L 164.005714 130.517877 
L 164.176531 144.420112 
L 164.347347 172.160016 
L 164.518163 123.531078 
L 164.68898 151.27438 
L 165.030612 165.176615 
L 165.201429 123.415537 
L 165.372245 123.544671 
L 165.713878 151.240398 
L 166.05551 123.398546 
L 166.226327 137.300781 
L 166.397143 137.300781 
L 166.567959 165.142633 
L 166.738776 151.220008 
L 166.909592 151.104468 
L 167.080408 151.189424 
L 167.251224 123.395148 
L 167.422041 158.142241 
L 167.592857 116.394756 
L 167.763673 151.175831 
L 167.93449 137.246409 
L 168.105306 148.477621 
L 168.276122 151.148645 
L 168.617755 151.148645 
L 168.788571 172.020688 
L 168.959388 116.333587 
L 169.130204 123.337378 
L 169.30102 151.111264 
L 169.471837 137.192037 
L 169.642653 157.962133 
L 169.813469 123.269413 
L 169.984286 144.138058 
L 170.155102 151.094273 
L 170.325918 178.997293 
L 170.667551 144.012323 
L 170.838367 164.880968 
L 171.350816 143.974942 
L 171.521633 199.651848 
L 171.692449 164.823197 
L 171.863265 171.891555 
L 172.034082 137.276994 
L 172.204898 151.009317 
L 172.375714 151.00252 
L 172.546531 164.813003 
L 172.717347 123.048527 
L 172.888163 130.099893 
L 173.05898 164.897959 
L 173.229796 137.056108 
L 173.400612 185.766604 
L 173.571429 102.244448 
L 173.742245 102.230855 
L 174.254694 171.711448 
L 174.42551 143.97834 
L 174.767143 171.8032 
L 174.937959 143.951154 
L 175.108776 157.870381 
L 175.279592 157.758238 
L 175.450408 150.903971 
L 175.621224 171.772616 
L 175.792041 171.76582 
L 175.962857 164.79941 
L 176.133673 136.960957 
L 176.30449 130.198442 
L 176.475306 130.133875 
L 176.816939 164.775622 
L 177.158571 137.09009 
L 177.329388 157.799017 
L 177.500204 150.842802 
L 177.67102 185.688444 
L 177.841837 136.981346 
L 178.012653 136.920178 
L 178.183469 164.731445 
L 178.354286 136.892992 
L 178.525102 171.684262 
L 178.695918 109.05114 
L 178.866735 185.474355 
L 179.037551 164.595515 
L 179.208367 129.926582 
L 179.379184 155.121198 
L 179.55 129.991149 
L 179.720816 199.369794 
L 179.891633 157.748044 
L 180.062449 164.66348 
L 180.233265 123.0995 
L 180.404082 136.97455 
L 180.574898 129.855219 
L 180.745714 192.376198 
L 180.916531 178.63368 
L 181.087347 108.949193 
L 181.258163 192.556305 
L 181.42898 185.396195 
L 181.770612 164.50716 
L 181.941429 164.496966 
L 182.283061 122.729091 
L 182.453878 116.07532 
L 182.79551 185.355416 
L 182.966327 122.814047 
L 183.137143 143.740463 
L 183.307959 139.271766 
L 183.820408 178.473962 
L 183.991224 136.706088 
L 184.162041 122.96357 
L 184.332857 164.418806 
L 184.503673 136.689097 
L 184.67449 178.334634 
L 184.845306 136.678902 
L 185.016122 136.852213 
L 185.186939 171.347835 
L 185.528571 129.586757 
L 185.699388 136.655114 
L 185.870204 122.732489 
L 186.04102 164.486771 
L 186.211837 165.112049 
L 186.382653 178.297253 
L 186.553469 122.793658 
L 186.724286 122.899004 
L 186.895102 136.644919 
L 187.065918 164.439195 
L 187.236735 157.469387 
L 187.407551 115.738894 
L 187.749184 171.273073 
L 187.92 143.730268 
L 188.090816 157.442201 
L 188.261633 129.60035 
L 188.432449 129.817838 
L 188.774082 129.491606 
L 188.944898 164.017813 
L 189.115714 143.495789 
L 189.286531 171.2221 
L 189.457347 157.28928 
L 189.628163 115.643743 
L 189.79898 143.563754 
L 189.969796 129.613943 
L 190.311429 157.377635 
L 190.482245 157.370838 
L 190.653061 164.330451 
L 190.823878 164.330451 
L 190.994694 199.009579 
L 191.16551 150.394234 
L 191.336327 136.471609 
L 191.507143 164.191123 
L 191.677959 136.243926 
L 191.848776 150.373844 
L 192.019592 143.421027 
L 192.190408 129.491606 
L 192.361224 157.319864 
L 192.532041 150.251507 
L 192.702857 157.200926 
L 192.873673 157.204324 
L 193.215306 129.471217 
L 193.386122 150.329667 
L 193.556939 150.319472 
L 193.727755 171.262879 
L 193.898571 136.386653 
L 194.41102 171.06578 
L 194.581837 164.350841 
L 194.752653 143.39724 
L 194.923469 136.35267 
L 195.094286 185.069963 
L 195.435918 101.551205 
L 195.606735 122.307708 
L 195.777551 171.120152 
L 195.948367 159.640868 
L 196.119184 115.446644 
L 196.29 129.25033 
L 196.460816 158.594208 
L 196.802449 170.977426 
L 196.973265 157.064996 
L 197.144082 183.955338 
L 197.314898 157.166943 
L 197.485714 150.091789 
L 197.656531 166.580092 
L 197.827347 101.462851 
L 197.998163 115.518007 
L 198.16898 183.968931 
L 198.510612 150.159754 
L 198.681429 177.882667 
L 198.852245 171.058984 
L 199.193878 122.300912 
L 199.364694 157.09558 
L 199.706327 122.294115 
L 199.877143 164.024609 
L 200.047959 177.835092 
L 200.218776 157.061598 
L 200.389592 157.061598 
L 200.560408 136.192952 
L 200.731224 142.364172 
L 200.902041 170.848292 
L 201.072857 157.03781 
L 201.243673 163.994025 
L 201.585306 129.094011 
L 201.756122 163.970237 
L 201.926939 163.966839 
L 202.097755 156.888287 
L 202.268571 129.158578 
L 202.439388 156.997031 
L 202.610204 129.046435 
L 202.78102 163.943051 
L 203.122653 129.338685 
L 203.293469 170.776929 
L 203.635102 136.094403 
L 203.805918 184.876263 
L 203.976735 177.824897 
L 204.147551 143.009839 
L 204.318367 156.929066 
L 204.489184 149.969453 
L 204.66 163.885281 
L 204.830816 129.165374 
L 205.001633 123.065518 
L 205.172449 177.671976 
L 205.343265 163.858095 
L 205.514082 136.104598 
L 205.684898 163.861493 
L 205.855714 129.104206 
L 206.026531 163.830909 
L 206.197347 128.924098 
L 206.368163 156.874694 
L 206.53898 129.21295 
L 206.709796 191.67276 
L 207.222245 121.927104 
L 207.393061 135.951677 
L 207.563878 163.864891 
L 207.734694 163.677988 
L 207.90551 156.70818 
L 208.076327 115.055846 
L 208.247143 177.56663 
L 208.417959 122.192168 
L 208.759592 184.519447 
L 208.930408 156.782941 
L 209.101224 163.73236 
L 209.442857 142.843325 
L 209.613673 154.662434 
L 209.78449 55.634069 
L 210.126122 184.838882 
L 210.296939 142.710793 
L 210.467755 170.647796 
L 210.638571 147.808166 
L 210.809388 156.613029 
L 210.980204 135.846331 
L 211.15102 156.711578 
L 211.321837 149.748566 
L 211.663469 163.657598 
L 211.834286 135.819145 
L 212.005102 149.867505 
L 212.175918 121.89652 
L 212.346735 202.645705 
L 212.517551 142.63943 
L 212.688367 121.753794 
L 212.859184 170.471087 
L 213.03 153.89443 
L 213.200816 156.657206 
L 213.371633 142.85352 
L 213.542449 156.63002 
L 213.713265 149.568459 
L 213.884082 163.480889 
L 214.054898 156.619825 
L 214.225714 170.440503 
L 214.567347 121.842148 
L 214.738163 184.322348 
L 215.079796 128.754186 
L 215.250612 170.392927 
L 215.421429 135.778366 
L 215.592245 135.890508 
L 215.763061 177.335549 
L 215.933878 149.493698 
L 216.104694 170.552645 
L 216.27551 149.588849 
L 216.446327 142.676811 
L 216.617143 156.528072 
L 216.787959 156.531471 
L 216.958776 135.649233 
L 217.129592 163.484288 
L 217.300408 114.841756 
L 217.471224 135.740985 
L 217.642041 135.61525 
L 217.812857 149.425733 
L 217.983673 149.534477 
L 218.15449 121.58728 
L 218.496122 177.349142 
L 218.666939 135.584666 
L 218.837755 163.419721 
L 219.008571 160.786078 
L 219.350204 128.608061 
L 219.52102 177.209814 
L 219.862653 107.916125 
L 220.033469 191.12904 
L 220.375102 149.459715 
L 220.545918 156.30039 
L 220.716735 156.286797 
L 220.887551 170.199227 
L 221.058367 114.855349 
L 221.4 163.239614 
L 221.570816 163.334765 
L 221.741633 170.178837 
L 222.083265 156.500886 
L 222.254082 128.523105 
L 222.595714 163.300782 
L 222.766531 142.42534 
L 222.937347 184.053887 
L 223.108163 121.526111 
L 223.27898 135.530294 
L 223.449796 128.587672 
L 223.620612 156.310585 
L 223.791429 149.344175 
L 223.962245 149.337378 
L 224.133061 128.61146 
L 224.303878 135.472524 
L 224.474694 163.249808 
L 224.64551 135.540489 
L 224.816327 128.655637 
L 224.987143 183.98932 
L 225.328776 149.299998 
L 225.499592 163.107082 
L 225.670408 121.648448 
L 225.841224 163.409526 
L 226.012041 163.185242 
L 226.182857 142.197658 
L 226.353673 156.116884 
L 226.52449 149.262617 
L 226.695306 177.111265 
L 226.866122 170.121067 
L 227.036939 121.396978 
L 227.207755 156.191646 
L 227.378571 149.232033 
L 227.549388 161.77157 
L 227.720204 183.91116 
L 227.89102 114.495135 
L 228.061837 93.565321 
L 228.403469 176.927759 
L 228.574286 121.356199 
L 228.745102 121.458146 
L 228.915918 149.177661 
L 229.257551 114.590286 
L 229.428367 184.04709 
L 229.599184 149.051925 
L 229.77 149.347573 
L 229.940816 142.075321 
L 230.111633 163.086692 
L 230.453265 128.254643 
L 230.624082 156.089698 
L 230.794898 162.933771 
L 230.965714 162.923576 
L 231.136531 190.870774 
L 231.478163 114.19269 
L 231.64898 128.305617 
L 231.819796 176.82921 
L 231.990612 135.234646 
L 232.161429 163.022126 
L 232.332245 142.197658 
L 232.503061 142.167074 
L 232.844694 128.39737 
L 233.186327 163.134268 
L 233.357143 163.018727 
L 233.527959 135.356983 
L 233.698776 142.139888 
L 233.869592 114.308231 
L 234.040408 156.059114 
L 234.382041 156.150867 
L 234.552857 163.018727 
L 234.723673 163.202233 
L 234.89449 163.015329 
L 235.065306 142.139888 
L 235.236122 163.090091 
L 235.406939 163.837705 
L 235.577755 156.038725 
L 235.748571 176.798626 
L 236.090204 142.085516 
L 236.26102 149.045129 
L 236.431837 134.018073 
L 236.602653 155.963963 
L 236.773469 135.085123 
L 236.944286 176.825812 
L 237.115102 141.915603 
L 237.285918 142.034542 
L 237.456735 169.730269 
L 237.627551 176.785033 
L 237.798367 162.933771 
L 237.969184 162.729876 
L 238.14 158.284967 
L 238.310816 141.935993 
L 238.481633 176.808821 
L 238.652449 160.058853 
L 238.823265 120.934816 
L 238.994082 121.240658 
L 239.506531 213.917696 
L 239.848163 149.031536 
L 240.01898 141.871426 
L 240.189796 148.827641 
L 240.360612 148.718897 
L 240.531429 155.760068 
L 240.702245 169.679295 
L 240.873061 162.72308 
L 241.043878 120.962002 
L 241.214694 162.712885 
L 241.38551 128.356591 
L 241.727143 190.415408 
L 241.897959 148.766472 
L 242.068776 148.766472 
L 242.239592 169.635118 
L 242.410408 134.983176 
L 242.581224 134.996769 
L 242.752041 162.655115 
L 242.922857 148.627144 
L 243.093673 155.6989 
L 243.26449 148.73249 
L 243.606122 106.954421 
L 243.776939 148.698508 
L 243.947755 148.589764 
L 244.118571 148.698508 
L 244.289388 148.586365 
L 244.460204 120.75131 
L 244.63102 155.630935 
L 244.801837 120.88724 
L 244.972653 141.711708 
L 245.143469 147.66544 
L 245.314286 162.651717 
L 245.485102 155.613944 
L 245.655918 162.447822 
L 245.826735 134.874432 
L 245.997551 148.633941 
L 246.168367 130.850905 
L 246.339184 162.546371 
L 246.51 120.866851 
L 246.851633 120.7717 
L 247.022449 134.694325 
L 247.193265 190.262487 
L 247.534898 134.561793 
L 247.705714 134.7419 
L 247.876531 134.646749 
L 248.38898 176.485987 
L 248.559796 168.537483 
L 248.901429 120.914426 
L 249.072245 169.410833 
L 249.243061 176.570943 
L 249.584694 127.642959 
L 249.75551 120.836267 
L 249.926327 155.461022 
L 250.097143 148.501409 
L 250.267959 183.299476 
L 250.438776 155.454226 
L 250.609592 169.363258 
L 250.951224 99.767125 
L 251.292857 148.467427 
L 251.463673 148.46063 
L 251.63449 162.37306 
L 251.976122 127.554604 
L 252.146939 176.271897 
L 252.317755 120.598389 
L 252.488571 162.240528 
L 252.659388 127.564799 
L 252.830204 174.154788 
L 253.00102 134.660342 
L 253.171837 162.318688 
L 253.342653 155.359075 
L 253.684286 124.883581 
L 253.855102 224.839667 
L 254.025918 120.540619 
L 254.196735 176.203932 
L 254.367551 141.293724 
L 254.538367 162.420636 
L 254.709184 134.330712 
L 254.88 176.081595 
L 255.221633 155.29111 
L 255.392449 148.331497 
L 255.563265 148.780065 
L 255.734082 127.439064 
L 255.904898 148.317904 
L 256.075714 155.158578 
L 256.246531 197.211906 
L 256.417347 169.172956 
L 256.588163 120.656159 
L 256.75898 134.371491 
L 256.929796 162.206546 
L 257.100612 155.124596 
L 257.271429 120.438672 
L 257.613061 148.433444 
L 257.783878 113.635378 
L 258.12551 169.121982 
L 258.296327 141.307317 
L 258.467143 162.335679 
L 258.808776 141.266538 
L 258.979592 155.066826 
L 259.150408 148.205761 
L 259.321224 159.440372 
L 259.492041 120.357114 
L 259.662857 162.162369 
L 259.833673 155.148384 
L 260.00449 113.434881 
L 260.175306 161.989058 
L 260.516939 148.066433 
L 260.687755 155.026047 
L 260.858571 168.945273 
L 261.029388 148.042646 
L 261.200204 155.09741 
L 261.37102 169.006442 
L 261.541837 155.087215 
L 261.712653 127.25216 
L 261.883469 134.249154 
L 262.054286 120.17021 
L 262.225102 162.026439 
L 262.395918 134.378288 
L 262.566735 182.898482 
L 262.737551 155.060029 
L 262.908367 154.944489 
L 263.079184 161.999253 
L 263.25 162.040032 
L 263.420816 127.180797 
L 263.591633 117.393841 
L 263.762449 147.954291 
L 263.933265 140.743207 
L 264.104082 120.217785 
L 264.445714 148.114009 
L 264.616531 148.029053 
L 264.787347 120.401291 
L 264.958163 141.066041 
L 265.12898 140.950501 
L 265.299796 154.975073 
L 265.641429 141.035457 
L 265.812245 127.207983 
L 265.983061 203.345744 
L 266.324694 154.842541 
L 266.49551 147.855742 
L 266.666327 175.687399 
L 266.837143 147.957689 
L 267.007959 189.715369 
L 267.349592 134.259349 
L 267.520408 127.241965 
L 267.691224 182.619826 
L 267.862041 154.781373 
L 268.032857 161.84973 
L 268.203673 161.839535 
L 268.545306 134.204977 
L 268.716122 182.582445 
L 268.886939 134.170994 
L 269.057755 161.812349 
L 269.228571 120.051271 
L 269.399388 140.923315 
L 269.570204 182.555259 
L 269.74102 154.822152 
L 269.911837 147.760591 
L 270.082653 154.710009 
L 270.253469 154.706611 
L 270.424286 161.768172 
L 270.595102 154.964878 
L 270.765918 120.153219 
L 270.936735 147.825158 
L 271.107551 154.784771 
L 271.278367 175.660213 
L 271.449184 119.979908 
L 271.62 154.927497 
L 271.790816 127.527418 
L 271.961633 147.797972 
L 272.132449 140.83496 
L 272.303265 147.787777 
L 272.644898 120.030882 
L 272.815714 147.658643 
L 272.986531 140.692234 
L 273.157347 147.760591 
L 273.328163 133.722426 
L 273.49898 147.80137 
L 273.669796 203.308364 
L 274.011429 70.171777 
L 274.182245 154.699815 
L 274.353061 133.820975 
L 274.523878 154.679425 
L 274.694694 161.618649 
L 274.86551 133.664655 
L 275.036327 144.916257 
L 275.207143 175.425733 
L 275.377959 147.580484 
L 275.548776 168.557873 
L 275.719592 161.486117 
L 275.890408 133.742815 
L 276.061224 140.69903 
L 276.232041 133.963701 
L 276.402857 168.571466 
L 276.573673 161.567675 
L 276.74449 168.52389 
L 277.256939 119.894952 
L 277.427755 161.435144 
L 277.598571 158.886457 
L 277.769388 154.461937 
L 277.940204 161.5201 
L 278.11102 147.791175 
L 278.281837 182.283399 
L 278.452653 147.597475 
L 278.623469 140.705827 
L 278.794286 191.80869 
L 279.135918 119.718243 
L 279.306735 168.435536 
L 279.477551 180.288627 
L 279.648367 154.509513 
L 279.819184 147.437757 
L 279.99 126.871556 
L 280.160816 126.541926 
L 280.331633 147.532908 
L 280.502449 126.868158 
L 280.673265 147.41397 
L 280.844082 147.522713 
L 281.014898 154.461937 
L 281.185714 175.327184 
L 281.356531 119.663871 
L 281.527347 163.970237 
L 281.698163 154.441548 
L 281.86898 133.661257 
L 282.039796 126.586103 
L 282.210612 140.498533 
L 282.552245 140.508728 
L 282.723061 119.612897 
L 283.064694 175.164068 
L 283.23551 147.424164 
L 283.406327 154.275034 
L 283.577143 133.504938 
L 283.747959 133.501539 
L 284.089592 189.045914 
L 284.260408 154.349795 
L 284.431224 175.119891 
L 284.602041 126.518138 
L 284.772857 140.566498 
L 284.943673 98.723862 
L 285.11449 154.329406 
L 285.285306 140.396586 
L 285.456122 140.396586 
L 285.626939 147.356199 
L 285.797755 119.670667 
L 286.139388 175.072315 
L 286.310204 161.244842 
L 286.48102 129.029444 
L 286.651837 133.406388 
L 286.822653 133.406388 
L 286.993469 147.312022 
L 287.164286 147.305226 
L 287.335102 140.376197 
L 287.676735 161.22785 
L 287.847551 154.268237 
L 288.018367 133.362211 
L 288.189184 133.355415 
L 288.36 112.547938 
L 288.530816 147.25765 
L 288.701633 133.338423 
L 288.872449 161.176877 
L 289.043265 119.602702 
L 289.214082 161.217656 
L 289.384898 167.997162 
L 289.555714 168.309801 
L 289.726531 161.136098 
L 289.897347 147.356199 
L 290.068163 147.210075 
L 290.23898 161.125903 
L 290.409796 154.043953 
L 290.580612 161.802154 
L 290.751429 182.079504 
L 291.093061 126.188508 
L 291.263878 133.250069 
L 291.434694 119.459976 
L 291.60551 147.155703 
L 291.776327 201.830126 
L 292.117959 161.074929 
L 292.288776 167.908807 
L 292.459592 133.263662 
L 292.630408 126.439979 
L 292.972041 168.00056 
L 293.142857 147.00618 
L 293.313673 146.995985 
L 293.48449 167.868028 
L 293.826122 126.212296 
L 293.996939 147.091136 
L 294.167755 126.236084 
L 294.509388 147.060552 
L 294.85102 146.945011 
L 295.192653 146.934816 
L 295.363469 119.27647 
L 295.705102 160.979778 
L 295.875918 146.911029 
L 296.046735 154.054147 
L 296.217551 119.177921 
L 296.388367 174.735889 
L 296.73 139.920831 
L 296.900816 167.868028 
L 297.071633 161.09192 
L 297.242449 112.378026 
L 297.413265 133.052971 
L 297.584082 63.657334 
L 297.754898 167.834046 
L 297.925714 126.072968 
L 298.096531 153.914819 
L 298.267347 146.897436 
L 298.779796 168.007356 
L 298.950612 167.888418 
L 299.292245 146.812479 
L 299.463061 195.63172 
L 299.804694 126.011799 
L 299.97551 160.694325 
L 300.146327 119.133744 
L 300.317143 174.613552 
L 300.487959 160.972982 
L 300.658776 112.075582 
L 300.829592 118.923053 
L 301.000408 119.225497 
L 301.342041 181.559572 
L 301.683673 132.913642 
L 301.85449 153.979386 
L 302.196122 153.673544 
L 302.366939 146.819276 
L 302.537755 160.622962 
L 302.708571 118.858486 
L 303.050204 153.639561 
L 303.22102 153.748305 
L 303.391837 125.950631 
L 303.562653 133.032581 
L 303.733469 128.342998 
L 303.904286 160.56859 
L 304.075102 157.836398 
L 304.245918 146.751311 
L 304.416735 146.751311 
L 304.587551 118.807512 
L 304.758367 160.656945 
L 304.929184 133.025785 
L 305.1 181.413448 
L 305.270816 160.714715 
L 305.441633 118.770131 
L 305.612449 153.561401 
L 305.783265 146.707134 
L 305.954082 153.656552 
L 306.124898 175.714584 
L 306.295714 167.565584 
L 306.466531 153.646358 
L 306.637347 98.037416 
L 306.97898 146.662957 
L 307.320612 174.494613 
L 307.662245 118.814309 
L 307.833061 146.544018 
L 308.003878 132.876262 
L 308.174694 160.429262 
L 308.34551 167.636947 
L 308.516327 125.739939 
L 308.687143 125.624399 
L 309.199592 209.115971 
L 309.370408 174.42325 
L 309.541224 97.884495 
L 309.882857 153.534215 
L 310.053673 139.383908 
L 310.22449 160.466643 
L 310.395306 160.357899 
L 310.566122 139.587803 
L 310.736939 152.507944 
L 310.907755 111.932855 
L 311.078571 132.641783 
L 311.249388 167.487424 
L 311.59102 132.495658 
L 311.761837 132.597605 
L 311.932653 125.821497 
L 312.103469 167.266538 
L 312.274286 160.405474 
L 312.445102 139.526634 
L 312.615918 132.458277 
L 312.786735 153.442463 
L 312.957551 118.525458 
L 313.299184 153.306533 
L 313.47 146.452265 
L 313.640816 181.250332 
L 313.811633 174.994156 
L 313.982449 104.735364 
L 314.153265 146.506637 
L 314.494898 160.3545 
L 314.665714 160.245757 
L 314.836531 118.488077 
L 315.007347 132.485463 
L 315.178163 125.729745 
L 315.34898 146.278954 
L 315.519796 153.347312 
L 315.861429 125.590417 
L 316.032245 125.491867 
L 316.203061 146.367309 
L 316.373878 146.258565 
L 316.544694 125.471478 
L 316.71551 153.201187 
L 316.886327 160.31712 
L 317.057143 125.522452 
L 317.227959 139.261571 
L 317.398776 139.363518 
L 317.740408 153.275948 
L 317.911224 167.089829 
L 318.082041 159.144724 
L 318.252857 111.705172 
L 318.59449 153.241966 
L 318.765306 126.773007 
L 318.936122 182.463506 
L 319.277755 111.470693 
L 319.448571 139.30235 
L 319.619388 111.559048 
L 319.790204 139.292155 
L 319.96102 139.288757 
L 320.131837 125.372929 
L 320.473469 153.184196 
L 320.644286 178.919133 
L 320.815102 153.177399 
L 320.985918 104.460106 
L 321.156735 153.068655 
L 321.327551 125.338946 
L 321.498367 180.992065 
L 321.669184 139.115446 
L 321.84 125.301565 
L 322.181633 159.984091 
L 322.352449 118.413315 
L 322.694082 194.754972 
L 322.864898 153.190992 
L 323.206531 125.352539 
L 323.377347 132.227196 
L 323.71898 160.038463 
L 323.889796 139.213995 
L 324.060612 180.805161 
L 324.231429 160.174393 
L 324.402245 153.061859 
L 324.573061 118.457493 
L 324.743878 153.044868 
L 324.914694 160.001083 
L 325.08551 153.038071 
L 325.256327 153.038071 
L 325.427143 132.233993 
L 325.768776 153.010885 
L 325.939592 146.047874 
L 326.110408 125.169034 
L 326.281224 152.898743 
L 326.452041 145.928935 
L 326.793673 118.192429 
L 326.96449 152.973504 
L 327.135306 139.054278 
L 327.476939 167.04905 
L 327.647755 125.11806 
L 327.989388 173.730007 
L 328.160204 139.040685 
L 328.33102 142.170472 
L 328.501837 159.783595 
L 328.672653 125.243795 
L 328.843469 118.321563 
L 329.014286 145.945926 
L 329.185102 145.945926 
L 329.355918 187.594862 
L 329.697551 104.174653 
L 329.868367 124.937953 
L 330.039184 159.834568 
L 330.21 160.527811 
L 330.380816 152.874955 
L 330.551633 152.868159 
L 330.722449 138.938737 
L 330.893265 152.939522 
L 331.064082 194.48651 
L 331.234898 159.797188 
L 331.747347 138.989711 
L 331.918163 145.854173 
L 332.08898 131.962133 
L 332.259796 159.766603 
L 332.430612 152.80699 
L 332.601429 152.800194 
L 332.772245 124.954944 
L 332.943061 166.787385 
L 333.113878 111.015328 
L 333.284694 138.935339 
L 333.45551 191.784902 
L 333.797143 124.920962 
L 334.138776 173.512519 
L 334.309592 125.026307 
L 334.651224 159.593293 
L 334.822041 152.630281 
L 334.992857 90.289409 
L 335.163673 173.723211 
L 335.33449 138.782418 
L 335.505306 131.992717 
L 335.676122 152.705043 
L 335.846939 152.694848 
L 336.017755 138.660081 
L 336.188571 145.714845 
L 336.359388 166.481543 
L 336.530204 159.627275 
L 336.70102 145.711447 
L 336.871837 117.862799 
L 337.042653 166.461153 
L 337.213469 166.559703 
L 337.384286 159.487947 
L 337.555102 124.808819 
L 337.725918 145.769217 
L 337.896735 152.773008 
L 338.067551 180.353194 
L 338.238367 173.376589 
L 338.409184 152.494351 
L 338.58 187.492914 
L 338.750816 124.764642 
L 338.921633 124.808819 
L 339.092449 166.399985 
L 339.263265 138.666877 
L 339.434082 152.460369 
L 339.604898 117.771046 
L 339.775714 124.73066 
L 339.946531 180.292025 
L 340.288163 117.750657 
L 340.45898 152.429785 
L 340.629796 117.825418 
L 340.800612 159.389398 
L 341.313061 117.726869 
L 341.483878 131.54075 
L 341.654694 159.375805 
L 341.82551 131.513564 
L 342.167143 159.341822 
L 342.508776 117.682692 
L 342.679592 90.041337 
L 342.850408 159.321433 
L 343.021224 137.470694 
L 343.192041 131.465988 
L 343.362857 145.487163 
L 343.533673 117.543364 
L 343.70449 131.639299 
L 344.046122 131.448997 
L 344.216939 145.463375 
L 344.387755 147.957689 
L 344.558571 117.60793 
L 344.729388 145.449782 
L 344.900204 149.619433 
L 345.07102 173.27804 
L 345.241837 166.522322 
L 345.583469 145.300259 
L 345.754286 89.868026 
L 345.925102 131.381032 
L 346.095918 131.486378 
L 346.437551 103.698899 
L 346.608367 173.111526 
L 346.95 131.350448 
L 347.120816 145.368224 
L 347.291633 103.607146 
L 347.462449 159.161715 
L 347.633265 131.319864 
L 347.804082 131.319864 
L 347.974898 133.902533 
L 348.145714 103.593553 
L 348.316531 159.267061 
L 348.487347 159.236477 
L 348.658163 117.665701 
L 348.999796 166.834961 
L 349.683061 110.383254 
L 349.853878 166.046567 
L 350.024694 161.669623 
L 350.19551 166.151913 
L 350.366327 159.182105 
L 350.537143 145.456578 
L 350.707959 179.935209 
L 350.878776 152.093358 
L 351.049592 173.080942 
L 351.220408 124.445207 
L 351.391224 145.232294 
L 351.562041 138.262486 
L 351.732857 172.938215 
L 352.07449 159.127733 
L 352.245306 131.180536 
L 352.416122 172.924622 
L 352.757755 152.137535 
L 352.928571 145.174524 
L 353.099388 147.563492 
L 353.270204 124.295684 
L 353.44102 145.167727 
L 353.611837 152.015198 
L 353.782653 132.634986 
L 353.953469 166.015983 
L 354.124286 138.068786 
L 354.465918 124.251507 
L 354.636735 186.779282 
L 354.978367 138.225105 
L 355.149184 179.931811 
L 355.32 145.001213 
L 355.490816 152.052579 
L 355.661633 117.145769 
L 355.832449 159.005396 
L 356.003265 172.945012 
L 356.174082 152.032189 
L 356.344898 152.032189 
L 356.686531 119.636685 
L 356.857347 158.968015 
L 357.028163 145.041992 
L 357.19898 165.920832 
L 357.369796 142.924883 
L 357.540612 89.371882 
L 357.711429 151.984614 
L 357.882245 151.87587 
L 358.053061 158.923838 
L 358.56551 117.172955 
L 358.736327 144.994416 
L 359.077959 158.78451 
L 359.248776 117.14237 
L 359.419592 165.744123 
L 359.590408 179.656553 
L 359.761224 131.126164 
L 359.932041 158.869466 
L 360.102857 152.066172 
L 360.273673 124.068001 
L 360.44449 131.180536 
L 360.615306 151.89626 
L 360.786122 158.849076 
L 360.956939 151.872472 
L 361.127755 103.155179 
L 361.298571 187.339993 
L 361.640204 123.925275 
L 361.81102 189.062905 
L 361.981837 175.177661 
L 362.152653 144.878876 
L 362.323469 158.68596 
L 362.494286 117.037025 
L 362.665102 144.87208 
L 362.835918 144.861885 
L 363.006735 165.80869 
L 363.177551 117.081202 
L 363.348367 196.032713 
L 363.519184 130.810126 
L 363.69 179.52742 
L 364.031633 116.982653 
L 364.202449 130.895083 
L 364.373265 158.614597 
L 364.544082 144.804115 
L 364.714898 179.602181 
L 364.885714 165.686353 
L 365.056531 103.087214 
L 365.227347 158.699553 
L 365.398163 151.6244 
L 365.56898 186.53121 
L 365.910612 116.816138 
L 366.081429 130.922269 
L 366.252245 124.064603 
L 366.764694 179.425472 
L 366.93551 137.773138 
L 367.106327 123.850513 
L 367.447959 172.435275 
L 367.618776 151.665179 
L 367.789592 179.394888 
L 367.960408 158.668969 
L 368.131224 123.874301 
L 368.302041 123.901487 
L 368.472857 151.627798 
L 368.643673 151.627798 
L 368.985306 165.631981 
L 369.156122 137.701775 
L 369.326939 144.644397 
L 369.497755 137.674589 
L 369.668571 158.448083 
L 369.839388 116.799147 
L 370.18102 172.357115 
L 370.351837 116.771961 
L 370.693469 158.417499 
L 370.864286 144.603618 
L 371.035102 186.252554 
L 371.376735 116.938475 
L 371.547551 123.85731 
L 371.718367 116.737979 
L 371.889184 172.299345 
L 372.230816 102.801761 
L 372.401633 109.639037 
L 372.572449 172.265362 
L 372.743265 158.346136 
L 372.914082 165.414493 
L 373.084898 158.638385 
L 373.255714 158.437888 
L 373.426531 116.690403 
L 373.597347 151.464682 
L 373.768163 116.775359 
L 373.93898 158.329144 
L 374.109796 165.387307 
L 374.451429 151.532647 
L 374.622245 123.490299 
L 374.793061 123.796141 
L 374.963878 193.300521 
L 375.134694 130.449912 
L 375.30551 123.490299 
L 375.476327 151.417106 
L 375.647143 158.363127 
L 375.817959 123.44952 
L 375.988776 137.47749 
L 376.159592 132.9952 
L 376.330408 158.352932 
L 376.501224 137.460499 
L 376.672041 172.139627 
L 377.013673 116.564668 
L 377.18449 165.309147 
L 377.355306 116.449128 
L 377.526122 157.234908 
L 377.696939 144.273988 
L 377.867755 144.263793 
L 378.038571 179.061859 
L 378.380204 116.435535 
L 378.55102 151.203017 
L 378.721837 116.710793 
L 378.892653 151.29477 
L 379.063469 130.0863 
L 379.405102 165.213996 
L 379.575918 130.511081 
L 379.746735 123.493697 
L 379.917551 151.267584 
L 380.088367 121.461544 
L 380.259184 158.2204 
L 380.43 123.50729 
L 380.600816 116.513694 
L 380.771633 164.833392 
L 381.113265 137.198834 
L 381.284082 158.369923 
L 381.454898 130.436319 
L 381.625714 199.828557 
L 381.796531 130.232424 
L 381.967347 130.31738 
L 382.138163 171.95952 
L 382.30898 178.922531 
L 382.479796 158.043691 
L 382.821429 144.216218 
L 382.992245 165.842672 
L 383.163061 158.006311 
L 383.333878 130.443116 
L 383.504694 144.199226 
L 383.67551 172.024086 
L 383.846327 157.999514 
L 384.017143 116.510296 
L 384.187959 151.019511 
L 384.358776 137.209029 
L 384.529592 156.997031 
L 384.700408 158.077674 
L 384.871224 144.039509 
L 385.042041 158.053886 
L 385.212857 132.713146 
L 385.383673 151.090875 
L 385.55449 151.090875 
L 385.725306 158.043691 
L 385.896122 172.703736 
L 386.066939 137.198834 
L 386.237755 137.229418 
L 386.408571 137.03232 
L 386.579388 143.991933 
L 386.750204 137.134267 
L 387.091837 164.952331 
L 387.433469 144.066695 
L 387.604286 157.982523 
L 387.775102 150.907369 
L 387.945918 192.770395 
L 388.287551 130.12368 
L 388.458367 150.903971 
L 388.629184 88.366001 
L 388.8 162.855612 
L 388.8 162.855612 
" style="fill:none;stroke:#1f77b4;stroke-linecap:square;stroke-width:1.5;"/>
   </g>
   <g id="patch_3">
    <path d="M 54 252 
L 54 34.56 
" style="fill:none;stroke:#000000;stroke-linecap:square;stroke-linejoin:miter;stroke-width:0.8;"/>
   </g>
   <g id="patch_4">
    <path d="M 388.8 252 
L 388.8 34.56 
" style="fill:none;stroke:#000000;stroke-linecap:square;stroke-linejoin:miter;stroke-width:0.8;"/>
   </g>
   <g id="patch_5">
    <path d="M 54 252 
L 388.8 252 
" style="fill:none;stroke:#000000;stroke-linecap:square;stroke-linejoin:miter;stroke-width:0.8;"/>
   </g>
   <g id="patch_6">
    <path d="M 54 34.56 
L 388.8 34.56 
" style="fill:none;stroke:#000000;stroke-linecap:square;stroke-linejoin:miter;stroke-width:0.8;"/>
   </g>
   <g id="legend_1">
    <g id="patch_7">
     <path d="M 330.154688 57.238125 
L 381.8 57.238125 
Q 383.8 57.238125 383.8 55.238125 
L 383.8 41.56 
Q 383.8 39.56 381.8 39.56 
L 330.154688 39.56 
Q 328.154688 39.56 328.154688 41.56 
L 328.154688 55.238125 
Q 328.154688 57.238125 330.154688 57.238125 
z
" style="fill:#ffffff;opacity:0.8;stroke:#cccccc;stroke-linejoin:miter;"/>
    </g>
    <g id="line2d_15">
     <path d="M 332.154688 47.658437 
L 352.154688 47.658437 
" style="fill:none;stroke:#1f77b4;stroke-linecap:square;stroke-width:1.5;"/>
    </g>
    <g id="line2d_16"/>
    <g id="text_16">
     <!-- RSS -->
     <g transform="translate(360.154688 51.158437)scale(0.1 -0.1)">
      <use xlink:href="#DejaVuSans-82"/>
      <use x="69.482422" xlink:href="#DejaVuSans-83"/>
      <use x="132.958984" xlink:href="#DejaVuSans-83"/>
     </g>
    </g>
   </g>
  </g>
 </g>
 <defs>
  <clipPath id="p7ff8fd6fd6">
   <rect height="217.44" width="334.8" x="54" y="34.56"/>
  </clipPath>
 </defs>
</svg>
