<?xml version="1.0" encoding="utf-8" standalone="no"?>
<!DOCTYPE svg PUBLIC "-//W3C//DTD SVG 1.1//EN"
  "http://www.w3.org/Graphics/SVG/1.1/DTD/svg11.dtd">
<!-- Created with matplotlib (https://matplotlib.org/) -->
<svg height="288pt" version="1.1" viewBox="0 0 432 288" width="432pt" xmlns="http://www.w3.org/2000/svg" xmlns:xlink="http://www.w3.org/1999/xlink">
 <defs>
  <style type="text/css">
*{stroke-linecap:butt;stroke-linejoin:round;}
  </style>
 </defs>
 <g id="figure_1">
  <g id="patch_1">
   <path d="M 0 288 
L 432 288 
L 432 0 
L 0 0 
z
" style="fill:#ffffff;"/>
  </g>
  <g id="axes_1">
   <g id="patch_2">
    <path d="M 54 252 
L 388.8 252 
L 388.8 34.56 
L 54 34.56 
z
" style="fill:#ffffff;"/>
   </g>
   <g id="matplotlib.axis_1">
    <g id="xtick_1">
     <g id="line2d_1">
      <defs>
       <path d="M 0 0 
L 0 3.5 
" id="m93a7a3a502" style="stroke:#000000;stroke-width:0.8;"/>
      </defs>
      <g>
       <use style="stroke:#000000;stroke-width:0.8;" x="54" xlink:href="#m93a7a3a502" y="252"/>
      </g>
     </g>
     <g id="text_1">
      <!-- 0 -->
      <defs>
       <path d="M 31.78125 66.40625 
Q 24.171875 66.40625 20.328125 58.90625 
Q 16.5 51.421875 16.5 36.375 
Q 16.5 21.390625 20.328125 13.890625 
Q 24.171875 6.390625 31.78125 6.390625 
Q 39.453125 6.390625 43.28125 13.890625 
Q 47.125 21.390625 47.125 36.375 
Q 47.125 51.421875 43.28125 58.90625 
Q 39.453125 66.40625 31.78125 66.40625 
z
M 31.78125 74.21875 
Q 44.046875 74.21875 50.515625 64.515625 
Q 56.984375 54.828125 56.984375 36.375 
Q 56.984375 17.96875 50.515625 8.265625 
Q 44.046875 -1.421875 31.78125 -1.421875 
Q 19.53125 -1.421875 13.0625 8.265625 
Q 6.59375 17.96875 6.59375 36.375 
Q 6.59375 54.828125 13.0625 64.515625 
Q 19.53125 74.21875 31.78125 74.21875 
z
" id="DejaVuSans-48"/>
      </defs>
      <g transform="translate(50.81875 266.598437)scale(0.1 -0.1)">
       <use xlink:href="#DejaVuSans-48"/>
      </g>
     </g>
    </g>
    <g id="xtick_2">
     <g id="line2d_2">
      <g>
       <use style="stroke:#000000;stroke-width:0.8;" x="96.704082" xlink:href="#m93a7a3a502" y="252"/>
      </g>
     </g>
     <g id="text_2">
      <!-- 250 -->
      <defs>
       <path d="M 19.1875 8.296875 
L 53.609375 8.296875 
L 53.609375 0 
L 7.328125 0 
L 7.328125 8.296875 
Q 12.9375 14.109375 22.625 23.890625 
Q 32.328125 33.6875 34.8125 36.53125 
Q 39.546875 41.84375 41.421875 45.53125 
Q 43.3125 49.21875 43.3125 52.78125 
Q 43.3125 58.59375 39.234375 62.25 
Q 35.15625 65.921875 28.609375 65.921875 
Q 23.96875 65.921875 18.8125 64.3125 
Q 13.671875 62.703125 7.8125 59.421875 
L 7.8125 69.390625 
Q 13.765625 71.78125 18.9375 73 
Q 24.125 74.21875 28.421875 74.21875 
Q 39.75 74.21875 46.484375 68.546875 
Q 53.21875 62.890625 53.21875 53.421875 
Q 53.21875 48.921875 51.53125 44.890625 
Q 49.859375 40.875 45.40625 35.40625 
Q 44.1875 33.984375 37.640625 27.21875 
Q 31.109375 20.453125 19.1875 8.296875 
z
" id="DejaVuSans-50"/>
       <path d="M 10.796875 72.90625 
L 49.515625 72.90625 
L 49.515625 64.59375 
L 19.828125 64.59375 
L 19.828125 46.734375 
Q 21.96875 47.46875 24.109375 47.828125 
Q 26.265625 48.1875 28.421875 48.1875 
Q 40.625 48.1875 47.75 41.5 
Q 54.890625 34.8125 54.890625 23.390625 
Q 54.890625 11.625 47.5625 5.09375 
Q 40.234375 -1.421875 26.90625 -1.421875 
Q 22.3125 -1.421875 17.546875 -0.640625 
Q 12.796875 0.140625 7.71875 1.703125 
L 7.71875 11.625 
Q 12.109375 9.234375 16.796875 8.0625 
Q 21.484375 6.890625 26.703125 6.890625 
Q 35.15625 6.890625 40.078125 11.328125 
Q 45.015625 15.765625 45.015625 23.390625 
Q 45.015625 31 40.078125 35.4375 
Q 35.15625 39.890625 26.703125 39.890625 
Q 22.75 39.890625 18.8125 39.015625 
Q 14.890625 38.140625 10.796875 36.28125 
z
" id="DejaVuSans-53"/>
      </defs>
      <g transform="translate(87.160332 266.598437)scale(0.1 -0.1)">
       <use xlink:href="#DejaVuSans-50"/>
       <use x="63.623047" xlink:href="#DejaVuSans-53"/>
       <use x="127.246094" xlink:href="#DejaVuSans-48"/>
      </g>
     </g>
    </g>
    <g id="xtick_3">
     <g id="line2d_3">
      <g>
       <use style="stroke:#000000;stroke-width:0.8;" x="139.408163" xlink:href="#m93a7a3a502" y="252"/>
      </g>
     </g>
     <g id="text_3">
      <!-- 500 -->
      <g transform="translate(129.864413 266.598437)scale(0.1 -0.1)">
       <use xlink:href="#DejaVuSans-53"/>
       <use x="63.623047" xlink:href="#DejaVuSans-48"/>
       <use x="127.246094" xlink:href="#DejaVuSans-48"/>
      </g>
     </g>
    </g>
    <g id="xtick_4">
     <g id="line2d_4">
      <g>
       <use style="stroke:#000000;stroke-width:0.8;" x="182.112245" xlink:href="#m93a7a3a502" y="252"/>
      </g>
     </g>
     <g id="text_4">
      <!-- 750 -->
      <defs>
       <path d="M 8.203125 72.90625 
L 55.078125 72.90625 
L 55.078125 68.703125 
L 28.609375 0 
L 18.3125 0 
L 43.21875 64.59375 
L 8.203125 64.59375 
z
" id="DejaVuSans-55"/>
      </defs>
      <g transform="translate(172.568495 266.598437)scale(0.1 -0.1)">
       <use xlink:href="#DejaVuSans-55"/>
       <use x="63.623047" xlink:href="#DejaVuSans-53"/>
       <use x="127.246094" xlink:href="#DejaVuSans-48"/>
      </g>
     </g>
    </g>
    <g id="xtick_5">
     <g id="line2d_5">
      <g>
       <use style="stroke:#000000;stroke-width:0.8;" x="224.816327" xlink:href="#m93a7a3a502" y="252"/>
      </g>
     </g>
     <g id="text_5">
      <!-- 1000 -->
      <defs>
       <path d="M 12.40625 8.296875 
L 28.515625 8.296875 
L 28.515625 63.921875 
L 10.984375 60.40625 
L 10.984375 69.390625 
L 28.421875 72.90625 
L 38.28125 72.90625 
L 38.28125 8.296875 
L 54.390625 8.296875 
L 54.390625 0 
L 12.40625 0 
z
" id="DejaVuSans-49"/>
      </defs>
      <g transform="translate(212.091327 266.598437)scale(0.1 -0.1)">
       <use xlink:href="#DejaVuSans-49"/>
       <use x="63.623047" xlink:href="#DejaVuSans-48"/>
       <use x="127.246094" xlink:href="#DejaVuSans-48"/>
       <use x="190.869141" xlink:href="#DejaVuSans-48"/>
      </g>
     </g>
    </g>
    <g id="xtick_6">
     <g id="line2d_6">
      <g>
       <use style="stroke:#000000;stroke-width:0.8;" x="267.520408" xlink:href="#m93a7a3a502" y="252"/>
      </g>
     </g>
     <g id="text_6">
      <!-- 1250 -->
      <g transform="translate(254.795408 266.598437)scale(0.1 -0.1)">
       <use xlink:href="#DejaVuSans-49"/>
       <use x="63.623047" xlink:href="#DejaVuSans-50"/>
       <use x="127.246094" xlink:href="#DejaVuSans-53"/>
       <use x="190.869141" xlink:href="#DejaVuSans-48"/>
      </g>
     </g>
    </g>
    <g id="xtick_7">
     <g id="line2d_7">
      <g>
       <use style="stroke:#000000;stroke-width:0.8;" x="310.22449" xlink:href="#m93a7a3a502" y="252"/>
      </g>
     </g>
     <g id="text_7">
      <!-- 1500 -->
      <g transform="translate(297.49949 266.598437)scale(0.1 -0.1)">
       <use xlink:href="#DejaVuSans-49"/>
       <use x="63.623047" xlink:href="#DejaVuSans-53"/>
       <use x="127.246094" xlink:href="#DejaVuSans-48"/>
       <use x="190.869141" xlink:href="#DejaVuSans-48"/>
      </g>
     </g>
    </g>
    <g id="xtick_8">
     <g id="line2d_8">
      <g>
       <use style="stroke:#000000;stroke-width:0.8;" x="352.928571" xlink:href="#m93a7a3a502" y="252"/>
      </g>
     </g>
     <g id="text_8">
      <!-- 1750 -->
      <g transform="translate(340.203571 266.598437)scale(0.1 -0.1)">
       <use xlink:href="#DejaVuSans-49"/>
       <use x="63.623047" xlink:href="#DejaVuSans-55"/>
       <use x="127.246094" xlink:href="#DejaVuSans-53"/>
       <use x="190.869141" xlink:href="#DejaVuSans-48"/>
      </g>
     </g>
    </g>
    <g id="text_9">
     <!-- time [arbitrary units] -->
     <defs>
      <path d="M 18.3125 70.21875 
L 18.3125 54.6875 
L 36.8125 54.6875 
L 36.8125 47.703125 
L 18.3125 47.703125 
L 18.3125 18.015625 
Q 18.3125 11.328125 20.140625 9.421875 
Q 21.96875 7.515625 27.59375 7.515625 
L 36.8125 7.515625 
L 36.8125 0 
L 27.59375 0 
Q 17.1875 0 13.234375 3.875 
Q 9.28125 7.765625 9.28125 18.015625 
L 9.28125 47.703125 
L 2.6875 47.703125 
L 2.6875 54.6875 
L 9.28125 54.6875 
L 9.28125 70.21875 
z
" id="DejaVuSans-116"/>
      <path d="M 9.421875 54.6875 
L 18.40625 54.6875 
L 18.40625 0 
L 9.421875 0 
z
M 9.421875 75.984375 
L 18.40625 75.984375 
L 18.40625 64.59375 
L 9.421875 64.59375 
z
" id="DejaVuSans-105"/>
      <path d="M 52 44.1875 
Q 55.375 50.25 60.0625 53.125 
Q 64.75 56 71.09375 56 
Q 79.640625 56 84.28125 50.015625 
Q 88.921875 44.046875 88.921875 33.015625 
L 88.921875 0 
L 79.890625 0 
L 79.890625 32.71875 
Q 79.890625 40.578125 77.09375 44.375 
Q 74.3125 48.1875 68.609375 48.1875 
Q 61.625 48.1875 57.5625 43.546875 
Q 53.515625 38.921875 53.515625 30.90625 
L 53.515625 0 
L 44.484375 0 
L 44.484375 32.71875 
Q 44.484375 40.625 41.703125 44.40625 
Q 38.921875 48.1875 33.109375 48.1875 
Q 26.21875 48.1875 22.15625 43.53125 
Q 18.109375 38.875 18.109375 30.90625 
L 18.109375 0 
L 9.078125 0 
L 9.078125 54.6875 
L 18.109375 54.6875 
L 18.109375 46.1875 
Q 21.1875 51.21875 25.484375 53.609375 
Q 29.78125 56 35.6875 56 
Q 41.65625 56 45.828125 52.96875 
Q 50 49.953125 52 44.1875 
z
" id="DejaVuSans-109"/>
      <path d="M 56.203125 29.59375 
L 56.203125 25.203125 
L 14.890625 25.203125 
Q 15.484375 15.921875 20.484375 11.0625 
Q 25.484375 6.203125 34.421875 6.203125 
Q 39.59375 6.203125 44.453125 7.46875 
Q 49.3125 8.734375 54.109375 11.28125 
L 54.109375 2.78125 
Q 49.265625 0.734375 44.1875 -0.34375 
Q 39.109375 -1.421875 33.890625 -1.421875 
Q 20.796875 -1.421875 13.15625 6.1875 
Q 5.515625 13.8125 5.515625 26.8125 
Q 5.515625 40.234375 12.765625 48.109375 
Q 20.015625 56 32.328125 56 
Q 43.359375 56 49.78125 48.890625 
Q 56.203125 41.796875 56.203125 29.59375 
z
M 47.21875 32.234375 
Q 47.125 39.59375 43.09375 43.984375 
Q 39.0625 48.390625 32.421875 48.390625 
Q 24.90625 48.390625 20.390625 44.140625 
Q 15.875 39.890625 15.1875 32.171875 
z
" id="DejaVuSans-101"/>
      <path id="DejaVuSans-32"/>
      <path d="M 8.59375 75.984375 
L 29.296875 75.984375 
L 29.296875 69 
L 17.578125 69 
L 17.578125 -6.203125 
L 29.296875 -6.203125 
L 29.296875 -13.1875 
L 8.59375 -13.1875 
z
" id="DejaVuSans-91"/>
      <path d="M 34.28125 27.484375 
Q 23.390625 27.484375 19.1875 25 
Q 14.984375 22.515625 14.984375 16.5 
Q 14.984375 11.71875 18.140625 8.90625 
Q 21.296875 6.109375 26.703125 6.109375 
Q 34.1875 6.109375 38.703125 11.40625 
Q 43.21875 16.703125 43.21875 25.484375 
L 43.21875 27.484375 
z
M 52.203125 31.203125 
L 52.203125 0 
L 43.21875 0 
L 43.21875 8.296875 
Q 40.140625 3.328125 35.546875 0.953125 
Q 30.953125 -1.421875 24.3125 -1.421875 
Q 15.921875 -1.421875 10.953125 3.296875 
Q 6 8.015625 6 15.921875 
Q 6 25.140625 12.171875 29.828125 
Q 18.359375 34.515625 30.609375 34.515625 
L 43.21875 34.515625 
L 43.21875 35.40625 
Q 43.21875 41.609375 39.140625 45 
Q 35.0625 48.390625 27.6875 48.390625 
Q 23 48.390625 18.546875 47.265625 
Q 14.109375 46.140625 10.015625 43.890625 
L 10.015625 52.203125 
Q 14.9375 54.109375 19.578125 55.046875 
Q 24.21875 56 28.609375 56 
Q 40.484375 56 46.34375 49.84375 
Q 52.203125 43.703125 52.203125 31.203125 
z
" id="DejaVuSans-97"/>
      <path d="M 41.109375 46.296875 
Q 39.59375 47.171875 37.8125 47.578125 
Q 36.03125 48 33.890625 48 
Q 26.265625 48 22.1875 43.046875 
Q 18.109375 38.09375 18.109375 28.8125 
L 18.109375 0 
L 9.078125 0 
L 9.078125 54.6875 
L 18.109375 54.6875 
L 18.109375 46.1875 
Q 20.953125 51.171875 25.484375 53.578125 
Q 30.03125 56 36.53125 56 
Q 37.453125 56 38.578125 55.875 
Q 39.703125 55.765625 41.0625 55.515625 
z
" id="DejaVuSans-114"/>
      <path d="M 48.6875 27.296875 
Q 48.6875 37.203125 44.609375 42.84375 
Q 40.53125 48.484375 33.40625 48.484375 
Q 26.265625 48.484375 22.1875 42.84375 
Q 18.109375 37.203125 18.109375 27.296875 
Q 18.109375 17.390625 22.1875 11.75 
Q 26.265625 6.109375 33.40625 6.109375 
Q 40.53125 6.109375 44.609375 11.75 
Q 48.6875 17.390625 48.6875 27.296875 
z
M 18.109375 46.390625 
Q 20.953125 51.265625 25.265625 53.625 
Q 29.59375 56 35.59375 56 
Q 45.5625 56 51.78125 48.09375 
Q 58.015625 40.1875 58.015625 27.296875 
Q 58.015625 14.40625 51.78125 6.484375 
Q 45.5625 -1.421875 35.59375 -1.421875 
Q 29.59375 -1.421875 25.265625 0.953125 
Q 20.953125 3.328125 18.109375 8.203125 
L 18.109375 0 
L 9.078125 0 
L 9.078125 75.984375 
L 18.109375 75.984375 
z
" id="DejaVuSans-98"/>
      <path d="M 32.171875 -5.078125 
Q 28.375 -14.84375 24.75 -17.8125 
Q 21.140625 -20.796875 15.09375 -20.796875 
L 7.90625 -20.796875 
L 7.90625 -13.28125 
L 13.1875 -13.28125 
Q 16.890625 -13.28125 18.9375 -11.515625 
Q 21 -9.765625 23.484375 -3.21875 
L 25.09375 0.875 
L 2.984375 54.6875 
L 12.5 54.6875 
L 29.59375 11.921875 
L 46.6875 54.6875 
L 56.203125 54.6875 
z
" id="DejaVuSans-121"/>
      <path d="M 8.5 21.578125 
L 8.5 54.6875 
L 17.484375 54.6875 
L 17.484375 21.921875 
Q 17.484375 14.15625 20.5 10.265625 
Q 23.53125 6.390625 29.59375 6.390625 
Q 36.859375 6.390625 41.078125 11.03125 
Q 45.3125 15.671875 45.3125 23.6875 
L 45.3125 54.6875 
L 54.296875 54.6875 
L 54.296875 0 
L 45.3125 0 
L 45.3125 8.40625 
Q 42.046875 3.421875 37.71875 1 
Q 33.40625 -1.421875 27.6875 -1.421875 
Q 18.265625 -1.421875 13.375 4.4375 
Q 8.5 10.296875 8.5 21.578125 
z
M 31.109375 56 
z
" id="DejaVuSans-117"/>
      <path d="M 54.890625 33.015625 
L 54.890625 0 
L 45.90625 0 
L 45.90625 32.71875 
Q 45.90625 40.484375 42.875 44.328125 
Q 39.84375 48.1875 33.796875 48.1875 
Q 26.515625 48.1875 22.3125 43.546875 
Q 18.109375 38.921875 18.109375 30.90625 
L 18.109375 0 
L 9.078125 0 
L 9.078125 54.6875 
L 18.109375 54.6875 
L 18.109375 46.1875 
Q 21.34375 51.125 25.703125 53.5625 
Q 30.078125 56 35.796875 56 
Q 45.21875 56 50.046875 50.171875 
Q 54.890625 44.34375 54.890625 33.015625 
z
" id="DejaVuSans-110"/>
      <path d="M 44.28125 53.078125 
L 44.28125 44.578125 
Q 40.484375 46.53125 36.375 47.5 
Q 32.28125 48.484375 27.875 48.484375 
Q 21.1875 48.484375 17.84375 46.4375 
Q 14.5 44.390625 14.5 40.28125 
Q 14.5 37.15625 16.890625 35.375 
Q 19.28125 33.59375 26.515625 31.984375 
L 29.59375 31.296875 
Q 39.15625 29.25 43.1875 25.515625 
Q 47.21875 21.78125 47.21875 15.09375 
Q 47.21875 7.46875 41.1875 3.015625 
Q 35.15625 -1.421875 24.609375 -1.421875 
Q 20.21875 -1.421875 15.453125 -0.5625 
Q 10.6875 0.296875 5.421875 2 
L 5.421875 11.28125 
Q 10.40625 8.6875 15.234375 7.390625 
Q 20.0625 6.109375 24.8125 6.109375 
Q 31.15625 6.109375 34.5625 8.28125 
Q 37.984375 10.453125 37.984375 14.40625 
Q 37.984375 18.0625 35.515625 20.015625 
Q 33.0625 21.96875 24.703125 23.78125 
L 21.578125 24.515625 
Q 13.234375 26.265625 9.515625 29.90625 
Q 5.8125 33.546875 5.8125 39.890625 
Q 5.8125 47.609375 11.28125 51.796875 
Q 16.75 56 26.8125 56 
Q 31.78125 56 36.171875 55.265625 
Q 40.578125 54.546875 44.28125 53.078125 
z
" id="DejaVuSans-115"/>
      <path d="M 30.421875 75.984375 
L 30.421875 -13.1875 
L 9.71875 -13.1875 
L 9.71875 -6.203125 
L 21.390625 -6.203125 
L 21.390625 69 
L 9.71875 69 
L 9.71875 75.984375 
z
" id="DejaVuSans-93"/>
     </defs>
     <g transform="translate(168.955469 280.276563)scale(0.1 -0.1)">
      <use xlink:href="#DejaVuSans-116"/>
      <use x="39.208984" xlink:href="#DejaVuSans-105"/>
      <use x="66.992188" xlink:href="#DejaVuSans-109"/>
      <use x="164.404297" xlink:href="#DejaVuSans-101"/>
      <use x="225.927734" xlink:href="#DejaVuSans-32"/>
      <use x="257.714844" xlink:href="#DejaVuSans-91"/>
      <use x="296.728516" xlink:href="#DejaVuSans-97"/>
      <use x="358.007812" xlink:href="#DejaVuSans-114"/>
      <use x="399.121094" xlink:href="#DejaVuSans-98"/>
      <use x="462.597656" xlink:href="#DejaVuSans-105"/>
      <use x="490.380859" xlink:href="#DejaVuSans-116"/>
      <use x="529.589844" xlink:href="#DejaVuSans-114"/>
      <use x="570.703125" xlink:href="#DejaVuSans-97"/>
      <use x="631.982422" xlink:href="#DejaVuSans-114"/>
      <use x="673.095703" xlink:href="#DejaVuSans-121"/>
      <use x="732.275391" xlink:href="#DejaVuSans-32"/>
      <use x="764.0625" xlink:href="#DejaVuSans-117"/>
      <use x="827.441406" xlink:href="#DejaVuSans-110"/>
      <use x="890.820312" xlink:href="#DejaVuSans-105"/>
      <use x="918.603516" xlink:href="#DejaVuSans-116"/>
      <use x="957.8125" xlink:href="#DejaVuSans-115"/>
      <use x="1009.912109" xlink:href="#DejaVuSans-93"/>
     </g>
    </g>
   </g>
   <g id="matplotlib.axis_2">
    <g id="ytick_1">
     <g id="line2d_9">
      <defs>
       <path d="M 0 0 
L -3.5 0 
" id="mb1dd3cd510" style="stroke:#000000;stroke-width:0.8;"/>
      </defs>
      <g>
       <use style="stroke:#000000;stroke-width:0.8;" x="54" xlink:href="#mb1dd3cd510" y="222.695295"/>
      </g>
     </g>
     <g id="text_10">
      <!-- 37.05 -->
      <defs>
       <path d="M 40.578125 39.3125 
Q 47.65625 37.796875 51.625 33 
Q 55.609375 28.21875 55.609375 21.1875 
Q 55.609375 10.40625 48.1875 4.484375 
Q 40.765625 -1.421875 27.09375 -1.421875 
Q 22.515625 -1.421875 17.65625 -0.515625 
Q 12.796875 0.390625 7.625 2.203125 
L 7.625 11.71875 
Q 11.71875 9.328125 16.59375 8.109375 
Q 21.484375 6.890625 26.8125 6.890625 
Q 36.078125 6.890625 40.9375 10.546875 
Q 45.796875 14.203125 45.796875 21.1875 
Q 45.796875 27.640625 41.28125 31.265625 
Q 36.765625 34.90625 28.71875 34.90625 
L 20.21875 34.90625 
L 20.21875 43.015625 
L 29.109375 43.015625 
Q 36.375 43.015625 40.234375 45.921875 
Q 44.09375 48.828125 44.09375 54.296875 
Q 44.09375 59.90625 40.109375 62.90625 
Q 36.140625 65.921875 28.71875 65.921875 
Q 24.65625 65.921875 20.015625 65.03125 
Q 15.375 64.15625 9.8125 62.3125 
L 9.8125 71.09375 
Q 15.4375 72.65625 20.34375 73.4375 
Q 25.25 74.21875 29.59375 74.21875 
Q 40.828125 74.21875 47.359375 69.109375 
Q 53.90625 64.015625 53.90625 55.328125 
Q 53.90625 49.265625 50.4375 45.09375 
Q 46.96875 40.921875 40.578125 39.3125 
z
" id="DejaVuSans-51"/>
       <path d="M 10.6875 12.40625 
L 21 12.40625 
L 21 0 
L 10.6875 0 
z
" id="DejaVuSans-46"/>
      </defs>
      <g transform="translate(18.371875 226.494514)scale(0.1 -0.1)">
       <use xlink:href="#DejaVuSans-51"/>
       <use x="63.623047" xlink:href="#DejaVuSans-55"/>
       <use x="127.246094" xlink:href="#DejaVuSans-46"/>
       <use x="159.033203" xlink:href="#DejaVuSans-48"/>
       <use x="222.65625" xlink:href="#DejaVuSans-53"/>
      </g>
     </g>
    </g>
    <g id="ytick_2">
     <g id="line2d_10">
      <g>
       <use style="stroke:#000000;stroke-width:0.8;" x="54" xlink:href="#mb1dd3cd510" y="185.316681"/>
      </g>
     </g>
     <g id="text_11">
      <!-- 37.10 -->
      <g transform="translate(18.371875 189.1159)scale(0.1 -0.1)">
       <use xlink:href="#DejaVuSans-51"/>
       <use x="63.623047" xlink:href="#DejaVuSans-55"/>
       <use x="127.246094" xlink:href="#DejaVuSans-46"/>
       <use x="159.033203" xlink:href="#DejaVuSans-49"/>
       <use x="222.65625" xlink:href="#DejaVuSans-48"/>
      </g>
     </g>
    </g>
    <g id="ytick_3">
     <g id="line2d_11">
      <g>
       <use style="stroke:#000000;stroke-width:0.8;" x="54" xlink:href="#mb1dd3cd510" y="147.938068"/>
      </g>
     </g>
     <g id="text_12">
      <!-- 37.15 -->
      <g transform="translate(18.371875 151.737287)scale(0.1 -0.1)">
       <use xlink:href="#DejaVuSans-51"/>
       <use x="63.623047" xlink:href="#DejaVuSans-55"/>
       <use x="127.246094" xlink:href="#DejaVuSans-46"/>
       <use x="159.033203" xlink:href="#DejaVuSans-49"/>
       <use x="222.65625" xlink:href="#DejaVuSans-53"/>
      </g>
     </g>
    </g>
    <g id="ytick_4">
     <g id="line2d_12">
      <g>
       <use style="stroke:#000000;stroke-width:0.8;" x="54" xlink:href="#mb1dd3cd510" y="110.559454"/>
      </g>
     </g>
     <g id="text_13">
      <!-- 37.20 -->
      <g transform="translate(18.371875 114.358673)scale(0.1 -0.1)">
       <use xlink:href="#DejaVuSans-51"/>
       <use x="63.623047" xlink:href="#DejaVuSans-55"/>
       <use x="127.246094" xlink:href="#DejaVuSans-46"/>
       <use x="159.033203" xlink:href="#DejaVuSans-50"/>
       <use x="222.65625" xlink:href="#DejaVuSans-48"/>
      </g>
     </g>
    </g>
    <g id="ytick_5">
     <g id="line2d_13">
      <g>
       <use style="stroke:#000000;stroke-width:0.8;" x="54" xlink:href="#mb1dd3cd510" y="73.180841"/>
      </g>
     </g>
     <g id="text_14">
      <!-- 37.25 -->
      <g transform="translate(18.371875 76.98006)scale(0.1 -0.1)">
       <use xlink:href="#DejaVuSans-51"/>
       <use x="63.623047" xlink:href="#DejaVuSans-55"/>
       <use x="127.246094" xlink:href="#DejaVuSans-46"/>
       <use x="159.033203" xlink:href="#DejaVuSans-50"/>
       <use x="222.65625" xlink:href="#DejaVuSans-53"/>
      </g>
     </g>
    </g>
    <g id="ytick_6">
     <g id="line2d_14">
      <g>
       <use style="stroke:#000000;stroke-width:0.8;" x="54" xlink:href="#mb1dd3cd510" y="35.802227"/>
      </g>
     </g>
     <g id="text_15">
      <!-- 37.30 -->
      <g transform="translate(18.371875 39.601446)scale(0.1 -0.1)">
       <use xlink:href="#DejaVuSans-51"/>
       <use x="63.623047" xlink:href="#DejaVuSans-55"/>
       <use x="127.246094" xlink:href="#DejaVuSans-46"/>
       <use x="159.033203" xlink:href="#DejaVuSans-51"/>
       <use x="222.65625" xlink:href="#DejaVuSans-48"/>
      </g>
     </g>
    </g>
    <g id="text_16">
     <!-- VSZ [GB] -->
     <defs>
      <path d="M 28.609375 0 
L 0.78125 72.90625 
L 11.078125 72.90625 
L 34.1875 11.53125 
L 57.328125 72.90625 
L 67.578125 72.90625 
L 39.796875 0 
z
" id="DejaVuSans-86"/>
      <path d="M 53.515625 70.515625 
L 53.515625 60.890625 
Q 47.90625 63.578125 42.921875 64.890625 
Q 37.9375 66.21875 33.296875 66.21875 
Q 25.25 66.21875 20.875 63.09375 
Q 16.5 59.96875 16.5 54.203125 
Q 16.5 49.359375 19.40625 46.890625 
Q 22.3125 44.4375 30.421875 42.921875 
L 36.375 41.703125 
Q 47.40625 39.59375 52.65625 34.296875 
Q 57.90625 29 57.90625 20.125 
Q 57.90625 9.515625 50.796875 4.046875 
Q 43.703125 -1.421875 29.984375 -1.421875 
Q 24.8125 -1.421875 18.96875 -0.25 
Q 13.140625 0.921875 6.890625 3.21875 
L 6.890625 13.375 
Q 12.890625 10.015625 18.65625 8.296875 
Q 24.421875 6.59375 29.984375 6.59375 
Q 38.421875 6.59375 43.015625 9.90625 
Q 47.609375 13.234375 47.609375 19.390625 
Q 47.609375 24.75 44.3125 27.78125 
Q 41.015625 30.8125 33.5 32.328125 
L 27.484375 33.5 
Q 16.453125 35.6875 11.515625 40.375 
Q 6.59375 45.0625 6.59375 53.421875 
Q 6.59375 63.09375 13.40625 68.65625 
Q 20.21875 74.21875 32.171875 74.21875 
Q 37.3125 74.21875 42.625 73.28125 
Q 47.953125 72.359375 53.515625 70.515625 
z
" id="DejaVuSans-83"/>
      <path d="M 5.609375 72.90625 
L 62.890625 72.90625 
L 62.890625 65.375 
L 16.796875 8.296875 
L 64.015625 8.296875 
L 64.015625 0 
L 4.5 0 
L 4.5 7.515625 
L 50.59375 64.59375 
L 5.609375 64.59375 
z
" id="DejaVuSans-90"/>
      <path d="M 59.515625 10.40625 
L 59.515625 29.984375 
L 43.40625 29.984375 
L 43.40625 38.09375 
L 69.28125 38.09375 
L 69.28125 6.78125 
Q 63.578125 2.734375 56.6875 0.65625 
Q 49.8125 -1.421875 42 -1.421875 
Q 24.90625 -1.421875 15.25 8.5625 
Q 5.609375 18.5625 5.609375 36.375 
Q 5.609375 54.25 15.25 64.234375 
Q 24.90625 74.21875 42 74.21875 
Q 49.125 74.21875 55.546875 72.453125 
Q 61.96875 70.703125 67.390625 67.28125 
L 67.390625 56.78125 
Q 61.921875 61.421875 55.765625 63.765625 
Q 49.609375 66.109375 42.828125 66.109375 
Q 29.4375 66.109375 22.71875 58.640625 
Q 16.015625 51.171875 16.015625 36.375 
Q 16.015625 21.625 22.71875 14.15625 
Q 29.4375 6.6875 42.828125 6.6875 
Q 48.046875 6.6875 52.140625 7.59375 
Q 56.25 8.5 59.515625 10.40625 
z
" id="DejaVuSans-71"/>
      <path d="M 19.671875 34.8125 
L 19.671875 8.109375 
L 35.5 8.109375 
Q 43.453125 8.109375 47.28125 11.40625 
Q 51.125 14.703125 51.125 21.484375 
Q 51.125 28.328125 47.28125 31.5625 
Q 43.453125 34.8125 35.5 34.8125 
z
M 19.671875 64.796875 
L 19.671875 42.828125 
L 34.28125 42.828125 
Q 41.5 42.828125 45.03125 45.53125 
Q 48.578125 48.25 48.578125 53.8125 
Q 48.578125 59.328125 45.03125 62.0625 
Q 41.5 64.796875 34.28125 64.796875 
z
M 9.8125 72.90625 
L 35.015625 72.90625 
Q 46.296875 72.90625 52.390625 68.21875 
Q 58.5 63.53125 58.5 54.890625 
Q 58.5 48.1875 55.375 44.234375 
Q 52.25 40.28125 46.1875 39.3125 
Q 53.46875 37.75 57.5 32.78125 
Q 61.53125 27.828125 61.53125 20.40625 
Q 61.53125 10.640625 54.890625 5.3125 
Q 48.25 0 35.984375 0 
L 9.8125 0 
z
" id="DejaVuSans-66"/>
     </defs>
     <g transform="translate(12.292187 166.094844)rotate(-90)scale(0.1 -0.1)">
      <use xlink:href="#DejaVuSans-86"/>
      <use x="68.408203" xlink:href="#DejaVuSans-83"/>
      <use x="131.884766" xlink:href="#DejaVuSans-90"/>
      <use x="200.390625" xlink:href="#DejaVuSans-32"/>
      <use x="232.177734" xlink:href="#DejaVuSans-91"/>
      <use x="271.191406" xlink:href="#DejaVuSans-71"/>
      <use x="348.681641" xlink:href="#DejaVuSans-66"/>
      <use x="417.285156" xlink:href="#DejaVuSans-93"/>
     </g>
    </g>
   </g>
   <g id="line2d_15">
    <path clip-path="url(#pb9443d46d5)" d="M 54 151.401818 
L 54.170816 180.60386 
L 54.341633 180.606711 
L 54.683265 151.40467 
L 54.854082 157.242226 
L 55.024898 192.287528 
L 55.366531 151.398966 
L 55.537347 174.763451 
L 55.708163 174.766303 
L 55.87898 151.40467 
L 56.220612 151.40467 
L 56.391429 163.085486 
L 56.562245 151.401818 
L 56.733061 174.763451 
L 56.903878 163.085486 
L 57.074694 168.923043 
L 57.24551 168.923043 
L 57.416327 192.287528 
L 57.587143 139.721001 
L 57.757959 151.40467 
L 57.928776 180.60386 
L 58.099592 145.564261 
L 58.270408 180.606711 
L 58.441224 168.925895 
L 58.612041 180.424199 
L 58.782857 180.421347 
L 59.12449 168.746234 
L 59.295306 145.381749 
L 59.466122 186.264607 
L 59.636939 174.58379 
L 59.807755 174.58379 
L 59.978571 151.219305 
L 60.320204 180.424199 
L 60.49102 145.381749 
L 60.661837 180.424199 
L 60.832653 174.58379 
L 61.003469 157.059713 
L 61.174286 174.586642 
L 61.345102 203.788684 
L 61.515918 197.942572 
L 61.686735 180.421347 
L 61.857551 186.264607 
L 62.028367 174.58379 
L 62.199184 192.102164 
L 62.37 168.743382 
L 62.540816 174.58379 
L 62.711633 186.264607 
L 62.882449 168.74053 
L 63.053265 162.902974 
L 63.224082 192.102164 
L 63.394898 192.107867 
L 63.736531 127.857672 
L 63.907347 145.381749 
L 64.078163 174.58379 
L 64.24898 127.860523 
L 64.419796 180.424199 
L 64.590612 162.902974 
L 64.761429 180.424199 
L 65.103061 139.538488 
L 65.273878 151.222157 
L 65.61551 197.762911 
L 65.786327 174.401278 
L 66.127959 191.925354 
L 66.298776 151.036792 
L 66.469592 180.238834 
L 66.640408 156.877201 
L 66.811224 174.401278 
L 66.982041 168.560869 
L 67.152857 174.401278 
L 67.323673 221.127396 
L 67.665306 151.036792 
L 68.006939 186.082094 
L 68.177755 162.720461 
L 68.348571 156.877201 
L 68.690204 191.925354 
L 68.86102 174.398426 
L 69.031837 174.401278 
L 69.202653 156.877201 
L 69.373469 156.880052 
L 69.544286 186.079242 
L 69.715102 151.039644 
L 69.885918 180.241686 
L 70.056735 180.241686 
L 70.227551 168.558017 
L 70.398367 145.196384 
L 70.569184 191.922503 
L 71.081633 156.880052 
L 71.252449 197.762911 
L 71.423265 168.563721 
L 71.594082 174.398426 
L 71.764898 156.880052 
L 71.935714 180.241686 
L 72.106531 145.196384 
L 72.277347 186.079242 
L 72.448163 174.218765 
L 72.61898 150.851428 
L 72.789796 174.218765 
L 72.960612 145.013871 
L 73.131429 150.859983 
L 73.302245 174.218765 
L 73.643878 121.652238 
L 73.814694 209.261215 
L 73.98551 197.58325 
L 74.156327 156.69754 
L 74.327143 215.101623 
L 74.497959 145.013871 
L 74.668776 191.73999 
L 74.839592 185.89673 
L 75.010408 150.857131 
L 75.352041 150.85428 
L 75.693673 168.378356 
L 75.86449 168.375505 
L 76.035306 139.173463 
L 76.206122 156.69754 
L 76.376939 156.694688 
L 76.718571 168.378356 
L 76.889388 150.85428 
L 77.060204 180.059173 
L 77.23102 180.062025 
L 77.401837 162.535096 
L 77.572653 185.899581 
L 77.743469 168.378356 
L 77.914286 180.056321 
L 78.085102 69.085711 
L 78.255918 209.264067 
L 78.426735 156.69754 
L 78.768367 185.902433 
L 78.939184 145.016723 
L 79.11 180.059173 
L 79.280816 150.857131 
L 79.451633 150.857131 
L 79.622449 156.512175 
L 79.793265 174.039104 
L 79.964082 138.993802 
L 80.134898 191.557477 
L 80.305714 179.87666 
L 80.476531 179.873809 
L 80.647347 168.195844 
L 80.818163 138.993802 
L 80.98898 197.397885 
L 81.159796 179.87666 
L 81.330612 150.671767 
L 81.501429 150.671767 
L 81.672245 191.557477 
L 81.843061 144.831358 
L 82.013878 150.674619 
L 82.184694 174.036252 
L 82.35551 156.512175 
L 82.526327 150.671767 
L 82.697143 156.515027 
L 82.867959 144.83421 
L 83.038776 179.873809 
L 83.209592 144.83421 
L 83.380408 168.198695 
L 83.551224 174.036252 
L 83.722041 185.717069 
L 83.892857 156.512175 
L 84.063673 174.036252 
L 84.23449 144.83421 
L 84.576122 185.71992 
L 84.746939 144.83421 
L 84.917755 150.671767 
L 85.088571 179.879512 
L 85.259388 174.036252 
L 85.430204 174.036252 
L 85.60102 179.87666 
L 85.771837 150.671767 
L 85.942653 150.674619 
L 86.113469 203.055781 
L 86.284286 185.534556 
L 86.455102 197.215373 
L 86.625918 150.489254 
L 86.967551 203.055781 
L 87.138367 168.010479 
L 87.309184 162.172923 
L 87.48 168.013331 
L 87.650816 150.489254 
L 87.821633 144.651697 
L 87.992449 168.010479 
L 88.334082 179.694148 
L 88.504898 197.218224 
L 88.675714 156.332514 
L 88.846531 156.329662 
L 89.017347 150.492106 
L 89.188163 162.172923 
L 89.35898 191.374964 
L 89.529796 197.215373 
L 89.871429 156.332514 
L 90.383878 197.215373 
L 90.72551 156.329662 
L 90.896327 203.055781 
L 91.067143 162.170071 
L 91.237959 203.055781 
L 91.408776 185.537408 
L 91.579592 156.329662 
L 91.750408 150.489254 
L 91.921224 162.170071 
L 92.092041 138.811289 
L 92.433673 197.215373 
L 92.775306 150.489254 
L 92.946122 185.534556 
L 93.116939 173.853739 
L 93.287755 150.306741 
L 93.458571 173.671226 
L 93.629388 144.466333 
L 93.800204 144.469185 
L 93.97102 167.830818 
L 94.141837 173.671226 
L 94.312653 144.472036 
L 94.483469 179.511635 
L 94.654286 173.671226 
L 94.825102 150.306741 
L 94.995918 191.192452 
L 95.166735 173.671226 
L 95.337551 173.671226 
L 95.508367 132.785516 
L 95.679184 202.87612 
L 95.85 156.150001 
L 96.191633 179.514487 
L 96.533265 144.469185 
L 96.704082 179.514487 
L 97.045714 167.83367 
L 97.216531 179.511635 
L 97.387347 156.14715 
L 97.558163 167.830818 
L 97.72898 144.469185 
L 97.899796 179.508783 
L 98.070612 144.469185 
L 98.241429 156.14715 
L 98.412245 144.466333 
L 98.583061 156.14715 
L 98.753878 150.306741 
L 98.924694 167.830818 
L 99.09551 173.671226 
L 99.266327 197.03286 
L 99.607959 150.306741 
L 99.778776 196.850347 
L 100.120408 179.331974 
L 100.291224 144.286672 
L 100.462041 202.693607 
L 100.632857 150.124229 
L 100.803673 155.967489 
L 101.145306 173.488714 
L 101.316122 161.807897 
L 101.486939 173.491565 
L 101.657755 155.964637 
L 101.999388 179.329122 
L 102.170204 173.488714 
L 102.34102 126.762595 
L 102.682653 179.329122 
L 102.853469 167.648305 
L 103.024286 191.007087 
L 103.195102 173.488714 
L 103.365918 173.488714 
L 103.536735 167.645454 
L 103.707551 173.485862 
L 103.878367 144.28382 
L 104.049184 167.648305 
L 104.22 161.807897 
L 104.390816 138.446264 
L 104.561633 167.648305 
L 104.732449 150.124229 
L 104.903265 179.329122 
L 105.074082 179.32627 
L 105.415714 150.124229 
L 105.586531 191.009939 
L 105.757347 150.124229 
L 105.928163 185.16953 
L 106.09898 185.172382 
L 106.269796 150.12708 
L 106.440612 150.12708 
L 106.782245 167.468644 
L 106.953061 138.263751 
L 107.123878 161.625384 
L 107.294694 138.260899 
L 107.636327 161.625384 
L 107.807143 138.263751 
L 107.977959 161.625384 
L 108.148776 138.260899 
L 108.319592 161.625384 
L 108.490408 138.260899 
L 108.661224 138.263751 
L 108.832041 196.670686 
L 109.173673 138.260899 
L 109.515306 184.989869 
L 109.856939 138.263751 
L 110.198571 161.625384 
L 110.540204 161.625384 
L 110.71102 138.260899 
L 110.881837 173.306201 
L 111.052653 149.941716 
L 111.223469 161.625384 
L 111.394286 138.260899 
L 111.735918 161.625384 
L 112.077551 138.260899 
L 112.248367 138.263751 
L 112.59 173.306201 
L 112.760816 161.625384 
L 112.931633 161.625384 
L 113.102449 138.260899 
L 113.444082 173.123688 
L 113.614898 161.442871 
L 113.785714 161.442871 
L 113.956531 173.123688 
L 114.127347 161.442871 
L 114.298163 138.081238 
L 114.46898 173.12654 
L 114.639796 114.716753 
L 114.810612 161.442871 
L 115.152245 161.442871 
L 115.323061 138.078386 
L 115.493878 161.445723 
L 115.664694 161.442871 
L 115.83551 138.078386 
L 116.006327 161.442871 
L 116.177143 138.078386 
L 116.347959 138.081238 
L 116.518776 126.39757 
L 116.689592 161.442871 
L 117.031224 161.442871 
L 117.202041 149.759203 
L 117.372857 149.762055 
L 117.543673 161.442871 
L 117.71449 161.442871 
L 117.885306 173.123688 
L 118.056122 138.078386 
L 118.397755 161.442871 
L 118.568571 161.442871 
L 118.739388 138.078386 
L 119.08102 173.123688 
L 119.251837 161.442871 
L 119.422653 138.081238 
L 119.593469 143.918795 
L 119.764286 173.123688 
L 119.935102 161.442871 
L 120.105918 161.442871 
L 120.276735 137.898725 
L 120.447551 161.26321 
L 120.618367 149.579542 
L 120.789184 161.26321 
L 120.96 161.260359 
L 121.130816 149.579542 
L 121.301633 161.260359 
L 121.643265 161.260359 
L 121.814082 149.579542 
L 121.984898 126.215057 
L 122.155714 161.260359 
L 122.497347 161.260359 
L 122.668163 137.898725 
L 123.009796 161.260359 
L 123.180612 137.895874 
L 123.351429 161.260359 
L 123.522245 137.895874 
L 123.693061 137.895874 
L 123.863878 161.260359 
L 124.034694 137.898725 
L 124.20551 149.579542 
L 124.376327 137.895874 
L 124.717959 184.624844 
L 124.888776 149.579542 
L 125.059592 149.579542 
L 125.230408 161.260359 
L 125.401224 137.895874 
L 125.572041 172.941175 
L 125.742857 184.624844 
L 125.913673 44.443636 
L 126.08449 161.260359 
L 126.255306 149.579542 
L 126.426122 149.579542 
L 126.596939 172.758663 
L 126.767755 161.080698 
L 127.963469 161.077846 
L 128.134286 143.553769 
L 128.305102 161.077846 
L 128.475918 161.077846 
L 128.646735 137.716213 
L 128.817551 137.713361 
L 129.159184 184.442331 
L 129.500816 137.713361 
L 129.671633 161.077846 
L 129.842449 161.077846 
L 130.013265 149.394177 
L 130.184082 172.758663 
L 130.354898 161.077846 
L 130.867347 161.077846 
L 131.038163 126.035396 
L 131.20898 161.077846 
L 131.379796 137.716213 
L 131.550612 149.397029 
L 131.721429 149.397029 
L 131.892245 161.077846 
L 132.063061 137.713361 
L 132.233878 161.077846 
L 132.746327 161.077846 
L 132.917143 137.713361 
L 133.087959 161.080698 
L 133.429592 137.716213 
L 133.771224 160.895333 
L 133.942041 137.530848 
L 134.112857 172.579002 
L 134.45449 160.895333 
L 134.625306 149.211665 
L 134.796122 160.895333 
L 135.137755 160.895333 
L 135.308571 125.850031 
L 135.650204 160.895333 
L 135.82102 137.5337 
L 135.991837 160.895333 
L 136.333469 160.895333 
L 136.504286 137.530848 
L 136.675102 160.895333 
L 136.845918 137.5337 
L 137.016735 172.57615 
L 137.187551 137.5337 
L 137.529184 137.5337 
L 137.7 160.895333 
L 138.041633 160.895333 
L 138.212449 149.211665 
L 138.383265 160.895333 
L 138.724898 160.895333 
L 138.895714 184.259818 
L 139.066531 137.530848 
L 139.237347 160.895333 
L 139.408163 125.84718 
L 139.57898 160.895333 
L 139.749796 125.850031 
L 139.920612 172.57615 
L 140.091429 137.348335 
L 140.262245 172.393637 
L 140.433061 137.348335 
L 140.603878 172.393637 
L 140.94551 131.507927 
L 141.116327 160.71282 
L 141.457959 172.393637 
L 141.628776 119.82711 
L 141.799592 166.556081 
L 141.970408 172.396489 
L 142.141224 184.074454 
L 142.482857 172.390785 
L 142.653673 137.351187 
L 142.82449 143.188744 
L 142.995306 143.191595 
L 143.166122 178.234046 
L 143.336939 172.390785 
L 143.507755 184.071602 
L 143.678571 149.029152 
L 143.849388 149.029152 
L 144.020204 160.71282 
L 144.19102 131.510779 
L 144.361837 172.393637 
L 144.532653 178.231194 
L 144.703469 154.872412 
L 145.045102 166.553229 
L 145.215918 219.116904 
L 145.386735 184.071602 
L 145.557551 172.393637 
L 145.728367 178.234046 
L 145.899184 149.032004 
L 146.07 166.556081 
L 146.240816 154.872412 
L 146.411633 160.530308 
L 146.582449 149.029152 
L 146.753265 149.032004 
L 146.924082 178.051533 
L 147.094898 172.211124 
L 147.265714 178.051533 
L 147.607347 131.328266 
L 147.778163 178.054385 
L 148.290612 137.171526 
L 148.632245 195.569906 
L 148.803061 148.846639 
L 149.144694 160.527456 
L 149.31551 172.211124 
L 149.486327 154.689899 
L 149.657143 148.846639 
L 149.827959 195.572758 
L 149.998776 166.367864 
L 150.169592 189.735201 
L 150.340408 178.051533 
L 150.511224 143.006231 
L 150.682041 195.572758 
L 150.852857 195.57561 
L 151.023673 183.891941 
L 151.19449 195.572758 
L 151.365306 183.891941 
L 151.536122 183.889089 
L 151.706939 172.211124 
L 151.877755 178.051533 
L 152.048571 166.370716 
L 152.219388 143.006231 
L 152.390204 189.732349 
L 152.56102 166.370716 
L 152.731837 183.891941 
L 152.902653 154.687048 
L 153.073469 172.208273 
L 153.244286 154.687048 
L 153.415102 160.344943 
L 153.585918 172.028612 
L 153.756735 172.031463 
L 153.927551 177.86902 
L 154.098367 166.188203 
L 154.269184 183.709428 
L 154.44 148.666978 
L 154.610816 189.549837 
L 154.781633 172.028612 
L 155.123265 189.549837 
L 155.294082 136.98331 
L 155.464898 154.507387 
L 155.635714 154.507387 
L 155.806531 148.666978 
L 155.977347 172.028612 
L 156.148163 142.823718 
L 156.31898 242.116364 
L 156.489796 160.344943 
L 156.660612 166.185352 
L 156.831429 166.188203 
L 157.002245 177.86902 
L 157.173061 166.191055 
L 157.343878 142.823718 
L 157.514694 195.387393 
L 157.68551 183.71228 
L 157.856327 183.709428 
L 158.027143 148.664126 
L 158.197959 148.666978 
L 158.368776 166.188203 
L 158.539592 131.145753 
L 158.710408 148.666978 
L 159.052041 195.387393 
L 159.222857 154.507387 
L 159.393673 177.86902 
L 159.56449 177.86902 
L 159.735306 136.98331 
L 160.076939 177.86902 
L 160.247755 177.86902 
L 160.418571 148.481614 
L 160.589388 154.322022 
L 160.760204 148.484465 
L 160.93102 177.686507 
L 161.272653 166.005691 
L 161.614286 183.526916 
L 161.785102 177.683655 
L 161.955918 148.484465 
L 162.126735 166.005691 
L 162.297551 171.848951 
L 162.639184 201.048141 
L 162.980816 154.324874 
L 163.151633 148.481614 
L 163.322449 160.165282 
L 163.493265 189.364472 
L 163.664082 177.686507 
L 163.834898 189.367324 
L 164.005714 148.484465 
L 164.176531 160.165282 
L 164.347347 183.526916 
L 164.518163 142.644057 
L 164.68898 166.005691 
L 165.030612 177.686507 
L 165.201429 142.644057 
L 165.372245 142.644057 
L 165.713878 166.005691 
L 165.884694 142.641205 
L 166.05551 142.641205 
L 166.226327 154.324874 
L 166.397143 154.324874 
L 166.567959 177.686507 
L 166.738776 166.005691 
L 166.909592 165.823178 
L 167.080408 165.823178 
L 167.251224 142.458693 
L 167.422041 171.666438 
L 167.592857 136.621136 
L 167.763673 165.823178 
L 167.93449 154.139509 
L 168.105306 154.142361 
L 168.276122 165.823178 
L 168.617755 165.823178 
L 168.788571 183.341551 
L 168.959388 136.618284 
L 169.130204 142.458693 
L 169.30102 165.823178 
L 169.471837 154.142361 
L 169.642653 171.663586 
L 169.813469 142.458693 
L 169.984286 159.982769 
L 170.155102 165.82603 
L 170.325918 189.187663 
L 170.667551 159.979918 
L 170.838367 177.501143 
L 171.350816 159.982769 
L 171.521633 206.706036 
L 171.692449 177.503994 
L 171.863265 183.344403 
L 172.034082 154.142361 
L 172.204898 165.823178 
L 172.375714 165.823178 
L 172.546531 177.503994 
L 172.717347 142.27618 
L 172.888163 148.11944 
L 173.05898 177.321482 
L 173.229796 153.959848 
L 173.400612 194.842707 
L 173.571429 124.754955 
L 173.742245 124.754955 
L 174.254694 183.16189 
L 174.42551 159.803108 
L 174.767143 183.16189 
L 174.937959 159.797405 
L 175.108776 171.481073 
L 175.279592 171.481073 
L 175.450408 165.640665 
L 175.621224 183.16189 
L 175.792041 183.16189 
L 175.962857 177.31863 
L 176.133673 153.959848 
L 176.30449 148.11944 
L 176.475306 148.122292 
L 176.816939 177.321482 
L 177.158571 153.959848 
L 177.329388 171.481073 
L 177.500204 165.643517 
L 177.67102 194.839855 
L 177.841837 153.956997 
L 178.012653 153.959848 
L 178.183469 177.321482 
L 178.354286 153.9627 
L 178.525102 183.16189 
L 178.695918 130.595363 
L 178.866735 194.842707 
L 179.037551 177.31863 
L 179.208367 148.11944 
L 179.379184 159.800257 
L 179.55 148.116588 
L 179.720816 206.341011 
L 179.891633 171.298561 
L 180.062449 177.138969 
L 180.233265 142.093667 
L 180.404082 153.777336 
L 180.574898 147.934075 
L 180.745714 200.500602 
L 180.916531 188.819786 
L 181.087347 130.41285 
L 181.258163 200.500602 
L 181.42898 194.657342 
L 181.770612 177.136117 
L 181.941429 177.138969 
L 182.283061 142.093667 
L 182.453878 136.25611 
L 182.79551 194.660194 
L 182.966327 142.096519 
L 183.137143 159.617744 
L 183.307959 153.777336 
L 183.820408 188.822637 
L 183.991224 153.774484 
L 184.162041 142.093667 
L 184.332857 177.138969 
L 184.503673 153.777336 
L 184.67449 188.819786 
L 184.845306 153.774484 
L 185.016122 153.774484 
L 185.186939 182.979377 
L 185.528571 147.936927 
L 185.699388 153.777336 
L 185.870204 142.096519 
L 186.04102 177.138969 
L 186.211837 171.116048 
L 186.382653 188.819786 
L 186.553469 141.911154 
L 186.724286 141.911154 
L 186.895102 153.594823 
L 187.065918 176.956456 
L 187.236735 171.116048 
L 187.407551 136.073598 
L 187.749184 182.796865 
L 187.92 159.435231 
L 188.090816 171.116048 
L 188.261633 147.757266 
L 188.774082 147.751563 
L 188.944898 165.278491 
L 189.115714 159.435231 
L 189.286531 182.796865 
L 189.457347 171.116048 
L 189.628163 136.070746 
L 189.79898 159.432379 
L 189.969796 147.754414 
L 190.311429 171.116048 
L 190.482245 171.116048 
L 190.653061 176.956456 
L 190.823878 176.956456 
L 190.994694 206.158498 
L 191.16551 165.275639 
L 191.336327 153.591971 
L 191.507143 176.956456 
L 191.677959 141.911154 
L 191.848776 165.275639 
L 192.019592 159.432379 
L 192.190408 147.751563 
L 192.361224 171.116048 
L 192.532041 165.272788 
L 192.702857 171.113196 
L 192.873673 171.1189 
L 193.215306 141.911154 
L 193.386122 165.093127 
L 193.556939 165.093127 
L 193.727755 182.6115 
L 193.898571 153.409458 
L 194.41102 182.6115 
L 194.581837 176.773943 
L 194.752653 159.249867 
L 194.923469 153.41231 
L 195.094286 194.295168 
L 195.435918 124.207416 
L 195.606735 141.728642 
L 195.777551 182.614352 
L 195.948367 170.933535 
L 196.119184 135.891085 
L 196.802449 182.614352 
L 196.973265 170.933535 
L 197.144082 188.451908 
L 197.314898 170.936387 
L 197.485714 165.093127 
L 197.656531 176.773943 
L 197.827347 124.207416 
L 197.998163 135.891085 
L 198.16898 182.614352 
L 198.339796 182.614352 
L 198.510612 165.093127 
L 198.681429 188.45476 
L 198.852245 182.614352 
L 199.193878 141.731493 
L 199.364694 170.933535 
L 199.706327 141.731493 
L 199.877143 176.591431 
L 200.047959 188.275099 
L 200.218776 170.751022 
L 200.389592 170.751022 
L 200.560408 153.226945 
L 200.731224 147.386537 
L 200.902041 182.431839 
L 201.072857 170.753874 
L 201.243673 176.591431 
L 201.585306 147.386537 
L 201.756122 176.591431 
L 201.926939 176.591431 
L 202.097755 170.751022 
L 202.268571 147.386537 
L 202.439388 170.753874 
L 202.610204 147.386537 
L 202.78102 176.591431 
L 203.122653 147.392241 
L 203.293469 182.428987 
L 203.635102 153.226945 
L 203.805918 194.109804 
L 203.976735 188.275099 
L 204.147551 159.070206 
L 204.318367 170.751022 
L 204.489184 164.910614 
L 204.66 176.591431 
L 204.830816 147.386537 
L 205.001633 141.551832 
L 205.172449 188.275099 
L 205.343265 176.591431 
L 205.514082 153.226945 
L 205.684898 176.588579 
L 205.855714 147.389389 
L 206.026531 176.588579 
L 206.197347 147.386537 
L 206.368163 170.751022 
L 206.53898 147.389389 
L 206.709796 199.953064 
L 206.880612 170.571361 
L 207.051429 170.56851 
L 207.222245 141.363616 
L 207.393061 153.047284 
L 207.563878 176.408918 
L 207.734694 176.408918 
L 207.90551 170.565658 
L 208.076327 135.526059 
L 208.247143 188.089735 
L 208.417959 141.366468 
L 208.759592 193.930143 
L 208.930408 170.56851 
L 209.101224 176.406066 
L 209.442857 158.887693 
L 209.613673 153.044433 
L 209.78449 53.751787 
L 209.955306 158.887693 
L 210.126122 193.930143 
L 210.296939 158.887693 
L 210.467755 182.249326 
L 210.638571 141.363616 
L 210.809388 170.565658 
L 210.980204 153.047284 
L 211.15102 170.56851 
L 211.321837 164.730953 
L 211.663469 176.408918 
L 211.834286 153.044433 
L 212.005102 164.730953 
L 212.175918 141.363616 
L 212.346735 199.770551 
L 212.688367 141.360764 
L 212.859184 182.249326 
L 213.03 164.728101 
L 213.200816 170.56851 
L 213.371633 158.887693 
L 213.542449 170.385997 
L 213.713265 164.542737 
L 213.884082 152.86192 
L 214.225714 182.066813 
L 214.567347 141.181103 
L 214.738163 193.74763 
L 215.079796 147.024363 
L 215.250612 182.066813 
L 215.421429 152.86192 
L 215.592245 152.86192 
L 215.763061 187.910074 
L 215.933878 164.545588 
L 216.104694 182.066813 
L 216.27551 164.542737 
L 216.446327 158.70518 
L 216.617143 170.385997 
L 216.787959 170.388849 
L 216.958776 152.864772 
L 217.129592 176.226405 
L 217.300408 135.340695 
L 217.471224 152.86192 
L 217.642041 152.864772 
L 217.812857 164.545588 
L 217.983673 164.545588 
L 218.15449 141.181103 
L 218.496122 187.90437 
L 218.666939 152.859068 
L 218.837755 176.223553 
L 219.350204 147.021512 
L 219.52102 187.907222 
L 219.862653 129.500287 
L 220.033469 199.588039 
L 220.375102 164.363076 
L 220.545918 170.200632 
L 220.716735 170.200632 
L 220.887551 181.881449 
L 221.058367 135.161034 
L 221.4 176.041041 
L 221.570816 176.043892 
L 221.741633 181.884301 
L 222.083265 170.203484 
L 222.254082 146.838999 
L 222.595714 176.043892 
L 222.766531 158.522667 
L 222.937347 193.565117 
L 223.108163 141.001442 
L 223.27898 152.679407 
L 223.449796 146.838999 
L 223.620612 170.203484 
L 223.791429 164.363076 
L 223.962245 164.365927 
L 224.133061 146.844702 
L 224.303878 152.682259 
L 224.474694 176.043892 
L 224.64551 152.679407 
L 224.816327 146.841851 
L 224.987143 193.565117 
L 225.328776 164.363076 
L 225.499592 176.043892 
L 225.670408 141.001442 
L 225.841224 176.043892 
L 226.012041 176.043892 
L 226.182857 158.519816 
L 226.353673 170.203484 
L 226.52449 164.363076 
L 226.695306 187.724709 
L 226.866122 181.701788 
L 227.036939 140.816078 
L 227.207755 170.020971 
L 227.378571 164.180563 
L 227.549388 152.496894 
L 227.720204 193.382605 
L 227.89102 134.972818 
L 228.061837 117.454444 
L 228.403469 187.542196 
L 228.574286 140.816078 
L 228.745102 140.816078 
L 228.915918 164.180563 
L 229.257551 134.978521 
L 229.428367 193.379753 
L 229.599184 164.180563 
L 229.77 164.180563 
L 229.940816 158.337303 
L 230.111633 175.858528 
L 230.453265 146.656486 
L 230.624082 170.020971 
L 230.794898 175.858528 
L 230.965714 175.858528 
L 231.136531 199.225865 
L 231.478163 134.975669 
L 231.64898 146.656486 
L 231.819796 187.542196 
L 231.990612 152.496894 
L 232.161429 175.864231 
L 232.332245 158.340155 
L 232.503061 158.337303 
L 232.844694 146.659338 
L 233.186327 175.858528 
L 233.357143 175.86138 
L 233.527959 152.496894 
L 233.698776 158.340155 
L 233.869592 134.978521 
L 234.040408 170.020971 
L 234.382041 170.018119 
L 234.552857 175.86138 
L 234.89449 175.858528 
L 235.065306 158.340155 
L 235.236122 175.858528 
L 235.406939 170.018119 
L 235.577755 170.020971 
L 235.748571 187.542196 
L 236.090204 158.340155 
L 236.26102 164.180563 
L 236.431837 146.476825 
L 236.602653 169.838458 
L 236.773469 152.317233 
L 236.944286 187.359684 
L 237.115102 158.157642 
L 237.285918 158.157642 
L 237.456735 181.522127 
L 237.627551 187.362535 
L 237.798367 175.678867 
L 237.969184 175.676015 
L 238.310816 158.157642 
L 238.481633 187.359684 
L 238.823265 140.633565 
L 238.994082 140.636417 
L 239.506531 210.721317 
L 239.848163 163.99805 
L 240.01898 158.15479 
L 240.189796 163.99805 
L 240.360612 163.99805 
L 240.531429 169.655946 
L 240.702245 181.336762 
L 240.873061 175.499206 
L 241.043878 140.453904 
L 241.214694 175.496354 
L 241.38551 146.291461 
L 241.727143 198.857988 
L 241.897959 163.815537 
L 242.068776 163.815537 
L 242.239592 181.333911 
L 242.410408 152.134721 
L 242.581224 152.134721 
L 242.752041 175.496354 
L 242.922857 140.453904 
L 243.093673 169.655946 
L 243.26449 163.812686 
L 243.606122 128.770235 
L 243.776939 163.815537 
L 244.289388 163.812686 
L 244.460204 140.451052 
L 244.63102 169.655946 
L 244.801837 140.453904 
L 244.972653 157.977981 
L 245.143469 157.975129 
L 245.314286 175.493502 
L 245.485102 169.655946 
L 245.655918 175.493502 
L 245.826735 152.134721 
L 245.997551 163.818389 
L 246.168367 128.767384 
L 246.339184 175.496354 
L 246.51 140.451052 
L 246.851633 140.451052 
L 247.022449 152.137572 
L 247.193265 198.860839 
L 247.534898 151.952208 
L 247.876531 151.952208 
L 248.38898 186.991806 
L 248.730612 157.792616 
L 248.901429 140.268539 
L 249.072245 181.15425 
L 249.243061 186.994658 
L 249.584694 146.108948 
L 249.75551 140.274243 
L 249.926327 169.476285 
L 250.097143 163.635876 
L 250.267959 192.837918 
L 250.438776 169.473433 
L 250.609592 181.15425 
L 250.951224 122.747314 
L 251.292857 163.635876 
L 251.463673 163.633025 
L 251.63449 175.313841 
L 251.976122 146.108948 
L 252.146939 186.99751 
L 252.317755 140.271391 
L 252.488571 175.313841 
L 252.659388 146.1118 
L 252.830204 175.31099 
L 253.00102 151.952208 
L 253.171837 175.313841 
L 253.342653 169.473433 
L 253.684286 140.268539 
L 253.855102 227.877517 
L 254.025918 140.088878 
L 254.196735 186.812145 
L 254.367551 157.610104 
L 254.538367 175.131329 
L 254.709184 151.766843 
L 254.88 186.812145 
L 255.221633 169.29092 
L 255.392449 163.450512 
L 255.563265 163.450512 
L 255.734082 145.926435 
L 255.904898 163.453364 
L 256.075714 169.288068 
L 256.246531 204.336222 
L 256.417347 180.971737 
L 256.588163 140.088878 
L 256.75898 151.766843 
L 256.929796 175.13418 
L 257.100612 169.288068 
L 257.271429 140.088878 
L 257.613061 163.450512 
L 257.783878 134.24847 
L 258.12551 180.974589 
L 258.296327 157.610104 
L 258.467143 175.131329 
L 258.808776 157.610104 
L 258.979592 169.29092 
L 259.150408 163.450512 
L 259.321224 169.29092 
L 259.492041 140.086027 
L 259.662857 175.131329 
L 259.833673 169.29092 
L 260.00449 134.24847 
L 260.175306 175.128477 
L 260.516939 163.450512 
L 260.687755 169.29092 
L 260.858571 180.971737 
L 261.029388 163.267999 
L 261.200204 169.108407 
L 261.37102 180.789224 
L 261.541837 169.108407 
L 261.712653 145.743922 
L 261.883469 151.587182 
L 262.054286 139.903514 
L 262.225102 174.948816 
L 262.395918 151.587182 
L 262.566735 192.472893 
L 262.737551 169.111259 
L 262.908367 169.108407 
L 263.079184 174.948816 
L 263.25 174.948816 
L 263.591633 128.222697 
L 263.762449 163.265147 
L 264.104082 139.906366 
L 264.274898 139.903514 
L 264.445714 163.265147 
L 264.616531 163.267999 
L 264.787347 139.906366 
L 264.958163 157.427591 
L 265.12898 157.427591 
L 265.299796 169.108407 
L 265.641429 157.427591 
L 265.812245 145.746774 
L 265.983061 186.629633 
L 266.153878 186.629633 
L 266.324694 169.105556 
L 266.49551 163.265147 
L 266.666327 186.629633 
L 266.837143 163.267999 
L 267.007959 198.310449 
L 267.349592 151.584331 
L 267.520408 145.56141 
L 267.691224 192.287528 
L 267.862041 168.925895 
L 268.032857 174.766303 
L 268.203673 174.766303 
L 268.545306 151.40467 
L 268.716122 192.287528 
L 268.886939 151.40467 
L 269.057755 174.766303 
L 269.228571 139.721001 
L 269.399388 157.242226 
L 269.570204 192.287528 
L 269.74102 168.925895 
L 269.911837 163.082635 
L 270.082653 168.923043 
L 270.253469 168.928746 
L 270.424286 174.766303 
L 270.595102 168.928746 
L 270.765918 139.723853 
L 270.936735 163.085486 
L 271.107551 168.925895 
L 271.278367 186.44712 
L 271.449184 139.723853 
L 271.62 168.925895 
L 271.790816 145.56141 
L 271.961633 163.088338 
L 272.132449 157.245078 
L 272.303265 163.082635 
L 272.644898 139.723853 
L 272.815714 163.082635 
L 272.986531 157.242226 
L 273.157347 163.085486 
L 273.328163 151.401818 
L 273.49898 163.085486 
L 273.669796 209.808753 
L 274.011429 81.314066 
L 274.182245 168.925895 
L 274.353061 151.40467 
L 274.523878 168.743382 
L 274.694694 174.580939 
L 274.86551 151.219305 
L 275.036327 151.219305 
L 275.207143 186.267459 
L 275.377959 162.900122 
L 275.548776 180.424199 
L 275.890408 151.219305 
L 276.061224 157.062565 
L 276.232041 151.225009 
L 276.402857 180.42705 
L 276.573673 174.58379 
L 276.74449 180.424199 
L 277.256939 139.54134 
L 277.427755 174.580939 
L 277.598571 168.743382 
L 277.769388 168.743382 
L 277.940204 174.58379 
L 278.11102 162.902974 
L 278.281837 192.105015 
L 278.452653 162.905825 
L 278.623469 157.059713 
L 278.794286 197.945424 
L 279.135918 139.538488 
L 279.306735 180.424199 
L 279.477551 168.74053 
L 279.648367 168.743382 
L 279.99 145.378897 
L 280.160816 145.381749 
L 280.331633 162.902974 
L 280.502449 145.3846 
L 280.673265 162.902974 
L 280.844082 162.902974 
L 281.014898 168.560869 
L 281.185714 186.082094 
L 281.356531 139.358827 
L 281.527347 168.560869 
L 281.698163 168.558017 
L 281.86898 151.039644 
L 282.039796 145.199236 
L 282.210612 156.880052 
L 282.552245 156.880052 
L 282.723061 139.355976 
L 283.064694 186.082094 
L 283.23551 162.720461 
L 283.406327 168.560869 
L 283.577143 151.036792 
L 283.747959 151.039644 
L 284.089592 197.762911 
L 284.260408 168.560869 
L 284.431224 186.082094 
L 284.602041 145.199236 
L 284.772857 156.880052 
L 284.943673 121.834751 
L 285.11449 168.560869 
L 285.285306 156.880052 
L 285.456122 156.880052 
L 285.626939 162.720461 
L 285.797755 139.361679 
L 286.139388 186.084946 
L 286.310204 174.401278 
L 286.48102 145.196384 
L 286.651837 151.039644 
L 286.822653 151.039644 
L 286.993469 162.720461 
L 287.164286 162.720461 
L 287.335102 156.880052 
L 287.676735 174.404129 
L 287.847551 168.563721 
L 288.018367 150.857131 
L 288.189184 150.85428 
L 288.36 133.333055 
L 288.530816 162.537948 
L 288.701633 150.857131 
L 288.872449 174.218765 
L 289.043265 139.173463 
L 289.214082 174.221617 
L 289.384898 180.056321 
L 289.555714 180.059173 
L 289.726531 174.215913 
L 289.897347 162.537948 
L 290.068163 162.537948 
L 290.23898 174.218765 
L 290.409796 168.375505 
L 290.580612 174.218765 
L 290.751429 191.742842 
L 290.922245 156.69754 
L 291.093061 145.013871 
L 291.263878 150.857131 
L 291.434694 139.176315 
L 291.776327 197.58325 
L 292.117959 174.221617 
L 292.288776 180.056321 
L 292.459592 150.85428 
L 292.630408 145.016723 
L 292.972041 180.056321 
L 293.142857 162.537948 
L 293.313673 162.537948 
L 293.48449 180.059173 
L 293.826122 145.016723 
L 293.996939 162.535096 
L 294.167755 145.013871 
L 294.338571 150.857131 
L 294.509388 162.355435 
L 295.192653 162.352584 
L 295.363469 138.993802 
L 295.534286 162.355435 
L 295.705102 150.671767 
L 296.046735 168.192992 
L 296.217551 138.99095 
L 296.388367 185.717069 
L 296.73 156.515027 
L 296.900816 179.87666 
L 297.071633 174.036252 
L 297.242449 133.150542 
L 297.413265 150.671767 
L 297.584082 80.584015 
L 297.754898 179.87666 
L 297.925714 144.83421 
L 298.096531 168.198695 
L 298.267347 162.352584 
L 298.779796 179.87666 
L 298.950612 179.87666 
L 299.292245 162.352584 
L 299.463061 203.241146 
L 299.804694 144.831358 
L 299.97551 174.0334 
L 300.146327 138.993802 
L 300.317143 185.717069 
L 300.487959 174.0334 
L 300.658776 133.153394 
L 300.829592 138.99095 
L 301.000408 138.993802 
L 301.342041 191.557477 
L 301.683673 150.489254 
L 301.85449 168.013331 
L 302.196122 168.010479 
L 302.366939 162.172923 
L 302.537755 173.853739 
L 302.708571 138.808437 
L 303.050204 168.013331 
L 303.22102 168.013331 
L 303.391837 144.651697 
L 303.562653 150.492106 
L 303.733469 138.811289 
L 303.904286 173.853739 
L 304.075102 162.170071 
L 304.416735 162.172923 
L 304.587551 138.808437 
L 304.758367 173.853739 
L 304.929184 150.492106 
L 305.1 191.372113 
L 305.270816 173.853739 
L 305.441633 138.811289 
L 305.612449 168.013331 
L 305.783265 162.175774 
L 305.954082 168.013331 
L 306.124898 179.694148 
L 306.295714 179.694148 
L 306.466531 168.013331 
L 306.637347 121.287212 
L 306.97898 162.175774 
L 307.149796 162.172923 
L 307.320612 185.534556 
L 307.662245 138.808437 
L 307.833061 162.172923 
L 308.003878 150.309593 
L 308.174694 173.671226 
L 308.34551 179.511635 
L 308.516327 144.466333 
L 308.687143 144.466333 
L 309.199592 202.87612 
L 309.370408 185.352043 
L 309.541224 121.1047 
L 309.882857 167.830818 
L 310.053673 138.625925 
L 310.22449 173.671226 
L 310.395306 173.671226 
L 310.566122 156.150001 
L 310.736939 161.99041 
L 310.907755 132.785516 
L 311.078571 150.306741 
L 311.249388 179.511635 
L 311.59102 150.306741 
L 311.761837 150.309593 
L 311.932653 144.463481 
L 312.103469 179.511635 
L 312.274286 173.674078 
L 312.445102 156.152853 
L 312.615918 150.312445 
L 312.786735 167.830818 
L 312.957551 138.625925 
L 313.299184 167.827966 
L 313.47 161.99041 
L 313.640816 191.192452 
L 313.811633 185.349191 
L 313.982449 126.945108 
L 314.153265 161.987558 
L 314.494898 173.668375 
L 314.665714 173.671226 
L 314.836531 138.625925 
L 315.007347 150.124229 
L 315.178163 144.286672 
L 315.34898 161.807897 
L 315.519796 167.651157 
L 315.861429 144.28382 
L 316.032245 144.286672 
L 316.203061 161.807897 
L 316.373878 161.805045 
L 316.544694 144.28382 
L 316.71551 167.645454 
L 316.886327 167.648305 
L 317.057143 144.286672 
L 317.227959 155.964637 
L 317.398776 155.967489 
L 317.740408 167.648305 
L 317.911224 179.329122 
L 318.082041 167.648305 
L 318.252857 132.603003 
L 318.59449 167.648305 
L 318.765306 132.603003 
L 318.936122 179.329122 
L 319.106939 167.648305 
L 319.277755 132.603003 
L 319.448571 155.97034 
L 319.619388 132.605855 
L 319.790204 155.97034 
L 319.96102 155.967489 
L 320.131837 144.286672 
L 320.644286 179.329122 
L 320.815102 167.648305 
L 320.985918 126.762595 
L 321.156735 167.645454 
L 321.327551 144.286672 
L 321.498367 190.830278 
L 321.669184 155.784976 
L 321.84 144.101307 
L 322.181633 173.303349 
L 322.352449 138.260899 
L 322.523265 144.101307 
L 322.694082 202.508243 
L 322.864898 167.462941 
L 323.206531 144.101307 
L 323.377347 149.941716 
L 323.71898 173.309053 
L 323.889796 155.784976 
L 324.060612 190.827426 
L 324.231429 173.309053 
L 324.402245 167.465793 
L 324.573061 138.260899 
L 324.743878 167.468644 
L 324.914694 173.309053 
L 325.08551 167.465793 
L 325.256327 167.465793 
L 325.427143 149.941716 
L 325.768776 167.465793 
L 325.939592 161.625384 
L 326.110408 144.104159 
L 326.281224 167.465793 
L 326.452041 161.625384 
L 326.793673 138.260899 
L 326.96449 167.465793 
L 327.135306 155.784976 
L 327.476939 179.146609 
L 327.647755 144.101307 
L 327.989388 184.987018 
L 328.33102 143.918795 
L 328.501837 173.120836 
L 328.672653 143.918795 
L 328.843469 138.078386 
L 329.014286 161.442871 
L 329.185102 161.442871 
L 329.355918 196.485322 
L 329.697551 126.39757 
L 329.868367 143.918795 
L 330.039184 173.123688 
L 330.21 173.123688 
L 330.380816 167.28328 
L 330.551633 167.28328 
L 330.722449 155.602463 
L 330.893265 167.28328 
L 331.064082 202.32573 
L 331.234898 173.123688 
L 331.747347 155.599611 
L 331.918163 161.442871 
L 332.08898 149.762055 
L 332.259796 173.123688 
L 332.430612 167.28328 
L 332.601429 167.28328 
L 332.772245 143.918795 
L 332.943061 178.964097 
L 333.113878 132.24083 
L 333.284694 155.599611 
L 333.45551 196.485322 
L 333.797143 143.918795 
L 334.138776 184.804505 
L 334.309592 143.921646 
L 334.651224 173.123688 
L 334.822041 167.280428 
L 334.992857 114.53424 
L 335.163673 184.621992 
L 335.33449 155.417099 
L 335.505306 149.579542 
L 335.676122 167.100767 
L 335.846939 167.103619 
L 336.017755 155.41995 
L 336.188571 161.260359 
L 336.359388 178.781584 
L 336.530204 172.938324 
L 336.70102 161.260359 
L 336.871837 137.895874 
L 337.042653 178.778732 
L 337.213469 178.781584 
L 337.384286 172.938324 
L 337.555102 143.739134 
L 337.725918 161.260359 
L 337.896735 167.100767 
L 338.067551 190.4624 
L 338.238367 184.61914 
L 338.409184 167.100767 
L 338.58 196.305661 
L 338.750816 143.736282 
L 338.921633 143.736282 
L 339.092449 178.781584 
L 339.263265 155.422802 
L 339.434082 167.097915 
L 339.604898 137.895874 
L 339.775714 143.736282 
L 339.946531 190.4624 
L 340.288163 137.898725 
L 340.45898 167.097915 
L 340.629796 137.895874 
L 340.800612 172.941175 
L 341.313061 137.895874 
L 341.483878 149.57669 
L 341.654694 172.941175 
L 341.82551 149.394177 
L 342.167143 172.758663 
L 342.337959 137.713361 
L 342.508776 137.713361 
L 342.679592 114.351727 
L 342.850408 172.758663 
L 343.021224 149.397029 
L 343.192041 149.397029 
L 343.362857 161.077846 
L 343.533673 137.716213 
L 343.70449 149.394177 
L 344.046122 149.394177 
L 344.216939 161.077846 
L 344.387755 161.080698 
L 344.558571 137.713361 
L 344.729388 161.080698 
L 344.900204 161.077846 
L 345.07102 184.442331 
L 345.241837 178.601923 
L 345.412653 161.077846 
L 345.583469 161.074994 
L 345.754286 114.354579 
L 345.925102 149.397029 
L 346.095918 149.397029 
L 346.437551 126.032544 
L 346.608367 184.442331 
L 346.95 149.394177 
L 347.120816 161.077846 
L 347.291633 126.032544 
L 347.462449 172.758663 
L 347.633265 149.397029 
L 347.974898 149.394177 
L 348.145714 126.035396 
L 348.316531 172.758663 
L 348.487347 172.573298 
L 348.658163 137.530848 
L 348.999796 172.57615 
L 349.341429 160.895333 
L 349.683061 131.69044 
L 349.853878 178.416558 
L 350.024694 172.573298 
L 350.19551 178.413707 
L 350.366327 172.57615 
L 350.537143 160.895333 
L 350.707959 190.097375 
L 350.878776 166.735742 
L 351.049592 184.256967 
L 351.220408 143.371256 
L 351.391224 160.895333 
L 351.562041 155.054925 
L 351.732857 184.256967 
L 352.07449 172.57615 
L 352.245306 149.211665 
L 352.416122 184.256967 
L 352.757755 166.735742 
L 352.928571 160.895333 
L 353.099388 160.895333 
L 353.270204 143.371256 
L 353.44102 160.898185 
L 353.611837 166.73289 
L 353.782653 143.371256 
L 353.953469 178.413707 
L 354.124286 155.054925 
L 354.465918 143.371256 
L 354.636735 195.937783 
L 354.978367 155.052073 
L 355.149184 190.100227 
L 355.32 160.709969 
L 355.490816 166.550377 
L 355.661633 137.348335 
L 355.832449 172.396489 
L 356.003265 184.077306 
L 356.174082 166.553229 
L 356.344898 166.553229 
L 356.686531 137.348335 
L 356.857347 172.393637 
L 357.028163 160.71282 
L 357.19898 178.234046 
L 357.369796 154.86956 
L 357.540612 113.986702 
L 357.711429 166.553229 
L 357.882245 166.550377 
L 358.053061 172.393637 
L 358.56551 137.348335 
L 358.736327 160.71282 
L 359.077959 172.390785 
L 359.248776 137.348335 
L 359.419592 178.234046 
L 359.590408 189.91201 
L 359.761224 149.029152 
L 359.932041 172.393637 
L 360.102857 166.553229 
L 360.273673 143.188744 
L 360.44449 149.032004 
L 360.615306 166.556081 
L 360.786122 172.396489 
L 360.956939 166.553229 
L 361.127755 125.667519 
L 361.298571 195.758122 
L 361.640204 143.188744 
L 361.81102 195.758122 
L 362.152653 160.533159 
L 362.323469 172.211124 
L 362.494286 137.171526 
L 362.665102 160.530308 
L 362.835918 160.530308 
L 363.006735 172.208273 
L 363.177551 137.165823 
L 363.348367 195.572758 
L 363.519184 148.846639 
L 363.69 189.732349 
L 364.031633 137.165823 
L 364.202449 148.849491 
L 364.373265 172.208273 
L 364.544082 160.530308 
L 364.714898 189.732349 
L 364.885714 178.048681 
L 365.056531 125.485006 
L 365.227347 172.211124 
L 365.398163 166.370716 
L 365.56898 195.572758 
L 365.910612 137.165823 
L 366.081429 148.846639 
L 366.252245 143.009083 
L 366.423061 160.530308 
L 366.593878 166.373568 
L 366.764694 189.732349 
L 366.93551 154.689899 
L 367.106327 143.009083 
L 367.447959 183.891941 
L 367.618776 166.370716 
L 367.789592 189.732349 
L 368.131224 143.009083 
L 368.302041 143.006231 
L 368.472857 166.188203 
L 368.643673 166.188203 
L 368.985306 177.866168 
L 369.156122 154.510238 
L 369.326939 160.344943 
L 369.497755 154.504535 
L 369.668571 172.028612 
L 369.839388 136.986162 
L 370.18102 183.709428 
L 370.351837 136.98331 
L 370.693469 172.031463 
L 370.864286 160.347795 
L 371.035102 195.390245 
L 371.376735 136.98331 
L 371.547551 142.82657 
L 371.718367 136.986162 
L 371.889184 183.709428 
L 372.230816 125.302493 
L 372.401633 131.142901 
L 372.572449 183.709428 
L 372.743265 172.028612 
L 372.914082 177.86902 
L 373.084898 172.031463 
L 373.255714 172.02576 
L 373.426531 136.98331 
L 373.597347 166.188203 
L 373.768163 136.986162 
L 373.93898 172.028612 
L 374.109796 177.871872 
L 374.451429 166.188203 
L 374.622245 142.823718 
L 374.793061 142.82657 
L 374.963878 201.233505 
L 375.134694 148.664126 
L 375.30551 142.641205 
L 375.476327 166.008542 
L 375.647143 171.846099 
L 375.817959 142.644057 
L 375.988776 154.324874 
L 376.159592 148.484465 
L 376.330408 171.848951 
L 376.501224 154.324874 
L 376.672041 183.526916 
L 377.013673 136.803649 
L 377.18449 177.683655 
L 377.355306 136.800797 
L 377.526122 166.005691 
L 377.696939 160.165282 
L 377.867755 160.165282 
L 378.038571 189.370176 
L 378.380204 136.800797 
L 378.55102 166.002839 
L 378.721837 136.803649 
L 378.892653 166.005691 
L 379.063469 142.638354 
L 379.405102 177.686507 
L 379.575918 148.481614 
L 379.746735 142.641205 
L 379.917551 166.005691 
L 380.088367 136.800797 
L 380.259184 171.846099 
L 380.43 142.641205 
L 380.600816 136.806501 
L 380.771633 160.165282 
L 380.942449 160.165282 
L 381.113265 154.322022 
L 381.284082 171.846099 
L 381.454898 148.484465 
L 381.625714 206.888549 
L 381.796531 148.481614 
L 381.967347 148.299101 
L 382.138163 183.341551 
L 382.30898 189.184811 
L 382.479796 171.663586 
L 382.821429 159.982769 
L 382.992245 171.663586 
L 383.163061 171.660734 
L 383.333878 148.299101 
L 383.504694 159.982769 
L 383.67551 183.344403 
L 383.846327 171.663586 
L 384.017143 136.618284 
L 384.187959 165.820326 
L 384.358776 154.142361 
L 384.700408 171.663586 
L 384.871224 159.982769 
L 385.042041 171.660734 
L 385.212857 142.461544 
L 385.383673 165.823178 
L 385.55449 165.823178 
L 385.725306 171.663586 
L 385.896122 183.344403 
L 386.066939 154.139509 
L 386.408571 154.142361 
L 386.579388 159.982769 
L 386.750204 154.142361 
L 387.091837 177.503994 
L 387.433469 159.985621 
L 387.604286 171.663586 
L 387.775102 165.820326 
L 387.945918 200.865628 
L 388.287551 148.301953 
L 388.458367 165.820326 
L 388.629184 113.256651 
L 388.8 159.979918 
L 388.8 159.979918 
" style="fill:none;stroke:#1f77b4;stroke-linecap:square;stroke-width:1.5;"/>
   </g>
   <g id="patch_3">
    <path d="M 54 252 
L 54 34.56 
" style="fill:none;stroke:#000000;stroke-linecap:square;stroke-linejoin:miter;stroke-width:0.8;"/>
   </g>
   <g id="patch_4">
    <path d="M 388.8 252 
L 388.8 34.56 
" style="fill:none;stroke:#000000;stroke-linecap:square;stroke-linejoin:miter;stroke-width:0.8;"/>
   </g>
   <g id="patch_5">
    <path d="M 54 252 
L 388.8 252 
" style="fill:none;stroke:#000000;stroke-linecap:square;stroke-linejoin:miter;stroke-width:0.8;"/>
   </g>
   <g id="patch_6">
    <path d="M 54 34.56 
L 388.8 34.56 
" style="fill:none;stroke:#000000;stroke-linecap:square;stroke-linejoin:miter;stroke-width:0.8;"/>
   </g>
   <g id="legend_1">
    <g id="patch_7">
     <path d="M 329.760938 57.238125 
L 381.8 57.238125 
Q 383.8 57.238125 383.8 55.238125 
L 383.8 41.56 
Q 383.8 39.56 381.8 39.56 
L 329.760938 39.56 
Q 327.760938 39.56 327.760938 41.56 
L 327.760938 55.238125 
Q 327.760938 57.238125 329.760938 57.238125 
z
" style="fill:#ffffff;opacity:0.8;stroke:#cccccc;stroke-linejoin:miter;"/>
    </g>
    <g id="line2d_16">
     <path d="M 331.760938 47.658437 
L 351.760938 47.658437 
" style="fill:none;stroke:#1f77b4;stroke-linecap:square;stroke-width:1.5;"/>
    </g>
    <g id="line2d_17"/>
    <g id="text_17">
     <!-- VSZ -->
     <g transform="translate(359.760938 51.158437)scale(0.1 -0.1)">
      <use xlink:href="#DejaVuSans-86"/>
      <use x="68.408203" xlink:href="#DejaVuSans-83"/>
      <use x="131.884766" xlink:href="#DejaVuSans-90"/>
     </g>
    </g>
   </g>
  </g>
 </g>
 <defs>
  <clipPath id="pb9443d46d5">
   <rect height="217.44" width="334.8" x="54" y="34.56"/>
  </clipPath>
 </defs>
</svg>
