<?xml version="1.0" encoding="utf-8" standalone="no"?>
<!DOCTYPE svg PUBLIC "-//W3C//DTD SVG 1.1//EN"
  "http://www.w3.org/Graphics/SVG/1.1/DTD/svg11.dtd">
<!-- Created with matplotlib (https://matplotlib.org/) -->
<svg height="288pt" version="1.1" viewBox="0 0 432 288" width="432pt" xmlns="http://www.w3.org/2000/svg" xmlns:xlink="http://www.w3.org/1999/xlink">
 <defs>
  <style type="text/css">
*{stroke-linecap:butt;stroke-linejoin:round;}
  </style>
 </defs>
 <g id="figure_1">
  <g id="patch_1">
   <path d="M 0 288 
L 432 288 
L 432 0 
L 0 0 
z
" style="fill:#ffffff;"/>
  </g>
  <g id="axes_1">
   <g id="patch_2">
    <path d="M 54 252 
L 388.8 252 
L 388.8 34.56 
L 54 34.56 
z
" style="fill:#ffffff;"/>
   </g>
   <g id="matplotlib.axis_1">
    <g id="xtick_1">
     <g id="line2d_1">
      <defs>
       <path d="M 0 0 
L 0 3.5 
" id="mefd3ab51f5" style="stroke:#000000;stroke-width:0.8;"/>
      </defs>
      <g>
       <use style="stroke:#000000;stroke-width:0.8;" x="54" xlink:href="#mefd3ab51f5" y="252"/>
      </g>
     </g>
     <g id="text_1">
      <!-- 0 -->
      <defs>
       <path d="M 31.78125 66.40625 
Q 24.171875 66.40625 20.328125 58.90625 
Q 16.5 51.421875 16.5 36.375 
Q 16.5 21.390625 20.328125 13.890625 
Q 24.171875 6.390625 31.78125 6.390625 
Q 39.453125 6.390625 43.28125 13.890625 
Q 47.125 21.390625 47.125 36.375 
Q 47.125 51.421875 43.28125 58.90625 
Q 39.453125 66.40625 31.78125 66.40625 
z
M 31.78125 74.21875 
Q 44.046875 74.21875 50.515625 64.515625 
Q 56.984375 54.828125 56.984375 36.375 
Q 56.984375 17.96875 50.515625 8.265625 
Q 44.046875 -1.421875 31.78125 -1.421875 
Q 19.53125 -1.421875 13.0625 8.265625 
Q 6.59375 17.96875 6.59375 36.375 
Q 6.59375 54.828125 13.0625 64.515625 
Q 19.53125 74.21875 31.78125 74.21875 
z
" id="DejaVuSans-48"/>
      </defs>
      <g transform="translate(50.81875 266.598437)scale(0.1 -0.1)">
       <use xlink:href="#DejaVuSans-48"/>
      </g>
     </g>
    </g>
    <g id="xtick_2">
     <g id="line2d_2">
      <g>
       <use style="stroke:#000000;stroke-width:0.8;" x="93.277335" xlink:href="#mefd3ab51f5" y="252"/>
      </g>
     </g>
     <g id="text_2">
      <!-- 250 -->
      <defs>
       <path d="M 19.1875 8.296875 
L 53.609375 8.296875 
L 53.609375 0 
L 7.328125 0 
L 7.328125 8.296875 
Q 12.9375 14.109375 22.625 23.890625 
Q 32.328125 33.6875 34.8125 36.53125 
Q 39.546875 41.84375 41.421875 45.53125 
Q 43.3125 49.21875 43.3125 52.78125 
Q 43.3125 58.59375 39.234375 62.25 
Q 35.15625 65.921875 28.609375 65.921875 
Q 23.96875 65.921875 18.8125 64.3125 
Q 13.671875 62.703125 7.8125 59.421875 
L 7.8125 69.390625 
Q 13.765625 71.78125 18.9375 73 
Q 24.125 74.21875 28.421875 74.21875 
Q 39.75 74.21875 46.484375 68.546875 
Q 53.21875 62.890625 53.21875 53.421875 
Q 53.21875 48.921875 51.53125 44.890625 
Q 49.859375 40.875 45.40625 35.40625 
Q 44.1875 33.984375 37.640625 27.21875 
Q 31.109375 20.453125 19.1875 8.296875 
z
" id="DejaVuSans-50"/>
       <path d="M 10.796875 72.90625 
L 49.515625 72.90625 
L 49.515625 64.59375 
L 19.828125 64.59375 
L 19.828125 46.734375 
Q 21.96875 47.46875 24.109375 47.828125 
Q 26.265625 48.1875 28.421875 48.1875 
Q 40.625 48.1875 47.75 41.5 
Q 54.890625 34.8125 54.890625 23.390625 
Q 54.890625 11.625 47.5625 5.09375 
Q 40.234375 -1.421875 26.90625 -1.421875 
Q 22.3125 -1.421875 17.546875 -0.640625 
Q 12.796875 0.140625 7.71875 1.703125 
L 7.71875 11.625 
Q 12.109375 9.234375 16.796875 8.0625 
Q 21.484375 6.890625 26.703125 6.890625 
Q 35.15625 6.890625 40.078125 11.328125 
Q 45.015625 15.765625 45.015625 23.390625 
Q 45.015625 31 40.078125 35.4375 
Q 35.15625 39.890625 26.703125 39.890625 
Q 22.75 39.890625 18.8125 39.015625 
Q 14.890625 38.140625 10.796875 36.28125 
z
" id="DejaVuSans-53"/>
      </defs>
      <g transform="translate(83.733585 266.598437)scale(0.1 -0.1)">
       <use xlink:href="#DejaVuSans-50"/>
       <use x="63.623047" xlink:href="#DejaVuSans-53"/>
       <use x="127.246094" xlink:href="#DejaVuSans-48"/>
      </g>
     </g>
    </g>
    <g id="xtick_3">
     <g id="line2d_3">
      <g>
       <use style="stroke:#000000;stroke-width:0.8;" x="132.554669" xlink:href="#mefd3ab51f5" y="252"/>
      </g>
     </g>
     <g id="text_3">
      <!-- 500 -->
      <g transform="translate(123.010919 266.598437)scale(0.1 -0.1)">
       <use xlink:href="#DejaVuSans-53"/>
       <use x="63.623047" xlink:href="#DejaVuSans-48"/>
       <use x="127.246094" xlink:href="#DejaVuSans-48"/>
      </g>
     </g>
    </g>
    <g id="xtick_4">
     <g id="line2d_4">
      <g>
       <use style="stroke:#000000;stroke-width:0.8;" x="171.832004" xlink:href="#mefd3ab51f5" y="252"/>
      </g>
     </g>
     <g id="text_4">
      <!-- 750 -->
      <defs>
       <path d="M 8.203125 72.90625 
L 55.078125 72.90625 
L 55.078125 68.703125 
L 28.609375 0 
L 18.3125 0 
L 43.21875 64.59375 
L 8.203125 64.59375 
z
" id="DejaVuSans-55"/>
      </defs>
      <g transform="translate(162.288254 266.598437)scale(0.1 -0.1)">
       <use xlink:href="#DejaVuSans-55"/>
       <use x="63.623047" xlink:href="#DejaVuSans-53"/>
       <use x="127.246094" xlink:href="#DejaVuSans-48"/>
      </g>
     </g>
    </g>
    <g id="xtick_5">
     <g id="line2d_5">
      <g>
       <use style="stroke:#000000;stroke-width:0.8;" x="211.109338" xlink:href="#mefd3ab51f5" y="252"/>
      </g>
     </g>
     <g id="text_5">
      <!-- 1000 -->
      <defs>
       <path d="M 12.40625 8.296875 
L 28.515625 8.296875 
L 28.515625 63.921875 
L 10.984375 60.40625 
L 10.984375 69.390625 
L 28.421875 72.90625 
L 38.28125 72.90625 
L 38.28125 8.296875 
L 54.390625 8.296875 
L 54.390625 0 
L 12.40625 0 
z
" id="DejaVuSans-49"/>
      </defs>
      <g transform="translate(198.384338 266.598437)scale(0.1 -0.1)">
       <use xlink:href="#DejaVuSans-49"/>
       <use x="63.623047" xlink:href="#DejaVuSans-48"/>
       <use x="127.246094" xlink:href="#DejaVuSans-48"/>
       <use x="190.869141" xlink:href="#DejaVuSans-48"/>
      </g>
     </g>
    </g>
    <g id="xtick_6">
     <g id="line2d_6">
      <g>
       <use style="stroke:#000000;stroke-width:0.8;" x="250.386673" xlink:href="#mefd3ab51f5" y="252"/>
      </g>
     </g>
     <g id="text_6">
      <!-- 1250 -->
      <g transform="translate(237.661673 266.598437)scale(0.1 -0.1)">
       <use xlink:href="#DejaVuSans-49"/>
       <use x="63.623047" xlink:href="#DejaVuSans-50"/>
       <use x="127.246094" xlink:href="#DejaVuSans-53"/>
       <use x="190.869141" xlink:href="#DejaVuSans-48"/>
      </g>
     </g>
    </g>
    <g id="xtick_7">
     <g id="line2d_7">
      <g>
       <use style="stroke:#000000;stroke-width:0.8;" x="289.664008" xlink:href="#mefd3ab51f5" y="252"/>
      </g>
     </g>
     <g id="text_7">
      <!-- 1500 -->
      <g transform="translate(276.939008 266.598437)scale(0.1 -0.1)">
       <use xlink:href="#DejaVuSans-49"/>
       <use x="63.623047" xlink:href="#DejaVuSans-53"/>
       <use x="127.246094" xlink:href="#DejaVuSans-48"/>
       <use x="190.869141" xlink:href="#DejaVuSans-48"/>
      </g>
     </g>
    </g>
    <g id="xtick_8">
     <g id="line2d_8">
      <g>
       <use style="stroke:#000000;stroke-width:0.8;" x="328.941342" xlink:href="#mefd3ab51f5" y="252"/>
      </g>
     </g>
     <g id="text_8">
      <!-- 1750 -->
      <g transform="translate(316.216342 266.598437)scale(0.1 -0.1)">
       <use xlink:href="#DejaVuSans-49"/>
       <use x="63.623047" xlink:href="#DejaVuSans-55"/>
       <use x="127.246094" xlink:href="#DejaVuSans-53"/>
       <use x="190.869141" xlink:href="#DejaVuSans-48"/>
      </g>
     </g>
    </g>
    <g id="xtick_9">
     <g id="line2d_9">
      <g>
       <use style="stroke:#000000;stroke-width:0.8;" x="368.218677" xlink:href="#mefd3ab51f5" y="252"/>
      </g>
     </g>
     <g id="text_9">
      <!-- 2000 -->
      <g transform="translate(355.493677 266.598437)scale(0.1 -0.1)">
       <use xlink:href="#DejaVuSans-50"/>
       <use x="63.623047" xlink:href="#DejaVuSans-48"/>
       <use x="127.246094" xlink:href="#DejaVuSans-48"/>
       <use x="190.869141" xlink:href="#DejaVuSans-48"/>
      </g>
     </g>
    </g>
    <g id="text_10">
     <!-- time [arbitrary units] -->
     <defs>
      <path d="M 18.3125 70.21875 
L 18.3125 54.6875 
L 36.8125 54.6875 
L 36.8125 47.703125 
L 18.3125 47.703125 
L 18.3125 18.015625 
Q 18.3125 11.328125 20.140625 9.421875 
Q 21.96875 7.515625 27.59375 7.515625 
L 36.8125 7.515625 
L 36.8125 0 
L 27.59375 0 
Q 17.1875 0 13.234375 3.875 
Q 9.28125 7.765625 9.28125 18.015625 
L 9.28125 47.703125 
L 2.6875 47.703125 
L 2.6875 54.6875 
L 9.28125 54.6875 
L 9.28125 70.21875 
z
" id="DejaVuSans-116"/>
      <path d="M 9.421875 54.6875 
L 18.40625 54.6875 
L 18.40625 0 
L 9.421875 0 
z
M 9.421875 75.984375 
L 18.40625 75.984375 
L 18.40625 64.59375 
L 9.421875 64.59375 
z
" id="DejaVuSans-105"/>
      <path d="M 52 44.1875 
Q 55.375 50.25 60.0625 53.125 
Q 64.75 56 71.09375 56 
Q 79.640625 56 84.28125 50.015625 
Q 88.921875 44.046875 88.921875 33.015625 
L 88.921875 0 
L 79.890625 0 
L 79.890625 32.71875 
Q 79.890625 40.578125 77.09375 44.375 
Q 74.3125 48.1875 68.609375 48.1875 
Q 61.625 48.1875 57.5625 43.546875 
Q 53.515625 38.921875 53.515625 30.90625 
L 53.515625 0 
L 44.484375 0 
L 44.484375 32.71875 
Q 44.484375 40.625 41.703125 44.40625 
Q 38.921875 48.1875 33.109375 48.1875 
Q 26.21875 48.1875 22.15625 43.53125 
Q 18.109375 38.875 18.109375 30.90625 
L 18.109375 0 
L 9.078125 0 
L 9.078125 54.6875 
L 18.109375 54.6875 
L 18.109375 46.1875 
Q 21.1875 51.21875 25.484375 53.609375 
Q 29.78125 56 35.6875 56 
Q 41.65625 56 45.828125 52.96875 
Q 50 49.953125 52 44.1875 
z
" id="DejaVuSans-109"/>
      <path d="M 56.203125 29.59375 
L 56.203125 25.203125 
L 14.890625 25.203125 
Q 15.484375 15.921875 20.484375 11.0625 
Q 25.484375 6.203125 34.421875 6.203125 
Q 39.59375 6.203125 44.453125 7.46875 
Q 49.3125 8.734375 54.109375 11.28125 
L 54.109375 2.78125 
Q 49.265625 0.734375 44.1875 -0.34375 
Q 39.109375 -1.421875 33.890625 -1.421875 
Q 20.796875 -1.421875 13.15625 6.1875 
Q 5.515625 13.8125 5.515625 26.8125 
Q 5.515625 40.234375 12.765625 48.109375 
Q 20.015625 56 32.328125 56 
Q 43.359375 56 49.78125 48.890625 
Q 56.203125 41.796875 56.203125 29.59375 
z
M 47.21875 32.234375 
Q 47.125 39.59375 43.09375 43.984375 
Q 39.0625 48.390625 32.421875 48.390625 
Q 24.90625 48.390625 20.390625 44.140625 
Q 15.875 39.890625 15.1875 32.171875 
z
" id="DejaVuSans-101"/>
      <path id="DejaVuSans-32"/>
      <path d="M 8.59375 75.984375 
L 29.296875 75.984375 
L 29.296875 69 
L 17.578125 69 
L 17.578125 -6.203125 
L 29.296875 -6.203125 
L 29.296875 -13.1875 
L 8.59375 -13.1875 
z
" id="DejaVuSans-91"/>
      <path d="M 34.28125 27.484375 
Q 23.390625 27.484375 19.1875 25 
Q 14.984375 22.515625 14.984375 16.5 
Q 14.984375 11.71875 18.140625 8.90625 
Q 21.296875 6.109375 26.703125 6.109375 
Q 34.1875 6.109375 38.703125 11.40625 
Q 43.21875 16.703125 43.21875 25.484375 
L 43.21875 27.484375 
z
M 52.203125 31.203125 
L 52.203125 0 
L 43.21875 0 
L 43.21875 8.296875 
Q 40.140625 3.328125 35.546875 0.953125 
Q 30.953125 -1.421875 24.3125 -1.421875 
Q 15.921875 -1.421875 10.953125 3.296875 
Q 6 8.015625 6 15.921875 
Q 6 25.140625 12.171875 29.828125 
Q 18.359375 34.515625 30.609375 34.515625 
L 43.21875 34.515625 
L 43.21875 35.40625 
Q 43.21875 41.609375 39.140625 45 
Q 35.0625 48.390625 27.6875 48.390625 
Q 23 48.390625 18.546875 47.265625 
Q 14.109375 46.140625 10.015625 43.890625 
L 10.015625 52.203125 
Q 14.9375 54.109375 19.578125 55.046875 
Q 24.21875 56 28.609375 56 
Q 40.484375 56 46.34375 49.84375 
Q 52.203125 43.703125 52.203125 31.203125 
z
" id="DejaVuSans-97"/>
      <path d="M 41.109375 46.296875 
Q 39.59375 47.171875 37.8125 47.578125 
Q 36.03125 48 33.890625 48 
Q 26.265625 48 22.1875 43.046875 
Q 18.109375 38.09375 18.109375 28.8125 
L 18.109375 0 
L 9.078125 0 
L 9.078125 54.6875 
L 18.109375 54.6875 
L 18.109375 46.1875 
Q 20.953125 51.171875 25.484375 53.578125 
Q 30.03125 56 36.53125 56 
Q 37.453125 56 38.578125 55.875 
Q 39.703125 55.765625 41.0625 55.515625 
z
" id="DejaVuSans-114"/>
      <path d="M 48.6875 27.296875 
Q 48.6875 37.203125 44.609375 42.84375 
Q 40.53125 48.484375 33.40625 48.484375 
Q 26.265625 48.484375 22.1875 42.84375 
Q 18.109375 37.203125 18.109375 27.296875 
Q 18.109375 17.390625 22.1875 11.75 
Q 26.265625 6.109375 33.40625 6.109375 
Q 40.53125 6.109375 44.609375 11.75 
Q 48.6875 17.390625 48.6875 27.296875 
z
M 18.109375 46.390625 
Q 20.953125 51.265625 25.265625 53.625 
Q 29.59375 56 35.59375 56 
Q 45.5625 56 51.78125 48.09375 
Q 58.015625 40.1875 58.015625 27.296875 
Q 58.015625 14.40625 51.78125 6.484375 
Q 45.5625 -1.421875 35.59375 -1.421875 
Q 29.59375 -1.421875 25.265625 0.953125 
Q 20.953125 3.328125 18.109375 8.203125 
L 18.109375 0 
L 9.078125 0 
L 9.078125 75.984375 
L 18.109375 75.984375 
z
" id="DejaVuSans-98"/>
      <path d="M 32.171875 -5.078125 
Q 28.375 -14.84375 24.75 -17.8125 
Q 21.140625 -20.796875 15.09375 -20.796875 
L 7.90625 -20.796875 
L 7.90625 -13.28125 
L 13.1875 -13.28125 
Q 16.890625 -13.28125 18.9375 -11.515625 
Q 21 -9.765625 23.484375 -3.21875 
L 25.09375 0.875 
L 2.984375 54.6875 
L 12.5 54.6875 
L 29.59375 11.921875 
L 46.6875 54.6875 
L 56.203125 54.6875 
z
" id="DejaVuSans-121"/>
      <path d="M 8.5 21.578125 
L 8.5 54.6875 
L 17.484375 54.6875 
L 17.484375 21.921875 
Q 17.484375 14.15625 20.5 10.265625 
Q 23.53125 6.390625 29.59375 6.390625 
Q 36.859375 6.390625 41.078125 11.03125 
Q 45.3125 15.671875 45.3125 23.6875 
L 45.3125 54.6875 
L 54.296875 54.6875 
L 54.296875 0 
L 45.3125 0 
L 45.3125 8.40625 
Q 42.046875 3.421875 37.71875 1 
Q 33.40625 -1.421875 27.6875 -1.421875 
Q 18.265625 -1.421875 13.375 4.4375 
Q 8.5 10.296875 8.5 21.578125 
z
M 31.109375 56 
z
" id="DejaVuSans-117"/>
      <path d="M 54.890625 33.015625 
L 54.890625 0 
L 45.90625 0 
L 45.90625 32.71875 
Q 45.90625 40.484375 42.875 44.328125 
Q 39.84375 48.1875 33.796875 48.1875 
Q 26.515625 48.1875 22.3125 43.546875 
Q 18.109375 38.921875 18.109375 30.90625 
L 18.109375 0 
L 9.078125 0 
L 9.078125 54.6875 
L 18.109375 54.6875 
L 18.109375 46.1875 
Q 21.34375 51.125 25.703125 53.5625 
Q 30.078125 56 35.796875 56 
Q 45.21875 56 50.046875 50.171875 
Q 54.890625 44.34375 54.890625 33.015625 
z
" id="DejaVuSans-110"/>
      <path d="M 44.28125 53.078125 
L 44.28125 44.578125 
Q 40.484375 46.53125 36.375 47.5 
Q 32.28125 48.484375 27.875 48.484375 
Q 21.1875 48.484375 17.84375 46.4375 
Q 14.5 44.390625 14.5 40.28125 
Q 14.5 37.15625 16.890625 35.375 
Q 19.28125 33.59375 26.515625 31.984375 
L 29.59375 31.296875 
Q 39.15625 29.25 43.1875 25.515625 
Q 47.21875 21.78125 47.21875 15.09375 
Q 47.21875 7.46875 41.1875 3.015625 
Q 35.15625 -1.421875 24.609375 -1.421875 
Q 20.21875 -1.421875 15.453125 -0.5625 
Q 10.6875 0.296875 5.421875 2 
L 5.421875 11.28125 
Q 10.40625 8.6875 15.234375 7.390625 
Q 20.0625 6.109375 24.8125 6.109375 
Q 31.15625 6.109375 34.5625 8.28125 
Q 37.984375 10.453125 37.984375 14.40625 
Q 37.984375 18.0625 35.515625 20.015625 
Q 33.0625 21.96875 24.703125 23.78125 
L 21.578125 24.515625 
Q 13.234375 26.265625 9.515625 29.90625 
Q 5.8125 33.546875 5.8125 39.890625 
Q 5.8125 47.609375 11.28125 51.796875 
Q 16.75 56 26.8125 56 
Q 31.78125 56 36.171875 55.265625 
Q 40.578125 54.546875 44.28125 53.078125 
z
" id="DejaVuSans-115"/>
      <path d="M 30.421875 75.984375 
L 30.421875 -13.1875 
L 9.71875 -13.1875 
L 9.71875 -6.203125 
L 21.390625 -6.203125 
L 21.390625 69 
L 9.71875 69 
L 9.71875 75.984375 
z
" id="DejaVuSans-93"/>
     </defs>
     <g transform="translate(168.955469 280.276563)scale(0.1 -0.1)">
      <use xlink:href="#DejaVuSans-116"/>
      <use x="39.208984" xlink:href="#DejaVuSans-105"/>
      <use x="66.992188" xlink:href="#DejaVuSans-109"/>
      <use x="164.404297" xlink:href="#DejaVuSans-101"/>
      <use x="225.927734" xlink:href="#DejaVuSans-32"/>
      <use x="257.714844" xlink:href="#DejaVuSans-91"/>
      <use x="296.728516" xlink:href="#DejaVuSans-97"/>
      <use x="358.007812" xlink:href="#DejaVuSans-114"/>
      <use x="399.121094" xlink:href="#DejaVuSans-98"/>
      <use x="462.597656" xlink:href="#DejaVuSans-105"/>
      <use x="490.380859" xlink:href="#DejaVuSans-116"/>
      <use x="529.589844" xlink:href="#DejaVuSans-114"/>
      <use x="570.703125" xlink:href="#DejaVuSans-97"/>
      <use x="631.982422" xlink:href="#DejaVuSans-114"/>
      <use x="673.095703" xlink:href="#DejaVuSans-121"/>
      <use x="732.275391" xlink:href="#DejaVuSans-32"/>
      <use x="764.0625" xlink:href="#DejaVuSans-117"/>
      <use x="827.441406" xlink:href="#DejaVuSans-110"/>
      <use x="890.820312" xlink:href="#DejaVuSans-105"/>
      <use x="918.603516" xlink:href="#DejaVuSans-116"/>
      <use x="957.8125" xlink:href="#DejaVuSans-115"/>
      <use x="1009.912109" xlink:href="#DejaVuSans-93"/>
     </g>
    </g>
   </g>
   <g id="matplotlib.axis_2">
    <g id="ytick_1">
     <g id="line2d_10">
      <defs>
       <path d="M 0 0 
L -3.5 0 
" id="mc0fefe7179" style="stroke:#000000;stroke-width:0.8;"/>
      </defs>
      <g>
       <use style="stroke:#000000;stroke-width:0.8;" x="54" xlink:href="#mc0fefe7179" y="242.116364"/>
      </g>
     </g>
     <g id="text_11">
      <!-- 0 -->
      <g transform="translate(40.6375 245.915582)scale(0.1 -0.1)">
       <use xlink:href="#DejaVuSans-48"/>
      </g>
     </g>
    </g>
    <g id="ytick_2">
     <g id="line2d_11">
      <g>
       <use style="stroke:#000000;stroke-width:0.8;" x="54" xlink:href="#mc0fefe7179" y="209.192858"/>
      </g>
     </g>
     <g id="text_12">
      <!-- 50 -->
      <g transform="translate(34.275 212.992077)scale(0.1 -0.1)">
       <use xlink:href="#DejaVuSans-53"/>
       <use x="63.623047" xlink:href="#DejaVuSans-48"/>
      </g>
     </g>
    </g>
    <g id="ytick_3">
     <g id="line2d_12">
      <g>
       <use style="stroke:#000000;stroke-width:0.8;" x="54" xlink:href="#mc0fefe7179" y="176.269353"/>
      </g>
     </g>
     <g id="text_13">
      <!-- 100 -->
      <g transform="translate(27.9125 180.068571)scale(0.1 -0.1)">
       <use xlink:href="#DejaVuSans-49"/>
       <use x="63.623047" xlink:href="#DejaVuSans-48"/>
       <use x="127.246094" xlink:href="#DejaVuSans-48"/>
      </g>
     </g>
    </g>
    <g id="ytick_4">
     <g id="line2d_13">
      <g>
       <use style="stroke:#000000;stroke-width:0.8;" x="54" xlink:href="#mc0fefe7179" y="143.345847"/>
      </g>
     </g>
     <g id="text_14">
      <!-- 150 -->
      <g transform="translate(27.9125 147.145066)scale(0.1 -0.1)">
       <use xlink:href="#DejaVuSans-49"/>
       <use x="63.623047" xlink:href="#DejaVuSans-53"/>
       <use x="127.246094" xlink:href="#DejaVuSans-48"/>
      </g>
     </g>
    </g>
    <g id="ytick_5">
     <g id="line2d_14">
      <g>
       <use style="stroke:#000000;stroke-width:0.8;" x="54" xlink:href="#mc0fefe7179" y="110.422341"/>
      </g>
     </g>
     <g id="text_15">
      <!-- 200 -->
      <g transform="translate(27.9125 114.22156)scale(0.1 -0.1)">
       <use xlink:href="#DejaVuSans-50"/>
       <use x="63.623047" xlink:href="#DejaVuSans-48"/>
       <use x="127.246094" xlink:href="#DejaVuSans-48"/>
      </g>
     </g>
    </g>
    <g id="ytick_6">
     <g id="line2d_15">
      <g>
       <use style="stroke:#000000;stroke-width:0.8;" x="54" xlink:href="#mc0fefe7179" y="77.498836"/>
      </g>
     </g>
     <g id="text_16">
      <!-- 250 -->
      <g transform="translate(27.9125 81.298055)scale(0.1 -0.1)">
       <use xlink:href="#DejaVuSans-50"/>
       <use x="63.623047" xlink:href="#DejaVuSans-53"/>
       <use x="127.246094" xlink:href="#DejaVuSans-48"/>
      </g>
     </g>
    </g>
    <g id="ytick_7">
     <g id="line2d_16">
      <g>
       <use style="stroke:#000000;stroke-width:0.8;" x="54" xlink:href="#mc0fefe7179" y="44.57533"/>
      </g>
     </g>
     <g id="text_17">
      <!-- 300 -->
      <defs>
       <path d="M 40.578125 39.3125 
Q 47.65625 37.796875 51.625 33 
Q 55.609375 28.21875 55.609375 21.1875 
Q 55.609375 10.40625 48.1875 4.484375 
Q 40.765625 -1.421875 27.09375 -1.421875 
Q 22.515625 -1.421875 17.65625 -0.515625 
Q 12.796875 0.390625 7.625 2.203125 
L 7.625 11.71875 
Q 11.71875 9.328125 16.59375 8.109375 
Q 21.484375 6.890625 26.8125 6.890625 
Q 36.078125 6.890625 40.9375 10.546875 
Q 45.796875 14.203125 45.796875 21.1875 
Q 45.796875 27.640625 41.28125 31.265625 
Q 36.765625 34.90625 28.71875 34.90625 
L 20.21875 34.90625 
L 20.21875 43.015625 
L 29.109375 43.015625 
Q 36.375 43.015625 40.234375 45.921875 
Q 44.09375 48.828125 44.09375 54.296875 
Q 44.09375 59.90625 40.109375 62.90625 
Q 36.140625 65.921875 28.71875 65.921875 
Q 24.65625 65.921875 20.015625 65.03125 
Q 15.375 64.15625 9.8125 62.3125 
L 9.8125 71.09375 
Q 15.4375 72.65625 20.34375 73.4375 
Q 25.25 74.21875 29.59375 74.21875 
Q 40.828125 74.21875 47.359375 69.109375 
Q 53.90625 64.015625 53.90625 55.328125 
Q 53.90625 49.265625 50.4375 45.09375 
Q 46.96875 40.921875 40.578125 39.3125 
z
" id="DejaVuSans-51"/>
      </defs>
      <g transform="translate(27.9125 48.374549)scale(0.1 -0.1)">
       <use xlink:href="#DejaVuSans-51"/>
       <use x="63.623047" xlink:href="#DejaVuSans-48"/>
       <use x="127.246094" xlink:href="#DejaVuSans-48"/>
      </g>
     </g>
    </g>
    <g id="text_18">
     <!-- %CPU [1] -->
     <defs>
      <path d="M 72.703125 32.078125 
Q 68.453125 32.078125 66.03125 28.46875 
Q 63.625 24.859375 63.625 18.40625 
Q 63.625 12.0625 66.03125 8.421875 
Q 68.453125 4.78125 72.703125 4.78125 
Q 76.859375 4.78125 79.265625 8.421875 
Q 81.6875 12.0625 81.6875 18.40625 
Q 81.6875 24.8125 79.265625 28.4375 
Q 76.859375 32.078125 72.703125 32.078125 
z
M 72.703125 38.28125 
Q 80.421875 38.28125 84.953125 32.90625 
Q 89.5 27.546875 89.5 18.40625 
Q 89.5 9.28125 84.9375 3.921875 
Q 80.375 -1.421875 72.703125 -1.421875 
Q 64.890625 -1.421875 60.34375 3.921875 
Q 55.8125 9.28125 55.8125 18.40625 
Q 55.8125 27.59375 60.375 32.9375 
Q 64.9375 38.28125 72.703125 38.28125 
z
M 22.3125 68.015625 
Q 18.109375 68.015625 15.6875 64.375 
Q 13.28125 60.75 13.28125 54.390625 
Q 13.28125 47.953125 15.671875 44.328125 
Q 18.0625 40.71875 22.3125 40.71875 
Q 26.5625 40.71875 28.96875 44.328125 
Q 31.390625 47.953125 31.390625 54.390625 
Q 31.390625 60.6875 28.953125 64.34375 
Q 26.515625 68.015625 22.3125 68.015625 
z
M 66.40625 74.21875 
L 74.21875 74.21875 
L 28.609375 -1.421875 
L 20.796875 -1.421875 
z
M 22.3125 74.21875 
Q 30.03125 74.21875 34.609375 68.875 
Q 39.203125 63.53125 39.203125 54.390625 
Q 39.203125 45.171875 34.640625 39.84375 
Q 30.078125 34.515625 22.3125 34.515625 
Q 14.546875 34.515625 10.03125 39.859375 
Q 5.515625 45.21875 5.515625 54.390625 
Q 5.515625 63.484375 10.046875 68.84375 
Q 14.59375 74.21875 22.3125 74.21875 
z
" id="DejaVuSans-37"/>
      <path d="M 64.40625 67.28125 
L 64.40625 56.890625 
Q 59.421875 61.53125 53.78125 63.8125 
Q 48.140625 66.109375 41.796875 66.109375 
Q 29.296875 66.109375 22.65625 58.46875 
Q 16.015625 50.828125 16.015625 36.375 
Q 16.015625 21.96875 22.65625 14.328125 
Q 29.296875 6.6875 41.796875 6.6875 
Q 48.140625 6.6875 53.78125 8.984375 
Q 59.421875 11.28125 64.40625 15.921875 
L 64.40625 5.609375 
Q 59.234375 2.09375 53.4375 0.328125 
Q 47.65625 -1.421875 41.21875 -1.421875 
Q 24.65625 -1.421875 15.125 8.703125 
Q 5.609375 18.84375 5.609375 36.375 
Q 5.609375 53.953125 15.125 64.078125 
Q 24.65625 74.21875 41.21875 74.21875 
Q 47.75 74.21875 53.53125 72.484375 
Q 59.328125 70.75 64.40625 67.28125 
z
" id="DejaVuSans-67"/>
      <path d="M 19.671875 64.796875 
L 19.671875 37.40625 
L 32.078125 37.40625 
Q 38.96875 37.40625 42.71875 40.96875 
Q 46.484375 44.53125 46.484375 51.125 
Q 46.484375 57.671875 42.71875 61.234375 
Q 38.96875 64.796875 32.078125 64.796875 
z
M 9.8125 72.90625 
L 32.078125 72.90625 
Q 44.34375 72.90625 50.609375 67.359375 
Q 56.890625 61.8125 56.890625 51.125 
Q 56.890625 40.328125 50.609375 34.8125 
Q 44.34375 29.296875 32.078125 29.296875 
L 19.671875 29.296875 
L 19.671875 0 
L 9.8125 0 
z
" id="DejaVuSans-80"/>
      <path d="M 8.6875 72.90625 
L 18.609375 72.90625 
L 18.609375 28.609375 
Q 18.609375 16.890625 22.84375 11.734375 
Q 27.09375 6.59375 36.625 6.59375 
Q 46.09375 6.59375 50.34375 11.734375 
Q 54.59375 16.890625 54.59375 28.609375 
L 54.59375 72.90625 
L 64.5 72.90625 
L 64.5 27.390625 
Q 64.5 13.140625 57.4375 5.859375 
Q 50.390625 -1.421875 36.625 -1.421875 
Q 22.796875 -1.421875 15.734375 5.859375 
Q 8.6875 13.140625 8.6875 27.390625 
z
" id="DejaVuSans-85"/>
     </defs>
     <g transform="translate(21.832812 166.868281)rotate(-90)scale(0.1 -0.1)">
      <use xlink:href="#DejaVuSans-37"/>
      <use x="95.019531" xlink:href="#DejaVuSans-67"/>
      <use x="164.84375" xlink:href="#DejaVuSans-80"/>
      <use x="225.146484" xlink:href="#DejaVuSans-85"/>
      <use x="298.339844" xlink:href="#DejaVuSans-32"/>
      <use x="330.126953" xlink:href="#DejaVuSans-91"/>
      <use x="369.140625" xlink:href="#DejaVuSans-49"/>
      <use x="432.763672" xlink:href="#DejaVuSans-93"/>
     </g>
    </g>
   </g>
   <g id="line2d_17">
    <path clip-path="url(#pf86a0baa87)" d="M 54 90.075615 
L 54.157109 72.165228 
L 54.314219 84.01769 
L 54.471328 61.958941 
L 54.628437 89.548839 
L 54.785547 79.737634 
L 54.942656 77.63053 
L 55.099765 71.24337 
L 55.256875 73.613862 
L 55.413984 78.091459 
L 55.571093 69.202113 
L 55.728203 67.49009 
L 55.885312 70.255665 
L 56.042421 66.83162 
L 56.199531 81.252116 
L 56.35664 81.910586 
L 56.513749 59.983531 
L 56.827968 64.724516 
L 56.985077 59.522602 
L 57.299296 77.400065 
L 57.456405 73.548015 
L 57.770624 89.331544 
L 57.927733 69.70255 
L 58.084843 94.026436 
L 58.399061 83.912335 
L 58.556171 93.545753 
L 58.870389 77.828071 
L 59.027499 103.969334 
L 59.184608 74.404026 
L 59.341718 71.177523 
L 59.498827 79.737634 
L 59.813046 74.074791 
L 60.127264 89.614686 
L 60.284374 77.893918 
L 60.441483 92.116872 
L 60.755702 73.350474 
L 60.912811 73.811403 
L 61.06992 75.325885 
L 61.22703 90.141462 
L 61.384139 57.283804 
L 61.541248 56.03271 
L 61.855467 87.902664 
L 62.012576 65.119598 
L 62.169686 77.762224 
L 62.326795 105.681357 
L 62.483904 78.94747 
L 62.641014 76.511131 
L 62.798123 77.432989 
L 62.955232 80.725339 
L 63.269451 65.382986 
L 63.42656 86.256488 
L 63.740779 69.136266 
L 63.897888 85.005395 
L 64.054998 69.202113 
L 64.369216 79.210858 
L 64.526326 77.432989 
L 64.683435 61.234624 
L 64.840544 63.670964 
L 64.997654 57.217957 
L 65.154763 58.864132 
L 65.311872 66.765773 
L 65.468982 66.963314 
L 65.626091 61.498012 
L 65.94031 90.997473 
L 66.254528 81.910586 
L 66.411638 62.617411 
L 66.725856 77.301295 
L 66.882966 72.165228 
L 67.040075 81.647198 
L 67.354294 80.132716 
L 67.511403 94.289824 
L 67.825622 74.206485 
L 67.982731 81.647198 
L 68.13984 58.139815 
L 68.454059 73.21878 
L 68.768278 59.654296 
L 68.925387 64.724516 
L 69.239606 56.427792 
L 69.396715 82.437362 
L 69.553824 64.395281 
L 69.710934 90.273156 
L 70.025153 70.453206 
L 70.182262 68.741183 
L 70.339371 70.848288 
L 70.496481 70.255665 
L 70.810699 73.87725 
L 70.967809 73.482168 
L 71.124918 66.897467 
L 71.282027 71.967687 
L 71.596246 99.030809 
L 71.753355 87.836817 
L 71.910465 63.736811 
L 72.067574 85.33463 
L 72.224683 88.166052 
L 72.381793 85.295122 
L 72.538902 85.769221 
L 72.696011 88.824522 
L 72.853121 69.728889 
L 73.01023 87.375888 
L 73.167339 82.305668 
L 73.324449 89.351298 
L 73.481558 89.285451 
L 73.795777 69.531348 
L 73.952886 79.342552 
L 74.109995 82.173974 
L 74.267105 61.7614 
L 74.424214 81.910586 
L 74.581323 79.342552 
L 74.738433 92.775342 
L 74.895542 84.01769 
L 75.052651 86.124794 
L 75.209761 77.037907 
L 75.36687 75.523426 
L 75.523979 66.765773 
L 75.681089 93.038731 
L 75.995307 80.26441 
L 76.152417 72.428616 
L 76.466635 98.504032 
L 76.623745 95.804305 
L 76.780854 95.343376 
L 76.937963 84.215231 
L 77.095073 91.985178 
L 77.409291 73.548015 
L 77.72351 92.775342 
L 77.880619 71.770146 
L 78.037729 83.951843 
L 78.194838 80.857033 
L 78.351947 95.014141 
L 78.666166 80.001022 
L 78.823275 90.339003 
L 78.980385 92.116872 
L 79.137494 77.564683 
L 79.294603 91.787637 
L 79.451713 77.301295 
L 79.608822 84.807854 
L 79.765931 79.210858 
L 80.08015 86.190641 
L 80.23726 101.86223 
L 80.394369 76.445284 
L 80.708588 86.058947 
L 81.022806 77.103754 
L 81.179916 89.878074 
L 81.337025 77.169601 
L 81.494134 77.498836 
L 81.651244 86.585723 
L 81.808353 80.593645 
L 81.965462 86.388182 
L 82.122572 85.33463 
L 82.279681 64.724516 
L 82.43679 85.400477 
L 82.5939 77.762224 
L 82.751009 76.97206 
L 82.908118 84.478619 
L 83.065228 81.910586 
L 83.379446 71.572605 
L 83.536556 56.69118 
L 83.693665 80.593645 
L 83.850774 86.322335 
L 84.007884 73.548015 
L 84.164993 74.404026 
L 84.322102 71.90184 
L 84.479212 76.247743 
L 84.636321 84.412772 
L 84.79343 84.939548 
L 84.95054 88.166052 
L 85.107649 76.840366 
L 85.264758 85.598018 
L 85.421868 100.940372 
L 85.578977 80.461951 
L 85.736086 86.124794 
L 86.050305 107.59092 
L 86.207414 82.437362 
L 86.364524 87.1125 
L 86.521633 86.322335 
L 86.678742 101.137913 
L 86.835852 90.536544 
L 86.992961 87.77097 
L 87.15007 96.857857 
L 87.464289 65.843915 
L 87.778508 80.659492 
L 87.935617 70.979982 
L 88.406945 99.755126 
L 88.721164 72.231075 
L 88.878273 85.466324 
L 89.035382 77.893918 
L 89.192492 79.342552 
L 89.349601 86.519876 
L 89.66382 78.486541 
L 89.820929 89.812227 
L 89.978038 92.577801 
L 90.135148 78.289 
L 90.292257 88.824522 
L 90.449366 76.050202 
L 90.606476 107.920155 
L 90.763585 73.087086 
L 90.920695 72.165228 
L 91.077804 79.638864 
L 91.234913 102.777503 
L 91.392023 77.037907 
L 91.549132 87.046653 
L 91.706241 105.944745 
L 91.863351 70.782441 
L 92.177569 95.738458 
L 92.334679 98.833268 
L 92.491788 104.891193 
L 92.806007 77.828071 
L 92.963116 103.310864 
L 93.277335 84.01769 
L 93.434444 77.828071 
L 93.591553 85.071242 
L 93.748663 76.774519 
L 93.905772 86.019439 
L 94.219991 82.173974 
L 94.534209 86.546215 
L 94.848428 82.239821 
L 95.005537 95.343376 
L 95.162647 96.001846 
L 95.319756 110.68573 
L 95.633975 79.145011 
L 95.948193 102.454853 
L 96.105303 84.346925 
L 96.262412 92.577801 
L 96.419521 77.63053 
L 96.576631 101.86223 
L 96.890849 75.391732 
L 97.047959 91.853484 
L 97.205068 75.523426 
L 97.362177 83.425067 
L 97.519287 75.457579 
L 97.676396 78.354847 
L 97.833505 90.865779 
L 97.990615 90.668238 
L 98.147724 90.931626 
L 98.304833 91.787637 
L 98.461943 100.347749 
L 98.619052 95.738458 
L 98.776161 103.903487 
L 98.933271 94.487365 
L 99.09038 95.606764 
L 99.247489 91.524249 
L 99.561708 109.698024 
L 99.718817 81.778892 
L 100.033036 103.376711 
L 100.190145 69.794736 
L 100.347255 93.367966 
L 100.504364 98.569879 
L 100.661473 77.235448 
L 101.132802 97.187092 
L 101.289911 88.758675 
L 101.44702 94.026436 
L 101.60413 85.861406 
L 101.761239 69.333807 
L 102.075458 101.532995 
L 102.232567 90.865779 
L 102.389676 88.297746 
L 102.546786 106.669062 
L 102.703895 85.729712 
L 102.861004 80.396104 
L 103.332332 105.154581 
L 103.489442 79.671787 
L 103.80366 93.038731 
L 103.96077 72.494463 
L 104.117879 73.021239 
L 104.274988 83.754302 
L 104.432098 82.832444 
L 104.589207 113.253763 
L 104.903426 97.713868 
L 105.060535 65.909762 
L 105.217644 80.791186 
L 105.374754 76.116049 
L 105.688972 87.1125 
L 105.846082 86.65157 
L 106.003191 87.705123 
L 106.1603 74.206485 
L 106.474519 99.557585 
L 106.631628 80.527798 
L 106.788738 84.610313 
L 106.945847 84.742007 
L 107.260066 92.577801 
L 107.417175 80.922881 
L 107.574284 82.70075 
L 107.731394 103.83764 
L 107.888503 89.351298 
L 108.045612 87.968511 
L 108.202722 91.06332 
L 108.359831 76.840366 
L 108.51694 75.523426 
L 108.67405 90.865779 
L 108.831159 91.458402 
L 109.145378 88.626981 
L 109.302487 113.780539 
L 109.459596 83.820149 
L 109.616706 94.223977 
L 109.773815 84.939548 
L 109.930924 110.619883 
L 110.245143 83.425067 
L 110.402252 80.659492 
L 110.559362 91.72179 
L 110.87358 72.692004 
L 111.03069 75.523426 
L 111.187799 88.956216 
L 111.344908 76.97206 
L 111.659127 82.569056 
L 111.816237 74.667414 
L 111.973346 84.67616 
L 112.130455 73.850912 
L 112.287565 75.688043 
L 112.444674 81.120422 
L 112.601783 76.214819 
L 112.916002 89.812227 
L 113.230221 75.75389 
L 113.38733 75.589273 
L 113.544439 79.60594 
L 113.701549 78.815776 
L 113.858658 67.951019 
L 114.172877 88.692828 
L 114.329986 99.22835 
L 114.644205 88.297746 
L 114.801314 73.613862 
L 114.958423 82.503209 
L 115.115533 68.741183 
L 115.272642 71.967687 
L 115.429751 59.325061 
L 115.901079 89.08791 
L 116.058189 58.534897 
L 116.215298 63.012493 
L 116.372407 62.814952 
L 116.529517 80.791186 
L 116.686626 67.160855 
L 116.843735 72.955392 
L 117.000845 71.572605 
L 117.157954 71.835993 
L 117.315063 74.469873 
L 117.472173 87.244194 
L 117.629282 72.494463 
L 117.786391 75.062497 
L 117.943501 89.022063 
L 118.10061 88.692828 
L 118.257719 75.260038 
L 118.414829 79.60594 
L 118.729047 71.770146 
L 118.886157 90.075615 
L 119.200375 68.80703 
L 119.357485 86.256488 
L 119.514594 90.339003 
L 119.671703 77.762224 
L 119.828813 78.025612 
L 120.143031 75.720967 
L 120.45725 81.252116 
L 120.614359 58.864132 
L 120.771469 85.400477 
L 120.928578 72.428616 
L 121.085687 89.022063 
L 121.242797 78.684082 
L 121.399906 77.367142 
L 121.557015 55.769322 
L 121.871234 71.770146 
L 122.028344 65.843915 
L 122.185453 77.828071 
L 122.342562 62.41987 
L 122.499672 68.543642 
L 122.656781 58.139815 
L 122.971 85.400477 
L 123.128109 80.527798 
L 123.285218 80.659492 
L 123.442328 63.473423 
L 123.599437 86.519876 
L 123.756546 89.285451 
L 123.913656 80.988728 
L 124.070765 92.511954 
L 124.227874 85.33463 
L 124.384984 88.758675 
L 124.542093 57.020415 
L 124.699202 77.301295 
L 124.856312 77.696377 
L 125.32764 86.585723 
L 125.484749 81.120422 
L 125.798968 93.565507 
L 125.956077 73.482168 
L 126.113186 92.116872 
L 126.270296 93.49966 
L 126.427405 73.943097 
L 126.584514 92.38026 
L 126.741624 86.585723 
L 126.898733 74.338179 
L 127.055842 83.688455 
L 127.212952 75.589273 
L 127.370061 79.540093 
L 127.52717 79.210858 
L 127.68428 78.157306 
L 127.998498 93.236272 
L 128.312717 83.029985 
L 128.469826 98.504032 
L 128.784045 90.40485 
L 128.941154 94.487365 
L 129.255373 79.474246 
L 129.412482 76.906213 
L 129.726701 79.671787 
L 129.88381 92.248566 
L 130.04092 81.976433 
L 130.198029 101.269607 
L 130.355138 77.169601 
L 130.512248 76.576978 
L 130.669357 83.095832 
L 130.826466 96.13354 
L 130.983576 70.255665 
L 131.140685 102.191465 
L 131.297794 81.581351 
L 131.454904 77.367142 
L 131.612013 59.720143 
L 131.926232 82.371515 
L 132.083341 57.678886 
L 132.24045 79.408399 
L 132.39756 77.301295 
L 132.554669 72.56031 
L 132.711779 86.190641 
L 133.025997 77.367142 
L 133.183107 80.527798 
L 133.340216 101.664689 
L 133.497325 93.104578 
L 133.654435 69.794736 
L 133.811544 72.099381 
L 133.968653 77.696377 
L 134.125763 90.734085 
L 134.282872 71.835993 
L 134.439981 73.350474 
L 134.597091 78.289 
L 134.7542 65.909762 
L 134.911309 84.478619 
L 135.068419 71.177523 
L 135.225528 73.482168 
L 135.539747 83.35922 
L 135.696856 73.745556 
L 135.853965 72.626157 
L 136.011075 82.239821 
L 136.168184 81.054575 
L 136.325293 74.206485 
L 136.482403 72.757851 
L 136.639512 84.610313 
L 136.796621 71.440911 
L 137.11084 90.734085 
L 137.267949 84.083537 
L 137.582168 99.491738 
L 137.896387 63.802658 
L 138.053496 79.803481 
L 138.210605 73.284627 
L 138.367715 92.511954 
L 138.524824 67.885172 
L 138.681933 67.358396 
L 138.996152 71.309217 
L 139.153261 66.17315 
L 139.46748 71.111676 
L 139.624589 81.317963 
L 139.781699 75.062497 
L 139.938808 83.688455 
L 140.410136 50.567408 
L 140.567245 66.699926 
L 140.724355 58.46905 
L 140.881464 61.432165 
L 141.195683 82.239821 
L 141.352792 62.617411 
L 141.509901 63.407576 
L 141.82412 55.110852 
L 141.981229 73.745556 
L 142.138339 71.309217 
L 142.295448 74.272332 
L 142.609667 95.079988 
L 142.766776 73.021239 
L 142.923885 77.959765 
L 143.080995 60.773695 
L 143.238104 64.395281 
L 143.395214 71.24337 
L 143.552323 69.860583 
L 143.709432 66.304844 
L 143.866542 78.881623 
L 144.023651 70.189818 
L 144.18076 86.849112 
L 144.33787 60.707848 
L 144.494979 87.1125 
L 144.652088 70.123971 
L 144.809198 91.195014 
L 144.966307 83.227526 
L 145.123416 83.095832 
L 145.280526 66.238997 
L 145.437635 77.235448 
L 145.594744 80.26441 
L 145.751854 78.025612 
L 145.908963 90.997473 
L 146.066072 76.181896 
L 146.223182 73.152933 
L 146.380291 76.181896 
L 146.851619 63.802658 
L 147.008728 86.058947 
L 147.165838 69.333807 
L 147.480056 92.709495 
L 147.794275 81.844739 
L 147.951384 79.013317 
L 148.422712 86.65157 
L 148.579822 80.527798 
L 148.89404 89.417145 
L 149.05115 87.244194 
L 149.208259 89.219604 
L 149.365368 72.889545 
L 149.679587 87.705123 
L 149.836696 80.001022 
L 149.993806 87.902664 
L 150.150915 73.679709 
L 150.465134 87.507582 
L 150.622243 74.733261 
L 150.779352 82.832444 
L 150.936462 73.416321 
L 151.093571 86.783264 
L 151.40779 80.857033 
L 151.564899 73.350474 
L 152.036227 88.54138 
L 152.193336 69.109927 
L 152.350446 74.43695 
L 152.507555 66.238997 
L 152.664664 85.229275 
L 152.821774 74.502797 
L 152.978883 94.039605 
L 153.135992 76.708672 
L 153.293102 75.194191 
L 153.450211 83.79381 
L 153.607321 82.134466 
L 153.76443 72.56031 
L 153.921539 83.227526 
L 154.078649 72.296922 
L 154.235758 81.515504 
L 154.392867 74.667414 
L 154.549977 61.10293 
L 154.707086 71.24337 
L 154.864195 61.629706 
L 155.021305 68.543642 
L 155.178414 68.346101 
L 155.335523 58.403203 
L 155.492633 73.613862 
L 155.649742 63.407576 
L 155.806851 67.555937 
L 155.963961 86.914959 
L 156.278179 71.440911 
L 156.435289 80.593645 
L 156.592398 81.910586 
L 156.749507 73.482168 
L 156.906617 80.461951 
L 157.063726 67.555937 
L 157.220835 92.116872 
L 157.377945 69.399654 
L 157.535054 68.280254 
L 157.692163 62.354023 
L 157.849273 62.090635 
L 158.006382 76.642825 
L 158.163491 49.382162 
L 158.47771 87.77097 
L 158.634819 64.790363 
L 158.791929 65.51468 
L 158.949038 56.361945 
L 159.106147 94.421518 
L 159.420366 72.494463 
L 159.577475 78.223153 
L 159.734585 61.10293 
L 159.891694 62.41987 
L 160.048803 77.301295 
L 160.205913 62.41987 
L 160.363022 75.523426 
L 160.520131 69.531348 
L 160.677241 71.375064 
L 160.83435 66.502385 
L 160.991459 78.157306 
L 161.305678 64.638915 
L 161.619897 87.375888 
L 161.777006 80.363181 
L 161.934115 83.490914 
L 162.091225 82.529548 
L 162.405443 98.253814 
L 162.562553 78.618235 
L 162.719662 76.511131 
L 162.876771 70.519053 
L 163.033881 73.745556 
L 163.19099 90.141462 
L 163.505209 69.26796 
L 163.662318 79.276705 
L 163.819427 56.361945 
L 163.976537 72.362769 
L 164.133646 74.206485 
L 164.290756 69.92643 
L 164.447865 58.337356 
L 164.604974 79.803481 
L 164.762084 80.066869 
L 164.919193 77.169601 
L 165.076302 80.330257 
L 165.390521 67.160855 
L 165.54763 75.128344 
L 165.70474 105.549663 
L 165.861849 71.045829 
L 166.018958 77.828071 
L 166.176068 101.532995 
L 166.647396 69.202113 
L 166.804505 67.358396 
L 167.118724 90.207309 
L 167.275833 68.872877 
L 167.432942 85.202936 
L 167.747161 60.181072 
L 167.90427 83.490914 
L 168.06138 70.123971 
L 168.375598 92.709495 
L 168.532708 64.85621 
L 168.689817 59.390908 
L 168.846926 81.120422 
L 169.004036 78.223153 
L 169.161145 83.490914 
L 169.318254 72.231075 
L 169.475364 75.918508 
L 169.632473 68.938724 
L 169.789582 87.836817 
L 169.946692 80.330257 
L 170.103801 78.157306 
L 170.41802 100.347749 
L 170.575129 64.724516 
L 170.732238 95.409223 
L 171.046457 88.495287 
L 171.203566 101.598842 
L 171.517785 71.704299 
L 171.674894 87.178347 
L 171.832004 84.215231 
L 171.989113 52.08189 
L 172.146222 82.305668 
L 172.303332 81.38381 
L 172.460441 64.526975 
L 172.61755 77.037907 
L 172.77466 76.97206 
L 172.931769 67.226702 
L 173.245988 80.461951 
L 173.403097 74.99665 
L 173.560206 75.194191 
L 173.874425 86.717417 
L 174.031534 81.120422 
L 174.188644 91.260861 
L 174.345753 66.17315 
L 174.659972 85.268783 
L 174.817081 63.473423 
L 174.974191 83.951843 
L 175.1313 76.181896 
L 175.288409 78.881623 
L 175.445519 71.638452 
L 175.759737 92.314413 
L 175.916847 67.753478 
L 176.073956 81.581351 
L 176.231065 79.276705 
L 176.388175 83.688455 
L 176.545284 82.70075 
L 176.702393 83.35922 
L 176.859503 81.581351 
L 177.016612 70.387359 
L 177.173721 84.544466 
L 177.330831 82.964138 
L 177.48794 76.247743 
L 177.645049 82.04228 
L 177.802159 75.918508 
L 177.959268 80.791186 
L 178.116377 67.095008 
L 178.273487 71.638452 
L 178.430596 72.823698 
L 178.587705 77.432989 
L 178.744815 64.922057 
L 178.901924 89.482992 
L 179.059033 90.602391 
L 179.216143 86.058947 
L 179.373252 93.631354 
L 179.530361 74.140638 
L 179.84458 90.207309 
L 180.001689 65.185445 
L 180.315908 98.174797 
L 180.787236 79.671787 
L 181.101455 87.507582 
L 181.258564 76.511131 
L 181.572783 84.083537 
L 181.729892 77.959765 
L 181.887001 76.774519 
L 182.044111 69.663042 
L 182.20122 70.321512 
L 182.358329 74.206485 
L 182.515439 72.296922 
L 182.672548 83.556761 
L 182.829657 67.819325 
L 182.986767 71.967687 
L 183.143876 72.428616 
L 183.300985 68.016866 
L 183.458095 80.001022 
L 183.615204 63.934352 
L 183.929423 78.157306 
L 184.086532 73.350474 
L 184.243641 80.198563 
L 184.400751 61.893094 
L 184.55786 67.49009 
L 184.714969 77.696377 
L 184.872079 64.724516 
L 185.029188 94.289824 
L 185.343407 72.56031 
L 185.500516 72.428616 
L 185.657626 60.510307 
L 185.814735 80.527798 
L 185.971844 63.802658 
L 186.128954 68.082713 
L 186.286063 85.598018 
L 186.443172 85.202936 
L 186.600282 75.457579 
L 186.757391 82.766597 
L 186.9145 66.041456 
L 187.07161 68.214407 
L 187.228719 72.757851 
L 187.385828 73.021239 
L 187.542938 72.626157 
L 187.700047 83.095832 
L 187.857156 82.634903 
L 188.014266 81.317963 
L 188.171375 78.157306 
L 188.328484 70.5849 
L 188.485594 85.861406 
L 188.642703 74.404026 
L 188.799812 83.556761 
L 188.956922 81.844739 
L 189.114031 84.281078 
L 189.27114 75.918508 
L 189.42825 76.97206 
L 189.585359 66.17315 
L 189.742468 77.63053 
L 189.899578 79.540093 
L 190.056687 75.260038 
L 190.213796 85.532171 
L 190.370906 71.375064 
L 190.528015 80.527798 
L 190.685124 79.737634 
L 190.842234 89.482992 
L 190.999343 76.840366 
L 191.156452 74.140638 
L 191.313562 66.634079 
L 191.470671 70.453206 
L 191.62778 71.375064 
L 191.941999 63.144188 
L 192.099108 77.169601 
L 192.256218 61.037083 
L 192.570436 71.506758 
L 192.727546 79.079164 
L 193.041764 63.012493 
L 193.198874 71.045829 
L 193.355983 64.658669 
L 193.513092 78.420694 
L 193.670202 76.708672 
L 193.827311 77.301295 
L 193.98442 96.001846 
L 194.14153 74.930802 
L 194.298639 78.354847 
L 194.612858 89.482992 
L 194.769967 74.008944 
L 194.927076 73.284627 
L 195.084186 62.288176 
L 195.241295 73.87725 
L 195.398405 72.823698 
L 195.555514 87.441735 
L 195.712623 90.799932 
L 195.869733 71.638452 
L 196.026842 67.753478 
L 196.183951 94.026436 
L 196.341061 65.382986 
L 196.49817 78.815776 
L 196.655279 79.145011 
L 196.812389 67.687631 
L 196.969498 72.692004 
L 197.126607 69.992277 
L 197.283717 81.317963 
L 197.597935 69.663042 
L 197.755045 75.65512 
L 197.912154 75.918508 
L 198.069263 79.935175 
L 198.226373 67.160855 
L 198.383482 70.387359 
L 198.540591 69.92643 
L 198.697701 70.979982 
L 198.85481 77.828071 
L 199.011919 77.169601 
L 199.169029 75.194191 
L 199.326138 65.843915 
L 199.483247 83.622608 
L 199.640357 64.000199 
L 199.954575 87.244194 
L 200.111685 79.408399 
L 200.268794 97.713868 
L 200.425903 84.083537 
L 200.583013 96.265234 
L 200.740122 94.223977 
L 200.897231 78.749929 
L 201.21145 74.008944 
L 201.368559 83.490914 
L 201.525669 62.551564 
L 201.682778 71.045829 
L 201.839887 88.100205 
L 201.996997 84.346925 
L 202.154106 84.873701 
L 202.468325 77.301295 
L 202.625434 80.725339 
L 202.782543 80.659492 
L 202.939653 81.410148 
L 203.096762 83.596269 
L 203.253871 98.187967 
L 203.410981 88.692828 
L 203.56809 94.276654 
L 203.725199 112.331905 
L 204.039418 73.903589 
L 204.196527 78.058536 
L 204.353637 91.655943 
L 204.510746 77.564683 
L 204.667855 77.828071 
L 204.824965 59.061673 
L 205.139183 90.273156 
L 205.453402 68.346101 
L 205.610511 74.601567 
L 205.767621 66.304844 
L 205.92473 81.647198 
L 206.08184 82.04228 
L 206.238949 85.532171 
L 206.553168 62.156482 
L 206.710277 82.766597 
L 206.867386 77.696377 
L 207.024496 58.403203 
L 207.181605 79.276705 
L 207.338714 72.955392 
L 207.495824 85.137089 
L 207.652933 69.860583 
L 207.967152 95.606764 
L 208.124261 75.325885 
L 208.43848 102.257312 
L 208.595589 77.893918 
L 208.752698 71.045829 
L 208.909808 98.438185 
L 209.066917 77.828071 
L 209.224026 83.688455 
L 209.381136 81.910586 
L 209.538245 78.552388 
L 209.695354 79.869328 
L 209.852464 74.733261 
L 210.009573 73.745556 
L 210.323792 83.820149 
L 210.63801 63.078341 
L 210.952229 82.503209 
L 211.109338 75.523426 
L 211.266448 78.881623 
L 211.423557 78.025612 
L 211.580666 69.202113 
L 211.737776 66.83162 
L 211.894885 74.338179 
L 212.051994 72.165228 
L 212.209104 80.066869 
L 212.366213 79.671787 
L 212.523322 74.338179 
L 212.680432 89.548839 
L 212.837541 80.132716 
L 212.99465 79.671787 
L 213.308869 96.001846 
L 213.465978 92.116872 
L 213.623088 77.828071 
L 213.780197 83.161679 
L 213.937306 67.49009 
L 214.094416 79.145011 
L 214.251525 53.919021 
L 214.565744 86.322335 
L 214.722853 94.684906 
L 214.879962 95.145835 
L 215.037072 73.482168 
L 215.194181 74.338179 
L 215.35129 62.683258 
L 215.5084 66.436538 
L 215.822618 81.252116 
L 215.979728 79.145011 
L 216.136837 80.26441 
L 216.293947 74.008944 
L 216.451056 87.375888 
L 216.608165 76.708672 
L 216.765275 85.598018 
L 216.922384 76.445284 
L 217.079493 77.301295 
L 217.236603 71.770146 
L 217.393712 81.252116 
L 217.550821 99.491738 
L 217.707931 83.622608 
L 217.86504 84.67616 
L 218.022149 75.65512 
L 218.179259 80.461951 
L 218.336368 62.156482 
L 218.650587 89.417145 
L 218.964805 59.061673 
L 219.121915 73.021239 
L 219.279024 75.457579 
L 219.436133 93.49966 
L 219.593243 89.219604 
L 219.750352 70.123971 
L 219.907461 104.298569 
L 220.064571 79.540093 
L 220.22168 80.330257 
L 220.378789 72.823698 
L 220.535899 79.276705 
L 220.693008 69.531348 
L 220.850117 84.873701 
L 221.007227 85.795559 
L 221.164336 72.823698 
L 221.321445 74.667414 
L 221.478555 71.90184 
L 221.635664 88.824522 
L 221.949883 72.231075 
L 222.106992 87.705123 
L 222.264101 86.256488 
L 222.421211 87.046653 
L 222.57832 91.326708 
L 222.735429 72.823698 
L 222.892539 68.938724 
L 223.206757 93.038731 
L 223.363867 82.437362 
L 223.520976 85.795559 
L 223.678085 74.930802 
L 223.835195 77.301295 
L 223.992304 77.564683 
L 224.149413 74.074791 
L 224.306523 67.358396 
L 224.463632 75.325885 
L 224.620741 71.835993 
L 224.777851 77.432989 
L 224.93496 87.836817 
L 225.092069 88.890369 
L 225.249179 64.724516 
L 225.406288 81.713045 
L 225.563397 72.362769 
L 225.720507 87.968511 
L 226.034725 61.300471 
L 226.191835 82.964138 
L 226.506053 68.082713 
L 226.663163 69.794736 
L 226.820272 102.454853 
L 227.134491 69.794736 
L 227.2916 74.53572 
L 227.44871 71.111676 
L 227.605819 72.692004 
L 227.762928 83.095832 
L 227.920038 72.428616 
L 228.077147 86.914959 
L 228.234256 83.490914 
L 228.548475 72.428616 
L 228.705584 72.428616 
L 228.862694 88.692828 
L 229.019803 65.251292 
L 229.176912 83.556761 
L 229.334022 66.17315 
L 229.491131 73.943097 
L 229.64824 58.864132 
L 229.80535 69.597195 
L 229.962459 67.160855 
L 230.119568 67.555937 
L 230.276678 81.120422 
L 230.590896 78.223153 
L 230.748006 72.626157 
L 230.905115 80.857033 
L 231.062224 71.90184 
L 231.219334 70.716594 
L 231.376443 85.071242 
L 231.533552 84.412772 
L 231.690662 85.137089 
L 231.847771 66.17315 
L 232.00488 91.392555 
L 232.16199 77.498836 
L 232.319099 82.766597 
L 232.476208 84.01769 
L 232.633318 71.967687 
L 232.790427 94.684906 
L 232.947536 77.893918 
L 233.104646 85.071242 
L 233.418864 68.477795 
L 233.575974 78.552388 
L 233.733083 75.65512 
L 233.890192 62.41987 
L 234.204411 91.129167 
L 234.36152 73.943097 
L 234.51863 89.74638 
L 234.675739 75.194191 
L 234.832848 75.720967 
L 234.989958 91.458402 
L 235.147067 64.329434 
L 235.461286 87.178347 
L 235.775504 74.799108 
L 235.932614 77.828071 
L 236.089723 70.624408 
L 236.246832 68.833369 
L 236.403942 90.075615 
L 236.561051 87.77097 
L 236.87527 80.198563 
L 237.032379 59.509432 
L 237.660817 87.77097 
L 237.817926 61.695553 
L 237.975035 76.576978 
L 238.132145 70.716594 
L 238.289254 72.033534 
L 238.446363 80.066869 
L 238.760582 75.786814 
L 238.917691 85.005395 
L 239.074801 83.727963 
L 239.23191 77.926841 
L 239.389019 80.593645 
L 239.546129 65.843915 
L 239.703238 64.526975 
L 239.860347 82.70075 
L 240.017457 58.073968 
L 240.174566 71.967687 
L 240.331675 69.136266 
L 240.488785 79.540093 
L 240.645894 73.943097 
L 240.803003 92.577801 
L 240.960113 88.824522 
L 241.274331 76.774519 
L 241.431441 54.649923 
L 241.58855 68.346101 
L 241.745659 70.716594 
L 241.902769 76.906213 
L 242.059878 72.165228 
L 242.374097 82.305668 
L 242.688315 61.168777 
L 242.845425 71.835993 
L 243.002534 66.436538 
L 243.159643 54.913311 
L 243.316753 70.519053 
L 243.473862 72.231075 
L 243.630971 82.305668 
L 243.788081 72.626157 
L 243.94519 70.189818 
L 244.102299 80.001022 
L 244.416518 63.078341 
L 244.573627 78.486541 
L 244.730737 71.177523 
L 244.887846 74.338179 
L 245.044955 65.580527 
L 245.202065 80.988728 
L 245.359174 64.724516 
L 245.673393 84.478619 
L 245.830502 72.165228 
L 245.987611 74.864955 
L 246.144721 67.226702 
L 246.30183 81.252116 
L 246.458939 74.206485 
L 246.616049 75.457579 
L 246.773158 75.194191 
L 246.930267 77.432989 
L 247.087377 60.378613 
L 247.244486 80.132716 
L 247.401595 75.260038 
L 247.558705 77.63053 
L 247.715814 67.424243 
L 248.030033 77.828071 
L 248.187142 76.445284 
L 248.344252 66.568232 
L 248.65847 93.565507 
L 248.81558 84.544466 
L 248.972689 57.613039 
L 249.286908 85.492663 
L 249.444017 75.424655 
L 249.601126 87.922418 
L 249.758236 65.448833 
L 250.072454 72.955392 
L 250.229564 90.207309 
L 250.386673 67.292549 
L 250.543782 83.227526 
L 250.700892 82.305668 
L 250.858001 69.92643 
L 251.01511 72.955392 
L 251.17222 66.041456 
L 251.329329 70.123971 
L 251.486438 80.26441 
L 251.643548 65.448833 
L 251.800657 62.683258 
L 251.957766 73.482168 
L 252.114876 67.029161 
L 252.429094 77.696377 
L 252.743313 58.139815 
L 252.900422 62.880799 
L 253.214641 89.548839 
L 253.37175 84.610313 
L 253.52886 69.399654 
L 253.685969 66.238997 
L 253.843078 79.474246 
L 254.000188 74.733261 
L 254.157297 60.115225 
L 254.471516 70.782441 
L 254.628625 55.045005 
L 254.785734 54.781617 
L 254.942844 83.161679 
L 255.099953 73.087086 
L 255.257062 77.828071 
L 255.414172 79.145011 
L 255.571281 90.339003 
L 255.72839 70.914135 
L 255.8855 68.675336 
L 256.042609 59.061673 
L 256.199718 89.022063 
L 256.356828 73.548015 
L 256.513937 74.799108 
L 256.828156 68.872877 
L 256.985265 72.823698 
L 257.142374 70.387359 
L 257.299484 73.152933 
L 257.613702 53.135442 
L 257.770812 70.519053 
L 257.927921 70.453206 
L 258.085031 73.152933 
L 258.24214 85.861406 
L 258.556359 58.600744 
L 258.713468 77.893918 
L 259.184796 64.461128 
L 259.341905 82.173974 
L 259.499015 69.531348 
L 259.656124 83.425067 
L 259.813233 86.717417 
L 259.970343 86.980806 
L 260.127452 91.260861 
L 260.284561 109.237095 
L 260.441671 80.066869 
L 260.59878 82.766597 
L 260.755889 66.370691 
L 261.070108 87.836817 
L 261.227217 67.753478 
L 261.384327 67.951019 
L 261.541436 66.765773 
L 261.855655 72.231075 
L 262.012764 81.38381 
L 262.169873 75.194191 
L 262.326983 87.310041 
L 262.484092 90.799932 
L 262.641201 78.223153 
L 262.798311 88.956216 
L 262.95542 91.590096 
L 263.112529 84.215231 
L 263.269639 65.975609 
L 263.426748 83.688455 
L 263.583857 73.87725 
L 263.740967 76.97206 
L 263.898076 67.095008 
L 264.055185 70.189818 
L 264.212295 84.281078 
L 264.369404 74.53572 
L 264.683623 96.857857 
L 264.840732 70.5849 
L 264.997841 80.791186 
L 265.154951 78.223153 
L 265.31206 88.515041 
L 265.469169 73.508507 
L 265.626279 73.679709 
L 265.783388 85.071242 
L 265.940497 88.034358 
L 266.097607 75.128344 
L 266.254716 81.976433 
L 266.726044 73.613862 
L 266.883153 63.407576 
L 267.040263 88.692828 
L 267.354481 65.909762 
L 267.511591 80.198563 
L 267.6687 56.822874 
L 267.825809 80.527798 
L 267.982919 66.17315 
L 268.140028 78.354847 
L 268.297137 60.378613 
L 268.611356 80.066869 
L 268.768466 57.15211 
L 268.925575 73.811403 
L 269.082684 77.762224 
L 269.239794 67.292549 
L 269.554012 88.100205 
L 269.868231 80.461951 
L 270.02534 59.061673 
L 270.18245 78.684082 
L 270.339559 78.157306 
L 270.496668 69.333807 
L 270.653778 83.622608 
L 270.810887 72.823698 
L 270.967996 78.420694 
L 271.125106 73.548015 
L 271.282215 63.868505 
L 271.439324 81.844739 
L 271.596434 84.083537 
L 271.753543 79.803481 
L 271.910652 59.654296 
L 272.067762 57.613039 
L 272.224871 85.137089 
L 272.38198 81.976433 
L 272.53909 82.239821 
L 272.696199 77.762224 
L 272.853308 97.318786 
L 273.167527 76.181896 
L 273.324636 83.227526 
L 273.953074 63.802658 
L 274.267292 86.058947 
L 274.424402 83.556761 
L 274.581511 72.823698 
L 274.73862 74.140638 
L 274.89573 77.432989 
L 275.052839 86.124794 
L 275.209948 69.070419 
L 275.367058 71.045829 
L 275.524167 70.914135 
L 275.681276 92.972884 
L 275.838386 78.223153 
L 275.995495 88.692828 
L 276.152604 68.675336 
L 276.466823 85.729712 
L 276.623932 57.086262 
L 276.938151 70.255665 
L 277.09526 67.358396 
L 277.409479 79.671787 
L 277.566588 77.037907 
L 277.723698 81.449657 
L 278.037916 68.80703 
L 278.195026 82.173974 
L 278.352135 84.083537 
L 278.509244 102.059771 
L 278.666354 68.938724 
L 278.823463 78.552388 
L 278.980573 78.815776 
L 279.137682 85.9931 
L 279.294791 69.663042 
L 279.451901 88.100205 
L 279.60901 79.342552 
L 279.766119 82.108127 
L 279.923229 62.946646 
L 280.080338 81.120422 
L 280.237447 75.852661 
L 280.394557 83.951843 
L 280.551666 73.152933 
L 280.865885 86.65157 
L 281.022994 64.066046 
L 281.337213 77.564683 
L 281.494322 57.415498 
L 281.651431 78.881623 
L 281.808541 65.382986 
L 281.96565 68.938724 
L 282.122759 95.277529 
L 282.436978 62.814952 
L 282.594087 89.680533 
L 282.751197 64.987904 
L 283.065415 86.914959 
L 283.379634 67.358396 
L 283.536743 93.631354 
L 283.850962 77.63053 
L 284.008071 90.602391 
L 284.165181 74.733261 
L 284.32229 72.955392 
L 284.479399 86.322335 
L 284.636509 63.934352 
L 284.950727 93.038731 
L 285.107837 63.53927 
L 285.264946 73.284627 
L 285.422055 73.152933 
L 285.579165 44.443636 
L 285.736274 74.53572 
L 285.893383 80.066869 
L 286.050493 73.811403 
L 286.207602 73.482168 
L 286.364711 81.910586 
L 286.521821 78.684082 
L 286.67893 68.14856 
L 286.993149 81.38381 
L 287.307367 64.19774 
L 287.464477 62.090635 
L 287.621586 88.166052 
L 287.778695 81.778892 
L 287.935805 93.894742 
L 288.092914 89.482992 
L 288.250023 79.276705 
L 288.407133 104.693652 
L 288.721351 67.49009 
L 288.878461 70.453206 
L 289.03557 68.477795 
L 289.192679 71.506758 
L 289.349789 76.807442 
L 289.506898 71.269709 
L 289.664008 73.416321 
L 289.821117 69.070419 
L 289.978226 81.778892 
L 290.292445 64.329434 
L 290.449554 65.51468 
L 290.606664 85.663865 
L 290.920882 63.341729 
L 291.077992 79.540093 
L 291.235101 64.000199 
L 291.39221 80.857033 
L 291.54932 64.526975 
L 291.706429 63.605117 
L 291.863538 89.482992 
L 292.177757 71.375064 
L 292.334866 81.910586 
L 292.491976 81.515504 
L 292.649085 70.782441 
L 292.806194 78.091459 
L 292.963304 76.181896 
L 293.120413 90.668238 
L 293.277522 71.90184 
L 293.74885 87.639276 
L 293.90596 67.424243 
L 294.063069 76.116049 
L 294.220178 76.181896 
L 294.377288 77.367142 
L 294.691506 63.078341 
L 294.848616 70.519053 
L 295.005725 65.382986 
L 295.162834 54.386535 
L 295.319944 55.505934 
L 295.477053 68.14856 
L 295.634162 62.485717 
L 295.948381 92.84119 
L 296.10549 85.9931 
L 296.2626 86.980806 
L 296.576818 69.728889 
L 296.733928 72.231075 
L 296.891037 89.812227 
L 297.048146 75.523426 
L 297.205256 83.688455 
L 297.362365 76.511131 
L 297.519474 90.075615 
L 297.676584 86.256488 
L 297.990802 67.885172 
L 298.147912 72.626157 
L 298.305021 70.979982 
L 298.61924 83.35922 
L 298.776349 71.24337 
L 298.933458 81.713045 
L 299.090568 84.544466 
L 299.404786 57.547192 
L 299.719005 87.968511 
L 299.876115 82.04228 
L 300.190333 89.219604 
L 300.347443 80.198563 
L 300.504552 81.739383 
L 300.661661 71.309217 
L 300.818771 85.795559 
L 300.97588 65.975609 
L 301.132989 84.67616 
L 301.290099 67.160855 
L 301.447208 67.621784 
L 301.604317 82.503209 
L 301.761427 80.725339 
L 301.918536 85.400477 
L 302.075645 97.384633 
L 302.232755 81.38381 
L 302.389864 108.512778 
L 302.704083 72.56031 
L 303.018301 84.742007 
L 303.175411 79.935175 
L 303.489629 85.795559 
L 303.646739 75.523426 
L 303.803848 78.420694 
L 303.960957 66.765773 
L 304.432285 80.659492 
L 304.589395 75.325885 
L 304.746504 81.317963 
L 304.903613 76.181896 
L 305.060723 79.803481 
L 305.374941 68.543642 
L 305.532051 71.704299 
L 305.68916 72.494463 
L 305.846269 75.062497 
L 306.003379 68.741183 
L 306.160488 85.9931 
L 306.317597 76.379437 
L 306.474707 78.289 
L 306.631816 74.074791 
L 306.946035 85.400477 
L 307.103144 112.00267 
L 307.417363 64.066046 
L 307.574472 66.370691 
L 307.731581 68.938724 
L 307.888691 78.420694 
L 308.0458 76.181896 
L 308.202909 71.704299 
L 308.360019 88.561134 
L 308.517128 66.304844 
L 308.831347 80.725339 
L 309.145565 67.029161 
L 309.302675 70.650747 
L 309.459784 71.177523 
L 309.616893 74.469873 
L 309.774003 55.045005 
L 309.931112 63.210035 
L 310.088221 82.634903 
L 310.245331 72.757851 
L 310.40244 82.239821 
L 310.55955 79.079164 
L 310.716659 80.26441 
L 310.873768 74.864955 
L 311.030878 80.330257 
L 311.187987 69.860583 
L 311.345096 85.532171 
L 311.502206 68.214407 
L 311.659315 81.515504 
L 311.816424 69.860583 
L 312.130643 84.149384 
L 312.287752 79.013317 
L 312.444862 88.626981 
L 312.601971 86.849112 
L 312.75908 69.004571 
L 312.91619 73.087086 
L 313.073299 87.1125 
L 313.230408 72.099381 
L 313.387518 96.923704 
L 313.701736 80.527798 
L 313.858846 78.420694 
L 314.015955 93.236272 
L 314.173064 69.992277 
L 314.330174 78.684082 
L 314.487283 74.53572 
L 314.644392 75.128344 
L 314.801502 63.670964 
L 314.958611 78.354847 
L 315.429939 56.230251 
L 315.587048 76.774519 
L 315.744158 64.592822 
L 315.901267 69.531348 
L 316.058376 66.634079 
L 316.215486 83.188018 
L 316.372595 80.231487 
L 316.529704 79.869328 
L 316.686814 88.42944 
L 316.843923 85.598018 
L 317.001032 77.498836 
L 317.158142 79.474246 
L 317.315251 86.190641 
L 317.47236 84.24157 
L 317.62947 95.870152 
L 317.786579 82.345176 
L 317.943688 83.556761 
L 318.100798 98.372338 
L 318.257907 63.605117 
L 318.415016 89.548839 
L 318.729235 71.90184 
L 318.886344 80.066869 
L 319.043454 78.025612 
L 319.200563 85.071242 
L 319.357672 80.659492 
L 319.514782 72.692004 
L 319.829 75.786814 
L 319.98611 72.692004 
L 320.143219 89.173511 
L 320.457438 73.811403 
L 320.771656 93.170425 
L 320.928766 77.037907 
L 321.085875 84.873701 
L 321.242985 70.453206 
L 321.400094 73.811403 
L 321.557203 86.717417 
L 321.714313 71.375064 
L 322.028531 93.894742 
L 322.34275 64.922057 
L 322.814078 85.598018 
L 322.971187 78.881623 
L 323.128297 81.910586 
L 323.285406 59.78599 
L 323.599625 82.503209 
L 323.756734 57.876427 
L 323.913843 94.355671 
L 324.070953 83.425067 
L 324.228062 82.437362 
L 324.385171 90.075615 
L 324.542281 91.326708 
L 324.69939 82.371515 
L 324.856499 83.490914 
L 325.013609 95.079988 
L 325.170718 85.33463 
L 325.327827 84.544466 
L 325.484937 88.363593 
L 325.642046 87.902664 
L 325.799155 82.964138 
L 325.956265 103.17917 
L 326.427593 69.992277 
L 326.741811 84.742007 
L 326.898921 86.256488 
L 327.05603 86.585723 
L 327.213139 85.137089 
L 327.370249 97.516327 
L 327.527358 78.025612 
L 327.684467 84.083537 
L 327.841577 72.692004 
L 327.998686 78.881623 
L 328.312905 73.152933 
L 328.470014 82.239821 
L 328.627123 80.066869 
L 328.784233 83.885996 
L 328.941342 81.910586 
L 329.098451 82.634903 
L 329.41267 86.322335 
L 329.569779 80.857033 
L 329.726889 85.202936 
L 329.883998 83.227526 
L 330.041107 73.943097 
L 330.198217 85.400477 
L 330.355326 68.477795 
L 330.512435 75.65512 
L 330.669545 91.985178 
L 330.826654 89.153757 
L 330.983763 103.113323 
L 331.297982 89.08791 
L 331.455092 106.339827 
L 331.612201 81.647198 
L 331.92642 71.111676 
L 332.240638 94.684906 
L 332.397748 81.38381 
L 332.554857 93.236272 
L 332.711966 79.671787 
L 332.869076 82.437362 
L 333.026185 66.699926 
L 333.183294 91.06332 
L 333.340404 78.354847 
L 333.654622 85.795559 
L 333.811732 76.511131 
L 333.968841 77.893918 
L 334.12595 81.910586 
L 334.28306 68.14856 
L 334.440169 70.453206 
L 334.597278 86.256488 
L 334.754388 86.783264 
L 334.911497 93.49966 
L 335.068606 73.679709 
L 335.382825 92.907037 
L 335.539934 82.503209 
L 335.697044 97.582174 
L 335.854153 77.63053 
L 336.011262 90.668238 
L 336.325481 86.454029 
L 336.48259 85.268783 
L 336.6397 74.404026 
L 336.796809 80.330257 
L 336.953918 79.408399 
L 337.111028 77.762224 
L 337.268137 86.322335 
L 337.425246 101.269607 
L 337.739465 73.350474 
L 337.896574 83.820149 
L 338.053684 70.321512 
L 338.210793 86.783264 
L 338.367902 73.482168 
L 338.525012 75.062497 
L 338.682121 90.141462 
L 338.83923 67.621784 
L 338.99634 65.712221 
L 339.153449 69.465501 
L 339.467668 92.446107 
L 339.624777 96.199387 
L 340.253214 80.396104 
L 340.410324 68.938724 
L 340.567433 66.83162 
L 340.724542 93.894742 
L 340.881652 81.713045 
L 341.038761 91.524249 
L 341.19587 79.60594 
L 341.35298 96.726163 
L 341.667198 74.074791 
L 341.824308 98.635726 
L 341.981417 80.330257 
L 342.138527 84.412772 
L 342.295636 77.498836 
L 342.452745 78.881623 
L 342.766964 87.77097 
L 342.924073 91.392555 
L 343.238292 81.317963 
L 343.395401 89.219604 
L 343.552511 90.207309 
L 343.70962 98.569879 
L 343.866729 86.190641 
L 344.180948 94.882447 
L 344.338057 78.881623 
L 344.495167 81.581351 
L 344.652276 89.219604 
L 344.809385 110.554035 
L 344.966495 105.022887 
L 345.123604 82.634903 
L 345.437823 93.763048 
L 345.594932 93.631354 
L 346.06626 82.832444 
L 346.223369 75.128344 
L 346.380479 96.067693 
L 346.537588 87.836817 
L 346.694697 102.5207 
L 346.851807 86.65157 
L 347.008916 85.071242 
L 347.166025 89.417145 
L 347.480244 75.589273 
L 347.637353 88.890369 
L 347.794463 72.165228 
L 347.951572 81.713045 
L 348.108681 72.428616 
L 348.265791 70.097632 
L 348.4229 95.870152 
L 348.580009 97.187092 
L 348.737119 84.01769 
L 348.894228 104.891193 
L 349.051337 97.384633 
L 349.208447 104.825346 
L 349.365556 94.289824 
L 349.522665 91.787637 
L 349.679775 91.985178 
L 349.836884 95.738458 
L 349.993993 80.066869 
L 350.151103 98.438185 
L 350.308212 92.314413 
L 350.465321 78.354847 
L 350.622431 79.869328 
L 350.936649 101.928077 
L 351.093759 92.116872 
L 351.250868 90.865779 
L 351.407977 91.787637 
L 351.565087 85.9931 
L 351.722196 73.284627 
L 351.879305 97.977256 
L 352.193524 77.301295 
L 352.350634 86.65157 
L 352.507743 84.610313 
L 352.664852 66.83162 
L 352.821962 83.688455 
L 352.979071 81.38381 
L 353.29329 88.034358 
L 353.607508 77.432989 
L 353.921727 95.277529 
L 354.078836 83.556761 
L 354.235946 93.565507 
L 354.393055 94.487365 
L 354.550164 98.174797 
L 354.707274 93.565507 
L 354.864383 77.103754 
L 355.021492 87.441735 
L 355.178602 89.351298 
L 355.335711 96.528622 
L 355.49282 74.272332 
L 355.807039 92.446107 
L 355.964148 96.067693 
L 356.121258 71.638452 
L 356.278367 76.050202 
L 356.435476 94.092283 
L 356.592586 87.639276 
L 356.749695 98.438185 
L 356.906804 86.585723 
L 357.063914 90.075615 
L 357.221023 78.157306 
L 357.535242 88.297746 
L 357.692351 77.959765 
L 357.84946 95.870152 
L 358.00657 71.375064 
L 358.163679 64.922057 
L 358.320788 72.692004 
L 358.477898 91.919331 
L 358.792116 101.137913 
L 359.106335 92.775342 
L 359.263444 80.922881 
L 359.420554 85.005395 
L 359.577663 95.738458 
L 359.734772 86.124794 
L 359.891882 85.795559 
L 360.048991 84.478619 
L 360.2061 92.84119 
L 360.36321 87.705123 
L 360.677428 105.483816 
L 360.991647 80.857033 
L 361.148756 79.408399 
L 361.305866 83.425067 
L 361.462975 91.458402 
L 361.620084 88.561134 
L 361.777194 81.38381 
L 361.934303 101.137913 
L 362.248522 81.910586 
L 362.405631 92.577801 
L 362.71985 86.322335 
L 362.876959 89.153757 
L 363.348287 101.993924 
L 363.505397 98.10895 
L 363.662506 87.1125 
L 363.819615 90.931626 
L 363.976725 80.857033 
L 364.133834 84.215231 
L 364.290943 94.092283 
L 364.448053 88.626981 
L 364.605162 72.955392 
L 364.762271 88.166052 
L 364.919381 88.561134 
L 365.07649 102.915782 
L 365.233599 76.511131 
L 365.390709 79.276705 
L 365.862037 100.150208 
L 366.019146 86.783264 
L 366.490474 99.22835 
L 366.647583 79.342552 
L 366.804693 82.503209 
L 367.118911 71.770146 
L 367.276021 68.016866 
L 367.43313 87.639276 
L 367.590239 90.075615 
L 367.747349 94.487365 
L 367.904458 93.104578 
L 368.218677 97.911409 
L 368.375786 89.812227 
L 368.690005 68.082713 
L 368.847114 72.296922 
L 369.004223 70.5849 
L 369.161333 91.129167 
L 369.318442 82.70075 
L 369.475551 80.330257 
L 369.632661 71.572605 
L 369.78977 81.120422 
L 369.946879 78.420694 
L 370.103989 97.779715 
L 370.261098 81.844739 
L 370.418207 96.331081 
L 370.575317 97.779715 
L 370.732426 106.142286 
L 370.889535 95.738458 
L 371.046645 77.564683 
L 371.203754 107.722614 
L 371.360863 83.754302 
L 371.517973 83.622608 
L 371.675082 98.240644 
L 371.832191 98.043103 
L 371.989301 85.598018 
L 372.14641 91.787637 
L 372.303519 108.051849 
L 372.617738 98.306491 
L 372.774847 106.6098 
L 372.931957 101.263022 
L 373.089066 78.091459 
L 373.246176 80.659492 
L 373.403285 86.849112 
L 373.560394 82.70075 
L 373.717504 84.807854 
L 373.874613 84.373264 
L 374.031722 77.663453 
L 374.345941 100.229224 
L 374.50305 87.244194 
L 374.66016 88.034358 
L 374.817269 76.379437 
L 374.974378 79.276705 
L 375.288597 92.446107 
L 375.602816 73.811403 
L 375.759925 87.244194 
L 375.917034 87.639276 
L 376.074144 89.351298 
L 376.231253 88.824522 
L 376.388362 91.919331 
L 376.545472 88.956216 
L 376.702581 94.026436 
L 376.85969 66.897467 
L 377.0168 93.038731 
L 377.173909 90.997473 
L 377.331018 75.984355 
L 377.645237 104.430263 
L 377.802346 98.372338 
L 377.959456 101.86223 
L 378.116565 88.561134 
L 378.273674 89.041817 
L 378.430784 110.817424 
L 378.745002 105.549663 
L 379.059221 66.436538 
L 379.21633 85.163428 
L 379.37344 79.145011 
L 379.530549 86.980806 
L 379.844768 69.794736 
L 380.001877 85.137089 
L 380.316096 77.169601 
L 380.473205 89.08791 
L 380.630314 73.087086 
L 380.787424 76.576978 
L 380.944533 60.905389 
L 381.258752 95.277529 
L 381.415861 88.363593 
L 381.57297 98.569879 
L 381.73008 85.071242 
L 381.887189 97.779715 
L 382.044298 92.38026 
L 382.201408 110.817424 
L 382.358517 94.092283 
L 382.515626 90.536544 
L 382.672736 99.491738 
L 382.829845 82.70075 
L 382.986954 93.236272 
L 383.144064 87.046653 
L 383.301173 93.104578 
L 383.458282 74.799108 
L 383.772501 79.60594 
L 383.929611 89.831981 
L 384.08672 80.791186 
L 384.243829 100.676984 
L 384.400939 90.602391 
L 384.558048 91.590096 
L 384.715157 78.684082 
L 384.872267 90.470697 
L 385.029376 84.742007 
L 385.186485 89.614686 
L 385.343595 90.865779 
L 385.500704 75.062497 
L 385.657813 79.013317 
L 385.814923 93.236272 
L 385.972032 80.659492 
L 386.129141 84.478619 
L 386.286251 78.223153 
L 386.44336 97.187092 
L 386.600469 90.40485 
L 386.757579 94.355671 
L 386.914688 106.339827 
L 387.071797 90.668238 
L 387.228907 91.129167 
L 387.543125 69.070419 
L 387.857344 89.351298 
L 388.014453 93.565507 
L 388.328672 73.021239 
L 388.485781 73.284627 
L 388.642891 72.362769 
L 388.8 73.548015 
L 388.957109 90.734085 
L 388.957109 90.734085 
" style="fill:none;stroke:#1f77b4;stroke-linecap:square;stroke-width:1.5;"/>
   </g>
   <g id="patch_3">
    <path d="M 54 252 
L 54 34.56 
" style="fill:none;stroke:#000000;stroke-linecap:square;stroke-linejoin:miter;stroke-width:0.8;"/>
   </g>
   <g id="patch_4">
    <path d="M 388.8 252 
L 388.8 34.56 
" style="fill:none;stroke:#000000;stroke-linecap:square;stroke-linejoin:miter;stroke-width:0.8;"/>
   </g>
   <g id="patch_5">
    <path d="M 54 252 
L 388.8 252 
" style="fill:none;stroke:#000000;stroke-linecap:square;stroke-linejoin:miter;stroke-width:0.8;"/>
   </g>
   <g id="patch_6">
    <path d="M 54 34.56 
L 388.8 34.56 
" style="fill:none;stroke:#000000;stroke-linecap:square;stroke-linejoin:miter;stroke-width:0.8;"/>
   </g>
   <g id="text_19">
    <!-- PID 186840, 2251 -->
    <defs>
     <path d="M 9.8125 72.90625 
L 19.671875 72.90625 
L 19.671875 0 
L 9.8125 0 
z
" id="DejaVuSans-73"/>
     <path d="M 19.671875 64.796875 
L 19.671875 8.109375 
L 31.59375 8.109375 
Q 46.6875 8.109375 53.6875 14.9375 
Q 60.6875 21.78125 60.6875 36.53125 
Q 60.6875 51.171875 53.6875 57.984375 
Q 46.6875 64.796875 31.59375 64.796875 
z
M 9.8125 72.90625 
L 30.078125 72.90625 
Q 51.265625 72.90625 61.171875 64.09375 
Q 71.09375 55.28125 71.09375 36.53125 
Q 71.09375 17.671875 61.125 8.828125 
Q 51.171875 0 30.078125 0 
L 9.8125 0 
z
" id="DejaVuSans-68"/>
     <path d="M 31.78125 34.625 
Q 24.75 34.625 20.71875 30.859375 
Q 16.703125 27.09375 16.703125 20.515625 
Q 16.703125 13.921875 20.71875 10.15625 
Q 24.75 6.390625 31.78125 6.390625 
Q 38.8125 6.390625 42.859375 10.171875 
Q 46.921875 13.96875 46.921875 20.515625 
Q 46.921875 27.09375 42.890625 30.859375 
Q 38.875 34.625 31.78125 34.625 
z
M 21.921875 38.8125 
Q 15.578125 40.375 12.03125 44.71875 
Q 8.5 49.078125 8.5 55.328125 
Q 8.5 64.0625 14.71875 69.140625 
Q 20.953125 74.21875 31.78125 74.21875 
Q 42.671875 74.21875 48.875 69.140625 
Q 55.078125 64.0625 55.078125 55.328125 
Q 55.078125 49.078125 51.53125 44.71875 
Q 48 40.375 41.703125 38.8125 
Q 48.828125 37.15625 52.796875 32.3125 
Q 56.78125 27.484375 56.78125 20.515625 
Q 56.78125 9.90625 50.3125 4.234375 
Q 43.84375 -1.421875 31.78125 -1.421875 
Q 19.734375 -1.421875 13.25 4.234375 
Q 6.78125 9.90625 6.78125 20.515625 
Q 6.78125 27.484375 10.78125 32.3125 
Q 14.796875 37.15625 21.921875 38.8125 
z
M 18.3125 54.390625 
Q 18.3125 48.734375 21.84375 45.5625 
Q 25.390625 42.390625 31.78125 42.390625 
Q 38.140625 42.390625 41.71875 45.5625 
Q 45.3125 48.734375 45.3125 54.390625 
Q 45.3125 60.0625 41.71875 63.234375 
Q 38.140625 66.40625 31.78125 66.40625 
Q 25.390625 66.40625 21.84375 63.234375 
Q 18.3125 60.0625 18.3125 54.390625 
z
" id="DejaVuSans-56"/>
     <path d="M 33.015625 40.375 
Q 26.375 40.375 22.484375 35.828125 
Q 18.609375 31.296875 18.609375 23.390625 
Q 18.609375 15.53125 22.484375 10.953125 
Q 26.375 6.390625 33.015625 6.390625 
Q 39.65625 6.390625 43.53125 10.953125 
Q 47.40625 15.53125 47.40625 23.390625 
Q 47.40625 31.296875 43.53125 35.828125 
Q 39.65625 40.375 33.015625 40.375 
z
M 52.59375 71.296875 
L 52.59375 62.3125 
Q 48.875 64.0625 45.09375 64.984375 
Q 41.3125 65.921875 37.59375 65.921875 
Q 27.828125 65.921875 22.671875 59.328125 
Q 17.53125 52.734375 16.796875 39.40625 
Q 19.671875 43.65625 24.015625 45.921875 
Q 28.375 48.1875 33.59375 48.1875 
Q 44.578125 48.1875 50.953125 41.515625 
Q 57.328125 34.859375 57.328125 23.390625 
Q 57.328125 12.15625 50.6875 5.359375 
Q 44.046875 -1.421875 33.015625 -1.421875 
Q 20.359375 -1.421875 13.671875 8.265625 
Q 6.984375 17.96875 6.984375 36.375 
Q 6.984375 53.65625 15.1875 63.9375 
Q 23.390625 74.21875 37.203125 74.21875 
Q 40.921875 74.21875 44.703125 73.484375 
Q 48.484375 72.75 52.59375 71.296875 
z
" id="DejaVuSans-54"/>
     <path d="M 37.796875 64.3125 
L 12.890625 25.390625 
L 37.796875 25.390625 
z
M 35.203125 72.90625 
L 47.609375 72.90625 
L 47.609375 25.390625 
L 58.015625 25.390625 
L 58.015625 17.1875 
L 47.609375 17.1875 
L 47.609375 0 
L 37.796875 0 
L 37.796875 17.1875 
L 4.890625 17.1875 
L 4.890625 26.703125 
z
" id="DejaVuSans-52"/>
     <path d="M 11.71875 12.40625 
L 22.015625 12.40625 
L 22.015625 4 
L 14.015625 -11.625 
L 7.71875 -11.625 
L 11.71875 4 
z
" id="DejaVuSans-44"/>
    </defs>
    <g transform="translate(167.496563 28.56)scale(0.12 -0.12)">
     <use xlink:href="#DejaVuSans-80"/>
     <use x="60.302734" xlink:href="#DejaVuSans-73"/>
     <use x="89.794922" xlink:href="#DejaVuSans-68"/>
     <use x="166.796875" xlink:href="#DejaVuSans-32"/>
     <use x="198.583984" xlink:href="#DejaVuSans-49"/>
     <use x="262.207031" xlink:href="#DejaVuSans-56"/>
     <use x="325.830078" xlink:href="#DejaVuSans-54"/>
     <use x="389.453125" xlink:href="#DejaVuSans-56"/>
     <use x="453.076172" xlink:href="#DejaVuSans-52"/>
     <use x="516.699219" xlink:href="#DejaVuSans-48"/>
     <use x="580.322266" xlink:href="#DejaVuSans-44"/>
     <use x="612.109375" xlink:href="#DejaVuSans-32"/>
     <use x="643.896484" xlink:href="#DejaVuSans-50"/>
     <use x="707.519531" xlink:href="#DejaVuSans-50"/>
     <use x="771.142578" xlink:href="#DejaVuSans-53"/>
     <use x="834.765625" xlink:href="#DejaVuSans-49"/>
    </g>
   </g>
   <g id="legend_1">
    <g id="patch_7">
     <path d="M 319.967188 57.238125 
L 381.8 57.238125 
Q 383.8 57.238125 383.8 55.238125 
L 383.8 41.56 
Q 383.8 39.56 381.8 39.56 
L 319.967188 39.56 
Q 317.967188 39.56 317.967188 41.56 
L 317.967188 55.238125 
Q 317.967188 57.238125 319.967188 57.238125 
z
" style="fill:#ffffff;opacity:0.8;stroke:#cccccc;stroke-linejoin:miter;"/>
    </g>
    <g id="line2d_18">
     <path d="M 321.967188 47.658437 
L 341.967188 47.658437 
" style="fill:none;stroke:#1f77b4;stroke-linecap:square;stroke-width:1.5;"/>
    </g>
    <g id="line2d_19"/>
    <g id="text_20">
     <!-- %CPU -->
     <g transform="translate(349.967188 51.158437)scale(0.1 -0.1)">
      <use xlink:href="#DejaVuSans-37"/>
      <use x="95.019531" xlink:href="#DejaVuSans-67"/>
      <use x="164.84375" xlink:href="#DejaVuSans-80"/>
      <use x="225.146484" xlink:href="#DejaVuSans-85"/>
     </g>
    </g>
   </g>
  </g>
 </g>
 <defs>
  <clipPath id="pf86a0baa87">
   <rect height="217.44" width="334.8" x="54" y="34.56"/>
  </clipPath>
 </defs>
</svg>
