<?xml version="1.0" encoding="utf-8" standalone="no"?>
<!DOCTYPE svg PUBLIC "-//W3C//DTD SVG 1.1//EN"
  "http://www.w3.org/Graphics/SVG/1.1/DTD/svg11.dtd">
<!-- Created with matplotlib (https://matplotlib.org/) -->
<svg height="288pt" version="1.1" viewBox="0 0 432 288" width="432pt" xmlns="http://www.w3.org/2000/svg" xmlns:xlink="http://www.w3.org/1999/xlink">
 <defs>
  <style type="text/css">
*{stroke-linecap:butt;stroke-linejoin:round;}
  </style>
 </defs>
 <g id="figure_1">
  <g id="patch_1">
   <path d="M 0 288 
L 432 288 
L 432 0 
L 0 0 
z
" style="fill:#ffffff;"/>
  </g>
  <g id="axes_1">
   <g id="patch_2">
    <path d="M 54 252 
L 388.8 252 
L 388.8 34.56 
L 54 34.56 
z
" style="fill:#ffffff;"/>
   </g>
   <g id="matplotlib.axis_1">
    <g id="xtick_1">
     <g id="line2d_1">
      <defs>
       <path d="M 0 0 
L 0 3.5 
" id="m537d15fa87" style="stroke:#000000;stroke-width:0.8;"/>
      </defs>
      <g>
       <use style="stroke:#000000;stroke-width:0.8;" x="54" xlink:href="#m537d15fa87" y="252"/>
      </g>
     </g>
     <g id="text_1">
      <!-- 0 -->
      <defs>
       <path d="M 31.78125 66.40625 
Q 24.171875 66.40625 20.328125 58.90625 
Q 16.5 51.421875 16.5 36.375 
Q 16.5 21.390625 20.328125 13.890625 
Q 24.171875 6.390625 31.78125 6.390625 
Q 39.453125 6.390625 43.28125 13.890625 
Q 47.125 21.390625 47.125 36.375 
Q 47.125 51.421875 43.28125 58.90625 
Q 39.453125 66.40625 31.78125 66.40625 
z
M 31.78125 74.21875 
Q 44.046875 74.21875 50.515625 64.515625 
Q 56.984375 54.828125 56.984375 36.375 
Q 56.984375 17.96875 50.515625 8.265625 
Q 44.046875 -1.421875 31.78125 -1.421875 
Q 19.53125 -1.421875 13.0625 8.265625 
Q 6.59375 17.96875 6.59375 36.375 
Q 6.59375 54.828125 13.0625 64.515625 
Q 19.53125 74.21875 31.78125 74.21875 
z
" id="DejaVuSans-48"/>
      </defs>
      <g transform="translate(50.81875 266.598437)scale(0.1 -0.1)">
       <use xlink:href="#DejaVuSans-48"/>
      </g>
     </g>
    </g>
    <g id="xtick_2">
     <g id="line2d_2">
      <g>
       <use style="stroke:#000000;stroke-width:0.8;" x="93.277335" xlink:href="#m537d15fa87" y="252"/>
      </g>
     </g>
     <g id="text_2">
      <!-- 250 -->
      <defs>
       <path d="M 19.1875 8.296875 
L 53.609375 8.296875 
L 53.609375 0 
L 7.328125 0 
L 7.328125 8.296875 
Q 12.9375 14.109375 22.625 23.890625 
Q 32.328125 33.6875 34.8125 36.53125 
Q 39.546875 41.84375 41.421875 45.53125 
Q 43.3125 49.21875 43.3125 52.78125 
Q 43.3125 58.59375 39.234375 62.25 
Q 35.15625 65.921875 28.609375 65.921875 
Q 23.96875 65.921875 18.8125 64.3125 
Q 13.671875 62.703125 7.8125 59.421875 
L 7.8125 69.390625 
Q 13.765625 71.78125 18.9375 73 
Q 24.125 74.21875 28.421875 74.21875 
Q 39.75 74.21875 46.484375 68.546875 
Q 53.21875 62.890625 53.21875 53.421875 
Q 53.21875 48.921875 51.53125 44.890625 
Q 49.859375 40.875 45.40625 35.40625 
Q 44.1875 33.984375 37.640625 27.21875 
Q 31.109375 20.453125 19.1875 8.296875 
z
" id="DejaVuSans-50"/>
       <path d="M 10.796875 72.90625 
L 49.515625 72.90625 
L 49.515625 64.59375 
L 19.828125 64.59375 
L 19.828125 46.734375 
Q 21.96875 47.46875 24.109375 47.828125 
Q 26.265625 48.1875 28.421875 48.1875 
Q 40.625 48.1875 47.75 41.5 
Q 54.890625 34.8125 54.890625 23.390625 
Q 54.890625 11.625 47.5625 5.09375 
Q 40.234375 -1.421875 26.90625 -1.421875 
Q 22.3125 -1.421875 17.546875 -0.640625 
Q 12.796875 0.140625 7.71875 1.703125 
L 7.71875 11.625 
Q 12.109375 9.234375 16.796875 8.0625 
Q 21.484375 6.890625 26.703125 6.890625 
Q 35.15625 6.890625 40.078125 11.328125 
Q 45.015625 15.765625 45.015625 23.390625 
Q 45.015625 31 40.078125 35.4375 
Q 35.15625 39.890625 26.703125 39.890625 
Q 22.75 39.890625 18.8125 39.015625 
Q 14.890625 38.140625 10.796875 36.28125 
z
" id="DejaVuSans-53"/>
      </defs>
      <g transform="translate(83.733585 266.598437)scale(0.1 -0.1)">
       <use xlink:href="#DejaVuSans-50"/>
       <use x="63.623047" xlink:href="#DejaVuSans-53"/>
       <use x="127.246094" xlink:href="#DejaVuSans-48"/>
      </g>
     </g>
    </g>
    <g id="xtick_3">
     <g id="line2d_3">
      <g>
       <use style="stroke:#000000;stroke-width:0.8;" x="132.554669" xlink:href="#m537d15fa87" y="252"/>
      </g>
     </g>
     <g id="text_3">
      <!-- 500 -->
      <g transform="translate(123.010919 266.598437)scale(0.1 -0.1)">
       <use xlink:href="#DejaVuSans-53"/>
       <use x="63.623047" xlink:href="#DejaVuSans-48"/>
       <use x="127.246094" xlink:href="#DejaVuSans-48"/>
      </g>
     </g>
    </g>
    <g id="xtick_4">
     <g id="line2d_4">
      <g>
       <use style="stroke:#000000;stroke-width:0.8;" x="171.832004" xlink:href="#m537d15fa87" y="252"/>
      </g>
     </g>
     <g id="text_4">
      <!-- 750 -->
      <defs>
       <path d="M 8.203125 72.90625 
L 55.078125 72.90625 
L 55.078125 68.703125 
L 28.609375 0 
L 18.3125 0 
L 43.21875 64.59375 
L 8.203125 64.59375 
z
" id="DejaVuSans-55"/>
      </defs>
      <g transform="translate(162.288254 266.598437)scale(0.1 -0.1)">
       <use xlink:href="#DejaVuSans-55"/>
       <use x="63.623047" xlink:href="#DejaVuSans-53"/>
       <use x="127.246094" xlink:href="#DejaVuSans-48"/>
      </g>
     </g>
    </g>
    <g id="xtick_5">
     <g id="line2d_5">
      <g>
       <use style="stroke:#000000;stroke-width:0.8;" x="211.109338" xlink:href="#m537d15fa87" y="252"/>
      </g>
     </g>
     <g id="text_5">
      <!-- 1000 -->
      <defs>
       <path d="M 12.40625 8.296875 
L 28.515625 8.296875 
L 28.515625 63.921875 
L 10.984375 60.40625 
L 10.984375 69.390625 
L 28.421875 72.90625 
L 38.28125 72.90625 
L 38.28125 8.296875 
L 54.390625 8.296875 
L 54.390625 0 
L 12.40625 0 
z
" id="DejaVuSans-49"/>
      </defs>
      <g transform="translate(198.384338 266.598437)scale(0.1 -0.1)">
       <use xlink:href="#DejaVuSans-49"/>
       <use x="63.623047" xlink:href="#DejaVuSans-48"/>
       <use x="127.246094" xlink:href="#DejaVuSans-48"/>
       <use x="190.869141" xlink:href="#DejaVuSans-48"/>
      </g>
     </g>
    </g>
    <g id="xtick_6">
     <g id="line2d_6">
      <g>
       <use style="stroke:#000000;stroke-width:0.8;" x="250.386673" xlink:href="#m537d15fa87" y="252"/>
      </g>
     </g>
     <g id="text_6">
      <!-- 1250 -->
      <g transform="translate(237.661673 266.598437)scale(0.1 -0.1)">
       <use xlink:href="#DejaVuSans-49"/>
       <use x="63.623047" xlink:href="#DejaVuSans-50"/>
       <use x="127.246094" xlink:href="#DejaVuSans-53"/>
       <use x="190.869141" xlink:href="#DejaVuSans-48"/>
      </g>
     </g>
    </g>
    <g id="xtick_7">
     <g id="line2d_7">
      <g>
       <use style="stroke:#000000;stroke-width:0.8;" x="289.664008" xlink:href="#m537d15fa87" y="252"/>
      </g>
     </g>
     <g id="text_7">
      <!-- 1500 -->
      <g transform="translate(276.939008 266.598437)scale(0.1 -0.1)">
       <use xlink:href="#DejaVuSans-49"/>
       <use x="63.623047" xlink:href="#DejaVuSans-53"/>
       <use x="127.246094" xlink:href="#DejaVuSans-48"/>
       <use x="190.869141" xlink:href="#DejaVuSans-48"/>
      </g>
     </g>
    </g>
    <g id="xtick_8">
     <g id="line2d_8">
      <g>
       <use style="stroke:#000000;stroke-width:0.8;" x="328.941342" xlink:href="#m537d15fa87" y="252"/>
      </g>
     </g>
     <g id="text_8">
      <!-- 1750 -->
      <g transform="translate(316.216342 266.598437)scale(0.1 -0.1)">
       <use xlink:href="#DejaVuSans-49"/>
       <use x="63.623047" xlink:href="#DejaVuSans-55"/>
       <use x="127.246094" xlink:href="#DejaVuSans-53"/>
       <use x="190.869141" xlink:href="#DejaVuSans-48"/>
      </g>
     </g>
    </g>
    <g id="xtick_9">
     <g id="line2d_9">
      <g>
       <use style="stroke:#000000;stroke-width:0.8;" x="368.218677" xlink:href="#m537d15fa87" y="252"/>
      </g>
     </g>
     <g id="text_9">
      <!-- 2000 -->
      <g transform="translate(355.493677 266.598437)scale(0.1 -0.1)">
       <use xlink:href="#DejaVuSans-50"/>
       <use x="63.623047" xlink:href="#DejaVuSans-48"/>
       <use x="127.246094" xlink:href="#DejaVuSans-48"/>
       <use x="190.869141" xlink:href="#DejaVuSans-48"/>
      </g>
     </g>
    </g>
    <g id="text_10">
     <!-- time [arbitrary units] -->
     <defs>
      <path d="M 18.3125 70.21875 
L 18.3125 54.6875 
L 36.8125 54.6875 
L 36.8125 47.703125 
L 18.3125 47.703125 
L 18.3125 18.015625 
Q 18.3125 11.328125 20.140625 9.421875 
Q 21.96875 7.515625 27.59375 7.515625 
L 36.8125 7.515625 
L 36.8125 0 
L 27.59375 0 
Q 17.1875 0 13.234375 3.875 
Q 9.28125 7.765625 9.28125 18.015625 
L 9.28125 47.703125 
L 2.6875 47.703125 
L 2.6875 54.6875 
L 9.28125 54.6875 
L 9.28125 70.21875 
z
" id="DejaVuSans-116"/>
      <path d="M 9.421875 54.6875 
L 18.40625 54.6875 
L 18.40625 0 
L 9.421875 0 
z
M 9.421875 75.984375 
L 18.40625 75.984375 
L 18.40625 64.59375 
L 9.421875 64.59375 
z
" id="DejaVuSans-105"/>
      <path d="M 52 44.1875 
Q 55.375 50.25 60.0625 53.125 
Q 64.75 56 71.09375 56 
Q 79.640625 56 84.28125 50.015625 
Q 88.921875 44.046875 88.921875 33.015625 
L 88.921875 0 
L 79.890625 0 
L 79.890625 32.71875 
Q 79.890625 40.578125 77.09375 44.375 
Q 74.3125 48.1875 68.609375 48.1875 
Q 61.625 48.1875 57.5625 43.546875 
Q 53.515625 38.921875 53.515625 30.90625 
L 53.515625 0 
L 44.484375 0 
L 44.484375 32.71875 
Q 44.484375 40.625 41.703125 44.40625 
Q 38.921875 48.1875 33.109375 48.1875 
Q 26.21875 48.1875 22.15625 43.53125 
Q 18.109375 38.875 18.109375 30.90625 
L 18.109375 0 
L 9.078125 0 
L 9.078125 54.6875 
L 18.109375 54.6875 
L 18.109375 46.1875 
Q 21.1875 51.21875 25.484375 53.609375 
Q 29.78125 56 35.6875 56 
Q 41.65625 56 45.828125 52.96875 
Q 50 49.953125 52 44.1875 
z
" id="DejaVuSans-109"/>
      <path d="M 56.203125 29.59375 
L 56.203125 25.203125 
L 14.890625 25.203125 
Q 15.484375 15.921875 20.484375 11.0625 
Q 25.484375 6.203125 34.421875 6.203125 
Q 39.59375 6.203125 44.453125 7.46875 
Q 49.3125 8.734375 54.109375 11.28125 
L 54.109375 2.78125 
Q 49.265625 0.734375 44.1875 -0.34375 
Q 39.109375 -1.421875 33.890625 -1.421875 
Q 20.796875 -1.421875 13.15625 6.1875 
Q 5.515625 13.8125 5.515625 26.8125 
Q 5.515625 40.234375 12.765625 48.109375 
Q 20.015625 56 32.328125 56 
Q 43.359375 56 49.78125 48.890625 
Q 56.203125 41.796875 56.203125 29.59375 
z
M 47.21875 32.234375 
Q 47.125 39.59375 43.09375 43.984375 
Q 39.0625 48.390625 32.421875 48.390625 
Q 24.90625 48.390625 20.390625 44.140625 
Q 15.875 39.890625 15.1875 32.171875 
z
" id="DejaVuSans-101"/>
      <path id="DejaVuSans-32"/>
      <path d="M 8.59375 75.984375 
L 29.296875 75.984375 
L 29.296875 69 
L 17.578125 69 
L 17.578125 -6.203125 
L 29.296875 -6.203125 
L 29.296875 -13.1875 
L 8.59375 -13.1875 
z
" id="DejaVuSans-91"/>
      <path d="M 34.28125 27.484375 
Q 23.390625 27.484375 19.1875 25 
Q 14.984375 22.515625 14.984375 16.5 
Q 14.984375 11.71875 18.140625 8.90625 
Q 21.296875 6.109375 26.703125 6.109375 
Q 34.1875 6.109375 38.703125 11.40625 
Q 43.21875 16.703125 43.21875 25.484375 
L 43.21875 27.484375 
z
M 52.203125 31.203125 
L 52.203125 0 
L 43.21875 0 
L 43.21875 8.296875 
Q 40.140625 3.328125 35.546875 0.953125 
Q 30.953125 -1.421875 24.3125 -1.421875 
Q 15.921875 -1.421875 10.953125 3.296875 
Q 6 8.015625 6 15.921875 
Q 6 25.140625 12.171875 29.828125 
Q 18.359375 34.515625 30.609375 34.515625 
L 43.21875 34.515625 
L 43.21875 35.40625 
Q 43.21875 41.609375 39.140625 45 
Q 35.0625 48.390625 27.6875 48.390625 
Q 23 48.390625 18.546875 47.265625 
Q 14.109375 46.140625 10.015625 43.890625 
L 10.015625 52.203125 
Q 14.9375 54.109375 19.578125 55.046875 
Q 24.21875 56 28.609375 56 
Q 40.484375 56 46.34375 49.84375 
Q 52.203125 43.703125 52.203125 31.203125 
z
" id="DejaVuSans-97"/>
      <path d="M 41.109375 46.296875 
Q 39.59375 47.171875 37.8125 47.578125 
Q 36.03125 48 33.890625 48 
Q 26.265625 48 22.1875 43.046875 
Q 18.109375 38.09375 18.109375 28.8125 
L 18.109375 0 
L 9.078125 0 
L 9.078125 54.6875 
L 18.109375 54.6875 
L 18.109375 46.1875 
Q 20.953125 51.171875 25.484375 53.578125 
Q 30.03125 56 36.53125 56 
Q 37.453125 56 38.578125 55.875 
Q 39.703125 55.765625 41.0625 55.515625 
z
" id="DejaVuSans-114"/>
      <path d="M 48.6875 27.296875 
Q 48.6875 37.203125 44.609375 42.84375 
Q 40.53125 48.484375 33.40625 48.484375 
Q 26.265625 48.484375 22.1875 42.84375 
Q 18.109375 37.203125 18.109375 27.296875 
Q 18.109375 17.390625 22.1875 11.75 
Q 26.265625 6.109375 33.40625 6.109375 
Q 40.53125 6.109375 44.609375 11.75 
Q 48.6875 17.390625 48.6875 27.296875 
z
M 18.109375 46.390625 
Q 20.953125 51.265625 25.265625 53.625 
Q 29.59375 56 35.59375 56 
Q 45.5625 56 51.78125 48.09375 
Q 58.015625 40.1875 58.015625 27.296875 
Q 58.015625 14.40625 51.78125 6.484375 
Q 45.5625 -1.421875 35.59375 -1.421875 
Q 29.59375 -1.421875 25.265625 0.953125 
Q 20.953125 3.328125 18.109375 8.203125 
L 18.109375 0 
L 9.078125 0 
L 9.078125 75.984375 
L 18.109375 75.984375 
z
" id="DejaVuSans-98"/>
      <path d="M 32.171875 -5.078125 
Q 28.375 -14.84375 24.75 -17.8125 
Q 21.140625 -20.796875 15.09375 -20.796875 
L 7.90625 -20.796875 
L 7.90625 -13.28125 
L 13.1875 -13.28125 
Q 16.890625 -13.28125 18.9375 -11.515625 
Q 21 -9.765625 23.484375 -3.21875 
L 25.09375 0.875 
L 2.984375 54.6875 
L 12.5 54.6875 
L 29.59375 11.921875 
L 46.6875 54.6875 
L 56.203125 54.6875 
z
" id="DejaVuSans-121"/>
      <path d="M 8.5 21.578125 
L 8.5 54.6875 
L 17.484375 54.6875 
L 17.484375 21.921875 
Q 17.484375 14.15625 20.5 10.265625 
Q 23.53125 6.390625 29.59375 6.390625 
Q 36.859375 6.390625 41.078125 11.03125 
Q 45.3125 15.671875 45.3125 23.6875 
L 45.3125 54.6875 
L 54.296875 54.6875 
L 54.296875 0 
L 45.3125 0 
L 45.3125 8.40625 
Q 42.046875 3.421875 37.71875 1 
Q 33.40625 -1.421875 27.6875 -1.421875 
Q 18.265625 -1.421875 13.375 4.4375 
Q 8.5 10.296875 8.5 21.578125 
z
M 31.109375 56 
z
" id="DejaVuSans-117"/>
      <path d="M 54.890625 33.015625 
L 54.890625 0 
L 45.90625 0 
L 45.90625 32.71875 
Q 45.90625 40.484375 42.875 44.328125 
Q 39.84375 48.1875 33.796875 48.1875 
Q 26.515625 48.1875 22.3125 43.546875 
Q 18.109375 38.921875 18.109375 30.90625 
L 18.109375 0 
L 9.078125 0 
L 9.078125 54.6875 
L 18.109375 54.6875 
L 18.109375 46.1875 
Q 21.34375 51.125 25.703125 53.5625 
Q 30.078125 56 35.796875 56 
Q 45.21875 56 50.046875 50.171875 
Q 54.890625 44.34375 54.890625 33.015625 
z
" id="DejaVuSans-110"/>
      <path d="M 44.28125 53.078125 
L 44.28125 44.578125 
Q 40.484375 46.53125 36.375 47.5 
Q 32.28125 48.484375 27.875 48.484375 
Q 21.1875 48.484375 17.84375 46.4375 
Q 14.5 44.390625 14.5 40.28125 
Q 14.5 37.15625 16.890625 35.375 
Q 19.28125 33.59375 26.515625 31.984375 
L 29.59375 31.296875 
Q 39.15625 29.25 43.1875 25.515625 
Q 47.21875 21.78125 47.21875 15.09375 
Q 47.21875 7.46875 41.1875 3.015625 
Q 35.15625 -1.421875 24.609375 -1.421875 
Q 20.21875 -1.421875 15.453125 -0.5625 
Q 10.6875 0.296875 5.421875 2 
L 5.421875 11.28125 
Q 10.40625 8.6875 15.234375 7.390625 
Q 20.0625 6.109375 24.8125 6.109375 
Q 31.15625 6.109375 34.5625 8.28125 
Q 37.984375 10.453125 37.984375 14.40625 
Q 37.984375 18.0625 35.515625 20.015625 
Q 33.0625 21.96875 24.703125 23.78125 
L 21.578125 24.515625 
Q 13.234375 26.265625 9.515625 29.90625 
Q 5.8125 33.546875 5.8125 39.890625 
Q 5.8125 47.609375 11.28125 51.796875 
Q 16.75 56 26.8125 56 
Q 31.78125 56 36.171875 55.265625 
Q 40.578125 54.546875 44.28125 53.078125 
z
" id="DejaVuSans-115"/>
      <path d="M 30.421875 75.984375 
L 30.421875 -13.1875 
L 9.71875 -13.1875 
L 9.71875 -6.203125 
L 21.390625 -6.203125 
L 21.390625 69 
L 9.71875 69 
L 9.71875 75.984375 
z
" id="DejaVuSans-93"/>
     </defs>
     <g transform="translate(168.955469 280.276563)scale(0.1 -0.1)">
      <use xlink:href="#DejaVuSans-116"/>
      <use x="39.208984" xlink:href="#DejaVuSans-105"/>
      <use x="66.992188" xlink:href="#DejaVuSans-109"/>
      <use x="164.404297" xlink:href="#DejaVuSans-101"/>
      <use x="225.927734" xlink:href="#DejaVuSans-32"/>
      <use x="257.714844" xlink:href="#DejaVuSans-91"/>
      <use x="296.728516" xlink:href="#DejaVuSans-97"/>
      <use x="358.007812" xlink:href="#DejaVuSans-114"/>
      <use x="399.121094" xlink:href="#DejaVuSans-98"/>
      <use x="462.597656" xlink:href="#DejaVuSans-105"/>
      <use x="490.380859" xlink:href="#DejaVuSans-116"/>
      <use x="529.589844" xlink:href="#DejaVuSans-114"/>
      <use x="570.703125" xlink:href="#DejaVuSans-97"/>
      <use x="631.982422" xlink:href="#DejaVuSans-114"/>
      <use x="673.095703" xlink:href="#DejaVuSans-121"/>
      <use x="732.275391" xlink:href="#DejaVuSans-32"/>
      <use x="764.0625" xlink:href="#DejaVuSans-117"/>
      <use x="827.441406" xlink:href="#DejaVuSans-110"/>
      <use x="890.820312" xlink:href="#DejaVuSans-105"/>
      <use x="918.603516" xlink:href="#DejaVuSans-116"/>
      <use x="957.8125" xlink:href="#DejaVuSans-115"/>
      <use x="1009.912109" xlink:href="#DejaVuSans-93"/>
     </g>
    </g>
   </g>
   <g id="matplotlib.axis_2">
    <g id="ytick_1">
     <g id="line2d_10">
      <defs>
       <path d="M 0 0 
L -3.5 0 
" id="m1c47e57d4e" style="stroke:#000000;stroke-width:0.8;"/>
      </defs>
      <g>
       <use style="stroke:#000000;stroke-width:0.8;" x="54" xlink:href="#m1c47e57d4e" y="252"/>
      </g>
     </g>
     <g id="text_11">
      <!-- 36.00 -->
      <defs>
       <path d="M 40.578125 39.3125 
Q 47.65625 37.796875 51.625 33 
Q 55.609375 28.21875 55.609375 21.1875 
Q 55.609375 10.40625 48.1875 4.484375 
Q 40.765625 -1.421875 27.09375 -1.421875 
Q 22.515625 -1.421875 17.65625 -0.515625 
Q 12.796875 0.390625 7.625 2.203125 
L 7.625 11.71875 
Q 11.71875 9.328125 16.59375 8.109375 
Q 21.484375 6.890625 26.8125 6.890625 
Q 36.078125 6.890625 40.9375 10.546875 
Q 45.796875 14.203125 45.796875 21.1875 
Q 45.796875 27.640625 41.28125 31.265625 
Q 36.765625 34.90625 28.71875 34.90625 
L 20.21875 34.90625 
L 20.21875 43.015625 
L 29.109375 43.015625 
Q 36.375 43.015625 40.234375 45.921875 
Q 44.09375 48.828125 44.09375 54.296875 
Q 44.09375 59.90625 40.109375 62.90625 
Q 36.140625 65.921875 28.71875 65.921875 
Q 24.65625 65.921875 20.015625 65.03125 
Q 15.375 64.15625 9.8125 62.3125 
L 9.8125 71.09375 
Q 15.4375 72.65625 20.34375 73.4375 
Q 25.25 74.21875 29.59375 74.21875 
Q 40.828125 74.21875 47.359375 69.109375 
Q 53.90625 64.015625 53.90625 55.328125 
Q 53.90625 49.265625 50.4375 45.09375 
Q 46.96875 40.921875 40.578125 39.3125 
z
" id="DejaVuSans-51"/>
       <path d="M 33.015625 40.375 
Q 26.375 40.375 22.484375 35.828125 
Q 18.609375 31.296875 18.609375 23.390625 
Q 18.609375 15.53125 22.484375 10.953125 
Q 26.375 6.390625 33.015625 6.390625 
Q 39.65625 6.390625 43.53125 10.953125 
Q 47.40625 15.53125 47.40625 23.390625 
Q 47.40625 31.296875 43.53125 35.828125 
Q 39.65625 40.375 33.015625 40.375 
z
M 52.59375 71.296875 
L 52.59375 62.3125 
Q 48.875 64.0625 45.09375 64.984375 
Q 41.3125 65.921875 37.59375 65.921875 
Q 27.828125 65.921875 22.671875 59.328125 
Q 17.53125 52.734375 16.796875 39.40625 
Q 19.671875 43.65625 24.015625 45.921875 
Q 28.375 48.1875 33.59375 48.1875 
Q 44.578125 48.1875 50.953125 41.515625 
Q 57.328125 34.859375 57.328125 23.390625 
Q 57.328125 12.15625 50.6875 5.359375 
Q 44.046875 -1.421875 33.015625 -1.421875 
Q 20.359375 -1.421875 13.671875 8.265625 
Q 6.984375 17.96875 6.984375 36.375 
Q 6.984375 53.65625 15.1875 63.9375 
Q 23.390625 74.21875 37.203125 74.21875 
Q 40.921875 74.21875 44.703125 73.484375 
Q 48.484375 72.75 52.59375 71.296875 
z
" id="DejaVuSans-54"/>
       <path d="M 10.6875 12.40625 
L 21 12.40625 
L 21 0 
L 10.6875 0 
z
" id="DejaVuSans-46"/>
      </defs>
      <g transform="translate(18.371875 255.799219)scale(0.1 -0.1)">
       <use xlink:href="#DejaVuSans-51"/>
       <use x="63.623047" xlink:href="#DejaVuSans-54"/>
       <use x="127.246094" xlink:href="#DejaVuSans-46"/>
       <use x="159.033203" xlink:href="#DejaVuSans-48"/>
       <use x="222.65625" xlink:href="#DejaVuSans-48"/>
      </g>
     </g>
    </g>
    <g id="ytick_2">
     <g id="line2d_11">
      <g>
       <use style="stroke:#000000;stroke-width:0.8;" x="54" xlink:href="#m1c47e57d4e" y="224.82"/>
      </g>
     </g>
     <g id="text_12">
      <!-- 36.25 -->
      <g transform="translate(18.371875 228.619219)scale(0.1 -0.1)">
       <use xlink:href="#DejaVuSans-51"/>
       <use x="63.623047" xlink:href="#DejaVuSans-54"/>
       <use x="127.246094" xlink:href="#DejaVuSans-46"/>
       <use x="159.033203" xlink:href="#DejaVuSans-50"/>
       <use x="222.65625" xlink:href="#DejaVuSans-53"/>
      </g>
     </g>
    </g>
    <g id="ytick_3">
     <g id="line2d_12">
      <g>
       <use style="stroke:#000000;stroke-width:0.8;" x="54" xlink:href="#m1c47e57d4e" y="197.64"/>
      </g>
     </g>
     <g id="text_13">
      <!-- 36.50 -->
      <g transform="translate(18.371875 201.439219)scale(0.1 -0.1)">
       <use xlink:href="#DejaVuSans-51"/>
       <use x="63.623047" xlink:href="#DejaVuSans-54"/>
       <use x="127.246094" xlink:href="#DejaVuSans-46"/>
       <use x="159.033203" xlink:href="#DejaVuSans-53"/>
       <use x="222.65625" xlink:href="#DejaVuSans-48"/>
      </g>
     </g>
    </g>
    <g id="ytick_4">
     <g id="line2d_13">
      <g>
       <use style="stroke:#000000;stroke-width:0.8;" x="54" xlink:href="#m1c47e57d4e" y="170.46"/>
      </g>
     </g>
     <g id="text_14">
      <!-- 36.75 -->
      <g transform="translate(18.371875 174.259219)scale(0.1 -0.1)">
       <use xlink:href="#DejaVuSans-51"/>
       <use x="63.623047" xlink:href="#DejaVuSans-54"/>
       <use x="127.246094" xlink:href="#DejaVuSans-46"/>
       <use x="159.033203" xlink:href="#DejaVuSans-55"/>
       <use x="222.65625" xlink:href="#DejaVuSans-53"/>
      </g>
     </g>
    </g>
    <g id="ytick_5">
     <g id="line2d_14">
      <g>
       <use style="stroke:#000000;stroke-width:0.8;" x="54" xlink:href="#m1c47e57d4e" y="143.28"/>
      </g>
     </g>
     <g id="text_15">
      <!-- 37.00 -->
      <g transform="translate(18.371875 147.079219)scale(0.1 -0.1)">
       <use xlink:href="#DejaVuSans-51"/>
       <use x="63.623047" xlink:href="#DejaVuSans-55"/>
       <use x="127.246094" xlink:href="#DejaVuSans-46"/>
       <use x="159.033203" xlink:href="#DejaVuSans-48"/>
       <use x="222.65625" xlink:href="#DejaVuSans-48"/>
      </g>
     </g>
    </g>
    <g id="ytick_6">
     <g id="line2d_15">
      <g>
       <use style="stroke:#000000;stroke-width:0.8;" x="54" xlink:href="#m1c47e57d4e" y="116.1"/>
      </g>
     </g>
     <g id="text_16">
      <!-- 37.25 -->
      <g transform="translate(18.371875 119.899219)scale(0.1 -0.1)">
       <use xlink:href="#DejaVuSans-51"/>
       <use x="63.623047" xlink:href="#DejaVuSans-55"/>
       <use x="127.246094" xlink:href="#DejaVuSans-46"/>
       <use x="159.033203" xlink:href="#DejaVuSans-50"/>
       <use x="222.65625" xlink:href="#DejaVuSans-53"/>
      </g>
     </g>
    </g>
    <g id="ytick_7">
     <g id="line2d_16">
      <g>
       <use style="stroke:#000000;stroke-width:0.8;" x="54" xlink:href="#m1c47e57d4e" y="88.92"/>
      </g>
     </g>
     <g id="text_17">
      <!-- 37.50 -->
      <g transform="translate(18.371875 92.719219)scale(0.1 -0.1)">
       <use xlink:href="#DejaVuSans-51"/>
       <use x="63.623047" xlink:href="#DejaVuSans-55"/>
       <use x="127.246094" xlink:href="#DejaVuSans-46"/>
       <use x="159.033203" xlink:href="#DejaVuSans-53"/>
       <use x="222.65625" xlink:href="#DejaVuSans-48"/>
      </g>
     </g>
    </g>
    <g id="ytick_8">
     <g id="line2d_17">
      <g>
       <use style="stroke:#000000;stroke-width:0.8;" x="54" xlink:href="#m1c47e57d4e" y="61.74"/>
      </g>
     </g>
     <g id="text_18">
      <!-- 37.75 -->
      <g transform="translate(18.371875 65.539219)scale(0.1 -0.1)">
       <use xlink:href="#DejaVuSans-51"/>
       <use x="63.623047" xlink:href="#DejaVuSans-55"/>
       <use x="127.246094" xlink:href="#DejaVuSans-46"/>
       <use x="159.033203" xlink:href="#DejaVuSans-55"/>
       <use x="222.65625" xlink:href="#DejaVuSans-53"/>
      </g>
     </g>
    </g>
    <g id="ytick_9">
     <g id="line2d_18">
      <g>
       <use style="stroke:#000000;stroke-width:0.8;" x="54" xlink:href="#m1c47e57d4e" y="34.56"/>
      </g>
     </g>
     <g id="text_19">
      <!-- 38.00 -->
      <defs>
       <path d="M 31.78125 34.625 
Q 24.75 34.625 20.71875 30.859375 
Q 16.703125 27.09375 16.703125 20.515625 
Q 16.703125 13.921875 20.71875 10.15625 
Q 24.75 6.390625 31.78125 6.390625 
Q 38.8125 6.390625 42.859375 10.171875 
Q 46.921875 13.96875 46.921875 20.515625 
Q 46.921875 27.09375 42.890625 30.859375 
Q 38.875 34.625 31.78125 34.625 
z
M 21.921875 38.8125 
Q 15.578125 40.375 12.03125 44.71875 
Q 8.5 49.078125 8.5 55.328125 
Q 8.5 64.0625 14.71875 69.140625 
Q 20.953125 74.21875 31.78125 74.21875 
Q 42.671875 74.21875 48.875 69.140625 
Q 55.078125 64.0625 55.078125 55.328125 
Q 55.078125 49.078125 51.53125 44.71875 
Q 48 40.375 41.703125 38.8125 
Q 48.828125 37.15625 52.796875 32.3125 
Q 56.78125 27.484375 56.78125 20.515625 
Q 56.78125 9.90625 50.3125 4.234375 
Q 43.84375 -1.421875 31.78125 -1.421875 
Q 19.734375 -1.421875 13.25 4.234375 
Q 6.78125 9.90625 6.78125 20.515625 
Q 6.78125 27.484375 10.78125 32.3125 
Q 14.796875 37.15625 21.921875 38.8125 
z
M 18.3125 54.390625 
Q 18.3125 48.734375 21.84375 45.5625 
Q 25.390625 42.390625 31.78125 42.390625 
Q 38.140625 42.390625 41.71875 45.5625 
Q 45.3125 48.734375 45.3125 54.390625 
Q 45.3125 60.0625 41.71875 63.234375 
Q 38.140625 66.40625 31.78125 66.40625 
Q 25.390625 66.40625 21.84375 63.234375 
Q 18.3125 60.0625 18.3125 54.390625 
z
" id="DejaVuSans-56"/>
      </defs>
      <g transform="translate(18.371875 38.359219)scale(0.1 -0.1)">
       <use xlink:href="#DejaVuSans-51"/>
       <use x="63.623047" xlink:href="#DejaVuSans-56"/>
       <use x="127.246094" xlink:href="#DejaVuSans-46"/>
       <use x="159.033203" xlink:href="#DejaVuSans-48"/>
       <use x="222.65625" xlink:href="#DejaVuSans-48"/>
      </g>
     </g>
    </g>
    <g id="text_20">
     <!-- VSZ [GB] -->
     <defs>
      <path d="M 28.609375 0 
L 0.78125 72.90625 
L 11.078125 72.90625 
L 34.1875 11.53125 
L 57.328125 72.90625 
L 67.578125 72.90625 
L 39.796875 0 
z
" id="DejaVuSans-86"/>
      <path d="M 53.515625 70.515625 
L 53.515625 60.890625 
Q 47.90625 63.578125 42.921875 64.890625 
Q 37.9375 66.21875 33.296875 66.21875 
Q 25.25 66.21875 20.875 63.09375 
Q 16.5 59.96875 16.5 54.203125 
Q 16.5 49.359375 19.40625 46.890625 
Q 22.3125 44.4375 30.421875 42.921875 
L 36.375 41.703125 
Q 47.40625 39.59375 52.65625 34.296875 
Q 57.90625 29 57.90625 20.125 
Q 57.90625 9.515625 50.796875 4.046875 
Q 43.703125 -1.421875 29.984375 -1.421875 
Q 24.8125 -1.421875 18.96875 -0.25 
Q 13.140625 0.921875 6.890625 3.21875 
L 6.890625 13.375 
Q 12.890625 10.015625 18.65625 8.296875 
Q 24.421875 6.59375 29.984375 6.59375 
Q 38.421875 6.59375 43.015625 9.90625 
Q 47.609375 13.234375 47.609375 19.390625 
Q 47.609375 24.75 44.3125 27.78125 
Q 41.015625 30.8125 33.5 32.328125 
L 27.484375 33.5 
Q 16.453125 35.6875 11.515625 40.375 
Q 6.59375 45.0625 6.59375 53.421875 
Q 6.59375 63.09375 13.40625 68.65625 
Q 20.21875 74.21875 32.171875 74.21875 
Q 37.3125 74.21875 42.625 73.28125 
Q 47.953125 72.359375 53.515625 70.515625 
z
" id="DejaVuSans-83"/>
      <path d="M 5.609375 72.90625 
L 62.890625 72.90625 
L 62.890625 65.375 
L 16.796875 8.296875 
L 64.015625 8.296875 
L 64.015625 0 
L 4.5 0 
L 4.5 7.515625 
L 50.59375 64.59375 
L 5.609375 64.59375 
z
" id="DejaVuSans-90"/>
      <path d="M 59.515625 10.40625 
L 59.515625 29.984375 
L 43.40625 29.984375 
L 43.40625 38.09375 
L 69.28125 38.09375 
L 69.28125 6.78125 
Q 63.578125 2.734375 56.6875 0.65625 
Q 49.8125 -1.421875 42 -1.421875 
Q 24.90625 -1.421875 15.25 8.5625 
Q 5.609375 18.5625 5.609375 36.375 
Q 5.609375 54.25 15.25 64.234375 
Q 24.90625 74.21875 42 74.21875 
Q 49.125 74.21875 55.546875 72.453125 
Q 61.96875 70.703125 67.390625 67.28125 
L 67.390625 56.78125 
Q 61.921875 61.421875 55.765625 63.765625 
Q 49.609375 66.109375 42.828125 66.109375 
Q 29.4375 66.109375 22.71875 58.640625 
Q 16.015625 51.171875 16.015625 36.375 
Q 16.015625 21.625 22.71875 14.15625 
Q 29.4375 6.6875 42.828125 6.6875 
Q 48.046875 6.6875 52.140625 7.59375 
Q 56.25 8.5 59.515625 10.40625 
z
" id="DejaVuSans-71"/>
      <path d="M 19.671875 34.8125 
L 19.671875 8.109375 
L 35.5 8.109375 
Q 43.453125 8.109375 47.28125 11.40625 
Q 51.125 14.703125 51.125 21.484375 
Q 51.125 28.328125 47.28125 31.5625 
Q 43.453125 34.8125 35.5 34.8125 
z
M 19.671875 64.796875 
L 19.671875 42.828125 
L 34.28125 42.828125 
Q 41.5 42.828125 45.03125 45.53125 
Q 48.578125 48.25 48.578125 53.8125 
Q 48.578125 59.328125 45.03125 62.0625 
Q 41.5 64.796875 34.28125 64.796875 
z
M 9.8125 72.90625 
L 35.015625 72.90625 
Q 46.296875 72.90625 52.390625 68.21875 
Q 58.5 63.53125 58.5 54.890625 
Q 58.5 48.1875 55.375 44.234375 
Q 52.25 40.28125 46.1875 39.3125 
Q 53.46875 37.75 57.5 32.78125 
Q 61.53125 27.828125 61.53125 20.40625 
Q 61.53125 10.640625 54.890625 5.3125 
Q 48.25 0 35.984375 0 
L 9.8125 0 
z
" id="DejaVuSans-66"/>
     </defs>
     <g transform="translate(12.292187 166.094844)rotate(-90)scale(0.1 -0.1)">
      <use xlink:href="#DejaVuSans-86"/>
      <use x="68.408203" xlink:href="#DejaVuSans-83"/>
      <use x="131.884766" xlink:href="#DejaVuSans-90"/>
      <use x="200.390625" xlink:href="#DejaVuSans-32"/>
      <use x="232.177734" xlink:href="#DejaVuSans-91"/>
      <use x="271.191406" xlink:href="#DejaVuSans-71"/>
      <use x="348.681641" xlink:href="#DejaVuSans-66"/>
      <use x="417.285156" xlink:href="#DejaVuSans-93"/>
     </g>
    </g>
   </g>
   <g id="line2d_19">
    <path clip-path="url(#pa8ae0c4b6f)" d="M 54 127.329749 
L 54.157109 132.426414 
L 54.314219 129.028499 
L 54.471328 134.125164 
L 54.628437 131.577039 
L 54.785547 132.426414 
L 55.099765 130.727664 
L 55.256875 132.425999 
L 55.413984 127.329749 
L 55.571093 129.028914 
L 55.728203 125.631414 
L 55.885312 130.727664 
L 56.042421 131.577039 
L 56.199531 130.727664 
L 56.35664 131.577039 
L 56.513749 122.233499 
L 56.670859 131.577039 
L 56.985077 137.522664 
L 57.142187 127.330164 
L 57.299296 131.577039 
L 57.456405 127.329749 
L 57.613515 132.399871 
L 57.927733 126.453831 
L 58.084843 127.303206 
L 58.399061 133.249246 
L 58.556171 128.152581 
L 58.71328 129.851331 
L 58.870389 127.303621 
L 59.027499 134.947996 
L 59.341718 129.851746 
L 59.498827 129.002371 
L 59.655936 130.701121 
L 59.970155 130.700706 
L 60.284374 134.098621 
L 60.441483 129.851746 
L 60.598592 130.700706 
L 60.755702 129.001956 
L 60.912811 130.701121 
L 61.06992 127.303206 
L 61.22703 128.152996 
L 61.384139 132.399871 
L 61.541248 129.851746 
L 61.698358 132.399456 
L 61.855467 129.851746 
L 62.169686 132.399456 
L 62.326795 128.152996 
L 62.483904 132.399871 
L 62.798123 127.303206 
L 62.955232 132.399456 
L 63.112342 126.453831 
L 63.269451 126.453831 
L 63.42656 131.550911 
L 63.58367 131.550496 
L 63.897888 127.303206 
L 64.054998 134.947996 
L 64.212107 130.701121 
L 64.369216 129.851331 
L 64.526326 131.550496 
L 64.683435 130.700706 
L 64.840544 127.303621 
L 65.154763 133.249246 
L 65.311872 129.001956 
L 65.468982 129.851746 
L 65.626091 135.796956 
L 65.7832 129.001956 
L 65.94031 133.248831 
L 66.097419 133.249246 
L 66.254528 128.152581 
L 66.411638 127.303206 
L 66.568747 130.701121 
L 66.725856 124.755081 
L 66.882966 130.674578 
L 67.040075 129.825203 
L 67.197184 138.318953 
L 67.354294 126.427289 
L 67.511403 131.523953 
L 67.668512 129.825203 
L 67.825622 132.372914 
L 67.982731 129.824789 
L 68.13984 131.523953 
L 68.29695 127.276664 
L 68.454059 127.276664 
L 68.611168 133.222289 
L 68.768278 128.126039 
L 69.082496 132.373328 
L 69.396715 130.674164 
L 69.710934 125.577914 
L 70.182262 131.523539 
L 70.339371 130.674164 
L 70.496481 132.373328 
L 70.967809 127.276664 
L 71.124918 130.674578 
L 71.282027 130.674578 
L 71.439137 126.427289 
L 71.596246 130.674164 
L 71.753355 131.523953 
L 71.910465 130.674578 
L 72.067574 128.126039 
L 72.224683 134.072493 
L 72.381793 127.276664 
L 72.538902 130.674578 
L 72.696011 127.276664 
L 72.853121 132.373328 
L 73.167339 117.084164 
L 73.324449 131.523539 
L 73.481558 130.674578 
L 73.638667 132.372914 
L 73.795777 131.523953 
L 73.952886 128.126039 
L 74.109995 131.523953 
L 74.267105 127.276664 
L 74.738433 135.770828 
L 74.895542 128.975414 
L 75.36687 131.523539 
L 75.523979 130.674578 
L 75.681089 131.523953 
L 75.838198 126.427289 
L 76.152417 134.045535 
L 76.309526 130.647621 
L 76.780854 130.64845 
L 76.937963 128.099496 
L 77.095073 128.949285 
L 77.409291 132.346785 
L 77.72351 126.40116 
L 77.880619 128.099496 
L 78.037729 131.49741 
L 78.194838 129.798246 
L 78.351947 134.045535 
L 78.666166 128.949285 
L 78.823275 131.49741 
L 78.980385 128.099496 
L 79.137494 131.49741 
L 79.294603 129.798246 
L 79.451713 130.648035 
L 79.608822 130.647621 
L 79.765931 131.49741 
L 79.923041 128.099496 
L 80.08015 127.250121 
L 80.23726 134.89491 
L 80.551478 128.949285 
L 80.708588 125.551371 
L 80.865697 132.346785 
L 81.022806 128.09991 
L 81.179916 128.099496 
L 81.494134 134.045535 
L 81.651244 127.250121 
L 81.808353 126.40116 
L 81.965462 130.64845 
L 82.122572 128.099496 
L 82.279681 128.948871 
L 82.5939 125.551371 
L 82.751009 130.648035 
L 82.908118 127.25095 
L 83.065228 129.79866 
L 83.222337 127.250121 
L 83.379446 130.648035 
L 83.536556 131.49741 
L 83.693665 128.948871 
L 83.850774 131.49741 
L 84.007884 125.551371 
L 84.164993 128.099496 
L 84.322102 136.59366 
L 84.636321 128.948871 
L 84.95054 128.9497 
L 85.107649 130.621492 
L 85.421868 127.223992 
L 85.736086 130.621078 
L 85.893196 129.771703 
L 86.207414 131.470867 
L 86.364524 130.621492 
L 86.521633 130.621078 
L 86.678742 134.018578 
L 86.835852 129.772117 
L 87.15007 131.470453 
L 87.464289 127.223578 
L 87.621398 130.621492 
L 87.935617 127.223578 
L 88.092726 130.621492 
L 88.249836 126.374203 
L 88.406945 130.621078 
L 88.721164 127.223578 
L 88.878273 126.374203 
L 89.035382 130.621492 
L 89.349601 130.621492 
L 89.50671 127.223578 
L 89.66382 130.621492 
L 89.820929 128.073367 
L 90.135148 134.868367 
L 90.292257 131.470453 
L 90.449366 131.470867 
L 90.606476 128.922328 
L 90.763585 133.169617 
L 90.920695 134.018992 
L 91.077804 132.320242 
L 91.234913 125.524828 
L 91.392023 130.621492 
L 91.549132 128.922742 
L 91.706241 131.470867 
L 91.863351 128.073367 
L 92.177569 130.621492 
L 92.491788 128.922328 
L 92.648897 130.621492 
L 92.806007 128.922328 
L 93.120225 130.621078 
L 93.277335 126.374617 
L 93.434444 128.072953 
L 93.591553 131.470867 
L 93.748663 130.621078 
L 93.905772 131.470867 
L 94.062881 134.018992 
L 94.219991 126.374203 
L 94.3771 127.223992 
L 94.534209 130.621492 
L 94.691319 129.74516 
L 94.848428 130.594535 
L 95.005537 128.04641 
L 95.162647 133.143074 
L 95.319756 132.293285 
L 95.476865 133.992449 
L 95.633975 128.04641 
L 95.791084 130.594949 
L 95.948193 127.197035 
L 96.262412 132.293285 
L 96.419521 128.896199 
L 96.73374 128.896199 
L 96.890849 129.745574 
L 97.047959 128.04641 
L 97.362177 128.04641 
L 97.519287 133.143074 
L 97.676396 128.04641 
L 97.833505 135.691199 
L 97.990615 128.04641 
L 98.147724 130.594949 
L 98.304833 135.691199 
L 98.461943 128.895785 
L 98.619052 130.594949 
L 98.776161 130.594949 
L 98.933271 128.04641 
L 99.09038 133.14266 
L 99.247489 128.046824 
L 99.404599 131.444324 
L 99.561708 131.444324 
L 99.718817 127.197035 
L 100.033036 133.143074 
L 100.190145 132.293285 
L 100.347255 127.197035 
L 100.504364 130.594949 
L 100.661473 128.04641 
L 100.818583 132.293699 
L 100.975692 130.594535 
L 101.132802 131.444324 
L 101.289911 130.594535 
L 101.44702 135.691614 
L 101.918348 127.197449 
L 102.075458 126.347245 
L 102.232567 127.197035 
L 102.389676 132.294114 
L 102.546786 130.594949 
L 102.703895 126.34766 
L 102.861004 132.293699 
L 103.332332 127.197035 
L 103.489442 133.143074 
L 103.646551 127.197035 
L 103.80366 132.293285 
L 103.96077 126.321117 
L 104.117879 128.019867 
L 104.274988 128.019867 
L 104.432098 125.471742 
L 104.589207 126.321117 
L 104.746316 128.019867 
L 104.903426 132.267156 
L 105.217644 128.869656 
L 105.374754 129.719031 
L 105.688972 133.965906 
L 106.003191 127.170492 
L 106.1603 128.019867 
L 106.31741 128.869656 
L 106.474519 125.471742 
L 106.631628 127.170906 
L 106.945847 127.170492 
L 107.102956 131.417781 
L 107.260066 128.019867 
L 107.417175 131.417781 
L 107.574284 127.170492 
L 107.888503 131.417781 
L 108.045612 130.568406 
L 108.202722 131.417781 
L 108.359831 135.664656 
L 108.51694 127.170906 
L 108.67405 125.471742 
L 108.831159 130.568406 
L 108.988268 130.568406 
L 109.145378 131.418196 
L 109.302487 130.567992 
L 109.459596 131.417367 
L 109.616706 131.418196 
L 109.773815 130.567992 
L 109.930924 133.116117 
L 110.088034 131.417781 
L 110.245143 131.417781 
L 110.402252 132.266742 
L 110.559362 128.869242 
L 110.716471 130.568406 
L 110.87358 130.568406 
L 111.03069 127.170492 
L 111.187799 131.417781 
L 111.344908 131.417781 
L 111.502018 116.128202 
L 111.659127 133.116946 
L 111.816237 133.965906 
L 111.973346 130.568406 
L 112.130455 133.116531 
L 112.287565 131.417367 
L 112.444674 128.019867 
L 112.601783 133.965906 
L 112.758893 129.719031 
L 112.916002 133.965906 
L 113.230221 130.541863 
L 113.38733 128.843113 
L 113.544439 131.390824 
L 113.701549 128.843113 
L 114.015767 132.241028 
L 114.172877 131.390824 
L 114.329986 131.391238 
L 114.487095 127.993324 
L 114.644205 131.391238 
L 114.801314 127.143949 
L 114.958423 132.240613 
L 115.115533 132.240613 
L 115.272642 133.938949 
L 115.429751 130.541863 
L 115.586861 129.692074 
L 115.74397 130.541863 
L 115.901079 130.541863 
L 116.058189 129.692488 
L 116.215298 131.391238 
L 116.372407 129.692488 
L 116.529517 126.294988 
L 116.686626 127.143949 
L 116.843735 127.143949 
L 117.000845 130.541863 
L 117.157954 131.391238 
L 117.315063 130.541863 
L 117.472173 125.445199 
L 117.629282 126.294574 
L 118.10061 132.240613 
L 118.257719 127.993324 
L 118.414829 127.993324 
L 118.571938 133.939363 
L 118.729047 130.541863 
L 118.886157 130.541449 
L 119.043266 133.089988 
L 119.200375 127.993324 
L 119.357485 131.390824 
L 119.514594 129.692488 
L 119.828813 131.391238 
L 119.985922 127.144363 
L 120.143031 132.240613 
L 120.45725 129.692074 
L 120.771469 131.391238 
L 120.928578 130.541863 
L 121.085687 128.843113 
L 121.242797 130.541449 
L 121.557015 127.144363 
L 121.714125 127.143949 
L 121.871234 131.364281 
L 122.028344 131.364281 
L 122.185453 124.569281 
L 122.342562 130.51532 
L 122.499672 131.364695 
L 122.656781 133.912406 
L 122.81389 130.51532 
L 122.971 129.665531 
L 123.285218 133.91282 
L 123.599437 128.816156 
L 123.756546 127.117406 
L 123.913656 130.51532 
L 124.070765 128.81657 
L 124.227874 128.81657 
L 124.542093 126.268031 
L 124.699202 126.268031 
L 124.856312 131.364695 
L 125.013421 128.81657 
L 125.17053 130.514906 
L 125.32764 126.268031 
L 125.484749 127.117406 
L 125.641858 131.364695 
L 125.798968 129.665945 
L 125.956077 129.665945 
L 126.113186 130.514906 
L 126.270296 129.665945 
L 126.427405 130.514906 
L 126.584514 130.514906 
L 126.741624 127.966781 
L 126.898733 132.21407 
L 127.212952 127.117406 
L 127.370061 132.214485 
L 127.52717 130.514906 
L 127.68428 130.51532 
L 127.998498 125.418656 
L 128.312717 129.665945 
L 128.469826 132.21407 
L 128.626936 132.21407 
L 128.784045 133.91282 
L 128.941154 127.117406 
L 129.098264 136.460945 
L 129.255373 130.51532 
L 129.412482 132.21407 
L 129.569592 131.364281 
L 129.726701 133.912406 
L 130.04092 128.81657 
L 130.198029 129.665531 
L 130.355138 127.117406 
L 130.512248 129.665945 
L 130.669357 127.117406 
L 130.826466 130.51532 
L 130.983576 126.268031 
L 131.140685 126.268445 
L 131.612013 132.187113 
L 131.769122 130.488777 
L 132.24045 130.488777 
L 132.39756 126.241902 
L 132.554669 130.488777 
L 132.711779 129.639402 
L 132.868888 132.187527 
L 133.025997 130.488777 
L 133.183107 130.488777 
L 133.340216 127.940238 
L 133.497325 134.735238 
L 133.654435 125.392113 
L 133.811544 127.090863 
L 133.968653 130.488777 
L 134.125763 130.488777 
L 134.282872 132.187113 
L 134.597091 127.940238 
L 134.7542 131.338152 
L 134.911309 129.639402 
L 135.068419 132.187527 
L 135.225528 130.488777 
L 135.382637 130.488363 
L 135.696856 125.392113 
L 135.853965 132.187527 
L 136.011075 130.488777 
L 136.168184 127.090863 
L 136.325293 127.090448 
L 136.482403 137.283777 
L 136.639512 127.940238 
L 136.796621 131.338152 
L 136.953731 127.940238 
L 137.11084 128.790027 
L 137.425059 132.187113 
L 137.739277 128.790027 
L 137.896387 130.488777 
L 138.053496 130.488363 
L 138.210605 134.735238 
L 138.367715 128.790027 
L 138.524824 130.488777 
L 138.681933 130.488363 
L 138.839043 131.337738 
L 138.996152 125.392113 
L 139.153261 130.488777 
L 139.310371 131.338152 
L 139.46748 131.337738 
L 139.624589 130.488363 
L 139.781699 127.090863 
L 139.938808 130.488777 
L 140.253027 130.488363 
L 140.410136 132.160984 
L 140.567245 132.16057 
L 140.724355 128.76307 
L 140.881464 130.46182 
L 141.038573 130.46182 
L 141.195683 132.16057 
L 141.352792 129.612445 
L 141.509901 130.46182 
L 141.667011 130.46182 
L 141.981229 133.010359 
L 142.138339 132.16057 
L 142.295448 126.214945 
L 142.452557 127.913695 
L 142.609667 131.311609 
L 142.766776 126.214945 
L 142.923885 127.913695 
L 143.080995 127.064734 
L 143.238104 127.06432 
L 143.395214 131.311195 
L 143.552323 130.462234 
L 143.709432 133.009945 
L 144.023651 129.612445 
L 144.18076 130.46182 
L 144.33787 133.010359 
L 144.652088 130.462234 
L 144.966307 130.462234 
L 145.123416 127.06432 
L 145.280526 130.462234 
L 145.437635 128.763484 
L 145.594744 128.763484 
L 145.751854 127.06432 
L 145.908963 131.311609 
L 146.066072 130.462234 
L 146.380291 135.558484 
L 146.5374 130.462234 
L 146.69451 130.462234 
L 146.851619 131.311609 
L 147.008728 128.762655 
L 147.165838 123.66682 
L 147.322947 125.36557 
L 147.480056 125.36557 
L 147.794275 131.311609 
L 147.951384 126.214945 
L 148.422712 131.311609 
L 148.579822 127.06432 
L 148.736931 131.311609 
L 148.89404 127.913695 
L 149.05115 128.736942 
L 149.208259 127.038192 
L 149.522478 132.134442 
L 149.679587 128.736942 
L 149.836696 127.887152 
L 149.993806 131.285067 
L 150.308024 129.586317 
L 150.465134 131.285067 
L 150.622243 130.435692 
L 150.936462 132.134027 
L 151.093571 131.285067 
L 151.25068 125.339027 
L 151.40779 128.736942 
L 151.564899 129.585902 
L 151.722008 127.887152 
L 151.879118 131.285067 
L 152.036227 131.285067 
L 152.193336 124.489652 
L 152.507555 130.435277 
L 152.664664 129.585902 
L 152.821774 132.983817 
L 152.978883 127.038192 
L 153.135992 127.038192 
L 153.293102 132.134442 
L 153.607321 128.736942 
L 153.76443 131.285067 
L 153.921539 131.285067 
L 154.078649 129.586317 
L 154.392867 131.284652 
L 154.549977 127.038192 
L 154.707086 127.037777 
L 154.864195 132.983402 
L 155.021305 127.887567 
L 155.178414 130.435277 
L 155.335523 126.188402 
L 155.649742 132.983817 
L 155.806851 133.833192 
L 155.963961 127.038192 
L 156.435289 131.285067 
L 156.592398 130.435277 
L 156.749507 132.983402 
L 156.906617 132.983817 
L 157.063726 129.586317 
L 157.377945 131.284652 
L 157.535054 129.586317 
L 157.692163 130.435692 
L 157.849273 128.736942 
L 158.006382 133.806649 
L 158.320601 130.409149 
L 158.47771 131.258524 
L 158.791929 129.559774 
L 158.949038 131.258524 
L 159.263257 126.161859 
L 159.891694 132.107899 
L 160.048803 130.409149 
L 160.205913 131.258524 
L 160.363022 133.806649 
L 160.520131 126.161859 
L 160.677241 127.860609 
L 160.83435 126.161859 
L 160.991459 130.409563 
L 161.148569 131.258109 
L 161.305678 129.559774 
L 161.462787 130.409149 
L 161.619897 132.107899 
L 161.777006 131.258524 
L 161.934115 131.258524 
L 162.248334 129.559774 
L 162.405443 127.860609 
L 162.719662 131.258524 
L 162.876771 128.709984 
L 163.033881 133.806649 
L 163.19099 130.408734 
L 163.348099 129.559359 
L 163.505209 129.559359 
L 163.662318 131.258524 
L 163.819427 129.559774 
L 164.133646 129.559774 
L 164.290756 131.258109 
L 164.447865 130.409149 
L 164.604974 131.258524 
L 164.919193 125.312484 
L 165.233412 128.710399 
L 165.390521 135.505399 
L 165.70474 132.107899 
L 165.861849 128.710399 
L 166.018958 127.860609 
L 166.333177 130.409149 
L 166.490286 129.559774 
L 166.647396 127.860609 
L 166.961614 131.231981 
L 167.118724 126.985106 
L 167.275833 131.231981 
L 167.432942 131.231981 
L 167.590052 132.080941 
L 167.747161 135.47927 
L 167.90427 125.285941 
L 168.06138 126.135316 
L 168.218489 129.532401 
L 168.532708 129.532816 
L 168.689817 126.984691 
L 168.846926 131.231981 
L 169.318254 123.587191 
L 169.475364 130.382606 
L 169.632473 130.382606 
L 169.946692 132.081356 
L 170.103801 127.834066 
L 170.26091 130.382606 
L 170.575129 126.984691 
L 170.732238 129.533231 
L 170.889348 129.532816 
L 171.046457 125.285941 
L 171.203566 129.533231 
L 171.360676 127.834066 
L 171.517785 132.081356 
L 171.674894 126.984691 
L 171.989113 129.533231 
L 172.146222 129.532816 
L 172.303332 126.135316 
L 172.460441 131.231566 
L 172.77466 129.533231 
L 172.931769 126.135316 
L 173.088878 126.985106 
L 173.403097 132.081356 
L 173.560206 130.382606 
L 173.717316 130.382191 
L 173.874425 131.231981 
L 174.031534 138.027395 
L 174.188644 130.382191 
L 174.345753 130.382191 
L 174.502863 131.231981 
L 174.659972 126.984691 
L 174.817081 127.834066 
L 174.974191 132.080941 
L 175.1313 128.683856 
L 175.288409 128.683856 
L 175.445519 125.285941 
L 175.602628 129.532816 
L 175.916847 126.108773 
L 176.073956 131.205438 
L 176.231065 124.410023 
L 176.388175 130.356063 
L 176.545284 130.356063 
L 176.702393 129.506273 
L 176.859503 127.807523 
L 177.016612 111.668983 
L 177.173721 130.356063 
L 177.330831 132.054813 
L 177.48794 130.355648 
L 177.802159 130.356063 
L 177.959268 128.657313 
L 178.116377 137.151063 
L 178.273487 130.356063 
L 178.430596 131.205023 
L 178.587705 126.958148 
L 178.744815 130.356063 
L 178.901924 131.205438 
L 179.059033 130.355648 
L 179.216143 131.205438 
L 179.373252 130.356063 
L 179.530361 127.807108 
L 179.687471 129.506688 
L 179.84458 127.807523 
L 180.001689 135.452313 
L 180.315908 127.807523 
L 180.473017 127.807523 
L 180.630127 126.958563 
L 180.787236 126.958148 
L 180.944345 131.205023 
L 181.101455 130.356063 
L 181.258564 130.356063 
L 181.415673 136.302102 
L 181.729892 126.958563 
L 181.887001 137.151063 
L 182.044111 130.356063 
L 182.20122 132.903773 
L 182.358329 130.356063 
L 182.515439 132.054813 
L 182.672548 130.355648 
L 182.829657 130.356063 
L 182.986767 131.205438 
L 183.143876 130.356477 
L 183.300985 126.958148 
L 183.458095 134.602938 
L 183.615204 131.205438 
L 183.772313 134.602938 
L 183.929423 131.205438 
L 184.086532 133.753148 
L 184.243641 127.807523 
L 184.55786 131.205438 
L 184.714969 126.108773 
L 184.872079 131.205438 
L 185.029188 130.356063 
L 185.186298 127.78098 
L 185.343407 130.32952 
L 185.500516 129.480145 
L 185.657626 127.78098 
L 185.814735 133.72702 
L 186.128954 128.630355 
L 186.286063 133.72702 
L 186.443172 130.32952 
L 186.600282 131.178895 
L 186.757391 130.329934 
L 186.9145 126.931605 
L 187.228719 134.576395 
L 187.385828 126.931605 
L 187.542938 131.178895 
L 187.700047 129.47973 
L 187.857156 131.178895 
L 188.014266 126.93202 
L 188.328484 131.17848 
L 188.485594 126.931605 
L 188.642703 130.32952 
L 188.799812 136.275559 
L 189.114031 126.93202 
L 189.27114 133.726605 
L 189.42825 115.039525 
L 189.585359 132.02827 
L 189.742468 129.47973 
L 189.899578 131.178895 
L 190.213796 126.931605 
L 190.370906 133.72702 
L 190.528015 126.931605 
L 190.685124 131.178895 
L 191.156452 126.931605 
L 191.313562 130.329105 
L 191.470671 131.178895 
L 191.62778 130.329105 
L 191.941999 126.931605 
L 192.099108 130.329105 
L 192.256218 131.17848 
L 192.413327 128.63077 
L 192.727546 134.576395 
L 192.884655 127.78098 
L 193.041764 132.02827 
L 193.355983 128.630355 
L 193.513092 133.72702 
L 193.827311 130.329934 
L 193.98442 138.82327 
L 194.14153 131.151937 
L 194.298639 131.152352 
L 194.455748 128.604227 
L 194.612858 129.453602 
L 194.769967 132.001727 
L 194.927076 130.302562 
L 195.084186 131.151937 
L 195.241295 126.905477 
L 195.555514 135.399641 
L 195.869733 126.905062 
L 196.026842 130.302977 
L 196.183951 131.151937 
L 196.341061 129.453187 
L 196.49817 125.206312 
L 196.655279 130.302977 
L 196.812389 130.302977 
L 196.969498 126.905477 
L 197.126607 127.754437 
L 197.283717 130.302977 
L 197.440826 126.905062 
L 197.597935 131.151937 
L 197.755045 127.754022 
L 197.912154 128.604227 
L 198.069263 126.905062 
L 198.226373 130.302977 
L 198.383482 126.905477 
L 198.697701 128.603812 
L 199.011919 131.152766 
L 199.169029 127.754437 
L 199.326138 132.001312 
L 199.483247 132.851102 
L 199.797466 125.206312 
L 199.954575 131.152352 
L 200.111685 132.850687 
L 200.268794 126.905062 
L 200.425903 131.151937 
L 200.583013 131.152352 
L 200.740122 127.754022 
L 200.897231 128.604227 
L 201.054341 131.151937 
L 201.21145 126.905062 
L 201.682778 131.151937 
L 201.839887 132.001727 
L 201.996997 133.700891 
L 202.311215 126.905062 
L 202.468325 131.151937 
L 202.625434 130.302977 
L 202.782543 131.152352 
L 203.096762 129.453187 
L 203.253871 130.302977 
L 203.410981 127.727894 
L 203.56809 130.276434 
L 203.725199 126.029144 
L 203.882309 127.727894 
L 204.039418 131.974769 
L 204.196527 131.975184 
L 204.353637 130.276434 
L 204.510746 130.276434 
L 204.667855 131.975184 
L 204.982074 130.276019 
L 205.139183 126.878519 
L 205.296293 131.125809 
L 205.453402 131.975184 
L 205.610511 129.427059 
L 205.767621 133.673934 
L 206.08184 127.727894 
L 206.238949 128.577684 
L 206.396058 126.878934 
L 206.553168 126.878519 
L 206.710277 130.276434 
L 206.867386 125.179769 
L 207.181605 131.125809 
L 207.338714 125.179769 
L 207.652933 135.373098 
L 207.810042 126.029144 
L 207.967152 131.125809 
L 208.124261 131.974769 
L 208.28137 131.975184 
L 208.43848 128.577684 
L 208.595589 128.577684 
L 208.752698 130.276434 
L 208.909808 123.481019 
L 209.066917 133.673934 
L 209.224026 130.276434 
L 209.538245 131.975184 
L 209.695354 129.427059 
L 209.852464 131.974769 
L 210.009573 127.727894 
L 210.166682 128.577684 
L 210.323792 130.276434 
L 210.480901 128.577684 
L 210.63801 128.578098 
L 210.79512 126.878519 
L 210.952229 131.125809 
L 211.109338 123.481019 
L 211.423557 130.276434 
L 211.580666 127.727894 
L 211.737776 130.276434 
L 211.894885 129.427059 
L 212.051994 130.276019 
L 212.209104 128.577684 
L 212.366213 129.427059 
L 212.523322 129.426644 
L 212.680432 131.948641 
L 212.837541 128.551141 
L 212.99465 128.551141 
L 213.15176 129.400516 
L 213.308869 131.099266 
L 213.465978 124.303851 
L 213.623088 130.249891 
L 213.780197 127.701351 
L 213.937306 131.099266 
L 214.251525 128.551555 
L 214.408634 133.647805 
L 214.565744 129.400516 
L 214.722853 130.249891 
L 214.879962 126.851976 
L 215.037072 127.701351 
L 215.35129 134.496766 
L 215.5084 130.250305 
L 215.665509 129.400516 
L 215.822618 126.852391 
L 215.979728 131.098851 
L 216.136837 126.002601 
L 216.293947 131.948226 
L 216.608165 129.400101 
L 216.765275 131.099266 
L 216.922384 129.400516 
L 217.079493 130.249476 
L 217.236603 130.249891 
L 217.393712 126.851976 
L 217.550821 129.400101 
L 217.707931 127.701351 
L 217.86504 127.701351 
L 218.022149 133.647391 
L 218.179259 131.948641 
L 218.336368 133.647391 
L 218.493477 126.852391 
L 218.650587 131.948641 
L 218.807696 128.550726 
L 219.121915 131.948641 
L 219.279024 129.400516 
L 219.436133 130.249476 
L 219.593243 133.647391 
L 219.750352 126.851976 
L 220.064571 123.454476 
L 220.22168 130.249891 
L 220.378789 130.249891 
L 220.693008 131.948641 
L 221.007227 130.249891 
L 221.164336 131.099266 
L 221.478555 129.400516 
L 221.635664 131.099266 
L 221.792773 125.153226 
L 221.949883 125.976058 
L 222.106992 132.771473 
L 222.264101 132.771473 
L 222.421211 123.427933 
L 222.57832 126.825433 
L 222.735429 126.825433 
L 223.049648 133.620848 
L 223.206757 125.976058 
L 223.363867 127.674808 
L 223.520976 134.470638 
L 223.678085 126.825848 
L 223.835195 131.072308 
L 223.992304 129.373973 
L 224.149413 130.223348 
L 224.306523 130.222933 
L 224.463632 131.072723 
L 224.620741 131.072723 
L 224.93496 129.373973 
L 225.249179 125.976058 
L 225.406288 127.674808 
L 225.563397 131.921683 
L 225.877616 125.126683 
L 226.191835 132.771473 
L 226.348944 131.072723 
L 226.506053 125.976058 
L 226.663163 131.072723 
L 226.820272 124.277308 
L 226.977382 133.620848 
L 227.134491 131.072723 
L 227.2916 131.072723 
L 227.605819 126.825848 
L 227.762928 131.072308 
L 227.920038 129.373973 
L 228.077147 130.223348 
L 228.234256 126.825433 
L 228.391366 127.674808 
L 228.548475 126.825433 
L 228.862694 131.922098 
L 229.019803 131.072723 
L 229.334022 131.072723 
L 229.491131 127.675223 
L 229.64824 136.168973 
L 229.80535 127.675223 
L 229.962459 127.674808 
L 230.119568 126.825433 
L 230.433787 131.922098 
L 230.590896 126.825433 
L 230.905115 130.196805 
L 231.062224 131.895555 
L 231.219334 127.648265 
L 231.533552 131.895555 
L 231.690662 130.196805 
L 231.847771 125.949515 
L 232.00488 135.293055 
L 232.16199 131.045765 
L 232.319099 130.19639 
L 232.476208 132.74493 
L 232.633318 129.347015 
L 232.947536 135.29347 
L 233.418864 125.949515 
L 233.733083 130.196805 
L 233.890192 125.949515 
L 234.047302 125.94993 
L 234.36152 128.49764 
L 234.51863 126.79889 
L 234.675739 123.401805 
L 234.832848 130.19639 
L 234.989958 131.045765 
L 235.147067 128.498055 
L 235.304176 130.19639 
L 235.461286 133.594305 
L 235.618395 128.49764 
L 235.775504 131.895555 
L 235.932614 128.498055 
L 236.089723 129.34743 
L 236.246832 133.594305 
L 236.561051 129.34743 
L 236.71816 126.79889 
L 236.87527 129.34743 
L 237.032379 126.798475 
L 237.189489 132.74493 
L 237.346598 129.347015 
L 237.503707 130.19639 
L 237.660817 130.196805 
L 237.817926 128.49764 
L 237.975035 131.04618 
L 238.132145 131.04618 
L 238.289254 125.10014 
L 238.446363 132.74493 
L 238.603473 131.045765 
L 238.760582 135.293055 
L 238.917691 127.648265 
L 239.23191 130.196805 
L 239.389019 126.79972 
L 239.546129 130.19639 
L 239.703238 131.045765 
L 239.860347 128.498055 
L 240.017457 130.19639 
L 240.174566 130.196805 
L 240.331675 131.045765 
L 240.488785 131.04618 
L 240.645894 128.49764 
L 240.803003 130.19639 
L 240.960113 133.59389 
L 241.117222 130.196805 
L 241.58855 130.19722 
L 241.745659 125.10014 
L 241.902769 129.34743 
L 242.059878 127.648265 
L 242.216987 131.045765 
L 242.374097 127.648265 
L 242.531206 129.347015 
L 242.688315 127.648265 
L 242.845425 131.895555 
L 243.002534 128.49764 
L 243.316753 131.045765 
L 243.473862 131.04618 
L 243.630971 125.94993 
L 243.788081 130.170262 
L 243.94519 129.320472 
L 244.102299 131.869012 
L 244.259409 126.771932 
L 244.416518 126.772347 
L 244.573627 132.718387 
L 244.730737 133.567762 
L 244.887846 132.717972 
L 245.202065 127.621722 
L 245.516283 133.567762 
L 245.673393 132.718387 
L 245.987611 126.772347 
L 246.144721 130.170262 
L 246.30183 131.019637 
L 246.773158 131.019637 
L 246.930267 127.621722 
L 247.087377 126.772347 
L 247.244486 133.567762 
L 247.401595 130.170262 
L 247.558705 131.019637 
L 247.715814 130.169847 
L 247.872924 131.019222 
L 248.030033 130.170262 
L 248.187142 130.169847 
L 248.344252 134.417137 
L 248.501361 129.320472 
L 248.65847 132.718802 
L 248.81558 126.772347 
L 248.972689 126.772347 
L 249.129798 131.869012 
L 249.286908 131.868597 
L 249.444017 130.170262 
L 249.601126 131.019637 
L 249.758236 135.266512 
L 250.072454 125.922557 
L 250.229564 132.718387 
L 250.386673 126.746219 
L 250.543782 133.541219 
L 250.700892 129.293929 
L 250.858001 128.444969 
L 251.01511 125.047054 
L 251.17222 129.294344 
L 251.329329 127.595179 
L 251.643548 130.993094 
L 251.800657 130.993094 
L 251.957766 129.294344 
L 252.114876 130.143719 
L 252.271985 130.143719 
L 252.429094 126.745804 
L 252.586204 127.595179 
L 252.743313 126.745804 
L 252.900422 130.993094 
L 253.057532 130.143304 
L 253.214641 126.745804 
L 253.37175 129.293929 
L 253.52886 134.390594 
L 253.685969 123.348304 
L 254.000188 132.691844 
L 254.157297 128.444969 
L 254.314406 128.444969 
L 254.471516 129.294344 
L 254.628625 135.239554 
L 254.785734 130.143304 
L 254.942844 129.293929 
L 255.099953 130.993094 
L 255.257062 125.896844 
L 255.414172 133.541219 
L 255.571281 127.595179 
L 255.72839 128.444969 
L 256.199718 136.089344 
L 256.513937 127.595179 
L 256.671046 126.745804 
L 257.142374 134.390179 
L 257.299484 128.444554 
L 257.456593 132.691429 
L 257.613702 130.143719 
L 257.770812 133.541219 
L 257.927921 129.293929 
L 258.085031 130.993094 
L 258.24214 125.896844 
L 258.713468 128.418426 
L 258.870577 130.117176 
L 259.027687 130.117176 
L 259.184796 130.966551 
L 259.341905 127.568636 
L 259.499015 130.966551 
L 259.656124 130.966551 
L 259.813233 129.267386 
L 259.970343 130.117176 
L 260.127452 129.267801 
L 260.284561 130.966551 
L 260.441671 126.719261 
L 260.912999 130.966551 
L 261.070108 127.568636 
L 261.227217 130.966551 
L 261.384327 127.568636 
L 261.698545 133.514676 
L 261.855655 128.418011 
L 262.169873 130.966136 
L 262.326983 128.418011 
L 262.484092 132.664886 
L 262.641201 128.418011 
L 262.798311 133.514261 
L 263.112529 129.267386 
L 263.269639 130.966136 
L 263.426748 126.719261 
L 263.583857 131.815926 
L 263.740967 130.117176 
L 263.898076 130.966136 
L 264.055185 128.418011 
L 264.212295 132.664886 
L 264.369404 131.815511 
L 264.526513 130.116761 
L 264.683623 130.966136 
L 264.840732 130.966136 
L 265.154951 126.719261 
L 265.31206 130.117176 
L 265.469169 126.719261 
L 265.626279 130.966551 
L 265.783388 131.815926 
L 265.940497 130.966136 
L 266.097607 126.719261 
L 266.411825 132.665301 
L 266.726044 125.870301 
L 266.883153 126.719261 
L 267.040263 132.665301 
L 267.197372 130.117176 
L 267.354481 133.488133 
L 267.511591 126.692718 
L 267.825809 128.391468 
L 267.982919 130.939593 
L 268.140028 130.090218 
L 268.297137 130.939593 
L 268.454247 126.693133 
L 268.611356 127.542093 
L 268.768466 129.240843 
L 268.925575 128.391883 
L 269.082684 128.391883 
L 269.239794 129.241673 
L 269.554012 133.488133 
L 269.711122 132.638343 
L 269.868231 127.542093 
L 270.02534 134.337508 
L 270.18245 127.542093 
L 270.339559 127.542093 
L 270.496668 130.940008 
L 270.653778 129.241258 
L 270.967996 129.241258 
L 271.282215 125.843343 
L 271.439324 130.090633 
L 271.596434 127.542093 
L 271.753543 129.241258 
L 271.910652 125.843343 
L 272.067762 130.940008 
L 272.38198 128.391883 
L 272.53909 132.638758 
L 272.696199 125.843343 
L 272.853308 125.843343 
L 273.010418 127.541678 
L 273.167527 126.692718 
L 273.481746 132.638758 
L 273.638855 127.542508 
L 273.795964 129.241258 
L 273.953074 129.240843 
L 274.110183 127.542093 
L 274.267292 132.638758 
L 274.581511 125.843343 
L 274.89573 132.638758 
L 275.052839 125.843343 
L 275.209948 126.692718 
L 275.367058 130.940423 
L 275.524167 130.940008 
L 275.681276 127.542093 
L 275.838386 128.391883 
L 275.995495 125.843343 
L 276.152604 129.241258 
L 276.309714 125.8168 
L 276.466823 129.214715 
L 276.781042 129.214715 
L 276.938151 132.612215 
L 277.09526 132.61263 
L 277.25237 129.214715 
L 277.409479 129.214715 
L 277.566588 125.8168 
L 277.880807 129.214715 
L 278.037916 129.2143 
L 278.195026 132.612215 
L 278.509244 125.8168 
L 278.666354 129.2143 
L 278.823463 125.817215 
L 278.980573 129.214715 
L 279.294791 129.214715 
L 279.451901 127.515965 
L 279.60901 127.515965 
L 279.766119 125.8168 
L 279.923229 130.06409 
L 280.080338 129.214715 
L 280.237447 132.612215 
L 280.394557 127.515965 
L 280.551666 127.515965 
L 280.708775 130.913465 
L 280.865885 124.96784 
L 281.022994 130.06409 
L 281.180103 130.913465 
L 281.337213 125.8168 
L 281.494322 125.8168 
L 281.651431 124.11805 
L 281.96565 128.36534 
L 282.122759 125.817215 
L 282.279869 125.8168 
L 282.436978 129.2143 
L 282.594087 129.214715 
L 282.751197 126.666175 
L 282.908306 130.913465 
L 283.065415 130.91305 
L 283.222525 129.214715 
L 283.536743 129.214715 
L 283.693853 128.36534 
L 283.850962 125.817215 
L 284.008071 125.8168 
L 284.165181 129.214715 
L 284.32229 130.06409 
L 284.479399 120.72055 
L 284.636509 129.214715 
L 284.793618 129.214715 
L 284.950727 132.612215 
L 285.107837 125.8168 
L 285.264946 129.214715 
L 285.422055 125.8168 
L 285.579165 130.886507 
L 285.736274 129.187757 
L 285.893383 129.188172 
L 286.050493 128.338797 
L 286.207602 125.790672 
L 286.364711 129.188172 
L 286.521821 125.790257 
L 286.993149 130.886922 
L 287.150258 130.886922 
L 287.307367 125.790257 
L 287.464477 130.886922 
L 287.778695 128.338797 
L 287.935805 129.188587 
L 288.092914 129.188172 
L 288.250023 130.886922 
L 288.407133 126.639632 
L 288.564242 129.188172 
L 288.721351 124.091507 
L 288.878461 124.940882 
L 289.03557 129.188172 
L 289.192679 130.037547 
L 289.349789 122.392757 
L 289.506898 124.091507 
L 289.821117 130.886922 
L 290.292445 126.639632 
L 290.449554 125.790257 
L 290.606664 132.585672 
L 290.763773 125.790257 
L 290.920882 132.585672 
L 291.077992 127.489007 
L 291.235101 128.338797 
L 291.39221 125.790672 
L 291.54932 125.790257 
L 291.706429 129.187757 
L 291.863538 129.188172 
L 292.177757 130.886922 
L 292.334866 132.585672 
L 292.491976 129.188172 
L 292.649085 132.585672 
L 292.806194 129.188172 
L 292.963304 132.585672 
L 293.120413 125.791087 
L 293.277522 129.188172 
L 293.434632 129.188172 
L 293.591741 125.790257 
L 293.90596 129.188172 
L 294.063069 129.188172 
L 294.220178 130.886507 
L 294.377288 127.489007 
L 294.534397 129.161629 
L 294.691506 129.161629 
L 294.848616 122.366629 
L 295.005725 132.559129 
L 295.162834 125.763714 
L 295.319944 125.763714 
L 295.477053 127.462879 
L 295.634162 126.613089 
L 295.791272 129.161629 
L 295.948381 126.613089 
L 296.10549 129.161629 
L 296.2626 125.763714 
L 296.419709 130.859964 
L 296.733928 129.161629 
L 296.891037 125.763714 
L 297.205256 130.860379 
L 297.362365 129.161214 
L 297.519474 130.859964 
L 297.676584 126.613089 
L 297.833693 130.860379 
L 297.990802 127.462879 
L 298.147912 127.462879 
L 298.305021 125.763714 
L 298.46213 130.860379 
L 298.776349 125.763714 
L 298.933458 129.161629 
L 299.090568 127.462464 
L 299.404786 130.011004 
L 299.561896 130.011004 
L 299.719005 126.613089 
L 299.876115 130.011004 
L 300.033224 128.311839 
L 300.347443 131.709339 
L 300.818771 126.613089 
L 300.97588 130.011004 
L 301.132989 127.462464 
L 301.447208 131.709754 
L 301.604317 126.613089 
L 301.761427 130.011004 
L 301.918536 126.613089 
L 302.075645 130.011004 
L 302.232755 125.763714 
L 302.389864 126.613089 
L 302.546973 130.860379 
L 302.704083 130.011004 
L 302.861192 127.462879 
L 303.018301 131.710169 
L 303.175411 130.010589 
L 303.33252 130.833421 
L 303.489629 128.285711 
L 303.646739 131.682796 
L 303.803848 126.586546 
L 303.960957 130.833421 
L 304.118067 127.435921 
L 304.275176 129.984046 
L 304.432285 126.586546 
L 304.589395 131.683211 
L 304.746504 129.984461 
L 304.903613 126.586546 
L 305.217832 129.984461 
L 305.374941 128.285711 
L 305.532051 129.134671 
L 305.68916 131.682796 
L 306.003379 131.683211 
L 306.317597 126.586546 
L 306.474707 131.683211 
L 306.631816 129.984461 
L 306.788925 126.586132 
L 306.946035 130.833421 
L 307.260253 126.586546 
L 307.417363 131.683211 
L 307.574472 126.587376 
L 307.731581 131.683211 
L 307.888691 130.833421 
L 308.0458 128.285711 
L 308.202909 129.984046 
L 308.360019 129.984461 
L 308.517128 134.231336 
L 308.674237 130.833421 
L 308.831347 130.833836 
L 308.988456 128.285296 
L 309.145565 132.532586 
L 309.302675 129.984046 
L 309.459784 131.683211 
L 309.616893 135.930086 
L 309.774003 129.135086 
L 309.931112 133.382376 
L 310.088221 127.435921 
L 310.40244 131.683211 
L 310.55955 126.586546 
L 310.716659 130.833836 
L 310.873768 129.984461 
L 311.030878 132.532586 
L 311.187987 126.586961 
L 311.345096 132.532171 
L 311.502206 130.833836 
L 311.659315 122.339671 
L 311.816424 129.984046 
L 312.130643 131.682796 
L 312.287752 129.984461 
L 312.444862 126.586546 
L 312.601971 131.656668 
L 312.75908 126.560003 
L 313.230408 134.204793 
L 313.387518 130.806878 
L 313.544627 129.957503 
L 313.701736 129.957918 
L 314.015955 126.560003 
L 314.173064 133.355418 
L 314.487283 127.409378 
L 314.644392 131.656668 
L 314.801502 130.807708 
L 314.958611 129.108543 
L 315.11572 129.108543 
L 315.27283 132.505628 
L 315.429939 129.957918 
L 315.587048 130.806878 
L 315.901267 126.560003 
L 316.058376 133.355003 
L 316.372595 129.957918 
L 316.529704 132.506043 
L 316.686814 129.957503 
L 316.843923 130.806878 
L 317.001032 124.011878 
L 317.158142 130.806878 
L 317.315251 130.807293 
L 317.47236 129.957918 
L 317.62947 129.958333 
L 317.786579 133.355418 
L 318.100798 128.259168 
L 318.257907 129.957503 
L 318.415016 126.560003 
L 318.572126 127.409378 
L 318.729235 124.861253 
L 318.886344 129.957918 
L 319.043454 127.409378 
L 319.200563 133.355418 
L 319.357672 129.957918 
L 319.514782 129.957503 
L 319.671891 134.204793 
L 319.829 129.108128 
L 319.98611 129.957503 
L 320.143219 132.506043 
L 320.300328 125.710214 
L 320.457438 129.957503 
L 320.771656 129.957918 
L 320.928766 130.807293 
L 321.242985 127.409378 
L 321.400094 129.108543 
L 321.557203 129.108543 
L 321.714313 129.957503 
L 321.871422 125.710628 
L 322.028531 133.328875 
L 322.185641 129.082415 
L 322.34275 129.931375 
L 322.499859 126.53346 
L 322.814078 126.53346 
L 322.971187 129.931375 
L 323.128297 127.38325 
L 323.599625 134.17825 
L 323.756734 127.382835 
L 323.913843 128.23221 
L 324.070953 126.53346 
L 324.228062 126.53346 
L 324.385171 129.931375 
L 324.542281 125.684085 
L 324.69939 135.02721 
L 324.856499 129.931375 
L 325.013609 129.082 
L 325.170718 125.684085 
L 325.327827 130.78075 
L 325.484937 131.630125 
L 325.642046 126.53346 
L 325.799155 127.382835 
L 325.956265 130.78075 
L 326.113374 129.931375 
L 326.270483 129.931375 
L 326.427593 133.32846 
L 326.584702 134.17825 
L 326.741811 132.4795 
L 327.05603 126.53346 
L 327.213139 126.533875 
L 327.527358 129.931375 
L 327.684467 127.38325 
L 327.841577 129.93096 
L 327.998686 129.931375 
L 328.155795 134.17825 
L 328.470014 127.382835 
L 328.627123 131.62971 
L 328.784233 131.630125 
L 328.941342 127.382835 
L 329.098451 129.931375 
L 329.255561 129.082 
L 329.41267 125.684085 
L 329.569779 126.533875 
L 329.883998 129.93096 
L 330.198217 129.93096 
L 330.355326 130.78075 
L 330.512435 130.78075 
L 330.669545 128.232625 
L 330.826654 128.23221 
L 331.140873 130.78075 
L 331.297982 129.904417 
L 331.455092 131.603582 
L 331.612201 126.506917 
L 331.76931 126.506917 
L 331.92642 128.206082 
L 332.083529 128.206082 
L 332.554857 133.302332 
L 332.711966 126.506917 
L 332.869076 131.603582 
L 333.026185 130.754207 
L 333.183294 128.205667 
L 333.340404 132.452957 
L 333.497513 124.808582 
L 333.811732 135.001082 
L 333.968841 125.657542 
L 334.12595 131.603582 
L 334.440169 126.506917 
L 334.597278 129.904832 
L 334.754388 126.506917 
L 334.911497 133.302332 
L 335.068606 133.302332 
L 335.225716 122.260042 
L 335.382825 124.808167 
L 335.539934 130.754207 
L 335.697044 130.754207 
L 335.854153 127.356292 
L 336.011262 131.603582 
L 336.168372 132.452957 
L 336.325481 129.904417 
L 336.6397 132.452542 
L 336.796809 129.055457 
L 337.111028 130.754207 
L 337.268137 126.506503 
L 337.425246 129.904832 
L 337.582356 126.506917 
L 337.739465 130.754207 
L 337.896574 129.904417 
L 338.053684 130.754207 
L 338.210793 124.808582 
L 338.682121 132.452957 
L 338.83923 126.506917 
L 339.153449 133.302747 
L 339.310558 129.904832 
L 339.467668 129.904832 
L 339.624777 126.506917 
L 339.781886 129.904832 
L 339.938996 129.055457 
L 340.253214 130.753792 
L 340.567433 130.727664 
L 340.724542 131.577039 
L 340.881652 128.179124 
L 341.038761 129.877874 
L 341.19587 129.878289 
L 341.35298 129.028914 
L 341.667198 126.480374 
L 341.824308 129.028914 
L 341.981417 129.028914 
L 342.295636 133.276204 
L 342.452745 129.028499 
L 342.609855 128.179539 
L 342.766964 125.630999 
L 343.081183 131.577039 
L 343.238292 129.028914 
L 343.395401 133.275789 
L 343.70962 128.179124 
L 343.866729 128.179539 
L 344.023839 129.028499 
L 344.180948 131.577039 
L 344.495167 127.330164 
L 344.652276 133.275789 
L 344.809385 128.179539 
L 344.966495 127.329749 
L 345.123604 130.727664 
L 345.280713 128.179124 
L 345.437823 133.275789 
L 345.594932 128.179124 
L 345.752041 129.878289 
L 345.909151 129.877874 
L 346.06626 125.630999 
L 346.223369 131.576624 
L 346.380479 131.577039 
L 346.537588 125.630999 
L 346.851807 133.275789 
L 347.008916 129.878289 
L 347.166025 114.589124 
L 347.323135 131.576624 
L 347.480244 127.329749 
L 347.637353 130.727664 
L 347.794463 123.082874 
L 348.108681 131.577039 
L 348.265791 133.275789 
L 348.4229 128.179124 
L 348.580009 129.028914 
L 348.737119 126.480374 
L 348.894228 130.727664 
L 349.051337 129.028914 
L 349.208447 129.028914 
L 349.365556 133.275789 
L 349.522665 125.630999 
L 349.679775 131.577039 
L 349.836884 129.029329 
L 349.993993 129.851746 
L 350.151103 129.851746 
L 350.308212 126.453831 
L 350.622431 126.453831 
L 350.77954 125.604871 
L 350.936649 126.453831 
L 351.093759 131.550496 
L 351.250868 126.453831 
L 351.407977 129.002371 
L 351.565087 128.152581 
L 351.722196 131.550496 
L 352.193524 125.604456 
L 352.350634 129.851331 
L 352.507743 130.701121 
L 352.664852 129.002371 
L 352.821962 129.851331 
L 352.979071 131.550496 
L 353.450399 125.604456 
L 353.607508 131.550496 
L 353.921727 129.002371 
L 354.078836 130.701121 
L 354.235946 130.701121 
L 354.393055 128.152581 
L 354.550164 130.701121 
L 354.707274 126.454246 
L 355.021492 134.098621 
L 355.178602 128.152996 
L 355.335711 129.851331 
L 355.49282 133.249246 
L 355.64993 132.399456 
L 355.807039 128.152996 
L 356.121258 133.249246 
L 356.278367 128.152581 
L 356.435476 129.851746 
L 356.592586 129.851331 
L 356.749695 129.002371 
L 357.063914 131.550496 
L 357.378132 125.604456 
L 357.535242 130.701121 
L 357.692351 126.453831 
L 357.84946 129.851746 
L 358.00657 127.303206 
L 358.163679 130.701121 
L 358.320788 128.152996 
L 358.477898 129.851746 
L 358.635007 129.002371 
L 358.792116 130.701121 
L 358.949226 130.701121 
L 359.106335 131.550496 
L 359.263444 126.453831 
L 359.420554 126.428118 
L 359.577663 133.222703 
L 359.891882 128.126453 
L 360.048991 133.222289 
L 360.2061 126.427289 
L 360.36321 127.276664 
L 360.520319 124.728539 
L 360.677428 129.825203 
L 360.834538 130.674578 
L 360.991647 129.824789 
L 361.148756 126.427289 
L 361.305866 129.824789 
L 361.462975 125.577914 
L 361.620084 128.975414 
L 361.777194 128.126039 
L 361.934303 130.674578 
L 362.091412 128.975828 
L 362.248522 129.824789 
L 362.405631 131.523953 
L 362.71985 127.276664 
L 362.876959 130.674578 
L 363.034069 124.728539 
L 363.191178 131.523953 
L 363.348287 130.674164 
L 363.505397 128.975414 
L 363.662506 128.975414 
L 363.819615 133.223118 
L 363.976725 129.824789 
L 364.133834 134.921453 
L 364.290943 128.126453 
L 364.448053 133.222703 
L 364.605162 126.427289 
L 364.919381 128.126453 
L 365.07649 128.126039 
L 365.233599 131.523953 
L 365.390709 128.126039 
L 365.547818 129.825203 
L 365.704927 129.824789 
L 365.862037 128.975828 
L 366.176255 131.523953 
L 366.333365 128.975828 
L 366.490474 128.975828 
L 366.647583 132.372914 
L 366.804693 131.523953 
L 367.118911 128.126453 
L 367.276021 128.975828 
L 367.43313 131.523953 
L 367.747349 128.975828 
L 367.904458 128.975828 
L 368.061567 130.674578 
L 368.218677 129.824789 
L 368.375786 136.59366 
L 368.532895 126.400746 
L 368.690005 132.346785 
L 368.847114 126.400746 
L 369.004223 129.79866 
L 369.161333 128.9497 
L 369.318442 126.400746 
L 369.475551 131.49741 
L 369.632661 128.09991 
L 369.78977 128.949285 
L 369.946879 128.099496 
L 370.103989 126.400746 
L 370.261098 129.798246 
L 370.418207 128.949285 
L 370.575317 127.250121 
L 370.732426 128.099496 
L 370.889535 125.551371 
L 371.046645 125.551371 
L 371.203754 130.648035 
L 371.360863 131.49741 
L 371.517973 131.49741 
L 371.675082 130.648035 
L 371.832191 130.648035 
L 371.989301 129.79866 
L 372.14641 126.400746 
L 372.303519 129.798246 
L 372.460629 127.249706 
L 372.617738 130.647621 
L 372.774847 126.400746 
L 372.931957 127.250535 
L 373.089066 126.401575 
L 373.403285 134.045535 
L 373.560394 128.09991 
L 373.717504 129.798246 
L 373.874613 129.79866 
L 374.031722 130.647621 
L 374.188832 130.648035 
L 374.345941 128.099496 
L 374.50305 131.49741 
L 374.66016 128.948871 
L 374.817269 129.798246 
L 374.974378 126.400746 
L 375.131488 132.346371 
L 375.445706 128.09991 
L 375.602816 128.949285 
L 375.759925 127.250121 
L 375.917034 129.79866 
L 376.231253 129.79866 
L 376.388362 127.250121 
L 376.545472 130.647621 
L 376.702581 129.79866 
L 376.85969 133.19616 
L 377.0168 133.19616 
L 377.173909 128.948871 
L 377.331018 132.346785 
L 377.645237 123.826078 
L 377.802346 133.170032 
L 377.959456 129.772117 
L 378.116565 129.772117 
L 378.273674 133.169617 
L 378.587893 127.223992 
L 378.902112 134.018992 
L 379.21633 127.223578 
L 379.687658 129.771703 
L 379.844768 126.374203 
L 380.001877 132.319828 
L 380.316096 128.073367 
L 380.630314 134.868367 
L 380.787424 126.374203 
L 380.944533 125.524828 
L 381.101642 132.320242 
L 381.258752 128.922742 
L 381.415861 130.621492 
L 381.57297 129.771703 
L 381.73008 127.223578 
L 382.044298 130.621078 
L 382.201408 128.922742 
L 382.358517 130.621492 
L 382.515626 134.018992 
L 382.672736 130.621492 
L 382.829845 129.771703 
L 382.986954 130.621492 
L 383.144064 126.374617 
L 383.301173 126.374203 
L 383.458282 134.018992 
L 383.615392 129.772117 
L 383.772501 131.470867 
L 383.929611 128.922742 
L 384.08672 129.771703 
L 384.243829 126.374617 
L 384.400939 133.169203 
L 384.558048 126.374617 
L 384.715157 132.319828 
L 384.872267 126.374203 
L 385.029376 131.470867 
L 385.186485 129.771703 
L 385.343595 129.772117 
L 385.500704 126.374617 
L 385.657813 133.169617 
L 385.814923 129.772117 
L 385.972032 130.621078 
L 386.129141 129.772117 
L 386.286251 128.072953 
L 386.44336 129.771703 
L 386.600469 126.374203 
L 386.757579 133.170032 
L 386.914688 127.223578 
L 387.228907 131.44391 
L 387.386016 134.841824 
L 387.543125 133.143489 
L 387.700235 129.745574 
L 387.857344 131.444324 
L 388.014453 129.74516 
L 388.171563 130.594949 
L 388.485781 128.04641 
L 388.642891 129.745574 
L 388.8 128.046824 
L 388.957109 129.745574 
L 388.957109 129.745574 
" style="fill:none;stroke:#1f77b4;stroke-linecap:square;stroke-width:1.5;"/>
   </g>
   <g id="patch_3">
    <path d="M 54 252 
L 54 34.56 
" style="fill:none;stroke:#000000;stroke-linecap:square;stroke-linejoin:miter;stroke-width:0.8;"/>
   </g>
   <g id="patch_4">
    <path d="M 388.8 252 
L 388.8 34.56 
" style="fill:none;stroke:#000000;stroke-linecap:square;stroke-linejoin:miter;stroke-width:0.8;"/>
   </g>
   <g id="patch_5">
    <path d="M 54 252 
L 388.8 252 
" style="fill:none;stroke:#000000;stroke-linecap:square;stroke-linejoin:miter;stroke-width:0.8;"/>
   </g>
   <g id="patch_6">
    <path d="M 54 34.56 
L 388.8 34.56 
" style="fill:none;stroke:#000000;stroke-linecap:square;stroke-linejoin:miter;stroke-width:0.8;"/>
   </g>
   <g id="legend_1">
    <g id="patch_7">
     <path d="M 329.760938 57.238125 
L 381.8 57.238125 
Q 383.8 57.238125 383.8 55.238125 
L 383.8 41.56 
Q 383.8 39.56 381.8 39.56 
L 329.760938 39.56 
Q 327.760938 39.56 327.760938 41.56 
L 327.760938 55.238125 
Q 327.760938 57.238125 329.760938 57.238125 
z
" style="fill:#ffffff;opacity:0.8;stroke:#cccccc;stroke-linejoin:miter;"/>
    </g>
    <g id="line2d_20">
     <path d="M 331.760938 47.658437 
L 351.760938 47.658437 
" style="fill:none;stroke:#1f77b4;stroke-linecap:square;stroke-width:1.5;"/>
    </g>
    <g id="line2d_21"/>
    <g id="text_21">
     <!-- VSZ -->
     <g transform="translate(359.760938 51.158437)scale(0.1 -0.1)">
      <use xlink:href="#DejaVuSans-86"/>
      <use x="68.408203" xlink:href="#DejaVuSans-83"/>
      <use x="131.884766" xlink:href="#DejaVuSans-90"/>
     </g>
    </g>
   </g>
  </g>
 </g>
 <defs>
  <clipPath id="pa8ae0c4b6f">
   <rect height="217.44" width="334.8" x="54" y="34.56"/>
  </clipPath>
 </defs>
</svg>
