<?xml version="1.0" encoding="utf-8" standalone="no"?>
<!DOCTYPE svg PUBLIC "-//W3C//DTD SVG 1.1//EN"
  "http://www.w3.org/Graphics/SVG/1.1/DTD/svg11.dtd">
<!-- Created with matplotlib (https://matplotlib.org/) -->
<svg height="288pt" version="1.1" viewBox="0 0 432 288" width="432pt" xmlns="http://www.w3.org/2000/svg" xmlns:xlink="http://www.w3.org/1999/xlink">
 <defs>
  <style type="text/css">
*{stroke-linecap:butt;stroke-linejoin:round;}
  </style>
 </defs>
 <g id="figure_1">
  <g id="patch_1">
   <path d="M 0 288 
L 432 288 
L 432 0 
L 0 0 
z
" style="fill:#ffffff;"/>
  </g>
  <g id="axes_1">
   <g id="patch_2">
    <path d="M 54 252 
L 388.8 252 
L 388.8 34.56 
L 54 34.56 
z
" style="fill:#ffffff;"/>
   </g>
   <g id="matplotlib.axis_1">
    <g id="xtick_1">
     <g id="line2d_1">
      <defs>
       <path d="M 0 0 
L 0 3.5 
" id="m23a9140afd" style="stroke:#000000;stroke-width:0.8;"/>
      </defs>
      <g>
       <use style="stroke:#000000;stroke-width:0.8;" x="54" xlink:href="#m23a9140afd" y="252"/>
      </g>
     </g>
     <g id="text_1">
      <!-- 0 -->
      <defs>
       <path d="M 31.78125 66.40625 
Q 24.171875 66.40625 20.328125 58.90625 
Q 16.5 51.421875 16.5 36.375 
Q 16.5 21.390625 20.328125 13.890625 
Q 24.171875 6.390625 31.78125 6.390625 
Q 39.453125 6.390625 43.28125 13.890625 
Q 47.125 21.390625 47.125 36.375 
Q 47.125 51.421875 43.28125 58.90625 
Q 39.453125 66.40625 31.78125 66.40625 
z
M 31.78125 74.21875 
Q 44.046875 74.21875 50.515625 64.515625 
Q 56.984375 54.828125 56.984375 36.375 
Q 56.984375 17.96875 50.515625 8.265625 
Q 44.046875 -1.421875 31.78125 -1.421875 
Q 19.53125 -1.421875 13.0625 8.265625 
Q 6.59375 17.96875 6.59375 36.375 
Q 6.59375 54.828125 13.0625 64.515625 
Q 19.53125 74.21875 31.78125 74.21875 
z
" id="DejaVuSans-48"/>
      </defs>
      <g transform="translate(50.81875 266.598437)scale(0.1 -0.1)">
       <use xlink:href="#DejaVuSans-48"/>
      </g>
     </g>
    </g>
    <g id="xtick_2">
     <g id="line2d_2">
      <g>
       <use style="stroke:#000000;stroke-width:0.8;" x="93.277335" xlink:href="#m23a9140afd" y="252"/>
      </g>
     </g>
     <g id="text_2">
      <!-- 250 -->
      <defs>
       <path d="M 19.1875 8.296875 
L 53.609375 8.296875 
L 53.609375 0 
L 7.328125 0 
L 7.328125 8.296875 
Q 12.9375 14.109375 22.625 23.890625 
Q 32.328125 33.6875 34.8125 36.53125 
Q 39.546875 41.84375 41.421875 45.53125 
Q 43.3125 49.21875 43.3125 52.78125 
Q 43.3125 58.59375 39.234375 62.25 
Q 35.15625 65.921875 28.609375 65.921875 
Q 23.96875 65.921875 18.8125 64.3125 
Q 13.671875 62.703125 7.8125 59.421875 
L 7.8125 69.390625 
Q 13.765625 71.78125 18.9375 73 
Q 24.125 74.21875 28.421875 74.21875 
Q 39.75 74.21875 46.484375 68.546875 
Q 53.21875 62.890625 53.21875 53.421875 
Q 53.21875 48.921875 51.53125 44.890625 
Q 49.859375 40.875 45.40625 35.40625 
Q 44.1875 33.984375 37.640625 27.21875 
Q 31.109375 20.453125 19.1875 8.296875 
z
" id="DejaVuSans-50"/>
       <path d="M 10.796875 72.90625 
L 49.515625 72.90625 
L 49.515625 64.59375 
L 19.828125 64.59375 
L 19.828125 46.734375 
Q 21.96875 47.46875 24.109375 47.828125 
Q 26.265625 48.1875 28.421875 48.1875 
Q 40.625 48.1875 47.75 41.5 
Q 54.890625 34.8125 54.890625 23.390625 
Q 54.890625 11.625 47.5625 5.09375 
Q 40.234375 -1.421875 26.90625 -1.421875 
Q 22.3125 -1.421875 17.546875 -0.640625 
Q 12.796875 0.140625 7.71875 1.703125 
L 7.71875 11.625 
Q 12.109375 9.234375 16.796875 8.0625 
Q 21.484375 6.890625 26.703125 6.890625 
Q 35.15625 6.890625 40.078125 11.328125 
Q 45.015625 15.765625 45.015625 23.390625 
Q 45.015625 31 40.078125 35.4375 
Q 35.15625 39.890625 26.703125 39.890625 
Q 22.75 39.890625 18.8125 39.015625 
Q 14.890625 38.140625 10.796875 36.28125 
z
" id="DejaVuSans-53"/>
      </defs>
      <g transform="translate(83.733585 266.598437)scale(0.1 -0.1)">
       <use xlink:href="#DejaVuSans-50"/>
       <use x="63.623047" xlink:href="#DejaVuSans-53"/>
       <use x="127.246094" xlink:href="#DejaVuSans-48"/>
      </g>
     </g>
    </g>
    <g id="xtick_3">
     <g id="line2d_3">
      <g>
       <use style="stroke:#000000;stroke-width:0.8;" x="132.554669" xlink:href="#m23a9140afd" y="252"/>
      </g>
     </g>
     <g id="text_3">
      <!-- 500 -->
      <g transform="translate(123.010919 266.598437)scale(0.1 -0.1)">
       <use xlink:href="#DejaVuSans-53"/>
       <use x="63.623047" xlink:href="#DejaVuSans-48"/>
       <use x="127.246094" xlink:href="#DejaVuSans-48"/>
      </g>
     </g>
    </g>
    <g id="xtick_4">
     <g id="line2d_4">
      <g>
       <use style="stroke:#000000;stroke-width:0.8;" x="171.832004" xlink:href="#m23a9140afd" y="252"/>
      </g>
     </g>
     <g id="text_4">
      <!-- 750 -->
      <defs>
       <path d="M 8.203125 72.90625 
L 55.078125 72.90625 
L 55.078125 68.703125 
L 28.609375 0 
L 18.3125 0 
L 43.21875 64.59375 
L 8.203125 64.59375 
z
" id="DejaVuSans-55"/>
      </defs>
      <g transform="translate(162.288254 266.598437)scale(0.1 -0.1)">
       <use xlink:href="#DejaVuSans-55"/>
       <use x="63.623047" xlink:href="#DejaVuSans-53"/>
       <use x="127.246094" xlink:href="#DejaVuSans-48"/>
      </g>
     </g>
    </g>
    <g id="xtick_5">
     <g id="line2d_5">
      <g>
       <use style="stroke:#000000;stroke-width:0.8;" x="211.109338" xlink:href="#m23a9140afd" y="252"/>
      </g>
     </g>
     <g id="text_5">
      <!-- 1000 -->
      <defs>
       <path d="M 12.40625 8.296875 
L 28.515625 8.296875 
L 28.515625 63.921875 
L 10.984375 60.40625 
L 10.984375 69.390625 
L 28.421875 72.90625 
L 38.28125 72.90625 
L 38.28125 8.296875 
L 54.390625 8.296875 
L 54.390625 0 
L 12.40625 0 
z
" id="DejaVuSans-49"/>
      </defs>
      <g transform="translate(198.384338 266.598437)scale(0.1 -0.1)">
       <use xlink:href="#DejaVuSans-49"/>
       <use x="63.623047" xlink:href="#DejaVuSans-48"/>
       <use x="127.246094" xlink:href="#DejaVuSans-48"/>
       <use x="190.869141" xlink:href="#DejaVuSans-48"/>
      </g>
     </g>
    </g>
    <g id="xtick_6">
     <g id="line2d_6">
      <g>
       <use style="stroke:#000000;stroke-width:0.8;" x="250.386673" xlink:href="#m23a9140afd" y="252"/>
      </g>
     </g>
     <g id="text_6">
      <!-- 1250 -->
      <g transform="translate(237.661673 266.598437)scale(0.1 -0.1)">
       <use xlink:href="#DejaVuSans-49"/>
       <use x="63.623047" xlink:href="#DejaVuSans-50"/>
       <use x="127.246094" xlink:href="#DejaVuSans-53"/>
       <use x="190.869141" xlink:href="#DejaVuSans-48"/>
      </g>
     </g>
    </g>
    <g id="xtick_7">
     <g id="line2d_7">
      <g>
       <use style="stroke:#000000;stroke-width:0.8;" x="289.664008" xlink:href="#m23a9140afd" y="252"/>
      </g>
     </g>
     <g id="text_7">
      <!-- 1500 -->
      <g transform="translate(276.939008 266.598437)scale(0.1 -0.1)">
       <use xlink:href="#DejaVuSans-49"/>
       <use x="63.623047" xlink:href="#DejaVuSans-53"/>
       <use x="127.246094" xlink:href="#DejaVuSans-48"/>
       <use x="190.869141" xlink:href="#DejaVuSans-48"/>
      </g>
     </g>
    </g>
    <g id="xtick_8">
     <g id="line2d_8">
      <g>
       <use style="stroke:#000000;stroke-width:0.8;" x="328.941342" xlink:href="#m23a9140afd" y="252"/>
      </g>
     </g>
     <g id="text_8">
      <!-- 1750 -->
      <g transform="translate(316.216342 266.598437)scale(0.1 -0.1)">
       <use xlink:href="#DejaVuSans-49"/>
       <use x="63.623047" xlink:href="#DejaVuSans-55"/>
       <use x="127.246094" xlink:href="#DejaVuSans-53"/>
       <use x="190.869141" xlink:href="#DejaVuSans-48"/>
      </g>
     </g>
    </g>
    <g id="xtick_9">
     <g id="line2d_9">
      <g>
       <use style="stroke:#000000;stroke-width:0.8;" x="368.218677" xlink:href="#m23a9140afd" y="252"/>
      </g>
     </g>
     <g id="text_9">
      <!-- 2000 -->
      <g transform="translate(355.493677 266.598437)scale(0.1 -0.1)">
       <use xlink:href="#DejaVuSans-50"/>
       <use x="63.623047" xlink:href="#DejaVuSans-48"/>
       <use x="127.246094" xlink:href="#DejaVuSans-48"/>
       <use x="190.869141" xlink:href="#DejaVuSans-48"/>
      </g>
     </g>
    </g>
    <g id="text_10">
     <!-- time [arbitrary units] -->
     <defs>
      <path d="M 18.3125 70.21875 
L 18.3125 54.6875 
L 36.8125 54.6875 
L 36.8125 47.703125 
L 18.3125 47.703125 
L 18.3125 18.015625 
Q 18.3125 11.328125 20.140625 9.421875 
Q 21.96875 7.515625 27.59375 7.515625 
L 36.8125 7.515625 
L 36.8125 0 
L 27.59375 0 
Q 17.1875 0 13.234375 3.875 
Q 9.28125 7.765625 9.28125 18.015625 
L 9.28125 47.703125 
L 2.6875 47.703125 
L 2.6875 54.6875 
L 9.28125 54.6875 
L 9.28125 70.21875 
z
" id="DejaVuSans-116"/>
      <path d="M 9.421875 54.6875 
L 18.40625 54.6875 
L 18.40625 0 
L 9.421875 0 
z
M 9.421875 75.984375 
L 18.40625 75.984375 
L 18.40625 64.59375 
L 9.421875 64.59375 
z
" id="DejaVuSans-105"/>
      <path d="M 52 44.1875 
Q 55.375 50.25 60.0625 53.125 
Q 64.75 56 71.09375 56 
Q 79.640625 56 84.28125 50.015625 
Q 88.921875 44.046875 88.921875 33.015625 
L 88.921875 0 
L 79.890625 0 
L 79.890625 32.71875 
Q 79.890625 40.578125 77.09375 44.375 
Q 74.3125 48.1875 68.609375 48.1875 
Q 61.625 48.1875 57.5625 43.546875 
Q 53.515625 38.921875 53.515625 30.90625 
L 53.515625 0 
L 44.484375 0 
L 44.484375 32.71875 
Q 44.484375 40.625 41.703125 44.40625 
Q 38.921875 48.1875 33.109375 48.1875 
Q 26.21875 48.1875 22.15625 43.53125 
Q 18.109375 38.875 18.109375 30.90625 
L 18.109375 0 
L 9.078125 0 
L 9.078125 54.6875 
L 18.109375 54.6875 
L 18.109375 46.1875 
Q 21.1875 51.21875 25.484375 53.609375 
Q 29.78125 56 35.6875 56 
Q 41.65625 56 45.828125 52.96875 
Q 50 49.953125 52 44.1875 
z
" id="DejaVuSans-109"/>
      <path d="M 56.203125 29.59375 
L 56.203125 25.203125 
L 14.890625 25.203125 
Q 15.484375 15.921875 20.484375 11.0625 
Q 25.484375 6.203125 34.421875 6.203125 
Q 39.59375 6.203125 44.453125 7.46875 
Q 49.3125 8.734375 54.109375 11.28125 
L 54.109375 2.78125 
Q 49.265625 0.734375 44.1875 -0.34375 
Q 39.109375 -1.421875 33.890625 -1.421875 
Q 20.796875 -1.421875 13.15625 6.1875 
Q 5.515625 13.8125 5.515625 26.8125 
Q 5.515625 40.234375 12.765625 48.109375 
Q 20.015625 56 32.328125 56 
Q 43.359375 56 49.78125 48.890625 
Q 56.203125 41.796875 56.203125 29.59375 
z
M 47.21875 32.234375 
Q 47.125 39.59375 43.09375 43.984375 
Q 39.0625 48.390625 32.421875 48.390625 
Q 24.90625 48.390625 20.390625 44.140625 
Q 15.875 39.890625 15.1875 32.171875 
z
" id="DejaVuSans-101"/>
      <path id="DejaVuSans-32"/>
      <path d="M 8.59375 75.984375 
L 29.296875 75.984375 
L 29.296875 69 
L 17.578125 69 
L 17.578125 -6.203125 
L 29.296875 -6.203125 
L 29.296875 -13.1875 
L 8.59375 -13.1875 
z
" id="DejaVuSans-91"/>
      <path d="M 34.28125 27.484375 
Q 23.390625 27.484375 19.1875 25 
Q 14.984375 22.515625 14.984375 16.5 
Q 14.984375 11.71875 18.140625 8.90625 
Q 21.296875 6.109375 26.703125 6.109375 
Q 34.1875 6.109375 38.703125 11.40625 
Q 43.21875 16.703125 43.21875 25.484375 
L 43.21875 27.484375 
z
M 52.203125 31.203125 
L 52.203125 0 
L 43.21875 0 
L 43.21875 8.296875 
Q 40.140625 3.328125 35.546875 0.953125 
Q 30.953125 -1.421875 24.3125 -1.421875 
Q 15.921875 -1.421875 10.953125 3.296875 
Q 6 8.015625 6 15.921875 
Q 6 25.140625 12.171875 29.828125 
Q 18.359375 34.515625 30.609375 34.515625 
L 43.21875 34.515625 
L 43.21875 35.40625 
Q 43.21875 41.609375 39.140625 45 
Q 35.0625 48.390625 27.6875 48.390625 
Q 23 48.390625 18.546875 47.265625 
Q 14.109375 46.140625 10.015625 43.890625 
L 10.015625 52.203125 
Q 14.9375 54.109375 19.578125 55.046875 
Q 24.21875 56 28.609375 56 
Q 40.484375 56 46.34375 49.84375 
Q 52.203125 43.703125 52.203125 31.203125 
z
" id="DejaVuSans-97"/>
      <path d="M 41.109375 46.296875 
Q 39.59375 47.171875 37.8125 47.578125 
Q 36.03125 48 33.890625 48 
Q 26.265625 48 22.1875 43.046875 
Q 18.109375 38.09375 18.109375 28.8125 
L 18.109375 0 
L 9.078125 0 
L 9.078125 54.6875 
L 18.109375 54.6875 
L 18.109375 46.1875 
Q 20.953125 51.171875 25.484375 53.578125 
Q 30.03125 56 36.53125 56 
Q 37.453125 56 38.578125 55.875 
Q 39.703125 55.765625 41.0625 55.515625 
z
" id="DejaVuSans-114"/>
      <path d="M 48.6875 27.296875 
Q 48.6875 37.203125 44.609375 42.84375 
Q 40.53125 48.484375 33.40625 48.484375 
Q 26.265625 48.484375 22.1875 42.84375 
Q 18.109375 37.203125 18.109375 27.296875 
Q 18.109375 17.390625 22.1875 11.75 
Q 26.265625 6.109375 33.40625 6.109375 
Q 40.53125 6.109375 44.609375 11.75 
Q 48.6875 17.390625 48.6875 27.296875 
z
M 18.109375 46.390625 
Q 20.953125 51.265625 25.265625 53.625 
Q 29.59375 56 35.59375 56 
Q 45.5625 56 51.78125 48.09375 
Q 58.015625 40.1875 58.015625 27.296875 
Q 58.015625 14.40625 51.78125 6.484375 
Q 45.5625 -1.421875 35.59375 -1.421875 
Q 29.59375 -1.421875 25.265625 0.953125 
Q 20.953125 3.328125 18.109375 8.203125 
L 18.109375 0 
L 9.078125 0 
L 9.078125 75.984375 
L 18.109375 75.984375 
z
" id="DejaVuSans-98"/>
      <path d="M 32.171875 -5.078125 
Q 28.375 -14.84375 24.75 -17.8125 
Q 21.140625 -20.796875 15.09375 -20.796875 
L 7.90625 -20.796875 
L 7.90625 -13.28125 
L 13.1875 -13.28125 
Q 16.890625 -13.28125 18.9375 -11.515625 
Q 21 -9.765625 23.484375 -3.21875 
L 25.09375 0.875 
L 2.984375 54.6875 
L 12.5 54.6875 
L 29.59375 11.921875 
L 46.6875 54.6875 
L 56.203125 54.6875 
z
" id="DejaVuSans-121"/>
      <path d="M 8.5 21.578125 
L 8.5 54.6875 
L 17.484375 54.6875 
L 17.484375 21.921875 
Q 17.484375 14.15625 20.5 10.265625 
Q 23.53125 6.390625 29.59375 6.390625 
Q 36.859375 6.390625 41.078125 11.03125 
Q 45.3125 15.671875 45.3125 23.6875 
L 45.3125 54.6875 
L 54.296875 54.6875 
L 54.296875 0 
L 45.3125 0 
L 45.3125 8.40625 
Q 42.046875 3.421875 37.71875 1 
Q 33.40625 -1.421875 27.6875 -1.421875 
Q 18.265625 -1.421875 13.375 4.4375 
Q 8.5 10.296875 8.5 21.578125 
z
M 31.109375 56 
z
" id="DejaVuSans-117"/>
      <path d="M 54.890625 33.015625 
L 54.890625 0 
L 45.90625 0 
L 45.90625 32.71875 
Q 45.90625 40.484375 42.875 44.328125 
Q 39.84375 48.1875 33.796875 48.1875 
Q 26.515625 48.1875 22.3125 43.546875 
Q 18.109375 38.921875 18.109375 30.90625 
L 18.109375 0 
L 9.078125 0 
L 9.078125 54.6875 
L 18.109375 54.6875 
L 18.109375 46.1875 
Q 21.34375 51.125 25.703125 53.5625 
Q 30.078125 56 35.796875 56 
Q 45.21875 56 50.046875 50.171875 
Q 54.890625 44.34375 54.890625 33.015625 
z
" id="DejaVuSans-110"/>
      <path d="M 44.28125 53.078125 
L 44.28125 44.578125 
Q 40.484375 46.53125 36.375 47.5 
Q 32.28125 48.484375 27.875 48.484375 
Q 21.1875 48.484375 17.84375 46.4375 
Q 14.5 44.390625 14.5 40.28125 
Q 14.5 37.15625 16.890625 35.375 
Q 19.28125 33.59375 26.515625 31.984375 
L 29.59375 31.296875 
Q 39.15625 29.25 43.1875 25.515625 
Q 47.21875 21.78125 47.21875 15.09375 
Q 47.21875 7.46875 41.1875 3.015625 
Q 35.15625 -1.421875 24.609375 -1.421875 
Q 20.21875 -1.421875 15.453125 -0.5625 
Q 10.6875 0.296875 5.421875 2 
L 5.421875 11.28125 
Q 10.40625 8.6875 15.234375 7.390625 
Q 20.0625 6.109375 24.8125 6.109375 
Q 31.15625 6.109375 34.5625 8.28125 
Q 37.984375 10.453125 37.984375 14.40625 
Q 37.984375 18.0625 35.515625 20.015625 
Q 33.0625 21.96875 24.703125 23.78125 
L 21.578125 24.515625 
Q 13.234375 26.265625 9.515625 29.90625 
Q 5.8125 33.546875 5.8125 39.890625 
Q 5.8125 47.609375 11.28125 51.796875 
Q 16.75 56 26.8125 56 
Q 31.78125 56 36.171875 55.265625 
Q 40.578125 54.546875 44.28125 53.078125 
z
" id="DejaVuSans-115"/>
      <path d="M 30.421875 75.984375 
L 30.421875 -13.1875 
L 9.71875 -13.1875 
L 9.71875 -6.203125 
L 21.390625 -6.203125 
L 21.390625 69 
L 9.71875 69 
L 9.71875 75.984375 
z
" id="DejaVuSans-93"/>
     </defs>
     <g transform="translate(168.955469 280.276563)scale(0.1 -0.1)">
      <use xlink:href="#DejaVuSans-116"/>
      <use x="39.208984" xlink:href="#DejaVuSans-105"/>
      <use x="66.992188" xlink:href="#DejaVuSans-109"/>
      <use x="164.404297" xlink:href="#DejaVuSans-101"/>
      <use x="225.927734" xlink:href="#DejaVuSans-32"/>
      <use x="257.714844" xlink:href="#DejaVuSans-91"/>
      <use x="296.728516" xlink:href="#DejaVuSans-97"/>
      <use x="358.007812" xlink:href="#DejaVuSans-114"/>
      <use x="399.121094" xlink:href="#DejaVuSans-98"/>
      <use x="462.597656" xlink:href="#DejaVuSans-105"/>
      <use x="490.380859" xlink:href="#DejaVuSans-116"/>
      <use x="529.589844" xlink:href="#DejaVuSans-114"/>
      <use x="570.703125" xlink:href="#DejaVuSans-97"/>
      <use x="631.982422" xlink:href="#DejaVuSans-114"/>
      <use x="673.095703" xlink:href="#DejaVuSans-121"/>
      <use x="732.275391" xlink:href="#DejaVuSans-32"/>
      <use x="764.0625" xlink:href="#DejaVuSans-117"/>
      <use x="827.441406" xlink:href="#DejaVuSans-110"/>
      <use x="890.820312" xlink:href="#DejaVuSans-105"/>
      <use x="918.603516" xlink:href="#DejaVuSans-116"/>
      <use x="957.8125" xlink:href="#DejaVuSans-115"/>
      <use x="1009.912109" xlink:href="#DejaVuSans-93"/>
     </g>
    </g>
   </g>
   <g id="matplotlib.axis_2">
    <g id="ytick_1">
     <g id="line2d_10">
      <defs>
       <path d="M 0 0 
L -3.5 0 
" id="m513e76d2c7" style="stroke:#000000;stroke-width:0.8;"/>
      </defs>
      <g>
       <use style="stroke:#000000;stroke-width:0.8;" x="54" xlink:href="#m513e76d2c7" y="242.19086"/>
      </g>
     </g>
     <g id="text_11">
      <!-- 0.0 -->
      <defs>
       <path d="M 10.6875 12.40625 
L 21 12.40625 
L 21 0 
L 10.6875 0 
z
" id="DejaVuSans-46"/>
      </defs>
      <g transform="translate(31.096875 245.990079)scale(0.1 -0.1)">
       <use xlink:href="#DejaVuSans-48"/>
       <use x="63.623047" xlink:href="#DejaVuSans-46"/>
       <use x="95.410156" xlink:href="#DejaVuSans-48"/>
      </g>
     </g>
    </g>
    <g id="ytick_2">
     <g id="line2d_11">
      <g>
       <use style="stroke:#000000;stroke-width:0.8;" x="54" xlink:href="#m513e76d2c7" y="207.317939"/>
      </g>
     </g>
     <g id="text_12">
      <!-- 0.1 -->
      <g transform="translate(31.096875 211.117158)scale(0.1 -0.1)">
       <use xlink:href="#DejaVuSans-48"/>
       <use x="63.623047" xlink:href="#DejaVuSans-46"/>
       <use x="95.410156" xlink:href="#DejaVuSans-49"/>
      </g>
     </g>
    </g>
    <g id="ytick_3">
     <g id="line2d_12">
      <g>
       <use style="stroke:#000000;stroke-width:0.8;" x="54" xlink:href="#m513e76d2c7" y="172.445018"/>
      </g>
     </g>
     <g id="text_13">
      <!-- 0.2 -->
      <g transform="translate(31.096875 176.244237)scale(0.1 -0.1)">
       <use xlink:href="#DejaVuSans-48"/>
       <use x="63.623047" xlink:href="#DejaVuSans-46"/>
       <use x="95.410156" xlink:href="#DejaVuSans-50"/>
      </g>
     </g>
    </g>
    <g id="ytick_4">
     <g id="line2d_13">
      <g>
       <use style="stroke:#000000;stroke-width:0.8;" x="54" xlink:href="#m513e76d2c7" y="137.572097"/>
      </g>
     </g>
     <g id="text_14">
      <!-- 0.3 -->
      <defs>
       <path d="M 40.578125 39.3125 
Q 47.65625 37.796875 51.625 33 
Q 55.609375 28.21875 55.609375 21.1875 
Q 55.609375 10.40625 48.1875 4.484375 
Q 40.765625 -1.421875 27.09375 -1.421875 
Q 22.515625 -1.421875 17.65625 -0.515625 
Q 12.796875 0.390625 7.625 2.203125 
L 7.625 11.71875 
Q 11.71875 9.328125 16.59375 8.109375 
Q 21.484375 6.890625 26.8125 6.890625 
Q 36.078125 6.890625 40.9375 10.546875 
Q 45.796875 14.203125 45.796875 21.1875 
Q 45.796875 27.640625 41.28125 31.265625 
Q 36.765625 34.90625 28.71875 34.90625 
L 20.21875 34.90625 
L 20.21875 43.015625 
L 29.109375 43.015625 
Q 36.375 43.015625 40.234375 45.921875 
Q 44.09375 48.828125 44.09375 54.296875 
Q 44.09375 59.90625 40.109375 62.90625 
Q 36.140625 65.921875 28.71875 65.921875 
Q 24.65625 65.921875 20.015625 65.03125 
Q 15.375 64.15625 9.8125 62.3125 
L 9.8125 71.09375 
Q 15.4375 72.65625 20.34375 73.4375 
Q 25.25 74.21875 29.59375 74.21875 
Q 40.828125 74.21875 47.359375 69.109375 
Q 53.90625 64.015625 53.90625 55.328125 
Q 53.90625 49.265625 50.4375 45.09375 
Q 46.96875 40.921875 40.578125 39.3125 
z
" id="DejaVuSans-51"/>
      </defs>
      <g transform="translate(31.096875 141.371316)scale(0.1 -0.1)">
       <use xlink:href="#DejaVuSans-48"/>
       <use x="63.623047" xlink:href="#DejaVuSans-46"/>
       <use x="95.410156" xlink:href="#DejaVuSans-51"/>
      </g>
     </g>
    </g>
    <g id="ytick_5">
     <g id="line2d_14">
      <g>
       <use style="stroke:#000000;stroke-width:0.8;" x="54" xlink:href="#m513e76d2c7" y="102.699176"/>
      </g>
     </g>
     <g id="text_15">
      <!-- 0.4 -->
      <defs>
       <path d="M 37.796875 64.3125 
L 12.890625 25.390625 
L 37.796875 25.390625 
z
M 35.203125 72.90625 
L 47.609375 72.90625 
L 47.609375 25.390625 
L 58.015625 25.390625 
L 58.015625 17.1875 
L 47.609375 17.1875 
L 47.609375 0 
L 37.796875 0 
L 37.796875 17.1875 
L 4.890625 17.1875 
L 4.890625 26.703125 
z
" id="DejaVuSans-52"/>
      </defs>
      <g transform="translate(31.096875 106.498395)scale(0.1 -0.1)">
       <use xlink:href="#DejaVuSans-48"/>
       <use x="63.623047" xlink:href="#DejaVuSans-46"/>
       <use x="95.410156" xlink:href="#DejaVuSans-52"/>
      </g>
     </g>
    </g>
    <g id="ytick_6">
     <g id="line2d_15">
      <g>
       <use style="stroke:#000000;stroke-width:0.8;" x="54" xlink:href="#m513e76d2c7" y="67.826256"/>
      </g>
     </g>
     <g id="text_16">
      <!-- 0.5 -->
      <g transform="translate(31.096875 71.625474)scale(0.1 -0.1)">
       <use xlink:href="#DejaVuSans-48"/>
       <use x="63.623047" xlink:href="#DejaVuSans-46"/>
       <use x="95.410156" xlink:href="#DejaVuSans-53"/>
      </g>
     </g>
    </g>
    <g id="text_17">
     <!-- RSS [GB] -->
     <defs>
      <path d="M 44.390625 34.1875 
Q 47.5625 33.109375 50.5625 29.59375 
Q 53.5625 26.078125 56.59375 19.921875 
L 66.609375 0 
L 56 0 
L 46.6875 18.703125 
Q 43.0625 26.03125 39.671875 28.421875 
Q 36.28125 30.8125 30.421875 30.8125 
L 19.671875 30.8125 
L 19.671875 0 
L 9.8125 0 
L 9.8125 72.90625 
L 32.078125 72.90625 
Q 44.578125 72.90625 50.734375 67.671875 
Q 56.890625 62.453125 56.890625 51.90625 
Q 56.890625 45.015625 53.6875 40.46875 
Q 50.484375 35.9375 44.390625 34.1875 
z
M 19.671875 64.796875 
L 19.671875 38.921875 
L 32.078125 38.921875 
Q 39.203125 38.921875 42.84375 42.21875 
Q 46.484375 45.515625 46.484375 51.90625 
Q 46.484375 58.296875 42.84375 61.546875 
Q 39.203125 64.796875 32.078125 64.796875 
z
" id="DejaVuSans-82"/>
      <path d="M 53.515625 70.515625 
L 53.515625 60.890625 
Q 47.90625 63.578125 42.921875 64.890625 
Q 37.9375 66.21875 33.296875 66.21875 
Q 25.25 66.21875 20.875 63.09375 
Q 16.5 59.96875 16.5 54.203125 
Q 16.5 49.359375 19.40625 46.890625 
Q 22.3125 44.4375 30.421875 42.921875 
L 36.375 41.703125 
Q 47.40625 39.59375 52.65625 34.296875 
Q 57.90625 29 57.90625 20.125 
Q 57.90625 9.515625 50.796875 4.046875 
Q 43.703125 -1.421875 29.984375 -1.421875 
Q 24.8125 -1.421875 18.96875 -0.25 
Q 13.140625 0.921875 6.890625 3.21875 
L 6.890625 13.375 
Q 12.890625 10.015625 18.65625 8.296875 
Q 24.421875 6.59375 29.984375 6.59375 
Q 38.421875 6.59375 43.015625 9.90625 
Q 47.609375 13.234375 47.609375 19.390625 
Q 47.609375 24.75 44.3125 27.78125 
Q 41.015625 30.8125 33.5 32.328125 
L 27.484375 33.5 
Q 16.453125 35.6875 11.515625 40.375 
Q 6.59375 45.0625 6.59375 53.421875 
Q 6.59375 63.09375 13.40625 68.65625 
Q 20.21875 74.21875 32.171875 74.21875 
Q 37.3125 74.21875 42.625 73.28125 
Q 47.953125 72.359375 53.515625 70.515625 
z
" id="DejaVuSans-83"/>
      <path d="M 59.515625 10.40625 
L 59.515625 29.984375 
L 43.40625 29.984375 
L 43.40625 38.09375 
L 69.28125 38.09375 
L 69.28125 6.78125 
Q 63.578125 2.734375 56.6875 0.65625 
Q 49.8125 -1.421875 42 -1.421875 
Q 24.90625 -1.421875 15.25 8.5625 
Q 5.609375 18.5625 5.609375 36.375 
Q 5.609375 54.25 15.25 64.234375 
Q 24.90625 74.21875 42 74.21875 
Q 49.125 74.21875 55.546875 72.453125 
Q 61.96875 70.703125 67.390625 67.28125 
L 67.390625 56.78125 
Q 61.921875 61.421875 55.765625 63.765625 
Q 49.609375 66.109375 42.828125 66.109375 
Q 29.4375 66.109375 22.71875 58.640625 
Q 16.015625 51.171875 16.015625 36.375 
Q 16.015625 21.625 22.71875 14.15625 
Q 29.4375 6.6875 42.828125 6.6875 
Q 48.046875 6.6875 52.140625 7.59375 
Q 56.25 8.5 59.515625 10.40625 
z
" id="DejaVuSans-71"/>
      <path d="M 19.671875 34.8125 
L 19.671875 8.109375 
L 35.5 8.109375 
Q 43.453125 8.109375 47.28125 11.40625 
Q 51.125 14.703125 51.125 21.484375 
Q 51.125 28.328125 47.28125 31.5625 
Q 43.453125 34.8125 35.5 34.8125 
z
M 19.671875 64.796875 
L 19.671875 42.828125 
L 34.28125 42.828125 
Q 41.5 42.828125 45.03125 45.53125 
Q 48.578125 48.25 48.578125 53.8125 
Q 48.578125 59.328125 45.03125 62.0625 
Q 41.5 64.796875 34.28125 64.796875 
z
M 9.8125 72.90625 
L 35.015625 72.90625 
Q 46.296875 72.90625 52.390625 68.21875 
Q 58.5 63.53125 58.5 54.890625 
Q 58.5 48.1875 55.375 44.234375 
Q 52.25 40.28125 46.1875 39.3125 
Q 53.46875 37.75 57.5 32.78125 
Q 61.53125 27.828125 61.53125 20.40625 
Q 61.53125 10.640625 54.890625 5.3125 
Q 48.25 0 35.984375 0 
L 9.8125 0 
z
" id="DejaVuSans-66"/>
     </defs>
     <g transform="translate(25.017187 165.897969)rotate(-90)scale(0.1 -0.1)">
      <use xlink:href="#DejaVuSans-82"/>
      <use x="69.482422" xlink:href="#DejaVuSans-83"/>
      <use x="132.958984" xlink:href="#DejaVuSans-83"/>
      <use x="196.435547" xlink:href="#DejaVuSans-32"/>
      <use x="228.222656" xlink:href="#DejaVuSans-91"/>
      <use x="267.236328" xlink:href="#DejaVuSans-71"/>
      <use x="344.726562" xlink:href="#DejaVuSans-66"/>
      <use x="413.330078" xlink:href="#DejaVuSans-93"/>
     </g>
    </g>
   </g>
   <g id="line2d_16">
    <path clip-path="url(#p91e16256a4)" d="M 54 91.476264 
L 54.157109 107.780376 
L 54.314219 96.941122 
L 54.471328 115.312514 
L 54.628437 105.094508 
L 54.785547 107.813634 
L 55.099765 102.36474 
L 55.256875 107.768404 
L 55.413984 91.480255 
L 55.571093 96.910525 
L 55.728203 86.014067 
L 55.885312 102.356758 
L 56.042421 105.079875 
L 56.199531 102.310198 
L 56.35664 105.075884 
L 56.513749 80.553201 
L 56.827968 113.246564 
L 56.985077 126.822239 
L 57.142187 91.446998 
L 57.299296 105.069232 
L 57.456405 91.445667 
L 57.613515 107.745789 
L 57.927733 88.723881 
L 58.084843 91.441677 
L 58.399061 110.462254 
L 58.556171 94.156811 
L 58.71328 99.605705 
L 58.870389 91.432364 
L 59.027499 115.904496 
L 59.341718 99.599054 
L 59.498827 96.906534 
L 59.655936 106.407511 
L 59.813046 102.27428 
L 60.284374 113.170737 
L 60.441483 99.589742 
L 60.598592 102.268959 
L 60.755702 96.820065 
L 60.912811 102.267628 
L 61.06992 91.444337 
L 61.22703 94.143508 
L 61.384139 107.711201 
L 61.541248 99.5352 
L 61.698358 107.74978 
L 61.855467 99.533869 
L 62.169686 107.780376 
L 62.326795 96.166889 
L 62.483904 107.744458 
L 62.798123 91.393786 
L 62.955232 107.739137 
L 63.269451 88.664018 
L 63.42656 105.010699 
L 63.58367 105.008039 
L 63.897888 91.340574 
L 64.054998 115.857936 
L 64.212107 102.278271 
L 64.526326 105.000057 
L 64.683435 102.911492 
L 64.840544 91.375162 
L 65.154763 110.40106 
L 65.311872 96.776165 
L 65.468982 99.497951 
L 65.626091 118.56908 
L 65.7832 96.812083 
L 65.94031 110.393078 
L 66.097419 110.391748 
L 66.254528 94.128875 
L 66.411638 91.360528 
L 66.568747 102.217077 
L 66.725856 83.187188 
L 66.882966 102.210426 
L 67.040075 99.527218 
L 67.197184 126.727788 
L 67.354294 88.626769 
L 67.511403 104.972121 
L 67.668512 99.520566 
L 67.825622 107.659319 
L 67.982731 103.498152 
L 68.13984 104.965469 
L 68.29695 94.065021 
L 68.454059 91.371171 
L 68.611168 110.44363 
L 68.768278 94.06103 
L 69.082496 107.680604 
L 69.396715 102.18648 
L 69.710934 85.878377 
L 70.025153 96.774835 
L 70.182262 106.398199 
L 70.339371 102.219738 
L 70.496481 107.667301 
L 70.65359 102.218407 
L 70.810699 102.928786 
L 70.967809 91.352547 
L 71.124918 102.85695 
L 71.282027 102.210426 
L 71.439137 88.588191 
L 71.596246 102.207765 
L 71.753355 104.929551 
L 71.910465 102.203774 
L 72.067574 94.06103 
L 72.224683 113.101562 
L 72.381793 91.303326 
L 72.538902 102.198453 
L 72.696011 100.155118 
L 72.853121 107.646017 
L 73.167339 60.638664 
L 73.324449 104.875009 
L 73.481558 102.191801 
L 73.638667 107.640695 
L 73.795777 104.913588 
L 73.952886 94.06236 
L 74.109995 105.317998 
L 74.267105 91.243462 
L 74.581323 107.588814 
L 74.738433 121.89083 
L 74.895542 100.019427 
L 75.052651 99.520566 
L 75.36687 104.898955 
L 75.523979 102.174508 
L 75.681089 104.898955 
L 75.838198 93.318725 
L 76.152417 113.024405 
L 76.309526 102.163865 
L 76.623745 102.163865 
L 76.780854 102.163865 
L 76.937963 93.989194 
L 77.095073 96.70965 
L 77.409291 107.671292 
L 77.72351 88.532318 
L 77.880619 93.979882 
L 78.037729 104.876339 
L 78.194838 99.423455 
L 78.351947 113.00445 
L 78.666166 96.725614 
L 78.823275 104.867027 
L 78.980385 93.967909 
L 79.137494 104.865697 
L 79.294603 99.374234 
L 79.451713 102.09602 
L 79.608822 102.135929 
L 79.765931 104.817806 
L 79.923041 93.961258 
L 80.08015 91.307317 
L 80.23726 115.710273 
L 80.551478 96.680384 
L 80.708588 85.779935 
L 80.865697 107.57285 
L 81.022806 93.950615 
L 81.179916 93.973231 
L 81.494134 112.973853 
L 81.651244 91.223508 
L 81.808353 88.4964 
L 81.965462 102.115975 
L 82.122572 93.941303 
L 82.279681 96.61919 
L 82.5939 85.720072 
L 82.751009 102.109323 
L 82.908118 91.238141 
L 83.065228 99.338316 
L 83.222337 91.280711 
L 83.379446 104.144676 
L 83.536556 104.825788 
L 83.693665 96.733595 
L 83.850774 104.821797 
L 84.007884 85.749338 
L 84.164993 93.955937 
L 84.322102 121.123249 
L 84.636321 96.599236 
L 84.95054 96.641805 
L 85.107649 102.084047 
L 85.421868 91.238141 
L 85.736086 102.036157 
L 85.893196 99.35827 
L 86.207414 104.801843 
L 86.364524 102.033496 
L 86.521633 102.029505 
L 86.678742 112.991147 
L 86.835852 99.346298 
L 87.15007 104.749961 
L 87.464289 91.167635 
L 87.621398 102.062763 
L 87.935617 91.160984 
L 88.092726 102.058772 
L 88.249836 88.432546 
L 88.406945 102.013542 
L 88.564054 93.88144 
L 88.721164 95.169167 
L 88.878273 88.384655 
L 89.035382 102.05079 
L 89.349601 102.04946 
L 89.50671 91.14502 
L 89.66382 102.044139 
L 89.820929 93.947955 
L 90.135148 115.619813 
L 90.292257 104.761934 
L 90.449366 104.761934 
L 90.606476 96.588593 
L 90.763585 110.208167 
L 90.920695 112.888714 
L 91.077804 107.48106 
L 91.234913 85.684154 
L 91.392023 101.986936 
L 91.549132 96.579281 
L 91.706241 104.749961 
L 91.863351 93.850843 
L 92.177569 102.021523 
L 92.491788 96.579281 
L 92.806007 106.060303 
L 92.963116 99.249186 
L 93.120225 101.973633 
L 93.277335 88.441858 
L 93.434444 93.872128 
L 93.591553 105.37254 
L 93.748663 101.966981 
L 93.905772 104.730007 
L 94.062881 112.859448 
L 94.219991 88.44851 
L 94.3771 91.106442 
L 94.534209 102.00423 
L 94.691319 99.348958 
L 94.848428 101.992257 
L 95.005537 93.856164 
L 95.162647 110.125689 
L 95.319756 107.441151 
L 95.476865 116.934146 
L 95.633975 93.816256 
L 95.791084 101.989596 
L 95.948193 91.089148 
L 96.262412 107.389269 
L 96.419521 96.532721 
L 96.73374 96.488821 
L 96.890849 99.254507 
L 97.047959 93.802953 
L 97.362177 93.800292 
L 97.519287 110.148304 
L 97.676396 93.753732 
L 97.833505 118.275084 
L 97.990615 93.878779 
L 98.147724 101.969642 
L 98.304833 118.268433 
L 98.461943 96.470197 
L 98.619052 101.96299 
L 98.776161 101.96166 
L 98.933271 93.785659 
L 99.09038 110.088441 
L 99.247489 93.794971 
L 99.404599 104.680786 
L 99.561708 104.679456 
L 99.718817 91.05323 
L 100.033036 110.081789 
L 100.190145 107.395921 
L 100.347255 91.050569 
L 100.504364 101.944366 
L 100.661473 93.775016 
L 100.818583 107.3906 
L 100.975692 101.899136 
L 101.132802 104.663492 
L 101.289911 101.892485 
L 101.44702 118.284397 
L 101.918348 91.087818 
L 102.075458 88.264929 
L 102.232567 91.065203 
L 102.389676 107.379957 
L 102.546786 101.928403 
L 102.703895 88.300847 
L 102.861004 107.373306 
L 103.332332 91.101121 
L 103.489442 110.092432 
L 103.646551 90.977403 
L 103.80366 107.325415 
L 103.96077 88.928747 
L 104.117879 93.737768 
L 104.274988 93.737768 
L 104.432098 85.523188 
L 104.589207 88.363371 
L 104.746316 93.735107 
L 104.903426 107.353351 
L 105.217644 96.452903 
L 105.374754 99.17602 
L 105.688972 112.751694 
L 106.003191 90.997358 
L 106.1603 93.721804 
L 106.31741 96.442261 
L 106.474519 85.500573 
L 106.788738 95.730552 
L 106.945847 91.063872 
L 107.102956 104.60762 
L 107.260066 93.709832 
L 107.417175 104.606289 
L 107.574284 90.981394 
L 107.888503 104.602298 
L 108.045612 101.876521 
L 108.202722 104.599638 
L 108.359831 118.220542 
L 108.51694 90.973412 
L 108.67405 85.583051 
L 108.831159 111.362865 
L 108.988268 101.868539 
L 109.145378 104.590326 
L 109.302487 101.820649 
L 109.459596 104.549087 
L 109.616706 104.587665 
L 109.773815 101.817988 
L 109.930924 112.032004 
L 110.088034 104.581014 
L 110.245143 104.579683 
L 110.402252 107.262891 
L 110.559362 96.359782 
L 110.716471 101.851246 
L 110.87358 101.807346 
L 111.03069 90.952127 
L 111.187799 104.573032 
L 111.344908 106.552513 
L 111.502018 60.973899 
L 111.659127 109.975365 
L 111.816237 112.739721 
L 111.973346 101.839273 
L 112.130455 109.968714 
L 112.287565 104.51849 
L 112.444674 93.684556 
L 112.601783 112.68917 
L 112.758893 99.109505 
L 112.916002 112.68917 
L 113.230221 101.828631 
L 113.38733 96.378406 
L 113.544439 104.549087 
L 113.701549 96.373085 
L 114.015767 107.270873 
L 114.172877 109.259666 
L 114.329986 104.541105 
L 114.487095 93.640656 
L 114.644205 104.497205 
L 114.801314 90.914879 
L 114.958423 107.260231 
L 115.115533 107.2589 
L 115.272642 112.864769 
L 115.429751 101.808676 
L 115.586861 99.035008 
L 115.74397 101.803355 
L 115.901079 102.056111 
L 116.058189 99.077578 
L 116.215298 104.523811 
L 116.372407 99.073587 
L 116.529517 88.174469 
L 116.686626 90.900246 
L 116.843735 90.896255 
L 117.000845 101.791382 
L 117.157954 104.515829 
L 117.315063 101.788722 
L 117.472173 85.44071 
L 117.629282 88.730533 
L 118.10061 107.229634 
L 118.257719 93.606069 
L 118.414829 93.637996 
L 118.571938 112.631967 
L 118.729047 101.775419 
L 118.886157 101.732849 
L 119.043266 109.903529 
L 119.200375 96.309231 
L 119.357485 104.450645 
L 119.514594 99.04299 
L 119.828813 104.486563 
L 119.985922 90.864328 
L 120.143031 107.209679 
L 120.45725 98.988448 
L 120.771469 104.479911 
L 120.928578 101.752804 
L 121.085687 96.301249 
L 121.242797 101.766107 
L 121.557015 90.853686 
L 121.714125 90.849695 
L 121.871234 104.466608 
L 122.028344 107.113898 
L 122.185453 82.737547 
L 122.342562 101.739501 
L 122.499672 104.462617 
L 122.656781 112.590728 
L 122.81389 101.734179 
L 122.971 99.049641 
L 123.285218 112.585407 
L 123.599437 96.278634 
L 123.756546 90.904237 
L 123.913656 101.722207 
L 124.070765 96.273313 
L 124.227874 96.313222 
L 124.384984 90.898916 
L 124.542093 98.993769 
L 124.699202 88.095981 
L 124.856312 104.440002 
L 125.013421 96.343819 
L 125.17053 101.670325 
L 125.32764 88.08933 
L 125.484749 90.832401 
L 125.641858 104.434681 
L 125.798968 98.941887 
L 125.956077 98.983127 
L 126.113186 111.922919 
L 126.270296 98.936566 
L 126.427405 101.700922 
L 126.584514 101.657022 
L 126.741624 93.527581 
L 126.898733 107.147155 
L 127.212952 90.801804 
L 127.370061 107.101925 
L 127.52717 101.650371 
L 127.68428 101.69294 
L 127.998498 85.299698 
L 128.312717 98.963172 
L 128.469826 107.140504 
L 128.626936 107.131192 
L 128.784045 112.536186 
L 128.941154 90.835061 
L 129.098264 120.708196 
L 129.255373 101.635738 
L 129.412482 107.081971 
L 129.569592 104.409405 
L 129.726701 112.529534 
L 130.04092 96.221431 
L 130.198029 98.901979 
L 130.355138 90.769877 
L 130.512248 98.941887 
L 130.669357 90.767216 
L 130.826466 101.659683 
L 130.983576 88.040109 
L 131.140685 88.0441 
L 131.612013 107.103256 
L 131.769122 101.654362 
L 132.24045 101.649041 
L 132.39756 88.558924 
L 132.554669 101.64771 
L 132.711779 98.923263 
L 132.868888 107.095274 
L 133.025997 101.642389 
L 133.183107 101.641059 
L 133.340216 102.27295 
L 133.497325 124.072516 
L 133.654435 85.367543 
L 133.811544 90.745932 
L 133.968653 101.634407 
L 134.125763 101.633077 
L 134.282872 107.113898 
L 134.597091 93.411845 
L 134.7542 104.352203 
L 134.911309 98.901979 
L 135.068419 107.03142 
L 135.225528 101.622435 
L 135.382637 101.657022 
L 135.696856 85.347589 
L 135.853965 107.066007 
L 136.011075 101.614453 
L 136.168184 90.803134 
L 136.325293 90.715335 
L 136.482403 123.364798 
L 136.639512 93.393221 
L 136.796621 104.332248 
L 136.953731 93.43313 
L 137.11084 96.157577 
L 137.425059 107.007474 
L 137.739277 96.150926 
L 137.896387 101.597159 
L 138.210605 115.174164 
L 138.367715 96.144274 
L 138.524824 101.591838 
L 138.839043 104.271055 
L 138.996152 92.66821 
L 139.310371 104.306973 
L 139.46748 104.302982 
L 139.624589 101.537296 
L 139.781699 90.679417 
L 139.938808 101.578535 
L 140.253027 101.586517 
L 140.410136 107.022108 
L 140.567245 107.019447 
L 140.724355 96.129641 
L 141.038573 103.581961 
L 141.195683 106.972887 
L 141.352792 98.795555 
L 141.509901 101.594498 
L 141.667011 101.520002 
L 141.981229 109.686691 
L 142.138339 106.962244 
L 142.295448 87.99887 
L 142.452557 93.336019 
L 142.609667 104.233806 
L 142.766776 91.332592 
L 142.923885 93.403864 
L 143.080995 90.687398 
L 143.238104 90.64749 
L 143.395214 104.229815 
L 143.552323 101.541287 
L 143.709432 109.729261 
L 144.023651 98.770279 
L 144.18076 101.490735 
L 144.33787 109.665406 
L 144.652088 101.489405 
L 144.966307 101.527984 
L 145.123416 91.258096 
L 145.280526 101.526653 
L 145.437635 96.076429 
L 145.594744 96.75355 
L 145.751854 90.622214 
L 145.908963 104.244449 
L 146.066072 101.474772 
L 146.380291 121.905463 
L 146.5374 101.514681 
L 146.69451 101.51202 
L 146.851619 104.233806 
L 147.008728 96.120329 
L 147.165838 79.763005 
L 147.322947 93.333358 
L 147.480056 91.250114 
L 147.794275 104.224494 
L 147.951384 87.952309 
L 148.422712 104.219173 
L 148.579822 90.596938 
L 148.736931 104.217843 
L 148.89404 93.318725 
L 149.05115 95.996611 
L 149.208259 90.590287 
L 149.522478 106.934308 
L 149.679587 96.032529 
L 149.836696 93.310743 
L 149.993806 104.16197 
L 150.308024 98.751655 
L 150.465134 104.199219 
L 150.622243 101.474772 
L 150.936462 106.98619 
L 151.093571 104.151328 
L 151.25068 85.124099 
L 151.40779 96.017896 
L 151.564899 98.697113 
L 151.722008 93.322716 
L 151.879118 104.185916 
L 152.036227 104.184585 
L 152.193336 82.38901 
L 152.507555 101.412248 
L 152.664664 98.689131 
L 152.821774 109.584258 
L 152.978883 90.554369 
L 153.135992 90.620884 
L 153.293102 106.89706 
L 153.607321 95.997942 
L 153.76443 104.169952 
L 153.921539 104.123392 
L 154.078649 98.717067 
L 154.235758 108.896495 
L 154.392867 106.149433 
L 154.549977 90.539736 
L 154.864195 114.332086 
L 155.021305 93.258861 
L 155.178414 101.388302 
L 155.335523 87.805977 
L 155.649742 109.557652 
L 155.806851 112.280769 
L 155.963961 90.550378 
L 156.435289 104.100777 
L 156.592398 101.374999 
L 156.749507 110.909233 
L 156.906617 109.544349 
L 157.063726 98.689131 
L 157.377945 104.088804 
L 157.535054 98.68381 
L 157.692163 101.408257 
L 157.849273 95.959363 
L 158.006382 112.256824 
L 158.320601 101.400275 
L 158.47771 104.122061 
L 158.791929 98.670507 
L 158.949038 104.119401 
L 159.263257 87.845885 
L 159.891694 106.791966 
L 160.048803 101.382981 
L 160.205913 104.064859 
L 160.363022 112.234209 
L 160.520131 87.714186 
L 160.677241 93.204319 
L 160.83435 89.786788 
L 160.991459 105.408458 
L 161.148569 104.054216 
L 161.305678 98.647892 
L 161.462787 101.368348 
L 161.619897 106.817242 
L 161.777006 104.091465 
L 161.934115 104.090134 
L 162.248334 98.635919 
L 162.405443 93.187025 
L 162.719662 104.082153 
L 162.876771 95.967345 
L 163.033881 112.282099 
L 163.19099 101.311145 
L 163.348099 98.584038 
L 163.505209 98.581377 
L 163.662318 104.07284 
L 163.819427 98.622616 
L 164.133646 98.618625 
L 164.290756 104.022289 
L 164.447865 101.339081 
L 164.604974 104.063528 
L 164.919193 84.94717 
L 165.233412 95.842297 
L 165.390521 117.679112 
L 165.70474 106.777333 
L 165.861849 95.878215 
L 166.018958 93.153768 
L 166.333177 101.323118 
L 166.490286 98.598671 
L 166.647396 93.149777 
L 166.961614 104.042244 
L 167.118724 90.466569 
L 167.275833 104.038253 
L 167.432942 104.036922 
L 167.590052 107.493032 
L 167.747161 117.692415 
L 167.90427 89.03251 
L 168.06138 87.68758 
L 168.218489 98.537477 
L 168.532708 98.610644 
L 168.689817 90.401385 
L 168.846926 104.02362 
L 169.318254 79.498276 
L 169.475364 101.293851 
L 169.632473 101.292521 
L 169.946692 106.737424 
L 170.103801 93.112529 
L 170.26091 101.24463 
L 170.575129 90.341521 
L 170.732238 98.556101 
L 170.889348 98.59468 
L 171.046457 84.887306 
L 171.203566 98.55078 
L 171.360676 93.100556 
L 171.517785 106.722791 
L 171.674894 90.396064 
L 171.989113 98.545459 
L 172.146222 98.501559 
L 172.303332 87.64368 
L 172.460441 103.947793 
L 172.77466 98.537477 
L 172.931769 87.593129 
L 173.088878 90.361476 
L 173.403097 106.705497 
L 173.560206 101.253942 
L 173.717316 101.304494 
L 173.874425 106.658937 
L 174.031534 125.772635 
L 174.188644 101.206052 
L 174.345753 101.203391 
L 174.502863 103.971738 
L 174.659972 90.346843 
L 174.817081 93.068629 
L 174.974191 106.689533 
L 175.1313 95.85693 
L 175.288409 95.790415 
L 175.445519 84.925885 
L 175.602628 98.469632 
L 175.916847 87.633038 
L 176.073956 103.955774 
L 176.231065 82.157538 
L 176.388175 101.228667 
L 176.545284 101.226006 
L 176.702393 98.45766 
L 176.859503 93.127162 
L 177.016612 44.443636 
L 177.173721 101.220685 
L 177.330831 106.668249 
L 177.48794 101.174125 
L 177.802159 101.214034 
L 177.959268 95.76514 
L 178.116377 123.042867 
L 178.273487 101.170134 
L 178.430596 103.931829 
L 178.587705 90.377439 
L 178.744815 101.207382 
L 178.901924 103.887929 
L 179.059033 101.158161 
L 179.216143 103.925178 
L 179.530361 98.449678 
L 179.687471 98.472293 
L 179.84458 93.022069 
L 180.001689 117.540761 
L 180.315908 93.018078 
L 180.473017 93.053996 
L 180.630127 90.2923 
L 180.787236 90.280328 
L 180.944345 103.866645 
L 181.101455 101.186097 
L 181.258564 106.620358 
L 181.415673 120.810629 
L 181.729892 90.28964 
L 181.887001 123.008279 
L 182.044111 101.135546 
L 182.20122 109.303566 
L 182.358329 101.172794 
L 182.515439 106.621688 
L 182.672548 101.127564 
L 182.829657 101.168804 
L 182.986767 103.849351 
L 183.143876 101.168804 
L 183.300985 90.232437 
L 183.458095 114.743148 
L 183.615204 108.613142 
L 183.772313 114.739157 
L 183.929423 103.883938 
L 184.086532 112.012049 
L 184.243641 92.980829 
L 184.55786 103.878617 
L 184.714969 87.530605 
L 184.872079 104.550417 
L 185.029188 101.15284 
L 185.186298 92.972848 
L 185.343407 101.146188 
L 185.500516 98.420411 
L 185.657626 92.967526 
L 185.814735 112.037325 
L 186.128954 95.687983 
L 186.286063 111.992095 
L 186.443172 101.134216 
L 186.600282 103.814763 
L 186.757391 101.134216 
L 186.9145 90.189868 
L 187.07161 111.245798 
L 187.228719 114.70723 
L 187.385828 90.227116 
L 187.542938 103.850681 
L 187.700047 98.41376 
L 187.857156 103.84536 
L 188.014266 90.268355 
L 188.328484 103.797469 
L 188.485594 90.216474 
L 188.642703 101.114261 
L 188.799812 122.868598 
L 189.114031 90.213813 
L 189.27114 112.005398 
L 189.42825 61.597808 
L 189.585359 106.556504 
L 189.742468 98.339263 
L 189.899578 103.829396 
L 190.213796 90.20051 
L 190.370906 111.953516 
L 190.528015 90.19918 
L 190.685124 103.820084 
L 191.156452 90.195189 
L 191.313562 101.047747 
L 191.470671 103.769533 
L 191.62778 101.086325 
L 191.941999 90.144638 
L 192.099108 101.037104 
L 192.256218 103.761551 
L 192.413327 95.695964 
L 192.727546 114.656678 
L 192.884655 92.899681 
L 193.041764 106.523246 
L 193.355983 95.580229 
L 193.513092 111.92425 
L 193.827311 101.069031 
L 193.98442 128.269601 
L 194.14153 103.749578 
L 194.298639 107.148486 
L 194.455748 95.67867 
L 194.612858 98.333942 
L 194.769967 106.464713 
L 194.927076 101.011829 
L 195.084186 103.734945 
L 195.241295 90.15528 
L 195.555514 117.398419 
L 195.869733 90.11271 
L 196.026842 101.046416 
L 196.183951 103.725633 
L 196.341061 98.274079 
L 196.49817 84.77024 
L 196.655279 101.039765 
L 196.812389 101.037104 
L 196.969498 90.136656 
L 197.126607 92.859772 
L 197.283717 100.990544 
L 197.440826 90.15661 
L 197.597935 111.204559 
L 197.755045 93.414506 
L 197.912154 95.578898 
L 198.069263 90.128674 
L 198.226373 101.025132 
L 198.383482 90.188537 
L 198.697701 95.590871 
L 199.011919 103.742927 
L 199.169029 92.912984 
L 199.326138 106.460722 
L 199.483247 109.1426 
L 199.640357 100.969259 
L 199.797466 84.659826 
L 200.111685 111.16332 
L 200.268794 90.11005 
L 200.425903 103.684394 
L 200.583013 103.725633 
L 200.740122 92.786606 
L 200.897231 95.561604 
L 201.054341 103.722973 
L 201.21145 90.098077 
L 201.682778 103.675082 
L 201.839887 106.439438 
L 201.996997 111.845762 
L 202.311215 90.088765 
L 202.468325 103.711 
L 202.625434 100.985223 
L 202.782543 103.70967 
L 203.096762 98.920603 
L 203.253871 100.939993 
L 203.410981 92.80257 
L 203.56809 100.977241 
L 203.725199 87.352346 
L 203.882309 92.798579 
L 204.039418 113.914373 
L 204.353637 100.997195 
L 204.510746 100.967929 
L 204.667855 109.150582 
L 205.139183 90.063489 
L 205.296293 103.643155 
L 205.453402 106.408841 
L 205.610511 98.311327 
L 205.767621 111.855074 
L 206.08184 92.779955 
L 206.238949 95.461832 
L 206.396058 90.054177 
L 206.553168 90.051517 
L 206.710277 100.947974 
L 206.867386 84.599962 
L 207.181605 103.669761 
L 207.338714 84.593311 
L 207.652933 120.649663 
L 207.810042 87.386933 
L 207.967152 103.661779 
L 208.124261 106.382235 
L 208.28137 106.382235 
L 208.43848 95.483117 
L 208.595589 95.505732 
L 208.752698 100.93068 
L 208.909808 79.131114 
L 209.066917 111.781908 
L 209.224026 100.92669 
L 209.538245 106.370262 
L 209.695354 98.272748 
L 209.852464 106.326363 
L 210.009573 92.785276 
L 210.166682 95.467153 
L 210.323792 102.234371 
L 210.480901 95.464493 
L 210.63801 95.465823 
L 210.79512 90.012938 
L 210.952229 103.633843 
L 211.109338 79.15905 
L 211.423557 100.862835 
L 211.580666 92.729403 
L 211.737776 100.858844 
L 211.894885 98.174306 
L 212.051994 100.897423 
L 212.209104 95.40596 
L 212.366213 98.172976 
L 212.523322 98.130407 
L 212.680432 106.343656 
L 212.837541 97.612921 
L 212.99465 95.441878 
L 213.15176 98.163664 
L 213.308869 103.611228 
L 213.465978 81.814322 
L 213.623088 104.215182 
L 213.780197 92.736055 
L 213.937306 103.604576 
L 214.251525 95.431235 
L 214.408634 111.776587 
L 214.565744 98.150361 
L 214.722853 100.832239 
L 214.879962 89.97569 
L 215.037072 92.698807 
L 215.35129 114.491722 
L 215.5084 100.869487 
L 215.665509 98.10114 
L 215.822618 90.032893 
L 215.979728 103.619209 
L 216.136837 88.546952 
L 216.293947 106.265169 
L 216.608165 98.093158 
L 216.765275 103.581961 
L 216.922384 98.130407 
L 217.079493 102.863601 
L 217.236603 100.852193 
L 217.393712 89.951745 
L 217.550821 102.85961 
L 217.707931 92.672201 
L 217.86504 92.706788 
L 218.022149 111.70076 
L 218.179259 106.303747 
L 218.336368 111.695439 
L 218.493477 89.942433 
L 218.650587 106.245214 
L 218.807696 95.399308 
L 219.121915 106.282463 
L 219.279024 98.067883 
L 219.436133 100.829578 
L 219.593243 111.686127 
L 219.750352 89.92913 
L 220.064571 79.030011 
L 220.22168 100.825587 
L 220.378789 100.824257 
L 220.693008 106.267829 
L 221.007227 100.775036 
L 221.164336 103.539392 
L 221.478555 98.087837 
L 221.635664 103.536731 
L 221.792773 84.493539 
L 221.949883 87.183398 
L 222.106992 108.937734 
L 222.264101 110.979739 
L 222.421211 79.02336 
L 222.57832 89.937111 
L 222.735429 89.937111 
L 223.049648 111.651539 
L 223.206757 87.128856 
L 223.363867 93.908046 
L 223.520976 114.417225 
L 223.678085 89.893212 
L 223.835195 103.468886 
L 223.992304 98.063892 
L 224.149413 100.787008 
L 224.306523 100.861505 
L 224.463632 103.508795 
L 224.620741 103.504804 
L 224.93496 98.053249 
L 225.249179 87.151471 
L 225.406288 92.648255 
L 225.563397 106.219939 
L 225.877616 84.423033 
L 226.191835 108.897825 
L 226.348944 103.490171 
L 226.506053 87.219316 
L 226.663163 103.484849 
L 226.820272 81.689274 
L 226.977382 111.614291 
L 227.605819 89.921148 
L 227.762928 103.432968 
L 227.920038 98.026644 
L 228.077147 100.74843 
L 228.234256 89.859954 
L 228.391366 92.571098 
L 228.548475 89.846651 
L 228.862694 106.255857 
L 229.019803 103.464895 
L 229.334022 103.462234 
L 229.491131 92.563116 
L 229.64824 120.282502 
L 229.80535 92.629631 
L 229.962459 92.57908 
L 230.119568 89.909175 
L 230.433787 106.13347 
L 230.590896 89.828027 
L 231.062224 111.563739 
L 231.219334 92.545823 
L 231.533552 106.199984 
L 231.690662 100.713842 
L 231.847771 87.091607 
L 232.00488 117.059194 
L 232.16199 103.468886 
L 232.319099 100.708521 
L 232.476208 108.837962 
L 232.633318 97.980083 
L 232.947536 121.772434 
L 233.261755 92.53252 
L 233.418864 87.155462 
L 233.733083 100.761733 
L 233.890192 87.070323 
L 234.047302 87.071653 
L 234.36152 95.242333 
L 234.675739 82.966358 
L 234.832848 100.642006 
L 234.989958 103.371774 
L 235.147067 95.237012 
L 235.304176 100.642006 
L 235.461286 111.541124 
L 235.618395 95.238342 
L 235.775504 106.1348 
L 235.932614 95.237012 
L 236.089723 97.961459 
L 236.246832 111.541124 
L 236.561051 97.961459 
L 236.71816 89.786788 
L 236.87527 97.961459 
L 237.032379 89.788118 
L 237.189489 108.816677 
L 237.346598 101.321788 
L 237.503707 100.643336 
L 237.660817 100.685906 
L 237.817926 95.235682 
L 237.975035 103.410353 
L 238.132145 103.410353 
L 238.289254 84.337894 
L 238.446363 110.145643 
L 238.603473 103.409023 
L 238.760582 117.032588 
L 238.917691 92.511235 
L 239.23191 101.24197 
L 239.389019 89.800091 
L 239.546129 100.642006 
L 239.703238 103.367783 
L 239.860347 95.194443 
L 240.017457 100.684576 
L 240.174566 100.685906 
L 240.331675 103.365123 
L 240.488785 103.409023 
L 240.645894 95.267609 
L 240.803003 100.692557 
L 240.960113 115.619813 
L 241.117222 100.676594 
L 241.274331 100.676594 
L 241.431441 102.676029 
L 241.58855 100.675264 
L 241.745659 84.32193 
L 241.902769 101.998908 
L 242.059878 92.48995 
L 242.216987 103.423656 
L 242.374097 92.49128 
L 242.531206 97.957468 
L 242.688315 92.480638 
L 242.845425 106.101542 
L 243.002534 95.264948 
L 243.159643 103.298608 
L 243.473862 103.366453 
L 243.630971 87.084956 
L 243.788081 100.642006 
L 243.94519 97.864347 
L 244.102299 106.078927 
L 244.259409 89.741558 
L 244.416518 90.257713 
L 244.573627 108.755484 
L 244.730737 111.5225 
L 244.887846 108.752823 
L 245.202065 92.442059 
L 245.516283 111.511858 
L 245.673393 108.742181 
L 245.987611 89.710961 
L 246.144721 100.603428 
L 246.458939 107.370645 
L 246.616049 103.326544 
L 246.773158 103.322553 
L 246.930267 92.423435 
L 247.087377 89.694997 
L 247.244486 111.446673 
L 247.401595 100.591455 
L 247.558705 103.314572 
L 247.715814 100.639346 
L 247.872924 103.310581 
L 248.030033 100.582143 
L 248.187142 104.587665 
L 248.344252 114.156487 
L 248.501361 97.938844 
L 248.65847 108.750162 
L 248.81558 89.672382 
L 248.972689 89.672382 
L 249.129798 106.016403 
L 249.286908 106.013743 
L 249.444017 102.606854 
L 249.601126 103.287966 
L 249.758236 116.867631 
L 250.072454 86.892063 
L 250.229564 108.687639 
L 250.386673 89.693667 
L 250.543782 111.448004 
L 250.700892 97.78719 
L 250.858001 95.060083 
L 251.01511 84.196883 
L 251.17222 100.540904 
L 251.329329 96.379737 
L 251.486438 97.813796 
L 251.643548 103.26136 
L 251.800657 103.26136 
L 251.957766 97.811136 
L 252.114876 101.211373 
L 252.271985 100.528931 
L 252.429094 89.629813 
L 252.586204 92.395499 
L 252.743313 89.698988 
L 252.900422 103.245396 
L 253.057532 104.56638 
L 253.214641 89.623161 
L 253.37175 97.751272 
L 253.52886 114.137863 
L 253.685969 78.75331 
L 254.000188 108.641078 
L 254.157297 95.017513 
L 254.314406 95.060083 
L 254.471516 97.74063 
L 254.628625 116.809098 
L 254.785734 100.461086 
L 254.942844 101.182106 
L 255.099953 103.224111 
L 255.257062 86.873439 
L 255.414172 111.426719 
L 255.571281 92.35426 
L 255.72839 95.068064 
L 256.199718 119.520242 
L 256.513937 92.31169 
L 256.671046 89.61651 
L 257.142374 114.060706 
L 257.299484 104.523811 
L 257.456593 108.609151 
L 257.613702 100.477049 
L 257.770812 111.329607 
L 257.927921 97.745951 
L 258.085031 103.196175 
L 258.24214 86.849493 
L 258.713468 95.014853 
L 258.870577 100.461086 
L 259.027687 100.459756 
L 259.184796 103.182872 
L 259.341905 92.281094 
L 259.499015 103.181542 
L 259.656124 103.180212 
L 259.813233 97.687418 
L 259.970343 100.451774 
L 260.127452 97.725997 
L 260.284561 103.17489 
L 260.441671 89.584583 
L 260.59878 94.994898 
L 260.755889 105.167674 
L 260.912999 103.166909 
L 261.070108 92.302378 
L 261.227217 103.166909 
L 261.384327 92.267791 
L 261.698545 111.292359 
L 261.855655 94.984256 
L 262.169873 103.154936 
L 262.326983 94.940356 
L 262.484092 108.56126 
L 262.641201 95.045449 
L 262.798311 111.353552 
L 263.112529 97.655491 
L 263.269639 108.594518 
L 263.426748 89.520729 
L 263.583857 105.900668 
L 263.740967 100.417186 
L 263.898076 103.138972 
L 264.055185 94.924392 
L 264.212295 108.543967 
L 264.526513 104.454636 
L 264.683623 103.130991 
L 264.840732 103.12966 
L 265.154951 89.581922 
L 265.31206 100.402553 
L 265.469169 89.502104 
L 265.626279 103.124339 
L 265.783388 105.847456 
L 265.940497 103.120348 
L 266.097607 89.492792 
L 266.411825 108.521352 
L 266.726044 86.765685 
L 266.883153 89.488801 
L 267.040263 108.517361 
L 267.197372 100.386589 
L 267.354481 111.279056 
L 267.511591 89.494123 
L 267.825809 94.949668 
L 267.982919 103.100394 
L 268.140028 100.332047 
L 268.297137 103.099064 
L 268.454247 89.532701 
L 268.611356 92.255818 
L 268.768466 97.599618 
L 268.925575 94.887144 
L 269.082684 94.919071 
L 269.239794 97.639527 
L 269.554012 111.216532 
L 269.711122 115.301872 
L 269.868231 92.182652 
L 270.02534 113.968915 
L 270.18245 94.873841 
L 270.339559 92.214579 
L 270.496668 103.077779 
L 270.653778 97.626224 
L 270.967996 97.623564 
L 271.282215 86.724446 
L 271.439324 100.30012 
L 271.596434 92.165358 
L 271.753543 97.614252 
L 271.910652 86.737749 
L 272.067762 103.060485 
L 272.38198 94.841914 
L 272.53909 108.464149 
L 272.696199 86.709812 
L 272.853308 86.707152 
L 273.010418 102.324831 
L 273.167527 89.387699 
L 273.481746 108.453506 
L 273.638855 92.148064 
L 273.795964 97.595627 
L 273.953074 97.553058 
L 274.110183 92.17733 
L 274.267292 108.446855 
L 274.581511 86.692519 
L 274.89573 108.502727 
L 275.052839 86.685867 
L 275.209948 89.444902 
L 275.367058 103.032549 
L 275.524167 103.029888 
L 275.681276 92.12944 
L 275.838386 94.809987 
L 275.995495 86.680546 
L 276.152604 97.577003 
L 276.309714 86.679216 
L 276.466823 97.570352 
L 276.781042 97.569022 
L 276.938151 108.42291 
L 277.09526 109.919493 
L 277.25237 97.567691 
L 277.409479 97.566361 
L 277.566588 86.667243 
L 278.195026 108.453506 
L 278.509244 86.65394 
L 278.666354 97.509158 
L 278.823463 86.61004 
L 278.980573 97.549067 
L 279.294791 97.546407 
L 279.451901 92.094852 
L 279.60901 92.092191 
L 279.766119 86.65261 
L 279.923229 100.220302 
L 280.080338 97.537094 
L 280.237447 108.390982 
L 280.394557 92.08554 
L 280.551666 92.08421 
L 280.708775 102.979337 
L 280.865885 83.906878 
L 281.022994 102.940758 
L 281.180103 102.972685 
L 281.337213 89.305221 
L 281.494322 86.624673 
L 281.651431 81.17711 
L 281.96565 94.792693 
L 282.122759 86.618022 
L 282.279869 86.693849 
L 282.436978 97.47058 
L 282.594087 97.510489 
L 282.751197 89.337148 
L 282.908306 102.958052 
L 283.065415 102.914152 
L 283.222525 97.506498 
L 283.536743 97.503837 
L 283.693853 94.77806 
L 283.850962 86.680546 
L 284.008071 86.633985 
L 284.165181 97.454616 
L 284.32229 100.218972 
L 284.479399 75.697619 
L 284.636509 97.494525 
L 284.793618 97.493195 
L 284.950727 109.028194 
L 285.107837 86.594077 
L 285.264946 97.491864 
L 285.422055 86.594077 
L 285.579165 102.888877 
L 285.736274 97.483883 
L 285.893383 97.482552 
L 286.050493 94.758105 
L 286.207602 86.579443 
L 286.364711 97.475901 
L 286.521821 86.633985 
L 286.836039 100.197687 
L 286.993149 102.919474 
L 287.150258 113.774692 
L 287.307367 86.580774 
L 287.464477 102.99131 
L 287.778695 94.739481 
L 287.935805 97.542416 
L 288.092914 97.461268 
L 288.250023 102.910161 
L 288.407133 89.387699 
L 288.564242 97.457277 
L 288.721351 81.091971 
L 288.878461 83.831051 
L 289.03557 97.453286 
L 289.192679 100.133833 
L 289.349789 75.717574 
L 289.506898 81.17844 
L 289.821117 102.892868 
L 290.292445 89.269303 
L 290.449554 86.595407 
L 290.606664 108.29121 
L 290.763773 86.536874 
L 290.920882 108.28988 
L 291.077992 92.015034 
L 291.235101 94.706224 
L 291.39221 86.532883 
L 291.54932 86.530222 
L 291.706429 97.38278 
L 291.863538 97.42668 
L 292.177757 102.872913 
L 292.334866 108.276577 
L 292.491976 97.421359 
L 292.649085 108.272586 
L 292.806194 97.417368 
L 292.963304 108.269926 
L 293.120413 86.592746 
L 293.277522 97.413377 
L 293.434632 97.412047 
L 293.591741 86.56481 
L 293.90596 97.410716 
L 294.063069 97.406725 
L 294.220178 102.81305 
L 294.377288 91.956501 
L 294.534397 97.401404 
L 294.691506 97.398744 
L 294.848616 80.400217 
L 295.005725 108.251301 
L 295.162834 86.495635 
L 295.319944 86.492974 
L 295.477053 93.985203 
L 295.634162 89.252009 
L 295.791272 97.389432 
L 295.948381 89.170861 
L 296.10549 97.386771 
L 296.2626 86.486323 
L 296.419709 102.787774 
L 296.733928 97.33888 
L 296.891037 86.499626 
L 297.205256 102.781123 
L 297.362365 97.329568 
L 297.519474 102.778462 
L 297.676584 89.154897 
L 297.833693 102.774471 
L 297.990802 91.919253 
L 298.147912 91.917923 
L 298.305021 86.499626 
L 298.46213 102.81172 
L 298.776349 86.466368 
L 298.933458 97.356174 
L 299.090568 91.919253 
L 299.404786 100.079291 
L 299.561896 100.07663 
L 299.719005 89.178842 
L 299.876115 100.0314 
L 300.033224 94.582506 
L 300.347443 105.518873 
L 300.818771 89.201457 
L 300.97588 100.022088 
L 301.132989 91.887326 
L 301.447208 105.50823 
L 301.604317 89.158888 
L 301.761427 100.058006 
L 301.918536 89.233385 
L 302.075645 100.054015 
L 302.232755 86.43045 
L 302.389864 89.154897 
L 302.546973 102.775802 
L 302.704083 100.047364 
L 302.861192 91.874023 
L 303.018301 105.525524 
L 303.175411 100.002134 
L 303.33252 102.72259 
L 303.489629 94.549249 
L 303.646739 105.521533 
L 303.803848 94.513331 
L 303.960957 102.715938 
L 304.118067 91.86338 
L 304.275176 100.03007 
L 304.432285 89.186824 
L 304.589395 105.480294 
L 304.746504 100.02874 
L 304.903613 89.129621 
L 305.217832 99.982179 
L 305.374941 94.573194 
L 305.532051 97.38145 
L 305.68916 105.501579 
L 306.003379 105.466991 
L 306.317597 89.201457 
L 306.474707 105.46167 
L 306.631816 100.011446 
L 306.788925 89.068428 
L 306.946035 102.730571 
L 307.260253 89.107006 
L 307.417363 105.411119 
L 307.574472 89.104346 
L 307.731581 105.448367 
L 307.888691 102.68135 
L 308.0458 94.505349 
L 308.202909 99.994152 
L 308.360019 99.994152 
L 308.517128 113.573817 
L 308.674237 102.714608 
L 308.831347 102.714608 
L 308.988456 94.538606 
L 309.145565 108.160841 
L 309.302675 103.275993 
L 309.459784 105.435064 
L 309.616893 119.012069 
L 309.774003 97.257732 
L 309.931112 110.836067 
L 310.088221 91.874023 
L 310.40244 105.425752 
L 310.55955 89.108337 
L 310.716659 102.654745 
L 310.873768 99.971537 
L 311.030878 108.100978 
L 311.187987 89.153567 
L 311.345096 108.098317 
L 311.502206 102.690663 
L 311.659315 75.446193 
L 311.816424 99.918325 
L 312.130643 105.408458 
L 312.287752 99.960894 
L 312.444862 89.061776 
L 312.601971 105.360567 
L 312.75908 89.055125 
L 313.230408 113.528587 
L 313.387518 102.630799 
L 313.701736 100.627373 
L 314.015955 89.043152 
L 314.173064 110.796158 
L 314.487283 91.840765 
L 314.644392 105.385843 
L 314.801502 102.661396 
L 314.958611 97.209842 
L 315.11572 97.208511 
L 315.27283 108.06506 
L 315.587048 102.609514 
L 315.901267 89.028519 
L 316.058376 110.781525 
L 316.372595 99.919655 
L 316.529704 108.050427 
L 316.686814 99.874425 
L 316.843923 102.598872 
L 317.001032 84.920564 
L 317.158142 102.596212 
L 317.315251 102.637451 
L 317.47236 99.911673 
L 317.62947 99.98617 
L 317.786579 110.764231 
L 318.100798 94.414889 
L 318.257907 99.903692 
L 318.415016 89.027189 
L 318.572126 91.72636 
L 318.729235 83.51045 
L 318.886344 99.89837 
L 319.043454 100.528931 
L 319.200563 114.837599 
L 319.357672 99.893049 
L 319.514782 99.84915 
L 319.671891 114.121899 
L 319.829 97.167272 
L 319.98611 99.843828 
L 320.143219 108.018499 
L 320.300328 86.266824 
L 320.457438 99.842498 
L 320.771656 99.881077 
L 320.928766 102.561624 
L 321.242985 91.737002 
L 321.400094 97.108739 
L 321.557203 97.151309 
L 321.714313 99.875755 
L 321.871422 86.209621 
L 322.028531 110.800149 
L 322.185641 97.145987 
L 322.34275 99.867774 
L 322.499859 88.969986 
L 322.814078 88.965995 
L 322.971187 99.861122 
L 323.128297 91.685121 
L 323.599625 113.435466 
L 323.756734 91.689112 
L 323.913843 94.402916 
L 324.228062 89.003243 
L 324.385171 99.84915 
L 324.542281 86.225584 
L 324.69939 116.150601 
L 324.856499 99.846489 
L 325.013609 97.120712 
L 325.170718 86.220263 
L 325.327827 102.564284 
L 325.484937 105.246162 
L 325.642046 88.962004 
L 325.799155 91.738333 
L 325.956265 102.558963 
L 326.113374 99.833186 
L 326.270483 99.833186 
L 326.427593 112.030673 
L 326.584702 113.40886 
L 326.741811 108.001206 
L 327.05603 88.960674 
L 327.213139 88.884847 
L 327.527358 99.818553 
L 327.684467 91.645212 
L 327.841577 99.773323 
L 327.998686 99.815892 
L 328.155795 113.392897 
L 328.470014 91.63856 
L 328.627123 105.216895 
L 328.784233 105.256804 
L 328.941342 91.649203 
L 329.098451 99.80658 
L 329.255561 97.080803 
L 329.41267 86.179024 
L 329.569779 88.911453 
L 329.883998 99.756029 
L 330.198217 99.766671 
L 330.355326 102.517724 
L 330.512435 102.516394 
L 330.669545 94.341723 
L 330.826654 94.37498 
L 331.140873 102.515063 
L 331.297982 99.867774 
L 331.455092 105.234189 
L 331.612201 88.882186 
L 331.76931 88.880856 
L 331.92642 94.32975 
L 332.083529 95.656055 
L 332.240638 99.777314 
L 332.554857 110.628541 
L 332.711966 88.874205 
L 332.869076 105.178317 
L 333.026185 102.449879 
L 333.183294 94.351035 
L 333.340404 107.897443 
L 333.497513 83.495816 
L 333.811732 116.141289 
L 333.968841 86.093885 
L 334.12595 105.207583 
L 334.440169 88.866223 
L 334.597278 99.753368 
L 334.754388 88.85558 
L 334.911497 110.605926 
L 335.068606 110.605926 
L 335.225716 75.258621 
L 335.382825 83.443935 
L 335.539934 102.469833 
L 335.697044 102.469833 
L 335.854153 91.570715 
L 336.011262 105.14772 
L 336.168372 107.912076 
L 336.48259 105.186299 
L 336.6397 113.31574 
L 336.796809 97.008967 
L 337.111028 102.45653 
L 337.268137 88.916774 
L 337.425246 99.728093 
L 337.582356 88.864892 
L 337.739465 102.40864 
L 337.896574 100.079291 
L 338.053684 103.008603 
L 338.210793 83.450586 
L 338.682121 107.846891 
L 338.83923 88.892829 
L 339.153449 110.612577 
L 339.310558 99.710799 
L 339.467668 99.710799 
L 339.624777 88.811681 
L 339.781886 99.708138 
L 339.938996 96.981031 
L 340.253214 102.428594 
L 340.567433 102.423273 
L 340.724542 105.14639 
L 340.881652 94.248602 
L 341.038761 99.652266 
L 341.19587 99.693505 
L 341.35298 96.967728 
L 341.667198 88.791726 
L 341.824308 96.963737 
L 341.981417 96.962406 
L 342.295636 110.584641 
L 342.452745 96.917176 
L 342.609855 94.231308 
L 342.766964 86.132464 
L 343.081183 105.125105 
L 343.238292 96.950434 
L 343.395401 110.801479 
L 343.70962 94.277868 
L 343.866729 94.221996 
L 344.023839 96.899882 
L 344.180948 105.117123 
L 344.495167 91.490897 
L 344.652276 110.518126 
L 344.966495 91.54544 
L 345.123604 102.382034 
L 345.280713 94.24195 
L 345.437823 110.587302 
L 345.594932 94.203372 
L 345.752041 99.652266 
L 345.909151 99.609696 
L 346.06626 86.028701 
L 346.223369 105.051939 
L 346.380479 105.095838 
L 346.537588 86.099206 
L 346.851807 110.498172 
L 347.008916 99.640293 
L 347.166025 50.598918 
L 347.323135 105.122444 
L 347.480244 91.421722 
L 347.637353 102.360749 
L 347.794463 77.864672 
L 348.108681 105.081205 
L 348.265791 110.48753 
L 348.4229 94.180757 
L 348.580009 96.903873 
L 348.737119 88.730533 
L 348.894228 102.350107 
L 349.051337 96.857313 
L 349.208447 96.897222 
L 349.365556 110.518126 
L 349.522665 85.955534 
L 349.679775 105.069232 
L 349.836884 96.897222 
L 349.993993 99.615017 
L 350.151103 99.612357 
L 350.308212 88.714569 
L 350.622431 88.711908 
L 350.77954 85.984801 
L 350.936649 88.707918 
L 351.093759 105.054599 
L 351.250868 88.713239 
L 351.407977 96.875937 
L 351.565087 94.235299 
L 351.722196 105.047948 
L 352.193524 86.000764 
L 352.350634 99.551163 
L 352.507743 102.316849 
L 352.664852 96.865295 
L 352.821962 99.544512 
L 352.979071 104.993406 
L 353.450399 85.960856 
L 353.607508 104.986754 
L 353.921727 96.853322 
L 354.078836 102.327492 
L 354.235946 102.299555 
L 354.393055 94.122224 
L 354.550164 105.659884 
L 354.707274 88.63076 
L 355.021492 113.146792 
L 355.178602 94.118233 
L 355.335711 99.523227 
L 355.49282 110.421015 
L 355.64993 111.098136 
L 355.807039 94.069012 
L 356.121258 113.819922 
L 356.278367 94.10626 
L 356.435476 99.553824 
L 356.592586 99.509924 
L 356.749695 96.828046 
L 357.063914 104.998727 
L 357.378132 85.924938 
L 357.535242 102.270289 
L 357.692351 88.679981 
L 357.84946 104.269724 
L 358.00657 91.36585 
L 358.163679 102.262307 
L 358.320788 94.088966 
L 358.477898 99.616348 
L 358.635007 96.810753 
L 358.792116 102.284922 
L 358.949226 102.259647 
L 359.106335 104.984093 
L 359.263444 88.636081 
L 359.420554 88.705257 
L 359.577663 110.381106 
L 359.891882 94.155481 
L 360.048991 115.824679 
L 360.2061 88.641403 
L 360.36321 91.344565 
L 360.520319 83.168563 
L 360.677428 99.515245 
L 360.834538 102.237032 
L 360.991647 99.545842 
L 361.148756 88.613466 
L 361.305866 99.466024 
L 361.462975 89.228063 
L 361.620084 100.115209 
L 361.777194 94.057039 
L 361.934303 102.227719 
L 362.091412 96.778826 
L 362.248522 99.458042 
L 362.405631 104.905606 
L 362.71985 91.345895 
L 362.876959 102.219738 
L 363.034069 83.145948 
L 363.191178 104.952166 
L 363.348287 106.295766 
L 363.505397 96.841349 
L 363.662506 98.071874 
L 363.819615 110.385097 
L 363.976725 99.442079 
L 364.133834 115.83133 
L 364.290943 94.034424 
L 364.448053 110.337206 
L 364.605162 88.605485 
L 364.919381 93.985203 
L 365.07649 94.0597 
L 365.233599 104.92157 
L 365.390709 94.108921 
L 365.547818 99.471345 
L 365.704927 99.426115 
L 365.862037 96.744238 
L 366.019146 104.157979 
L 366.176255 104.914918 
L 366.490474 96.738917 
L 366.647583 110.471566 
L 367.118911 94.007818 
L 367.276021 96.730935 
L 367.43313 104.859046 
L 367.747349 96.725614 
L 367.904458 101.816658 
L 368.061567 102.174508 
L 368.218677 99.436758 
L 368.375786 121.197746 
L 368.532895 88.624109 
L 368.690005 109.617516 
L 368.847114 91.211535 
L 369.004223 99.438088 
L 369.161333 96.713641 
L 369.318442 88.560255 
L 369.475551 104.882991 
L 369.632661 93.983873 
L 369.78977 96.70699 
L 369.946879 93.978552 
L 370.103989 88.529658 
L 370.261098 99.382216 
L 370.418207 96.701668 
L 370.575317 91.248784 
L 370.732426 94.041076 
L 370.889535 85.874386 
L 371.046645 85.794568 
L 371.203754 102.14125 
L 371.360863 104.821797 
L 371.517973 104.821797 
L 371.675082 102.137259 
L 371.832191 102.135929 
L 371.989301 99.410152 
L 372.14641 88.512364 
L 372.303519 99.404831 
L 372.460629 91.230159 
L 372.617738 102.162535 
L 372.774847 88.5842 
L 372.931957 91.230159 
L 373.089066 88.578879 
L 373.403285 112.976514 
L 373.560394 93.905385 
L 373.717504 101.382981 
L 373.874613 99.392858 
L 374.031722 102.072075 
L 374.188832 102.115975 
L 374.345941 93.938643 
L 374.50305 104.8351 
L 374.66016 97.969441 
L 374.817269 99.339646 
L 374.974378 88.561585 
L 375.131488 107.512987 
L 375.445706 93.928 
L 375.602816 96.652447 
L 375.759925 91.211535 
L 375.917034 99.374234 
L 376.231253 99.370243 
L 376.388362 91.198232 
L 376.545472 102.04946 
L 376.702581 99.368913 
L 376.85969 110.22014 
L 377.0168 110.22014 
L 377.173909 96.647126 
L 377.331018 107.538263 
L 377.645237 80.285811 
L 377.802346 110.256058 
L 377.959456 99.35694 
L 378.116565 99.354279 
L 378.273674 110.208167 
L 378.587893 91.255435 
L 378.902112 112.928623 
L 379.21633 91.170296 
L 379.687658 99.297077 
L 379.844768 88.516355 
L 380.001877 107.467757 
L 380.316096 93.886761 
L 380.630314 115.712934 
L 380.787424 88.444519 
L 380.944533 85.706769 
L 381.101642 107.459775 
L 381.258752 96.601896 
L 381.415861 102.04946 
L 381.57297 99.281113 
L 381.73008 91.150342 
L 382.044298 102.041478 
L 382.201408 96.592584 
L 382.358517 102.041478 
L 382.515626 112.894036 
L 382.672736 101.996248 
L 382.829845 99.26781 
L 382.986954 102.036157 
L 383.144064 88.412592 
L 383.301173 88.368692 
L 383.458282 112.886054 
L 383.615392 99.306389 
L 383.772501 104.753952 
L 383.929611 96.655108 
L 384.08672 99.259828 
L 384.243829 88.479107 
L 384.400939 110.229452 
L 384.558048 88.452501 
L 384.715157 110.75891 
L 384.872267 88.395298 
L 385.029376 104.74198 
L 385.186485 99.247856 
L 385.343595 99.290425 
L 385.500704 88.477776 
L 385.657813 110.241425 
L 385.814923 99.242534 
L 385.972032 102.008221 
L 386.129141 99.283774 
L 386.286251 93.832219 
L 386.44336 99.237213 
L 386.600469 88.381995 
L 386.757579 112.222236 
L 387.071797 96.550015 
L 387.386016 115.618483 
L 387.543125 110.127019 
L 387.700235 99.26914 
L 387.857344 104.772576 
L 388.014453 99.299737 
L 388.171563 101.989596 
L 388.485781 94.098278 
L 388.642891 99.258498 
L 388.8 93.830889 
L 388.957109 99.255837 
L 388.957109 99.255837 
" style="fill:none;stroke:#1f77b4;stroke-linecap:square;stroke-width:1.5;"/>
   </g>
   <g id="patch_3">
    <path d="M 54 252 
L 54 34.56 
" style="fill:none;stroke:#000000;stroke-linecap:square;stroke-linejoin:miter;stroke-width:0.8;"/>
   </g>
   <g id="patch_4">
    <path d="M 388.8 252 
L 388.8 34.56 
" style="fill:none;stroke:#000000;stroke-linecap:square;stroke-linejoin:miter;stroke-width:0.8;"/>
   </g>
   <g id="patch_5">
    <path d="M 54 252 
L 388.8 252 
" style="fill:none;stroke:#000000;stroke-linecap:square;stroke-linejoin:miter;stroke-width:0.8;"/>
   </g>
   <g id="patch_6">
    <path d="M 54 34.56 
L 388.8 34.56 
" style="fill:none;stroke:#000000;stroke-linecap:square;stroke-linejoin:miter;stroke-width:0.8;"/>
   </g>
   <g id="legend_1">
    <g id="patch_7">
     <path d="M 330.154688 57.238125 
L 381.8 57.238125 
Q 383.8 57.238125 383.8 55.238125 
L 383.8 41.56 
Q 383.8 39.56 381.8 39.56 
L 330.154688 39.56 
Q 328.154688 39.56 328.154688 41.56 
L 328.154688 55.238125 
Q 328.154688 57.238125 330.154688 57.238125 
z
" style="fill:#ffffff;opacity:0.8;stroke:#cccccc;stroke-linejoin:miter;"/>
    </g>
    <g id="line2d_17">
     <path d="M 332.154688 47.658437 
L 352.154688 47.658437 
" style="fill:none;stroke:#1f77b4;stroke-linecap:square;stroke-width:1.5;"/>
    </g>
    <g id="line2d_18"/>
    <g id="text_18">
     <!-- RSS -->
     <g transform="translate(360.154688 51.158437)scale(0.1 -0.1)">
      <use xlink:href="#DejaVuSans-82"/>
      <use x="69.482422" xlink:href="#DejaVuSans-83"/>
      <use x="132.958984" xlink:href="#DejaVuSans-83"/>
     </g>
    </g>
   </g>
  </g>
 </g>
 <defs>
  <clipPath id="p91e16256a4">
   <rect height="217.44" width="334.8" x="54" y="34.56"/>
  </clipPath>
 </defs>
</svg>
