<?xml version="1.0" encoding="utf-8" standalone="no"?>
<!DOCTYPE svg PUBLIC "-//W3C//DTD SVG 1.1//EN"
  "http://www.w3.org/Graphics/SVG/1.1/DTD/svg11.dtd">
<!-- Created with matplotlib (https://matplotlib.org/) -->
<svg height="288pt" version="1.1" viewBox="0 0 432 288" width="432pt" xmlns="http://www.w3.org/2000/svg" xmlns:xlink="http://www.w3.org/1999/xlink">
 <defs>
  <style type="text/css">
*{stroke-linecap:butt;stroke-linejoin:round;}
  </style>
 </defs>
 <g id="figure_1">
  <g id="patch_1">
   <path d="M 0 288 
L 432 288 
L 432 0 
L 0 0 
z
" style="fill:#ffffff;"/>
  </g>
  <g id="axes_1">
   <g id="patch_2">
    <path d="M 60.425 246.2 
L 421.2 246.2 
L 421.2 14.8 
L 60.425 14.8 
z
" style="fill:#ffffff;"/>
   </g>
   <g id="matplotlib.axis_1">
    <g id="xtick_1">
     <g id="line2d_1">
      <defs>
       <path d="M 0 0 
L 0 3.5 
" id="m5047fd1d2f" style="stroke:#000000;stroke-width:0.8;"/>
      </defs>
      <g>
       <use style="stroke:#000000;stroke-width:0.8;" x="60.425" xlink:href="#m5047fd1d2f" y="246.2"/>
      </g>
     </g>
     <g id="text_1">
      <!-- 0 -->
      <defs>
       <path d="M 31.78125 66.40625 
Q 24.171875 66.40625 20.328125 58.90625 
Q 16.5 51.421875 16.5 36.375 
Q 16.5 21.390625 20.328125 13.890625 
Q 24.171875 6.390625 31.78125 6.390625 
Q 39.453125 6.390625 43.28125 13.890625 
Q 47.125 21.390625 47.125 36.375 
Q 47.125 51.421875 43.28125 58.90625 
Q 39.453125 66.40625 31.78125 66.40625 
z
M 31.78125 74.21875 
Q 44.046875 74.21875 50.515625 64.515625 
Q 56.984375 54.828125 56.984375 36.375 
Q 56.984375 17.96875 50.515625 8.265625 
Q 44.046875 -1.421875 31.78125 -1.421875 
Q 19.53125 -1.421875 13.0625 8.265625 
Q 6.59375 17.96875 6.59375 36.375 
Q 6.59375 54.828125 13.0625 64.515625 
Q 19.53125 74.21875 31.78125 74.21875 
z
" id="DejaVuSans-48"/>
      </defs>
      <g transform="translate(57.24375 260.798437)scale(0.1 -0.1)">
       <use xlink:href="#DejaVuSans-48"/>
      </g>
     </g>
    </g>
    <g id="xtick_2">
     <g id="line2d_2">
      <g>
       <use style="stroke:#000000;stroke-width:0.8;" x="102.749613" xlink:href="#m5047fd1d2f" y="246.2"/>
      </g>
     </g>
     <g id="text_2">
      <!-- 250 -->
      <defs>
       <path d="M 19.1875 8.296875 
L 53.609375 8.296875 
L 53.609375 0 
L 7.328125 0 
L 7.328125 8.296875 
Q 12.9375 14.109375 22.625 23.890625 
Q 32.328125 33.6875 34.8125 36.53125 
Q 39.546875 41.84375 41.421875 45.53125 
Q 43.3125 49.21875 43.3125 52.78125 
Q 43.3125 58.59375 39.234375 62.25 
Q 35.15625 65.921875 28.609375 65.921875 
Q 23.96875 65.921875 18.8125 64.3125 
Q 13.671875 62.703125 7.8125 59.421875 
L 7.8125 69.390625 
Q 13.765625 71.78125 18.9375 73 
Q 24.125 74.21875 28.421875 74.21875 
Q 39.75 74.21875 46.484375 68.546875 
Q 53.21875 62.890625 53.21875 53.421875 
Q 53.21875 48.921875 51.53125 44.890625 
Q 49.859375 40.875 45.40625 35.40625 
Q 44.1875 33.984375 37.640625 27.21875 
Q 31.109375 20.453125 19.1875 8.296875 
z
" id="DejaVuSans-50"/>
       <path d="M 10.796875 72.90625 
L 49.515625 72.90625 
L 49.515625 64.59375 
L 19.828125 64.59375 
L 19.828125 46.734375 
Q 21.96875 47.46875 24.109375 47.828125 
Q 26.265625 48.1875 28.421875 48.1875 
Q 40.625 48.1875 47.75 41.5 
Q 54.890625 34.8125 54.890625 23.390625 
Q 54.890625 11.625 47.5625 5.09375 
Q 40.234375 -1.421875 26.90625 -1.421875 
Q 22.3125 -1.421875 17.546875 -0.640625 
Q 12.796875 0.140625 7.71875 1.703125 
L 7.71875 11.625 
Q 12.109375 9.234375 16.796875 8.0625 
Q 21.484375 6.890625 26.703125 6.890625 
Q 35.15625 6.890625 40.078125 11.328125 
Q 45.015625 15.765625 45.015625 23.390625 
Q 45.015625 31 40.078125 35.4375 
Q 35.15625 39.890625 26.703125 39.890625 
Q 22.75 39.890625 18.8125 39.015625 
Q 14.890625 38.140625 10.796875 36.28125 
z
" id="DejaVuSans-53"/>
      </defs>
      <g transform="translate(93.205863 260.798437)scale(0.1 -0.1)">
       <use xlink:href="#DejaVuSans-50"/>
       <use x="63.623047" xlink:href="#DejaVuSans-53"/>
       <use x="127.246094" xlink:href="#DejaVuSans-48"/>
      </g>
     </g>
    </g>
    <g id="xtick_3">
     <g id="line2d_3">
      <g>
       <use style="stroke:#000000;stroke-width:0.8;" x="145.074226" xlink:href="#m5047fd1d2f" y="246.2"/>
      </g>
     </g>
     <g id="text_3">
      <!-- 500 -->
      <g transform="translate(135.530476 260.798437)scale(0.1 -0.1)">
       <use xlink:href="#DejaVuSans-53"/>
       <use x="63.623047" xlink:href="#DejaVuSans-48"/>
       <use x="127.246094" xlink:href="#DejaVuSans-48"/>
      </g>
     </g>
    </g>
    <g id="xtick_4">
     <g id="line2d_4">
      <g>
       <use style="stroke:#000000;stroke-width:0.8;" x="187.398839" xlink:href="#m5047fd1d2f" y="246.2"/>
      </g>
     </g>
     <g id="text_4">
      <!-- 750 -->
      <defs>
       <path d="M 8.203125 72.90625 
L 55.078125 72.90625 
L 55.078125 68.703125 
L 28.609375 0 
L 18.3125 0 
L 43.21875 64.59375 
L 8.203125 64.59375 
z
" id="DejaVuSans-55"/>
      </defs>
      <g transform="translate(177.855089 260.798437)scale(0.1 -0.1)">
       <use xlink:href="#DejaVuSans-55"/>
       <use x="63.623047" xlink:href="#DejaVuSans-53"/>
       <use x="127.246094" xlink:href="#DejaVuSans-48"/>
      </g>
     </g>
    </g>
    <g id="xtick_5">
     <g id="line2d_5">
      <g>
       <use style="stroke:#000000;stroke-width:0.8;" x="229.723451" xlink:href="#m5047fd1d2f" y="246.2"/>
      </g>
     </g>
     <g id="text_5">
      <!-- 1000 -->
      <defs>
       <path d="M 12.40625 8.296875 
L 28.515625 8.296875 
L 28.515625 63.921875 
L 10.984375 60.40625 
L 10.984375 69.390625 
L 28.421875 72.90625 
L 38.28125 72.90625 
L 38.28125 8.296875 
L 54.390625 8.296875 
L 54.390625 0 
L 12.40625 0 
z
" id="DejaVuSans-49"/>
      </defs>
      <g transform="translate(216.998451 260.798437)scale(0.1 -0.1)">
       <use xlink:href="#DejaVuSans-49"/>
       <use x="63.623047" xlink:href="#DejaVuSans-48"/>
       <use x="127.246094" xlink:href="#DejaVuSans-48"/>
       <use x="190.869141" xlink:href="#DejaVuSans-48"/>
      </g>
     </g>
    </g>
    <g id="xtick_6">
     <g id="line2d_6">
      <g>
       <use style="stroke:#000000;stroke-width:0.8;" x="272.048064" xlink:href="#m5047fd1d2f" y="246.2"/>
      </g>
     </g>
     <g id="text_6">
      <!-- 1250 -->
      <g transform="translate(259.323064 260.798437)scale(0.1 -0.1)">
       <use xlink:href="#DejaVuSans-49"/>
       <use x="63.623047" xlink:href="#DejaVuSans-50"/>
       <use x="127.246094" xlink:href="#DejaVuSans-53"/>
       <use x="190.869141" xlink:href="#DejaVuSans-48"/>
      </g>
     </g>
    </g>
    <g id="xtick_7">
     <g id="line2d_7">
      <g>
       <use style="stroke:#000000;stroke-width:0.8;" x="314.372677" xlink:href="#m5047fd1d2f" y="246.2"/>
      </g>
     </g>
     <g id="text_7">
      <!-- 1500 -->
      <g transform="translate(301.647677 260.798437)scale(0.1 -0.1)">
       <use xlink:href="#DejaVuSans-49"/>
       <use x="63.623047" xlink:href="#DejaVuSans-53"/>
       <use x="127.246094" xlink:href="#DejaVuSans-48"/>
       <use x="190.869141" xlink:href="#DejaVuSans-48"/>
      </g>
     </g>
    </g>
    <g id="xtick_8">
     <g id="line2d_8">
      <g>
       <use style="stroke:#000000;stroke-width:0.8;" x="356.69729" xlink:href="#m5047fd1d2f" y="246.2"/>
      </g>
     </g>
     <g id="text_8">
      <!-- 1750 -->
      <g transform="translate(343.97229 260.798437)scale(0.1 -0.1)">
       <use xlink:href="#DejaVuSans-49"/>
       <use x="63.623047" xlink:href="#DejaVuSans-55"/>
       <use x="127.246094" xlink:href="#DejaVuSans-53"/>
       <use x="190.869141" xlink:href="#DejaVuSans-48"/>
      </g>
     </g>
    </g>
    <g id="xtick_9">
     <g id="line2d_9">
      <g>
       <use style="stroke:#000000;stroke-width:0.8;" x="399.021903" xlink:href="#m5047fd1d2f" y="246.2"/>
      </g>
     </g>
     <g id="text_9">
      <!-- 2000 -->
      <g transform="translate(386.296903 260.798437)scale(0.1 -0.1)">
       <use xlink:href="#DejaVuSans-50"/>
       <use x="63.623047" xlink:href="#DejaVuSans-48"/>
       <use x="127.246094" xlink:href="#DejaVuSans-48"/>
       <use x="190.869141" xlink:href="#DejaVuSans-48"/>
      </g>
     </g>
    </g>
    <g id="text_10">
     <!-- time [arbitrary units] -->
     <defs>
      <path d="M 18.3125 70.21875 
L 18.3125 54.6875 
L 36.8125 54.6875 
L 36.8125 47.703125 
L 18.3125 47.703125 
L 18.3125 18.015625 
Q 18.3125 11.328125 20.140625 9.421875 
Q 21.96875 7.515625 27.59375 7.515625 
L 36.8125 7.515625 
L 36.8125 0 
L 27.59375 0 
Q 17.1875 0 13.234375 3.875 
Q 9.28125 7.765625 9.28125 18.015625 
L 9.28125 47.703125 
L 2.6875 47.703125 
L 2.6875 54.6875 
L 9.28125 54.6875 
L 9.28125 70.21875 
z
" id="DejaVuSans-116"/>
      <path d="M 9.421875 54.6875 
L 18.40625 54.6875 
L 18.40625 0 
L 9.421875 0 
z
M 9.421875 75.984375 
L 18.40625 75.984375 
L 18.40625 64.59375 
L 9.421875 64.59375 
z
" id="DejaVuSans-105"/>
      <path d="M 52 44.1875 
Q 55.375 50.25 60.0625 53.125 
Q 64.75 56 71.09375 56 
Q 79.640625 56 84.28125 50.015625 
Q 88.921875 44.046875 88.921875 33.015625 
L 88.921875 0 
L 79.890625 0 
L 79.890625 32.71875 
Q 79.890625 40.578125 77.09375 44.375 
Q 74.3125 48.1875 68.609375 48.1875 
Q 61.625 48.1875 57.5625 43.546875 
Q 53.515625 38.921875 53.515625 30.90625 
L 53.515625 0 
L 44.484375 0 
L 44.484375 32.71875 
Q 44.484375 40.625 41.703125 44.40625 
Q 38.921875 48.1875 33.109375 48.1875 
Q 26.21875 48.1875 22.15625 43.53125 
Q 18.109375 38.875 18.109375 30.90625 
L 18.109375 0 
L 9.078125 0 
L 9.078125 54.6875 
L 18.109375 54.6875 
L 18.109375 46.1875 
Q 21.1875 51.21875 25.484375 53.609375 
Q 29.78125 56 35.6875 56 
Q 41.65625 56 45.828125 52.96875 
Q 50 49.953125 52 44.1875 
z
" id="DejaVuSans-109"/>
      <path d="M 56.203125 29.59375 
L 56.203125 25.203125 
L 14.890625 25.203125 
Q 15.484375 15.921875 20.484375 11.0625 
Q 25.484375 6.203125 34.421875 6.203125 
Q 39.59375 6.203125 44.453125 7.46875 
Q 49.3125 8.734375 54.109375 11.28125 
L 54.109375 2.78125 
Q 49.265625 0.734375 44.1875 -0.34375 
Q 39.109375 -1.421875 33.890625 -1.421875 
Q 20.796875 -1.421875 13.15625 6.1875 
Q 5.515625 13.8125 5.515625 26.8125 
Q 5.515625 40.234375 12.765625 48.109375 
Q 20.015625 56 32.328125 56 
Q 43.359375 56 49.78125 48.890625 
Q 56.203125 41.796875 56.203125 29.59375 
z
M 47.21875 32.234375 
Q 47.125 39.59375 43.09375 43.984375 
Q 39.0625 48.390625 32.421875 48.390625 
Q 24.90625 48.390625 20.390625 44.140625 
Q 15.875 39.890625 15.1875 32.171875 
z
" id="DejaVuSans-101"/>
      <path id="DejaVuSans-32"/>
      <path d="M 8.59375 75.984375 
L 29.296875 75.984375 
L 29.296875 69 
L 17.578125 69 
L 17.578125 -6.203125 
L 29.296875 -6.203125 
L 29.296875 -13.1875 
L 8.59375 -13.1875 
z
" id="DejaVuSans-91"/>
      <path d="M 34.28125 27.484375 
Q 23.390625 27.484375 19.1875 25 
Q 14.984375 22.515625 14.984375 16.5 
Q 14.984375 11.71875 18.140625 8.90625 
Q 21.296875 6.109375 26.703125 6.109375 
Q 34.1875 6.109375 38.703125 11.40625 
Q 43.21875 16.703125 43.21875 25.484375 
L 43.21875 27.484375 
z
M 52.203125 31.203125 
L 52.203125 0 
L 43.21875 0 
L 43.21875 8.296875 
Q 40.140625 3.328125 35.546875 0.953125 
Q 30.953125 -1.421875 24.3125 -1.421875 
Q 15.921875 -1.421875 10.953125 3.296875 
Q 6 8.015625 6 15.921875 
Q 6 25.140625 12.171875 29.828125 
Q 18.359375 34.515625 30.609375 34.515625 
L 43.21875 34.515625 
L 43.21875 35.40625 
Q 43.21875 41.609375 39.140625 45 
Q 35.0625 48.390625 27.6875 48.390625 
Q 23 48.390625 18.546875 47.265625 
Q 14.109375 46.140625 10.015625 43.890625 
L 10.015625 52.203125 
Q 14.9375 54.109375 19.578125 55.046875 
Q 24.21875 56 28.609375 56 
Q 40.484375 56 46.34375 49.84375 
Q 52.203125 43.703125 52.203125 31.203125 
z
" id="DejaVuSans-97"/>
      <path d="M 41.109375 46.296875 
Q 39.59375 47.171875 37.8125 47.578125 
Q 36.03125 48 33.890625 48 
Q 26.265625 48 22.1875 43.046875 
Q 18.109375 38.09375 18.109375 28.8125 
L 18.109375 0 
L 9.078125 0 
L 9.078125 54.6875 
L 18.109375 54.6875 
L 18.109375 46.1875 
Q 20.953125 51.171875 25.484375 53.578125 
Q 30.03125 56 36.53125 56 
Q 37.453125 56 38.578125 55.875 
Q 39.703125 55.765625 41.0625 55.515625 
z
" id="DejaVuSans-114"/>
      <path d="M 48.6875 27.296875 
Q 48.6875 37.203125 44.609375 42.84375 
Q 40.53125 48.484375 33.40625 48.484375 
Q 26.265625 48.484375 22.1875 42.84375 
Q 18.109375 37.203125 18.109375 27.296875 
Q 18.109375 17.390625 22.1875 11.75 
Q 26.265625 6.109375 33.40625 6.109375 
Q 40.53125 6.109375 44.609375 11.75 
Q 48.6875 17.390625 48.6875 27.296875 
z
M 18.109375 46.390625 
Q 20.953125 51.265625 25.265625 53.625 
Q 29.59375 56 35.59375 56 
Q 45.5625 56 51.78125 48.09375 
Q 58.015625 40.1875 58.015625 27.296875 
Q 58.015625 14.40625 51.78125 6.484375 
Q 45.5625 -1.421875 35.59375 -1.421875 
Q 29.59375 -1.421875 25.265625 0.953125 
Q 20.953125 3.328125 18.109375 8.203125 
L 18.109375 0 
L 9.078125 0 
L 9.078125 75.984375 
L 18.109375 75.984375 
z
" id="DejaVuSans-98"/>
      <path d="M 32.171875 -5.078125 
Q 28.375 -14.84375 24.75 -17.8125 
Q 21.140625 -20.796875 15.09375 -20.796875 
L 7.90625 -20.796875 
L 7.90625 -13.28125 
L 13.1875 -13.28125 
Q 16.890625 -13.28125 18.9375 -11.515625 
Q 21 -9.765625 23.484375 -3.21875 
L 25.09375 0.875 
L 2.984375 54.6875 
L 12.5 54.6875 
L 29.59375 11.921875 
L 46.6875 54.6875 
L 56.203125 54.6875 
z
" id="DejaVuSans-121"/>
      <path d="M 8.5 21.578125 
L 8.5 54.6875 
L 17.484375 54.6875 
L 17.484375 21.921875 
Q 17.484375 14.15625 20.5 10.265625 
Q 23.53125 6.390625 29.59375 6.390625 
Q 36.859375 6.390625 41.078125 11.03125 
Q 45.3125 15.671875 45.3125 23.6875 
L 45.3125 54.6875 
L 54.296875 54.6875 
L 54.296875 0 
L 45.3125 0 
L 45.3125 8.40625 
Q 42.046875 3.421875 37.71875 1 
Q 33.40625 -1.421875 27.6875 -1.421875 
Q 18.265625 -1.421875 13.375 4.4375 
Q 8.5 10.296875 8.5 21.578125 
z
M 31.109375 56 
z
" id="DejaVuSans-117"/>
      <path d="M 54.890625 33.015625 
L 54.890625 0 
L 45.90625 0 
L 45.90625 32.71875 
Q 45.90625 40.484375 42.875 44.328125 
Q 39.84375 48.1875 33.796875 48.1875 
Q 26.515625 48.1875 22.3125 43.546875 
Q 18.109375 38.921875 18.109375 30.90625 
L 18.109375 0 
L 9.078125 0 
L 9.078125 54.6875 
L 18.109375 54.6875 
L 18.109375 46.1875 
Q 21.34375 51.125 25.703125 53.5625 
Q 30.078125 56 35.796875 56 
Q 45.21875 56 50.046875 50.171875 
Q 54.890625 44.34375 54.890625 33.015625 
z
" id="DejaVuSans-110"/>
      <path d="M 44.28125 53.078125 
L 44.28125 44.578125 
Q 40.484375 46.53125 36.375 47.5 
Q 32.28125 48.484375 27.875 48.484375 
Q 21.1875 48.484375 17.84375 46.4375 
Q 14.5 44.390625 14.5 40.28125 
Q 14.5 37.15625 16.890625 35.375 
Q 19.28125 33.59375 26.515625 31.984375 
L 29.59375 31.296875 
Q 39.15625 29.25 43.1875 25.515625 
Q 47.21875 21.78125 47.21875 15.09375 
Q 47.21875 7.46875 41.1875 3.015625 
Q 35.15625 -1.421875 24.609375 -1.421875 
Q 20.21875 -1.421875 15.453125 -0.5625 
Q 10.6875 0.296875 5.421875 2 
L 5.421875 11.28125 
Q 10.40625 8.6875 15.234375 7.390625 
Q 20.0625 6.109375 24.8125 6.109375 
Q 31.15625 6.109375 34.5625 8.28125 
Q 37.984375 10.453125 37.984375 14.40625 
Q 37.984375 18.0625 35.515625 20.015625 
Q 33.0625 21.96875 24.703125 23.78125 
L 21.578125 24.515625 
Q 13.234375 26.265625 9.515625 29.90625 
Q 5.8125 33.546875 5.8125 39.890625 
Q 5.8125 47.609375 11.28125 51.796875 
Q 16.75 56 26.8125 56 
Q 31.78125 56 36.171875 55.265625 
Q 40.578125 54.546875 44.28125 53.078125 
z
" id="DejaVuSans-115"/>
      <path d="M 30.421875 75.984375 
L 30.421875 -13.1875 
L 9.71875 -13.1875 
L 9.71875 -6.203125 
L 21.390625 -6.203125 
L 21.390625 69 
L 9.71875 69 
L 9.71875 75.984375 
z
" id="DejaVuSans-93"/>
     </defs>
     <g transform="translate(188.367969 274.476562)scale(0.1 -0.1)">
      <use xlink:href="#DejaVuSans-116"/>
      <use x="39.208984" xlink:href="#DejaVuSans-105"/>
      <use x="66.992188" xlink:href="#DejaVuSans-109"/>
      <use x="164.404297" xlink:href="#DejaVuSans-101"/>
      <use x="225.927734" xlink:href="#DejaVuSans-32"/>
      <use x="257.714844" xlink:href="#DejaVuSans-91"/>
      <use x="296.728516" xlink:href="#DejaVuSans-97"/>
      <use x="358.007812" xlink:href="#DejaVuSans-114"/>
      <use x="399.121094" xlink:href="#DejaVuSans-98"/>
      <use x="462.597656" xlink:href="#DejaVuSans-105"/>
      <use x="490.380859" xlink:href="#DejaVuSans-116"/>
      <use x="529.589844" xlink:href="#DejaVuSans-114"/>
      <use x="570.703125" xlink:href="#DejaVuSans-97"/>
      <use x="631.982422" xlink:href="#DejaVuSans-114"/>
      <use x="673.095703" xlink:href="#DejaVuSans-121"/>
      <use x="732.275391" xlink:href="#DejaVuSans-32"/>
      <use x="764.0625" xlink:href="#DejaVuSans-117"/>
      <use x="827.441406" xlink:href="#DejaVuSans-110"/>
      <use x="890.820312" xlink:href="#DejaVuSans-105"/>
      <use x="918.603516" xlink:href="#DejaVuSans-116"/>
      <use x="957.8125" xlink:href="#DejaVuSans-115"/>
      <use x="1009.912109" xlink:href="#DejaVuSans-93"/>
     </g>
    </g>
   </g>
   <g id="matplotlib.axis_2">
    <g id="ytick_1">
     <g id="line2d_10">
      <defs>
       <path d="M 0 0 
L -3.5 0 
" id="mda80f4dc12" style="stroke:#000000;stroke-width:0.8;"/>
      </defs>
      <g>
       <use style="stroke:#000000;stroke-width:0.8;" x="60.425" xlink:href="#mda80f4dc12" y="246.2"/>
      </g>
     </g>
     <g id="text_11">
      <!-- 37.00 -->
      <defs>
       <path d="M 40.578125 39.3125 
Q 47.65625 37.796875 51.625 33 
Q 55.609375 28.21875 55.609375 21.1875 
Q 55.609375 10.40625 48.1875 4.484375 
Q 40.765625 -1.421875 27.09375 -1.421875 
Q 22.515625 -1.421875 17.65625 -0.515625 
Q 12.796875 0.390625 7.625 2.203125 
L 7.625 11.71875 
Q 11.71875 9.328125 16.59375 8.109375 
Q 21.484375 6.890625 26.8125 6.890625 
Q 36.078125 6.890625 40.9375 10.546875 
Q 45.796875 14.203125 45.796875 21.1875 
Q 45.796875 27.640625 41.28125 31.265625 
Q 36.765625 34.90625 28.71875 34.90625 
L 20.21875 34.90625 
L 20.21875 43.015625 
L 29.109375 43.015625 
Q 36.375 43.015625 40.234375 45.921875 
Q 44.09375 48.828125 44.09375 54.296875 
Q 44.09375 59.90625 40.109375 62.90625 
Q 36.140625 65.921875 28.71875 65.921875 
Q 24.65625 65.921875 20.015625 65.03125 
Q 15.375 64.15625 9.8125 62.3125 
L 9.8125 71.09375 
Q 15.4375 72.65625 20.34375 73.4375 
Q 25.25 74.21875 29.59375 74.21875 
Q 40.828125 74.21875 47.359375 69.109375 
Q 53.90625 64.015625 53.90625 55.328125 
Q 53.90625 49.265625 50.4375 45.09375 
Q 46.96875 40.921875 40.578125 39.3125 
z
" id="DejaVuSans-51"/>
       <path d="M 10.6875 12.40625 
L 21 12.40625 
L 21 0 
L 10.6875 0 
z
" id="DejaVuSans-46"/>
      </defs>
      <g transform="translate(24.796875 249.999219)scale(0.1 -0.1)">
       <use xlink:href="#DejaVuSans-51"/>
       <use x="63.623047" xlink:href="#DejaVuSans-55"/>
       <use x="127.246094" xlink:href="#DejaVuSans-46"/>
       <use x="159.033203" xlink:href="#DejaVuSans-48"/>
       <use x="222.65625" xlink:href="#DejaVuSans-48"/>
      </g>
     </g>
    </g>
    <g id="ytick_2">
     <g id="line2d_11">
      <g>
       <use style="stroke:#000000;stroke-width:0.8;" x="60.425" xlink:href="#mda80f4dc12" y="207.633333"/>
      </g>
     </g>
     <g id="text_12">
      <!-- 37.05 -->
      <g transform="translate(24.796875 211.432552)scale(0.1 -0.1)">
       <use xlink:href="#DejaVuSans-51"/>
       <use x="63.623047" xlink:href="#DejaVuSans-55"/>
       <use x="127.246094" xlink:href="#DejaVuSans-46"/>
       <use x="159.033203" xlink:href="#DejaVuSans-48"/>
       <use x="222.65625" xlink:href="#DejaVuSans-53"/>
      </g>
     </g>
    </g>
    <g id="ytick_3">
     <g id="line2d_12">
      <g>
       <use style="stroke:#000000;stroke-width:0.8;" x="60.425" xlink:href="#mda80f4dc12" y="169.066667"/>
      </g>
     </g>
     <g id="text_13">
      <!-- 37.10 -->
      <g transform="translate(24.796875 172.865885)scale(0.1 -0.1)">
       <use xlink:href="#DejaVuSans-51"/>
       <use x="63.623047" xlink:href="#DejaVuSans-55"/>
       <use x="127.246094" xlink:href="#DejaVuSans-46"/>
       <use x="159.033203" xlink:href="#DejaVuSans-49"/>
       <use x="222.65625" xlink:href="#DejaVuSans-48"/>
      </g>
     </g>
    </g>
    <g id="ytick_4">
     <g id="line2d_13">
      <g>
       <use style="stroke:#000000;stroke-width:0.8;" x="60.425" xlink:href="#mda80f4dc12" y="130.5"/>
      </g>
     </g>
     <g id="text_14">
      <!-- 37.15 -->
      <g transform="translate(24.796875 134.299219)scale(0.1 -0.1)">
       <use xlink:href="#DejaVuSans-51"/>
       <use x="63.623047" xlink:href="#DejaVuSans-55"/>
       <use x="127.246094" xlink:href="#DejaVuSans-46"/>
       <use x="159.033203" xlink:href="#DejaVuSans-49"/>
       <use x="222.65625" xlink:href="#DejaVuSans-53"/>
      </g>
     </g>
    </g>
    <g id="ytick_5">
     <g id="line2d_14">
      <g>
       <use style="stroke:#000000;stroke-width:0.8;" x="60.425" xlink:href="#mda80f4dc12" y="91.933333"/>
      </g>
     </g>
     <g id="text_15">
      <!-- 37.20 -->
      <g transform="translate(24.796875 95.732552)scale(0.1 -0.1)">
       <use xlink:href="#DejaVuSans-51"/>
       <use x="63.623047" xlink:href="#DejaVuSans-55"/>
       <use x="127.246094" xlink:href="#DejaVuSans-46"/>
       <use x="159.033203" xlink:href="#DejaVuSans-50"/>
       <use x="222.65625" xlink:href="#DejaVuSans-48"/>
      </g>
     </g>
    </g>
    <g id="ytick_6">
     <g id="line2d_15">
      <g>
       <use style="stroke:#000000;stroke-width:0.8;" x="60.425" xlink:href="#mda80f4dc12" y="53.366667"/>
      </g>
     </g>
     <g id="text_16">
      <!-- 37.25 -->
      <g transform="translate(24.796875 57.165885)scale(0.1 -0.1)">
       <use xlink:href="#DejaVuSans-51"/>
       <use x="63.623047" xlink:href="#DejaVuSans-55"/>
       <use x="127.246094" xlink:href="#DejaVuSans-46"/>
       <use x="159.033203" xlink:href="#DejaVuSans-50"/>
       <use x="222.65625" xlink:href="#DejaVuSans-53"/>
      </g>
     </g>
    </g>
    <g id="ytick_7">
     <g id="line2d_16">
      <g>
       <use style="stroke:#000000;stroke-width:0.8;" x="60.425" xlink:href="#mda80f4dc12" y="14.8"/>
      </g>
     </g>
     <g id="text_17">
      <!-- 37.30 -->
      <g transform="translate(24.796875 18.599219)scale(0.1 -0.1)">
       <use xlink:href="#DejaVuSans-51"/>
       <use x="63.623047" xlink:href="#DejaVuSans-55"/>
       <use x="127.246094" xlink:href="#DejaVuSans-46"/>
       <use x="159.033203" xlink:href="#DejaVuSans-51"/>
       <use x="222.65625" xlink:href="#DejaVuSans-48"/>
      </g>
     </g>
    </g>
    <g id="text_18">
     <!-- VSZ [GB] -->
     <defs>
      <path d="M 28.609375 0 
L 0.78125 72.90625 
L 11.078125 72.90625 
L 34.1875 11.53125 
L 57.328125 72.90625 
L 67.578125 72.90625 
L 39.796875 0 
z
" id="DejaVuSans-86"/>
      <path d="M 53.515625 70.515625 
L 53.515625 60.890625 
Q 47.90625 63.578125 42.921875 64.890625 
Q 37.9375 66.21875 33.296875 66.21875 
Q 25.25 66.21875 20.875 63.09375 
Q 16.5 59.96875 16.5 54.203125 
Q 16.5 49.359375 19.40625 46.890625 
Q 22.3125 44.4375 30.421875 42.921875 
L 36.375 41.703125 
Q 47.40625 39.59375 52.65625 34.296875 
Q 57.90625 29 57.90625 20.125 
Q 57.90625 9.515625 50.796875 4.046875 
Q 43.703125 -1.421875 29.984375 -1.421875 
Q 24.8125 -1.421875 18.96875 -0.25 
Q 13.140625 0.921875 6.890625 3.21875 
L 6.890625 13.375 
Q 12.890625 10.015625 18.65625 8.296875 
Q 24.421875 6.59375 29.984375 6.59375 
Q 38.421875 6.59375 43.015625 9.90625 
Q 47.609375 13.234375 47.609375 19.390625 
Q 47.609375 24.75 44.3125 27.78125 
Q 41.015625 30.8125 33.5 32.328125 
L 27.484375 33.5 
Q 16.453125 35.6875 11.515625 40.375 
Q 6.59375 45.0625 6.59375 53.421875 
Q 6.59375 63.09375 13.40625 68.65625 
Q 20.21875 74.21875 32.171875 74.21875 
Q 37.3125 74.21875 42.625 73.28125 
Q 47.953125 72.359375 53.515625 70.515625 
z
" id="DejaVuSans-83"/>
      <path d="M 5.609375 72.90625 
L 62.890625 72.90625 
L 62.890625 65.375 
L 16.796875 8.296875 
L 64.015625 8.296875 
L 64.015625 0 
L 4.5 0 
L 4.5 7.515625 
L 50.59375 64.59375 
L 5.609375 64.59375 
z
" id="DejaVuSans-90"/>
      <path d="M 59.515625 10.40625 
L 59.515625 29.984375 
L 43.40625 29.984375 
L 43.40625 38.09375 
L 69.28125 38.09375 
L 69.28125 6.78125 
Q 63.578125 2.734375 56.6875 0.65625 
Q 49.8125 -1.421875 42 -1.421875 
Q 24.90625 -1.421875 15.25 8.5625 
Q 5.609375 18.5625 5.609375 36.375 
Q 5.609375 54.25 15.25 64.234375 
Q 24.90625 74.21875 42 74.21875 
Q 49.125 74.21875 55.546875 72.453125 
Q 61.96875 70.703125 67.390625 67.28125 
L 67.390625 56.78125 
Q 61.921875 61.421875 55.765625 63.765625 
Q 49.609375 66.109375 42.828125 66.109375 
Q 29.4375 66.109375 22.71875 58.640625 
Q 16.015625 51.171875 16.015625 36.375 
Q 16.015625 21.625 22.71875 14.15625 
Q 29.4375 6.6875 42.828125 6.6875 
Q 48.046875 6.6875 52.140625 7.59375 
Q 56.25 8.5 59.515625 10.40625 
z
" id="DejaVuSans-71"/>
      <path d="M 19.671875 34.8125 
L 19.671875 8.109375 
L 35.5 8.109375 
Q 43.453125 8.109375 47.28125 11.40625 
Q 51.125 14.703125 51.125 21.484375 
Q 51.125 28.328125 47.28125 31.5625 
Q 43.453125 34.8125 35.5 34.8125 
z
M 19.671875 64.796875 
L 19.671875 42.828125 
L 34.28125 42.828125 
Q 41.5 42.828125 45.03125 45.53125 
Q 48.578125 48.25 48.578125 53.8125 
Q 48.578125 59.328125 45.03125 62.0625 
Q 41.5 64.796875 34.28125 64.796875 
z
M 9.8125 72.90625 
L 35.015625 72.90625 
Q 46.296875 72.90625 52.390625 68.21875 
Q 58.5 63.53125 58.5 54.890625 
Q 58.5 48.1875 55.375 44.234375 
Q 52.25 40.28125 46.1875 39.3125 
Q 53.46875 37.75 57.5 32.78125 
Q 61.53125 27.828125 61.53125 20.40625 
Q 61.53125 10.640625 54.890625 5.3125 
Q 48.25 0 35.984375 0 
L 9.8125 0 
z
" id="DejaVuSans-66"/>
     </defs>
     <g transform="translate(18.717188 153.314844)rotate(-90)scale(0.1 -0.1)">
      <use xlink:href="#DejaVuSans-86"/>
      <use x="68.408203" xlink:href="#DejaVuSans-83"/>
      <use x="131.884766" xlink:href="#DejaVuSans-90"/>
      <use x="200.390625" xlink:href="#DejaVuSans-32"/>
      <use x="232.177734" xlink:href="#DejaVuSans-91"/>
      <use x="271.191406" xlink:href="#DejaVuSans-71"/>
      <use x="348.681641" xlink:href="#DejaVuSans-66"/>
      <use x="417.285156" xlink:href="#DejaVuSans-93"/>
     </g>
    </g>
   </g>
   <g id="line2d_17">
    <path clip-path="url(#p61c8dad344)" d="M 60.425 133.038117 
L 60.594298 169.197309 
L 60.763597 145.0902 
L 60.932895 181.249393 
L 61.102194 163.171268 
L 61.271492 169.197309 
L 61.610089 157.145226 
L 61.779388 169.194367 
L 61.948686 133.038117 
L 62.117985 145.093143 
L 62.287283 120.988976 
L 62.456581 157.145226 
L 62.62588 163.171268 
L 62.795178 157.145226 
L 62.964477 163.171268 
L 63.133775 96.881867 
L 63.303074 163.171268 
L 63.641671 205.353559 
L 63.810969 133.041059 
L 63.980267 163.171268 
L 64.149566 133.038117 
L 64.318864 169.008996 
L 64.657461 126.823761 
L 64.82676 132.849803 
L 65.165357 175.035037 
L 65.334655 138.875845 
L 65.503954 150.927928 
L 65.673252 132.852746 
L 65.84255 187.087121 
L 66.181147 150.930871 
L 66.350446 144.904829 
L 66.519744 156.956912 
L 66.858341 156.95397 
L 67.196938 181.061079 
L 67.366237 150.930871 
L 67.535535 156.95397 
L 67.704833 144.901886 
L 67.874132 156.956912 
L 68.04343 132.849803 
L 68.212729 138.878787 
L 68.382027 169.008996 
L 68.551326 150.930871 
L 68.720624 169.006053 
L 68.889923 150.930871 
L 69.228519 169.006053 
L 69.397818 138.878787 
L 69.567116 169.008996 
L 69.905713 132.849803 
L 70.075012 169.006053 
L 70.24431 126.823761 
L 70.413609 126.823761 
L 70.582907 162.985896 
L 70.752206 162.982954 
L 71.090802 132.849803 
L 71.260101 187.087121 
L 71.429399 156.956912 
L 71.598698 150.927928 
L 71.767996 162.982954 
L 71.937295 156.95397 
L 72.106593 132.852746 
L 72.44519 175.035037 
L 72.614489 144.901886 
L 72.783787 150.930871 
L 72.953085 193.11022 
L 73.122384 144.901886 
L 73.291682 175.032095 
L 73.460981 175.035037 
L 73.630279 138.875845 
L 73.799578 132.849803 
L 73.968876 156.956912 
L 74.138175 114.771678 
L 74.307473 156.768598 
L 74.476771 150.742557 
L 74.64607 211.002973 
L 74.815368 126.635448 
L 74.984667 162.79464 
L 75.153965 150.742557 
L 75.323264 168.817739 
L 75.492562 150.739614 
L 75.661861 162.79464 
L 75.831159 132.661489 
L 76.000458 132.661489 
L 76.169756 174.843781 
L 76.339054 138.687531 
L 76.677651 168.820682 
L 77.016248 156.765656 
L 77.354845 120.609406 
L 77.86274 162.791698 
L 78.032039 156.765656 
L 78.201337 168.820682 
L 78.709233 132.661489 
L 78.878531 156.768598 
L 79.04783 156.768598 
L 79.217128 126.635448 
L 79.386427 156.765656 
L 79.555725 162.79464 
L 79.725023 156.768598 
L 79.894322 138.687531 
L 80.06362 180.875707 
L 80.232919 132.661489 
L 80.402217 156.768598 
L 80.571516 132.661489 
L 80.740814 168.820682 
L 81.079411 60.348989 
L 81.24871 162.791698 
L 81.418008 156.768598 
L 81.587306 168.817739 
L 81.756605 162.79464 
L 81.925903 138.687531 
L 82.095202 162.79464 
L 82.2645 132.661489 
L 82.772396 192.924848 
L 82.941694 144.713573 
L 83.449589 162.791698 
L 83.618888 156.768598 
L 83.788186 162.79464 
L 83.957485 126.635448 
L 84.296082 180.684451 
L 84.46538 156.577342 
L 84.973275 156.583227 
L 85.142574 138.499217 
L 85.311872 144.528201 
L 85.481171 162.606326 
L 85.650469 168.632368 
L 85.989066 126.450076 
L 86.158365 138.499217 
L 86.327663 162.606326 
L 86.496962 150.551301 
L 86.66626 180.684451 
L 87.004857 144.528201 
L 87.174155 162.606326 
L 87.343454 138.499217 
L 87.512752 162.606326 
L 87.682051 150.551301 
L 87.851349 156.580285 
L 88.020648 156.577342 
L 88.189946 162.606326 
L 88.359244 138.499217 
L 88.528543 132.473176 
L 88.697841 186.710493 
L 89.036438 144.528201 
L 89.205737 120.421092 
L 89.375035 168.632368 
L 89.544334 138.50216 
L 89.713632 138.499217 
L 90.052229 180.684451 
L 90.221527 132.473176 
L 90.390826 126.450076 
L 90.560124 156.583227 
L 90.729423 138.499217 
L 90.898721 144.525259 
L 91.237318 120.421092 
L 91.406617 156.580285 
L 91.575915 132.47906 
L 91.745214 150.554243 
L 91.914512 132.473176 
L 92.08381 156.580285 
L 92.253109 162.606326 
L 92.422407 144.525259 
L 92.591706 162.606326 
L 92.761004 120.421092 
L 92.930303 138.499217 
L 93.099601 198.762576 
L 93.438198 144.525259 
L 93.776795 144.531144 
L 93.946093 156.391971 
L 94.115392 138.310903 
L 94.28469 132.287804 
L 94.453989 150.362987 
L 94.623287 156.389028 
L 94.792586 150.362987 
L 95.131183 162.418012 
L 95.300481 156.391971 
L 95.469779 156.389028 
L 95.639078 180.493195 
L 95.808376 150.365929 
L 96.146973 162.41507 
L 96.48557 132.284862 
L 96.654869 156.391971 
L 96.993466 132.284862 
L 97.162764 156.391971 
L 97.332062 126.25882 
L 97.501361 156.389028 
L 97.670659 138.310903 
L 98.009256 126.25882 
L 98.178555 156.391971 
L 98.517152 156.391971 
L 98.68645 132.284862 
L 98.855748 156.391971 
L 99.025047 138.313846 
L 99.194345 156.391971 
L 99.363644 186.522179 
L 99.532942 162.41507 
L 99.702241 162.418012 
L 99.871539 144.336945 
L 100.040838 174.470096 
L 100.210136 180.496137 
L 100.379435 168.444054 
L 100.548733 120.232778 
L 100.718031 156.391971 
L 100.88733 144.339887 
L 101.056628 162.418012 
L 101.225927 138.313846 
L 101.564524 156.391971 
L 101.903121 144.336945 
L 102.072419 156.391971 
L 102.241718 144.336945 
L 102.580314 156.389028 
L 102.749613 126.261762 
L 102.918911 138.310903 
L 103.08821 162.418012 
L 103.257508 156.389028 
L 103.426807 162.418012 
L 103.596105 180.496137 
L 103.765404 126.25882 
L 103.934702 132.287804 
L 104.104 156.391971 
L 104.273299 150.174673 
L 104.442597 156.200715 
L 104.611896 138.12259 
L 104.781194 174.281782 
L 104.950493 168.252798 
L 105.119791 180.307824 
L 105.28909 138.12259 
L 105.458388 156.203657 
L 105.627687 132.096548 
L 105.966283 168.252798 
L 106.135582 144.151574 
L 106.474179 144.151574 
L 106.643477 150.177615 
L 106.812776 138.12259 
L 107.151373 138.12259 
L 107.320671 174.281782 
L 107.489969 138.12259 
L 107.659268 192.359907 
L 107.828566 138.12259 
L 107.997865 156.203657 
L 108.167163 192.359907 
L 108.336462 144.148631 
L 108.50576 156.203657 
L 108.675059 156.203657 
L 108.844357 138.12259 
L 109.013656 174.27884 
L 109.182954 138.125532 
L 109.352252 162.229699 
L 109.521551 162.229699 
L 109.690849 132.096548 
L 110.029446 174.281782 
L 110.198745 168.252798 
L 110.368043 132.096548 
L 110.537342 156.203657 
L 110.70664 138.12259 
L 110.875939 168.25574 
L 111.045237 156.200715 
L 111.214535 162.229699 
L 111.383834 156.200715 
L 111.553132 192.362849 
L 112.061028 132.09949 
L 112.230326 126.067564 
L 112.399625 132.096548 
L 112.568923 168.258683 
L 112.738221 156.203657 
L 112.90752 126.070506 
L 113.076818 168.25574 
L 113.584714 132.096548 
L 113.754012 174.281782 
L 113.923311 132.096548 
L 114.092609 168.252798 
L 114.261908 125.882192 
L 114.431206 137.934276 
L 114.600504 137.934276 
L 114.769803 119.856151 
L 114.939101 125.882192 
L 115.1084 137.934276 
L 115.277698 168.067427 
L 115.616295 143.96326 
L 115.785594 149.989302 
L 116.124191 180.11951 
L 116.293489 162.041385 
L 116.462787 131.908234 
L 116.801384 143.96326 
L 116.970683 119.856151 
L 117.139981 131.911177 
L 117.478578 131.908234 
L 117.647877 162.041385 
L 117.817175 137.934276 
L 117.986473 162.041385 
L 118.155772 131.908234 
L 118.494369 162.041385 
L 118.663667 156.015343 
L 118.832966 162.041385 
L 119.002264 192.171593 
L 119.171563 131.911177 
L 119.340861 119.856151 
L 119.51016 156.015343 
L 119.679458 156.015343 
L 119.848756 162.044327 
L 120.018055 156.012401 
L 120.187353 162.038442 
L 120.356652 162.044327 
L 120.52595 156.012401 
L 120.695249 174.090526 
L 120.864547 162.041385 
L 121.033846 162.041385 
L 121.203144 168.064484 
L 121.372443 143.960317 
L 121.541741 156.015343 
L 121.711039 156.015343 
L 121.880338 131.908234 
L 122.049636 162.041385 
L 122.218935 162.041385 
L 122.388233 53.56675 
L 122.557532 174.096411 
L 122.72683 180.11951 
L 122.896129 156.015343 
L 123.065427 174.093468 
L 123.234725 162.038442 
L 123.404024 137.934276 
L 123.573322 180.11951 
L 123.742621 149.989302 
L 123.911919 180.11951 
L 124.081218 161.853071 
L 124.250516 155.827029 
L 124.419815 143.774946 
L 124.589113 161.850129 
L 124.758412 143.774946 
L 124.92771 161.850129 
L 125.097008 167.882055 
L 125.266307 161.850129 
L 125.435605 161.853071 
L 125.604904 137.745962 
L 125.774202 161.853071 
L 125.943501 131.71992 
L 126.112799 167.879113 
L 126.282098 167.879113 
L 126.451396 179.928254 
L 126.620695 155.827029 
L 126.789993 149.798045 
L 126.959291 155.827029 
L 127.12859 155.827029 
L 127.297888 149.800988 
L 127.467187 161.853071 
L 127.636485 149.800988 
L 127.805784 125.696821 
L 127.975082 131.71992 
L 128.144381 131.71992 
L 128.313679 155.827029 
L 128.482977 161.853071 
L 128.652276 155.827029 
L 128.821574 119.667837 
L 128.990873 125.693879 
L 129.32947 155.827029 
L 129.498768 167.879113 
L 129.668067 137.745962 
L 129.837365 137.745962 
L 130.006664 179.931196 
L 130.175962 155.827029 
L 130.34526 155.824087 
L 130.514559 173.905154 
L 130.683857 137.745962 
L 130.853156 161.850129 
L 131.022454 149.800988 
L 131.361051 161.853071 
L 131.53035 131.722863 
L 131.699648 167.879113 
L 132.038245 149.798045 
L 132.376842 161.853071 
L 132.54614 155.827029 
L 132.715439 143.774946 
L 132.884737 155.824087 
L 133.223334 131.722863 
L 133.392633 131.71992 
L 133.561931 161.661815 
L 133.731229 161.661815 
L 133.900528 113.453482 
L 134.069826 155.638716 
L 134.239125 161.664757 
L 134.408423 179.73994 
L 134.577722 155.638716 
L 134.74702 149.609732 
L 135.085617 179.742882 
L 135.424214 143.58369 
L 135.593512 131.531607 
L 135.762811 155.638716 
L 135.932109 143.586632 
L 136.101408 143.586632 
L 136.440005 125.505565 
L 136.609303 125.505565 
L 136.778602 161.664757 
L 136.9479 143.586632 
L 137.117198 155.635773 
L 137.286497 125.505565 
L 137.455795 131.531607 
L 137.625094 161.664757 
L 137.794392 149.612674 
L 137.963691 149.612674 
L 138.132989 155.635773 
L 138.302288 149.612674 
L 138.471586 155.635773 
L 138.640885 155.635773 
L 138.810183 137.557648 
L 138.979481 167.690799 
L 139.318078 131.531607 
L 139.487377 167.693741 
L 139.656675 155.635773 
L 139.825974 155.638716 
L 140.164571 119.479523 
L 140.503168 149.612674 
L 140.672466 167.690799 
L 140.841764 167.690799 
L 141.011063 179.742882 
L 141.180361 131.531607 
L 141.34966 197.821007 
L 141.518958 155.638716 
L 141.688257 167.690799 
L 141.857555 161.661815 
L 142.026854 179.73994 
L 142.36545 143.586632 
L 142.534749 149.609732 
L 142.704047 131.531607 
L 142.873346 149.612674 
L 143.042644 131.531607 
L 143.211943 155.638716 
L 143.381241 125.505565 
L 143.55054 125.508507 
L 144.058435 167.499543 
L 144.227733 155.450402 
L 144.735629 155.450402 
L 144.904927 125.320193 
L 145.074226 155.450402 
L 145.243524 149.42436 
L 145.412823 167.502485 
L 145.582121 155.450402 
L 145.75142 155.450402 
L 145.920718 137.369334 
L 146.090016 185.577668 
L 146.259315 119.291209 
L 146.428613 131.343293 
L 146.597912 155.450402 
L 146.76721 155.450402 
L 146.936509 167.499543 
L 147.275106 137.369334 
L 147.444404 161.476443 
L 147.613702 149.42436 
L 147.783001 167.502485 
L 147.952299 155.450402 
L 148.121598 155.447459 
L 148.460195 119.291209 
L 148.629493 167.502485 
L 148.798792 155.450402 
L 148.96809 131.343293 
L 149.137389 131.34035 
L 149.306687 203.658735 
L 149.475985 137.369334 
L 149.645284 161.476443 
L 149.814582 137.369334 
L 149.983881 143.398318 
L 150.322478 167.499543 
L 150.491776 149.42436 
L 150.661075 143.398318 
L 150.830373 155.450402 
L 150.999672 155.447459 
L 151.16897 185.577668 
L 151.338268 143.398318 
L 151.507567 155.450402 
L 151.676865 155.447459 
L 151.846164 161.473501 
L 152.015462 119.291209 
L 152.184761 155.450402 
L 152.354059 161.476443 
L 152.523358 161.473501 
L 152.692656 155.447459 
L 152.861954 131.343293 
L 153.031253 155.450402 
L 153.36985 155.447459 
L 153.539148 167.314171 
L 153.708447 167.311229 
L 153.877745 143.207062 
L 154.047044 155.259146 
L 154.216342 155.259146 
L 154.385641 167.311229 
L 154.554939 149.233104 
L 154.724237 155.259146 
L 154.893536 155.259146 
L 155.232133 173.340213 
L 155.401431 167.311229 
L 155.57073 125.128937 
L 155.740028 137.181021 
L 155.909327 161.28813 
L 156.078625 125.128937 
L 156.247924 137.181021 
L 156.417222 131.157921 
L 156.58652 131.154979 
L 156.755819 161.285187 
L 156.925117 155.262088 
L 157.094416 173.337271 
L 157.263714 155.259146 
L 157.433013 149.233104 
L 157.602311 155.259146 
L 157.77161 173.340213 
L 158.110206 155.262088 
L 158.448803 155.262088 
L 158.618102 131.154979 
L 158.7874 155.262088 
L 158.956699 143.210005 
L 159.125997 143.210005 
L 159.295296 131.154979 
L 159.464594 161.28813 
L 159.633893 155.262088 
L 159.972489 191.418338 
L 160.141788 155.262088 
L 160.311086 155.262088 
L 160.480385 161.28813 
L 160.649683 143.20412 
L 160.818982 107.050812 
L 160.98828 119.102896 
L 161.157579 119.102896 
L 161.496176 161.28813 
L 161.665474 125.128937 
L 162.173369 161.28813 
L 162.342668 131.154979 
L 162.511966 161.28813 
L 162.681265 137.181021 
L 162.850563 143.021691 
L 163.019862 130.969608 
L 163.358458 167.125858 
L 163.527757 143.021691 
L 163.697055 136.992707 
L 163.866354 161.099816 
L 164.204951 149.047733 
L 164.374249 161.099816 
L 164.543548 155.073774 
L 164.882145 167.122915 
L 165.051443 161.099816 
L 165.220741 118.914582 
L 165.39004 143.021691 
L 165.559338 149.04479 
L 165.728637 136.992707 
L 165.897935 161.099816 
L 166.067234 161.099816 
L 166.236532 112.88854 
L 166.575129 155.070832 
L 166.744427 149.04479 
L 166.913726 173.151899 
L 167.083024 130.969608 
L 167.252323 130.969608 
L 167.421621 167.125858 
L 167.760218 143.021691 
L 167.929517 161.099816 
L 168.098815 161.099816 
L 168.268114 149.047733 
L 168.60671 161.096873 
L 168.776009 130.969608 
L 168.945307 130.966665 
L 169.114606 173.148957 
L 169.283904 136.995649 
L 169.453203 155.070832 
L 169.622501 124.940623 
L 169.961098 173.151899 
L 170.130397 179.177941 
L 170.299695 130.969608 
L 170.80759 161.099816 
L 170.976889 155.070832 
L 171.146187 173.148957 
L 171.315486 173.151899 
L 171.484784 149.047733 
L 171.823381 161.096873 
L 171.992679 149.047733 
L 172.161978 155.073774 
L 172.331276 143.021691 
L 172.500575 178.989627 
L 172.669873 160.911502 
L 172.839172 154.88546 
L 173.00847 160.911502 
L 173.347067 148.859419 
L 173.516366 160.911502 
L 173.854962 124.75231 
L 174.532156 166.937544 
L 174.701455 154.88546 
L 174.870753 160.911502 
L 175.040052 178.989627 
L 175.20935 124.75231 
L 175.378649 136.804393 
L 175.547947 124.75231 
L 175.717245 154.888403 
L 175.886544 160.90856 
L 176.055842 148.859419 
L 176.225141 154.88546 
L 176.394439 166.937544 
L 176.563738 160.911502 
L 176.733036 160.911502 
L 177.071633 148.859419 
L 177.240931 136.804393 
L 177.41023 154.88546 
L 177.579528 160.911502 
L 177.748827 142.830435 
L 177.918125 178.989627 
L 178.087424 154.882518 
L 178.256722 148.856476 
L 178.426021 148.856476 
L 178.595319 160.911502 
L 178.764618 148.859419 
L 179.103214 148.859419 
L 179.272513 160.90856 
L 179.441811 154.88546 
L 179.61111 160.911502 
L 179.949707 118.726268 
L 180.288304 142.833377 
L 180.457602 191.04171 
L 180.796199 166.937544 
L 180.965497 142.833377 
L 181.134796 136.804393 
L 181.473393 154.88546 
L 181.642691 148.859419 
L 181.81199 136.804393 
L 181.981288 154.88546 
L 182.150587 160.723188 
L 182.319885 130.59298 
L 182.489183 160.723188 
L 182.658482 160.723188 
L 182.82778 166.746288 
L 182.997079 190.856339 
L 183.166377 118.537954 
L 183.335676 124.563996 
L 183.504974 148.66522 
L 183.843571 148.668163 
L 184.01287 130.590038 
L 184.182168 160.723188 
L 184.690063 106.485871 
L 184.859362 154.697147 
L 185.02866 154.697147 
L 185.367257 166.74923 
L 185.536556 136.616079 
L 185.705854 154.697147 
L 185.875153 136.616079 
L 186.044451 130.590038 
L 186.213749 148.671105 
L 186.383048 148.668163 
L 186.552346 118.537954 
L 186.721645 148.671105 
L 186.890943 136.616079 
L 187.060242 166.74923 
L 187.22954 130.590038 
L 187.568137 148.671105 
L 187.737435 148.668163 
L 187.906734 124.563996 
L 188.076032 160.720246 
L 188.414629 148.671105 
L 188.583928 124.563996 
L 188.753226 130.59298 
L 189.091823 166.74923 
L 189.261122 154.697147 
L 189.43042 154.694204 
L 189.599718 160.723188 
L 189.769017 208.934464 
L 189.938315 154.694204 
L 190.107614 154.694204 
L 190.276912 160.723188 
L 190.446211 130.590038 
L 190.615509 136.616079 
L 190.784808 166.746288 
L 190.954106 142.645063 
L 191.123405 142.645063 
L 191.292703 118.537954 
L 191.462001 148.668163 
L 191.800598 124.375682 
L 191.969897 160.534874 
L 192.139195 112.323599 
L 192.308494 154.508833 
L 192.477792 154.508833 
L 192.647091 148.479849 
L 192.816389 136.427765 
L 192.985687 21.930031 
L 193.154986 154.508833 
L 193.324284 166.560916 
L 193.493583 154.50589 
L 193.83218 154.508833 
L 194.001478 142.456749 
L 194.170777 202.717166 
L 194.340075 154.508833 
L 194.509374 160.531932 
L 194.678672 130.401724 
L 194.84797 154.508833 
L 195.017269 160.534874 
L 195.186567 154.50589 
L 195.355866 160.534874 
L 195.525164 154.508833 
L 195.694463 136.424823 
L 195.863761 148.482791 
L 196.03306 136.427765 
L 196.202358 190.665083 
L 196.540955 136.427765 
L 196.710253 136.427765 
L 196.879552 130.404666 
L 197.04885 130.401724 
L 197.218149 160.531932 
L 197.387447 154.508833 
L 197.556746 154.508833 
L 197.726044 196.694067 
L 198.064641 130.404666 
L 198.233939 202.717166 
L 198.403238 154.508833 
L 198.572536 172.584015 
L 198.741835 154.508833 
L 198.911133 166.560916 
L 199.080432 154.50589 
L 199.24973 154.508833 
L 199.419029 160.534874 
L 199.588327 154.511775 
L 199.757626 130.401724 
L 199.926924 184.639041 
L 200.096222 160.534874 
L 200.265521 184.639041 
L 200.434819 160.534874 
L 200.604118 178.610057 
L 200.773416 136.427765 
L 200.942715 154.508833 
L 201.112013 160.534874 
L 201.281312 124.375682 
L 201.45061 160.534874 
L 201.619908 154.508833 
L 201.789207 136.239452 
L 201.958505 154.320519 
L 202.127804 148.294477 
L 202.297102 136.239452 
L 202.466401 178.424686 
L 202.804998 142.265493 
L 202.974296 178.424686 
L 203.143595 154.320519 
L 203.312893 160.346561 
L 203.482191 154.323461 
L 203.65149 130.21341 
L 203.990087 184.450727 
L 204.159385 130.21341 
L 204.328684 160.346561 
L 204.497982 148.291535 
L 204.667281 160.346561 
L 204.836579 130.216352 
L 205.175176 160.343618 
L 205.344474 130.21341 
L 205.513773 154.320519 
L 205.683071 196.505753 
L 206.021668 130.216352 
L 206.190967 178.421743 
L 206.360265 45.842942 
L 206.529564 166.372602 
L 206.698862 148.291535 
L 206.86816 160.346561 
L 207.206757 130.21341 
L 207.376056 178.424686 
L 207.545354 130.21341 
L 207.714653 160.346561 
L 208.222548 130.21341 
L 208.391847 154.317577 
L 208.561145 160.346561 
L 208.730443 154.317577 
L 208.899742 136.239452 
L 209.06904 130.21341 
L 209.238339 154.317577 
L 209.407637 160.343618 
L 209.576936 142.268436 
L 209.915533 184.450727 
L 210.084831 136.239452 
L 210.25413 166.372602 
L 210.423428 148.294477 
L 210.592726 142.265493 
L 210.762025 178.424686 
L 210.931323 160.343618 
L 211.100622 154.323461 
L 211.26992 214.580936 
L 211.439219 160.155304 
L 211.608517 160.158247 
L 211.777816 142.080122 
L 211.947114 148.106164 
L 212.116412 166.184289 
L 212.285711 154.129263 
L 212.455009 160.155304 
L 212.624308 130.028039 
L 212.962905 190.291398 
L 213.301502 130.025096 
L 213.4708 154.132205 
L 213.640099 160.155304 
L 213.809397 148.103221 
L 213.978695 117.973013 
L 214.147994 154.132205 
L 214.317292 154.132205 
L 214.486591 130.028039 
L 214.655889 136.051138 
L 214.825188 154.132205 
L 214.994486 130.025096 
L 215.163785 160.155304 
L 215.333083 136.048195 
L 215.502382 142.080122 
L 215.67168 130.025096 
L 215.840978 154.132205 
L 216.010277 130.028039 
L 216.348874 142.077179 
L 216.687471 160.161189 
L 216.856769 136.051138 
L 217.026068 166.181346 
L 217.195366 172.21033 
L 217.533963 117.973013 
L 217.703261 160.158247 
L 217.87256 172.207388 
L 218.041858 130.025096 
L 218.211157 160.155304 
L 218.380455 160.158247 
L 218.549754 136.048195 
L 218.719052 142.080122 
L 218.888351 160.155304 
L 219.057649 130.025096 
L 219.565544 160.155304 
L 219.734843 166.184289 
L 219.904141 178.239314 
L 220.242738 130.025096 
L 220.412037 160.155304 
L 220.581335 154.132205 
L 220.750634 160.158247 
L 221.08923 148.103221 
L 221.258529 154.132205 
L 221.427827 135.862824 
L 221.597126 153.943891 
L 221.766424 123.810741 
L 221.935723 135.862824 
L 222.105021 165.993032 
L 222.27432 165.995975 
L 222.443618 153.943891 
L 222.612916 153.943891 
L 222.782215 165.995975 
L 223.120812 153.940949 
L 223.29011 129.836782 
L 223.459409 159.969933 
L 223.628707 165.995975 
L 223.798006 147.91785 
L 223.967304 178.048058 
L 224.305901 135.862824 
L 224.475199 141.891808 
L 224.644498 129.839725 
L 224.813796 129.836782 
L 224.983095 153.943891 
L 225.152393 117.784699 
L 225.49099 159.969933 
L 225.660289 117.784699 
L 225.998885 190.103084 
L 226.168184 123.810741 
L 226.337482 159.969933 
L 226.506781 165.993032 
L 226.676079 165.995975 
L 226.845378 141.891808 
L 227.014676 141.891808 
L 227.183975 153.943891 
L 227.353273 105.732616 
L 227.522572 178.048058 
L 227.69187 153.943891 
L 228.030467 165.995975 
L 228.199765 147.91785 
L 228.369064 165.993032 
L 228.538362 135.862824 
L 228.707661 141.891808 
L 228.876959 153.943891 
L 229.046258 141.891808 
L 229.215556 141.89475 
L 229.384855 129.836782 
L 229.554153 159.969933 
L 229.723451 105.732616 
L 229.89275 123.810741 
L 230.062048 153.943891 
L 230.231347 135.862824 
L 230.400645 153.943891 
L 230.569944 147.91785 
L 230.739242 153.940949 
L 230.908541 141.891808 
L 231.077839 147.91785 
L 231.247137 147.914907 
L 231.416436 165.807661 
L 231.585734 141.703494 
L 231.755033 141.703494 
L 231.924331 147.729536 
L 232.09363 159.781619 
L 232.262928 111.570344 
L 232.432227 153.755578 
L 232.601525 135.67451 
L 232.770824 159.781619 
L 233.10942 141.706437 
L 233.278719 177.862687 
L 233.448017 147.729536 
L 233.617316 153.755578 
L 233.786614 129.648469 
L 233.955913 135.67451 
L 234.125211 153.752635 
L 234.29451 183.885786 
L 234.463808 153.75852 
L 234.633107 147.729536 
L 234.802405 129.651411 
L 234.971703 159.778677 
L 235.141002 123.622427 
L 235.3103 165.804719 
L 235.648897 147.726594 
L 235.818196 159.781619 
L 235.987494 147.729536 
L 236.156793 153.752635 
L 236.326091 153.755578 
L 236.495389 129.648469 
L 236.664688 147.726594 
L 236.833986 135.67451 
L 237.003285 135.67451 
L 237.172583 177.859744 
L 237.341882 165.807661 
L 237.51118 177.859744 
L 237.680479 129.651411 
L 237.849777 165.807661 
L 238.019076 141.700552 
L 238.188374 159.781619 
L 238.357672 165.807661 
L 238.526971 147.729536 
L 238.696269 153.752635 
L 238.865568 177.859744 
L 239.034866 129.648469 
L 239.373463 105.544302 
L 239.542762 153.755578 
L 239.71206 153.755578 
L 240.050657 165.807661 
L 240.389254 153.755578 
L 240.558552 159.781619 
L 240.897149 147.729536 
L 241.066448 159.781619 
L 241.235746 117.596385 
L 241.405045 123.434113 
L 241.574343 171.645389 
L 241.743641 171.645389 
L 241.91294 105.355988 
L 242.082238 129.460155 
L 242.251537 129.460155 
L 242.590134 177.67143 
L 242.759432 123.434113 
L 242.928731 135.486196 
L 243.098029 183.700415 
L 243.267328 129.463097 
L 243.436626 159.590363 
L 243.605924 147.541222 
L 243.775223 153.567264 
L 243.944521 153.564321 
L 244.11382 159.593305 
L 244.283118 159.593305 
L 244.621715 147.541222 
L 244.960312 123.434113 
L 245.129611 135.486196 
L 245.298909 165.616405 
L 245.468207 129.463097 
L 245.637506 117.408071 
L 245.976103 171.645389 
L 246.145401 159.593305 
L 246.3147 123.434113 
L 246.483998 159.593305 
L 246.653297 111.38203 
L 246.822595 177.67143 
L 246.991893 159.593305 
L 247.161192 159.593305 
L 247.499789 129.463097 
L 247.669087 159.590363 
L 247.838386 147.541222 
L 248.007684 153.567264 
L 248.176983 129.460155 
L 248.346281 135.486196 
L 248.51558 129.460155 
L 248.854176 165.619347 
L 249.023475 159.593305 
L 249.362072 159.593305 
L 249.53137 135.489139 
L 249.700669 195.749555 
L 249.869967 135.489139 
L 250.039266 135.486196 
L 250.208564 129.460155 
L 250.547161 165.619347 
L 250.716459 129.460155 
L 250.885758 147.544165 
L 251.055056 153.37895 
L 251.224355 165.431033 
L 251.393653 135.297883 
L 251.73225 165.431033 
L 251.901549 153.37895 
L 252.070847 123.245799 
L 252.240145 189.5352 
L 252.409444 159.402049 
L 252.578742 153.376008 
L 252.748041 171.457075 
L 252.917339 147.349966 
L 253.255936 189.538142 
L 253.763832 123.245799 
L 254.102428 153.37895 
L 254.271727 123.245799 
L 254.441025 123.248742 
L 254.779622 141.323924 
L 254.948921 129.271841 
L 255.118219 105.170617 
L 255.287518 153.376008 
L 255.456816 159.402049 
L 255.626115 141.326867 
L 255.795413 153.376008 
L 255.964711 177.483117 
L 256.13401 141.323924 
L 256.303308 165.431033 
L 256.472607 141.326867 
L 256.641905 147.352908 
L 256.811204 177.483117 
L 257.149801 147.352908 
L 257.319099 129.271841 
L 257.488397 147.352908 
L 257.657696 129.268899 
L 257.826994 171.457075 
L 257.996293 147.349966 
L 258.165591 153.376008 
L 258.33489 153.37895 
L 258.504188 141.323924 
L 258.673487 159.404992 
L 258.842785 159.404992 
L 259.012084 117.219758 
L 259.181382 171.457075 
L 259.35068 159.402049 
L 259.519979 189.5352 
L 259.689277 135.297883 
L 260.027874 153.37895 
L 260.197173 129.277726 
L 260.366471 153.376008 
L 260.53577 159.402049 
L 260.705068 141.326867 
L 260.874366 153.376008 
L 261.043665 153.37895 
L 261.212963 159.402049 
L 261.382262 159.404992 
L 261.55156 141.323924 
L 261.720859 153.376008 
L 261.890157 177.480174 
L 262.059456 153.37895 
L 262.567351 153.381892 
L 262.736649 117.219758 
L 262.905948 147.352908 
L 263.075246 135.297883 
L 263.244545 159.402049 
L 263.413843 135.297883 
L 263.583142 147.349966 
L 263.75244 135.297883 
L 263.921739 165.431033 
L 264.091037 141.323924 
L 264.429634 159.402049 
L 264.598932 159.404992 
L 264.768231 123.248742 
L 264.937529 153.190636 
L 265.106828 147.161652 
L 265.276126 165.24272 
L 265.445425 129.080585 
L 265.614723 129.083527 
L 265.784022 171.268761 
L 265.95332 177.294803 
L 266.122618 171.265819 
L 266.461215 135.109569 
L 266.799812 177.294803 
L 266.969111 171.268761 
L 267.307708 129.083527 
L 267.477006 153.190636 
L 267.646305 159.216678 
L 268.1542 159.216678 
L 268.323498 135.109569 
L 268.492797 129.083527 
L 268.662095 177.294803 
L 268.831394 153.190636 
L 269.000692 159.216678 
L 269.169991 153.187694 
L 269.339289 159.213735 
L 269.508588 153.190636 
L 269.677886 153.187694 
L 269.847184 183.320845 
L 270.016483 147.161652 
L 270.185781 171.271704 
L 270.35508 129.083527 
L 270.524378 129.083527 
L 270.693677 165.24272 
L 270.862975 165.239777 
L 271.032274 153.190636 
L 271.201572 159.216678 
L 271.37087 189.346886 
L 271.709467 123.054543 
L 271.878766 171.268761 
L 272.048064 128.898156 
L 272.217363 177.106489 
L 272.386661 146.973338 
L 272.55596 140.950239 
L 272.725258 116.84313 
L 272.894557 146.976281 
L 273.063855 134.921255 
L 273.402452 159.028364 
L 273.57175 159.028364 
L 273.741049 146.976281 
L 273.910347 153.002322 
L 274.079646 153.002322 
L 274.248944 128.895213 
L 274.418243 134.921255 
L 274.587541 128.895213 
L 274.75684 159.028364 
L 274.926138 152.99938 
L 275.095436 128.895213 
L 275.264735 146.973338 
L 275.434033 183.132531 
L 275.603332 104.791047 
L 275.941929 171.080447 
L 276.111227 140.950239 
L 276.280526 140.950239 
L 276.449824 146.976281 
L 276.619122 189.15563 
L 276.788421 152.99938 
L 276.957719 146.973338 
L 277.127018 159.028364 
L 277.296316 122.872114 
L 277.465615 177.106489 
L 277.634913 134.921255 
L 277.804212 140.950239 
L 278.312107 195.184614 
L 278.650704 134.921255 
L 278.820002 128.895213 
L 279.327898 183.129588 
L 279.497196 140.947297 
L 279.666495 171.077505 
L 279.835793 153.002322 
L 280.005092 177.106489 
L 280.17439 146.973338 
L 280.343688 159.028364 
L 280.512987 122.872114 
L 281.020882 140.761925 
L 281.190181 152.814009 
L 281.359479 152.814009 
L 281.528778 158.84005 
L 281.698076 134.732941 
L 281.867374 158.84005 
L 282.036673 158.84005 
L 282.205971 146.785025 
L 282.37527 152.814009 
L 282.544568 146.787967 
L 282.713867 158.84005 
L 282.883165 128.7069 
L 283.391061 158.84005 
L 283.560359 134.732941 
L 283.729657 158.84005 
L 283.898956 134.732941 
L 284.237553 176.918175 
L 284.406851 140.758983 
L 284.745448 158.837108 
L 284.914747 140.758983 
L 285.084045 170.889191 
L 285.253344 140.758983 
L 285.422642 176.915233 
L 285.761239 146.785025 
L 285.930537 158.837108 
L 286.099836 128.7069 
L 286.269134 164.866092 
L 286.438433 152.814009 
L 286.607731 158.837108 
L 286.77703 140.758983 
L 286.946328 170.889191 
L 287.115626 164.86315 
L 287.284925 152.811066 
L 287.454223 158.837108 
L 287.623522 158.837108 
L 287.962119 128.7069 
L 288.131417 152.814009 
L 288.300716 128.7069 
L 288.470014 158.84005 
L 288.639313 164.866092 
L 288.808611 158.837108 
L 288.977909 128.7069 
L 289.316506 170.892134 
L 289.485805 134.732941 
L 289.655103 122.6838 
L 289.824402 128.7069 
L 289.9937 170.892134 
L 290.162999 152.814009 
L 290.332297 176.729861 
L 290.501595 128.518586 
L 290.840192 140.570669 
L 291.009491 158.648794 
L 291.178789 152.622752 
L 291.348088 158.648794 
L 291.517386 128.521528 
L 291.686685 134.544627 
L 291.855983 146.596711 
L 292.025282 140.573611 
L 292.19458 140.573611 
L 292.363878 146.602596 
L 292.702475 176.729861 
L 292.871774 170.700877 
L 293.041072 134.544627 
L 293.210371 182.755903 
L 293.379669 134.544627 
L 293.548968 134.544627 
L 293.718266 158.651736 
L 293.887565 146.599653 
L 294.226161 146.599653 
L 294.564758 122.492544 
L 294.734057 152.625695 
L 294.903355 134.544627 
L 295.072654 146.599653 
L 295.241952 122.492544 
L 295.411251 158.651736 
L 295.749847 140.573611 
L 295.919146 170.70382 
L 296.088444 122.492544 
L 296.257743 122.492544 
L 296.427041 134.541685 
L 296.59634 128.518586 
L 296.934937 170.70382 
L 297.104235 134.54757 
L 297.273534 146.599653 
L 297.442832 146.596711 
L 297.61213 134.544627 
L 297.781429 170.70382 
L 298.120026 122.492544 
L 298.289324 158.648794 
L 298.458623 170.70382 
L 298.627921 122.492544 
L 298.79722 128.518586 
L 298.966518 158.654679 
L 299.135817 158.651736 
L 299.305115 134.544627 
L 299.474413 140.573611 
L 299.643712 122.492544 
L 299.81301 146.599653 
L 299.982309 122.30423 
L 300.151607 146.411339 
L 300.490204 146.411339 
L 300.659503 170.515506 
L 300.828801 170.518448 
L 300.998099 146.411339 
L 301.167398 146.411339 
L 301.336696 122.30423 
L 301.675293 146.411339 
L 301.844592 146.408397 
L 302.01389 170.515506 
L 302.352487 122.30423 
L 302.521786 146.408397 
L 302.691084 122.307173 
L 302.860382 146.411339 
L 303.198979 146.411339 
L 303.368278 134.359256 
L 303.537576 134.359256 
L 303.706875 122.30423 
L 303.876173 152.437381 
L 304.045472 146.411339 
L 304.21477 170.515506 
L 304.384069 134.359256 
L 304.553367 134.359256 
L 304.722665 158.463423 
L 304.891964 116.281131 
L 305.061262 152.437381 
L 305.230561 158.463423 
L 305.399859 122.30423 
L 305.569158 122.30423 
L 305.738456 110.252147 
L 306.077053 140.385298 
L 306.246351 122.307173 
L 306.41565 122.30423 
L 306.584948 146.408397 
L 306.754247 146.411339 
L 306.923545 128.330272 
L 307.092844 158.463423 
L 307.262142 158.46048 
L 307.431441 146.411339 
L 307.770038 146.411339 
L 307.939336 140.385298 
L 308.108634 122.307173 
L 308.277933 122.30423 
L 308.447231 146.411339 
L 308.61653 152.437381 
L 308.785828 86.14798 
L 308.955127 146.411339 
L 309.124425 146.411339 
L 309.293724 170.515506 
L 309.463022 122.30423 
L 309.632321 146.411339 
L 309.801619 122.30423 
L 309.970917 158.272166 
L 310.140216 146.220083 
L 310.309514 146.223026 
L 310.478813 140.196984 
L 310.648111 122.118859 
L 310.81741 146.223026 
L 310.986708 122.115916 
L 311.494603 158.275109 
L 311.663902 158.275109 
L 311.8332 122.115916 
L 312.002499 158.275109 
L 312.341096 140.196984 
L 312.510394 146.225968 
L 312.679693 146.223026 
L 312.848991 158.275109 
L 313.01829 128.141958 
L 313.187588 146.223026 
L 313.356886 110.063833 
L 313.526185 116.089875 
L 313.695483 146.223026 
L 313.864782 152.249067 
L 314.03408 98.01175 
L 314.203379 110.063833 
L 314.372677 146.225968 
L 314.541976 158.275109 
L 315.049871 128.141958 
L 315.219169 122.115916 
L 315.388468 170.327192 
L 315.557766 122.115916 
L 315.727065 170.327192 
L 315.896363 134.168 
L 316.065662 140.196984 
L 316.23496 122.118859 
L 316.404259 122.115916 
L 316.573557 146.220083 
L 316.742855 146.223026 
L 317.081452 158.275109 
L 317.250751 170.327192 
L 317.420049 146.223026 
L 317.589348 170.327192 
L 317.758646 146.223026 
L 317.927945 170.327192 
L 318.097243 122.121801 
L 318.266542 146.223026 
L 318.43584 146.223026 
L 318.605138 122.115916 
L 318.943735 146.223026 
L 319.113034 146.223026 
L 319.282332 158.272166 
L 319.451631 134.168 
L 319.620929 146.034712 
L 319.790228 146.034712 
L 319.959526 97.826378 
L 320.128824 170.138878 
L 320.298123 121.927603 
L 320.467421 121.927603 
L 320.63672 133.982628 
L 320.806018 127.953644 
L 320.975317 146.034712 
L 321.144615 127.953644 
L 321.313914 146.034712 
L 321.483212 121.927603 
L 321.652511 158.083853 
L 321.991107 146.034712 
L 322.160406 121.927603 
L 322.499003 158.086795 
L 322.668301 146.031769 
L 322.8376 158.083853 
L 323.006898 127.953644 
L 323.176197 158.086795 
L 323.345495 133.982628 
L 323.514794 133.982628 
L 323.684092 121.927603 
L 323.85339 158.086795 
L 324.191987 121.927603 
L 324.361286 146.034712 
L 324.530584 133.979686 
L 324.869181 152.060753 
L 325.03848 152.060753 
L 325.207778 127.953644 
L 325.377076 152.060753 
L 325.546375 140.005728 
L 325.715673 158.086795 
L 325.884972 164.109894 
L 326.392867 127.953644 
L 326.562166 152.060753 
L 326.731464 133.979686 
L 327.070061 164.112837 
L 327.239359 127.953644 
L 327.408658 152.060753 
L 327.577956 127.953644 
L 327.747255 152.060753 
L 327.916553 121.927603 
L 328.085852 127.953644 
L 328.25515 158.086795 
L 328.424449 152.060753 
L 328.593747 133.982628 
L 328.763046 164.115779 
L 328.932344 152.057811 
L 329.101642 157.895539 
L 329.270941 139.820356 
L 329.440239 163.921581 
L 329.609538 127.765331 
L 329.778836 157.895539 
L 329.948135 133.791372 
L 330.117433 151.869497 
L 330.286732 127.765331 
L 330.45603 163.924523 
L 330.625328 151.87244 
L 330.794627 127.765331 
L 331.133224 151.87244 
L 331.302522 139.820356 
L 331.471821 145.843456 
L 331.641119 163.921581 
L 331.979716 163.924523 
L 332.318313 127.765331 
L 332.487611 163.924523 
L 332.65691 151.87244 
L 332.826208 127.762388 
L 332.995507 157.895539 
L 333.334104 127.765331 
L 333.503402 163.924523 
L 333.672701 127.771215 
L 333.841999 163.924523 
L 334.011298 157.895539 
L 334.180596 139.820356 
L 334.349894 151.869497 
L 334.519193 151.87244 
L 334.688491 182.002648 
L 334.85779 157.895539 
L 335.027088 157.898481 
L 335.196387 139.817414 
L 335.365685 169.950565 
L 335.534984 151.869497 
L 335.704282 163.924523 
L 335.87358 194.054731 
L 336.042879 145.846398 
L 336.212177 175.979549 
L 336.381476 133.791372 
L 336.720073 163.924523 
L 336.889371 127.765331 
L 337.05867 157.898481 
L 337.227968 151.87244 
L 337.397267 169.950565 
L 337.566565 127.768273 
L 337.735863 169.947622 
L 337.905162 157.898481 
L 338.07446 97.635122 
L 338.243759 151.869497 
L 338.582356 163.921581 
L 338.751654 151.87244 
L 338.920953 127.765331 
L 339.090251 163.736209 
L 339.25955 127.577017 
L 339.428848 145.658084 
L 339.598146 151.684126 
L 339.767445 181.814334 
L 339.936743 157.707225 
L 340.106042 151.681183 
L 340.27534 151.684126 
L 340.613937 127.577017 
L 340.783236 175.788292 
L 341.121832 133.603058 
L 341.291131 163.736209 
L 341.460429 157.71311 
L 341.629728 145.658084 
L 341.799026 145.658084 
L 341.968325 169.759308 
L 342.137623 151.684126 
L 342.306922 157.707225 
L 342.645519 127.577017 
L 342.814817 175.78535 
L 342.984115 157.710167 
L 343.153414 151.684126 
L 343.322712 169.762251 
L 343.492011 151.681183 
L 343.661309 157.707225 
L 343.830608 109.498892 
L 343.999906 157.707225 
L 344.169205 157.710167 
L 344.338503 151.684126 
L 344.507802 151.687068 
L 344.6771 175.788292 
L 345.015697 139.632042 
L 345.184995 151.681183 
L 345.354294 127.577017 
L 345.523592 133.603058 
L 345.692891 115.524933 
L 345.862189 151.684126 
L 346.031488 133.603058 
L 346.200786 175.788292 
L 346.370084 151.684126 
L 346.539383 151.681183 
L 346.708681 181.814334 
L 346.87798 145.655142 
L 347.047278 151.681183 
L 347.216577 169.762251 
L 347.385875 121.548033 
L 347.555174 151.681183 
L 347.893771 151.684126 
L 348.063069 157.710167 
L 348.232367 139.6291 
L 348.401666 133.603058 
L 348.570964 145.658084 
L 348.740263 145.658084 
L 348.909561 151.681183 
L 349.07886 121.550975 
L 349.248158 175.599979 
L 349.417457 145.472713 
L 349.586755 151.495812 
L 349.756053 127.388703 
L 350.09465 127.388703 
L 350.263949 151.495812 
L 350.433247 133.417687 
L 350.602546 151.495812 
L 350.771844 157.521854 
L 350.941143 181.62602 
L 351.110441 133.414745 
L 351.27974 139.440786 
L 351.449038 127.388703 
L 351.618336 127.388703 
L 351.787635 151.495812 
L 351.956933 121.362661 
L 352.126232 187.64912 
L 352.29553 151.495812 
L 352.464829 145.46977 
L 352.634127 121.362661 
L 352.803426 157.521854 
L 352.972724 163.547895 
L 353.142023 127.388703 
L 353.311321 133.414745 
L 353.480619 157.521854 
L 353.649918 151.495812 
L 353.819216 151.495812 
L 353.988515 175.597036 
L 354.157813 181.62602 
L 354.327112 169.573937 
L 354.665709 127.388703 
L 354.835007 127.391645 
L 355.173604 151.495812 
L 355.342902 133.417687 
L 355.512201 151.49287 
L 355.681499 151.495812 
L 355.850798 181.62602 
L 356.189395 133.414745 
L 356.358693 163.544953 
L 356.527992 163.547895 
L 356.69729 133.414745 
L 356.866588 151.495812 
L 357.035887 145.46977 
L 357.205185 121.362661 
L 357.374484 127.391645 
L 357.543782 145.46977 
L 357.713081 151.49287 
L 358.051678 151.49287 
L 358.220976 157.521854 
L 358.390275 157.521854 
L 358.559573 139.443729 
L 358.728871 139.440786 
L 359.067468 157.521854 
L 359.236767 151.304556 
L 359.406065 163.359582 
L 359.575364 127.200389 
L 359.744662 127.200389 
L 359.913961 139.255415 
L 360.083259 139.255415 
L 360.591154 175.411665 
L 360.760453 127.200389 
L 360.929751 163.359582 
L 361.09905 157.33354 
L 361.268348 139.252472 
L 361.437647 169.385623 
L 361.606945 115.151248 
L 361.945542 187.463748 
L 362.11484 121.174347 
L 362.284139 163.359582 
L 362.622736 127.200389 
L 362.792034 151.307498 
L 362.961333 127.200389 
L 363.130631 175.411665 
L 363.29993 175.411665 
L 363.469228 97.070181 
L 363.638527 115.148306 
L 363.807825 157.33354 
L 363.977123 157.33354 
L 364.146422 133.226431 
L 364.31572 163.359582 
L 364.485019 169.385623 
L 364.654317 151.304556 
L 364.992914 169.382681 
L 365.162213 145.281457 
L 365.500809 157.33354 
L 365.670108 127.197447 
L 365.839406 151.307498 
L 366.008705 127.200389 
L 366.178003 157.33354 
L 366.347302 151.304556 
L 366.5166 157.33354 
L 366.685899 115.151248 
L 367.193794 169.385623 
L 367.363092 127.200389 
L 367.532391 145.281457 
L 367.701689 175.414607 
L 367.870988 151.307498 
L 368.040286 151.307498 
L 368.209585 127.200389 
L 368.378883 151.307498 
L 368.548182 145.281457 
L 368.886779 157.330597 
L 369.056077 157.142284 
L 369.225375 157.145226 
L 369.394674 163.171268 
L 369.563972 139.064159 
L 369.733271 151.116242 
L 369.902569 151.119184 
L 370.071868 145.093143 
L 370.410465 127.012075 
L 370.579763 145.093143 
L 370.749061 145.093143 
L 371.087658 175.226293 
L 371.256957 145.0902 
L 371.426255 139.067101 
L 371.595554 120.986034 
L 371.934151 163.171268 
L 372.103449 145.093143 
L 372.272748 175.223351 
L 372.611344 139.064159 
L 372.780643 139.067101 
L 372.949941 145.0902 
L 373.11924 163.171268 
L 373.457837 133.041059 
L 373.627135 175.223351 
L 373.796434 139.067101 
L 373.965732 133.038117 
L 374.135031 157.145226 
L 374.304329 139.064159 
L 374.473627 175.223351 
L 374.642926 139.064159 
L 374.812224 151.119184 
L 374.981523 151.116242 
L 375.150821 120.986034 
L 375.32012 163.168325 
L 375.489418 163.171268 
L 375.658717 120.986034 
L 375.997313 175.223351 
L 376.166612 151.119184 
L 376.33591 42.647492 
L 376.505209 163.168325 
L 376.674507 133.038117 
L 376.843806 157.145226 
L 377.013104 102.907909 
L 377.351701 163.171268 
L 377.521 175.223351 
L 377.690298 139.064159 
L 377.859596 145.093143 
L 378.028895 127.012075 
L 378.198193 157.145226 
L 378.367492 145.093143 
L 378.53679 145.093143 
L 378.706089 175.223351 
L 378.875387 120.986034 
L 379.044686 163.171268 
L 379.213984 145.096085 
L 379.383282 150.930871 
L 379.552581 150.930871 
L 379.721879 126.823761 
L 380.060476 126.823761 
L 380.229775 120.800662 
L 380.399073 126.823761 
L 380.568372 162.982954 
L 380.73767 126.823761 
L 380.906969 144.904829 
L 381.076267 138.875845 
L 381.245565 162.982954 
L 381.584162 126.823761 
L 381.753461 120.79772 
L 381.922759 150.927928 
L 382.092058 156.956912 
L 382.261356 144.904829 
L 382.430655 150.927928 
L 382.599953 162.982954 
L 383.107848 120.79772 
L 383.277147 162.982954 
L 383.615744 144.904829 
L 383.785042 156.956912 
L 383.954341 156.956912 
L 384.123639 138.875845 
L 384.292938 156.956912 
L 384.462236 126.826704 
L 384.800833 181.061079 
L 384.970131 138.878787 
L 385.13943 150.927928 
L 385.308728 175.035037 
L 385.478027 169.006053 
L 385.647325 138.878787 
L 385.985922 175.035037 
L 386.155221 138.875845 
L 386.324519 150.930871 
L 386.493817 150.927928 
L 386.663116 144.904829 
L 387.001713 162.982954 
L 387.34031 120.79772 
L 387.509608 156.956912 
L 387.678907 126.823761 
L 387.848205 150.930871 
L 388.017504 132.849803 
L 388.186802 156.956912 
L 388.3561 138.878787 
L 388.525399 150.930871 
L 388.694697 144.904829 
L 388.863996 156.956912 
L 389.033294 156.956912 
L 389.202593 162.982954 
L 389.371891 126.823761 
L 389.54119 126.641332 
L 389.710488 174.846723 
L 390.049085 138.690473 
L 390.218383 174.843781 
L 390.387682 126.635448 
L 390.55698 132.661489 
L 390.726279 114.583364 
L 390.895577 150.742557 
L 391.064876 156.768598 
L 391.234174 150.739614 
L 391.403473 126.635448 
L 391.572771 150.739614 
L 391.742069 120.609406 
L 391.911368 144.713573 
L 392.080666 138.687531 
L 392.249965 156.768598 
L 392.419263 144.716515 
L 392.588562 150.739614 
L 392.75786 162.79464 
L 393.096457 132.661489 
L 393.265756 156.768598 
L 393.435054 114.583364 
L 393.604352 162.79464 
L 393.773651 156.765656 
L 393.942949 144.713573 
L 394.112248 144.713573 
L 394.281546 174.849666 
L 394.450845 150.739614 
L 394.620143 186.898807 
L 394.789442 138.690473 
L 394.95874 174.846723 
L 395.128038 126.635448 
L 395.466635 138.690473 
L 395.635934 138.687531 
L 395.805232 162.79464 
L 395.974531 138.687531 
L 396.143829 150.742557 
L 396.313128 150.739614 
L 396.482426 144.716515 
L 396.821023 162.79464 
L 396.990321 144.716515 
L 397.15962 144.716515 
L 397.328918 168.817739 
L 397.498217 162.79464 
L 397.836814 138.690473 
L 398.006112 144.716515 
L 398.175411 162.79464 
L 398.514008 144.716515 
L 398.683306 144.716515 
L 398.852604 156.768598 
L 399.021903 150.739614 
L 399.191201 198.762576 
L 399.3605 126.447134 
L 399.529798 168.632368 
L 399.699097 126.447134 
L 399.868395 150.554243 
L 400.037694 144.531144 
L 400.206992 126.447134 
L 400.37629 162.606326 
L 400.545589 138.50216 
L 400.714887 144.528201 
L 400.884186 138.499217 
L 401.053484 126.447134 
L 401.222783 150.551301 
L 401.392081 144.528201 
L 401.56138 132.473176 
L 401.730678 138.499217 
L 401.899977 120.421092 
L 402.069275 120.421092 
L 402.238573 156.580285 
L 402.407872 162.606326 
L 402.57717 162.606326 
L 402.746469 156.580285 
L 402.915767 156.580285 
L 403.085066 150.554243 
L 403.254364 126.447134 
L 403.423663 150.551301 
L 403.592961 132.470233 
L 403.76226 156.577342 
L 403.931558 126.447134 
L 404.100856 132.476118 
L 404.270155 126.453019 
L 404.608752 180.684451 
L 404.77805 138.50216 
L 404.947349 150.551301 
L 405.116647 150.554243 
L 405.285946 156.577342 
L 405.455244 156.580285 
L 405.624542 138.499217 
L 405.793841 162.606326 
L 405.963139 144.525259 
L 406.132438 150.551301 
L 406.301736 126.447134 
L 406.471035 168.629426 
L 406.809632 138.50216 
L 406.97893 144.528201 
L 407.148229 132.473176 
L 407.317527 150.554243 
L 407.656124 150.554243 
L 407.825422 132.473176 
L 407.994721 156.577342 
L 408.164019 150.554243 
L 408.333318 174.65841 
L 408.502616 174.65841 
L 408.671915 144.525259 
L 408.841213 168.632368 
L 409.17981 108.180695 
L 409.349108 174.473038 
L 409.518407 150.365929 
L 409.687705 150.365929 
L 409.857004 174.470096 
L 410.195601 132.287804 
L 410.364899 150.365929 
L 410.534198 180.496137 
L 410.872794 132.284862 
L 411.38069 150.362987 
L 411.549988 126.25882 
L 411.719287 168.441112 
L 412.057884 138.313846 
L 412.396481 186.522179 
L 412.565779 126.25882 
L 412.735077 120.232778 
L 412.904376 168.444054 
L 413.073674 144.339887 
L 413.242973 156.391971 
L 413.412271 150.362987 
L 413.58157 132.284862 
L 413.750868 150.365929 
L 413.920167 156.389028 
L 414.089465 144.339887 
L 414.258763 156.391971 
L 414.428062 180.496137 
L 414.59736 156.391971 
L 414.766659 150.362987 
L 414.935957 156.391971 
L 415.105256 126.261762 
L 415.274554 126.25882 
L 415.443853 180.496137 
L 415.613151 150.365929 
L 415.78245 162.418012 
L 415.951748 144.339887 
L 416.121046 150.362987 
L 416.290345 126.261762 
L 416.459643 174.467153 
L 416.628942 126.261762 
L 416.79824 168.441112 
L 416.967539 126.25882 
L 417.136837 162.418012 
L 417.306136 150.362987 
L 417.475434 150.365929 
L 417.644733 126.261762 
L 417.814031 174.470096 
L 417.983329 150.365929 
L 418.152628 156.389028 
L 418.321926 150.365929 
L 418.491225 138.310903 
L 418.660523 150.362987 
L 418.829822 126.25882 
L 418.99912 174.473038 
L 419.168419 132.284862 
L 419.507015 162.226756 
L 419.676314 186.333865 
L 419.845612 174.284724 
L 420.014911 150.177615 
L 420.184209 162.229699 
L 420.353508 150.174673 
L 420.522806 156.203657 
L 420.861403 138.12259 
L 421.030702 150.177615 
L 421.2 138.125532 
L 421.369298 150.177615 
L 421.369298 150.177615 
" style="fill:none;stroke:#1f77b4;stroke-linecap:square;stroke-width:1.5;"/>
   </g>
   <g id="patch_3">
    <path d="M 60.425 246.2 
L 60.425 14.8 
" style="fill:none;stroke:#000000;stroke-linecap:square;stroke-linejoin:miter;stroke-width:0.8;"/>
   </g>
   <g id="patch_4">
    <path d="M 421.2 246.2 
L 421.2 14.8 
" style="fill:none;stroke:#000000;stroke-linecap:square;stroke-linejoin:miter;stroke-width:0.8;"/>
   </g>
   <g id="patch_5">
    <path d="M 60.425 246.2 
L 421.2 246.2 
" style="fill:none;stroke:#000000;stroke-linecap:square;stroke-linejoin:miter;stroke-width:0.8;"/>
   </g>
   <g id="patch_6">
    <path d="M 60.425 14.8 
L 421.2 14.8 
" style="fill:none;stroke:#000000;stroke-linecap:square;stroke-linejoin:miter;stroke-width:0.8;"/>
   </g>
   <g id="legend_1">
    <g id="patch_7">
     <path d="M 362.160938 37.478125 
L 414.2 37.478125 
Q 416.2 37.478125 416.2 35.478125 
L 416.2 21.8 
Q 416.2 19.8 414.2 19.8 
L 362.160938 19.8 
Q 360.160938 19.8 360.160938 21.8 
L 360.160938 35.478125 
Q 360.160938 37.478125 362.160938 37.478125 
z
" style="fill:#ffffff;opacity:0.8;stroke:#cccccc;stroke-linejoin:miter;"/>
    </g>
    <g id="line2d_18">
     <path d="M 364.160938 27.898438 
L 384.160938 27.898438 
" style="fill:none;stroke:#1f77b4;stroke-linecap:square;stroke-width:1.5;"/>
    </g>
    <g id="line2d_19"/>
    <g id="text_19">
     <!-- VSZ -->
     <g transform="translate(392.160938 31.398438)scale(0.1 -0.1)">
      <use xlink:href="#DejaVuSans-86"/>
      <use x="68.408203" xlink:href="#DejaVuSans-83"/>
      <use x="131.884766" xlink:href="#DejaVuSans-90"/>
     </g>
    </g>
   </g>
  </g>
 </g>
 <defs>
  <clipPath id="p61c8dad344">
   <rect height="231.4" width="360.775" x="60.425" y="14.8"/>
  </clipPath>
 </defs>
</svg>
